%TF.GenerationSoftware,KiCad,Pcbnew,10.0.6*%
%TF.CreationDate,2026-09-17T10:40:40+08:00*%
%TF.ProjectId,stm32f4-dev-module,73746d33-3266-4342-9d64-65762d6d6f64,rev?*%
%TF.SameCoordinates,Original*%
%TF.FileFunction,Paste,Top*%
%TF.FilePolarity,Positive*%
%FSLAX46Y46*%
G04 Gerber Fmt 4.6, Leading zero omitted, Abs format (unit mm)*
G04 Created by KiCad (PCBNEW 10.0.6) date 2026-09-17 10:40:40*
%MOMM*%
%LPD*%
G01*
G04 APERTURE LIST*
G04 Aperture macros list*
%AMRoundRect*
0 Rectangle with rounded corners*
0 $1 Rounding radius*
0 $2 $3 $4 $5 $6 $7 $8 $9 X,Y pos of 4 corners*
0 Add a 4 corners polygon primitive as box body*
4,1,4,$2,$3,$4,$5,$6,$7,$8,$9,$2,$3,0*
0 Add four circle primitives for the rounded corners*
1,1,$1+$1,$2,$3*
1,1,$1+$1,$4,$5*
1,1,$1+$1,$6,$7*
1,1,$1+$1,$8,$9*
0 Add four rect primitives between the rounded corners*
20,1,$1+$1,$2,$3,$4,$5,0*
20,1,$1+$1,$4,$5,$6,$7,0*
20,1,$1+$1,$6,$7,$8,$9,0*
20,1,$1+$1,$8,$9,$2,$3,0*%
G04 Aperture macros list end*
%ADD10RoundRect,0.140000X0.170000X-0.140000X0.170000X0.140000X-0.170000X0.140000X-0.170000X-0.140000X0*%
%ADD11RoundRect,0.200000X0.200000X0.275000X-0.200000X0.275000X-0.200000X-0.275000X0.200000X-0.275000X0*%
%ADD12RoundRect,0.140000X0.140000X0.170000X-0.140000X0.170000X-0.140000X-0.170000X0.140000X-0.170000X0*%
%ADD13RoundRect,0.162500X0.617500X0.162500X-0.617500X0.162500X-0.617500X-0.162500X0.617500X-0.162500X0*%
%ADD14RoundRect,0.140000X-0.170000X0.140000X-0.170000X-0.140000X0.170000X-0.140000X0.170000X0.140000X0*%
%ADD15RoundRect,0.147500X-0.172500X0.147500X-0.172500X-0.147500X0.172500X-0.147500X0.172500X0.147500X0*%
%ADD16RoundRect,0.225000X-0.225000X-0.250000X0.225000X-0.250000X0.225000X0.250000X-0.225000X0.250000X0*%
%ADD17RoundRect,0.135000X-0.135000X-0.185000X0.135000X-0.185000X0.135000X0.185000X-0.135000X0.185000X0*%
%ADD18RoundRect,0.140000X-0.140000X-0.170000X0.140000X-0.170000X0.140000X0.170000X-0.140000X0.170000X0*%
%ADD19R,1.200000X0.650000*%
%ADD20RoundRect,0.135000X0.185000X-0.135000X0.185000X0.135000X-0.185000X0.135000X-0.185000X-0.135000X0*%
%ADD21RoundRect,0.218750X0.218750X0.256250X-0.218750X0.256250X-0.218750X-0.256250X0.218750X-0.256250X0*%
%ADD22RoundRect,0.135000X0.135000X0.185000X-0.135000X0.185000X-0.135000X-0.185000X0.135000X-0.185000X0*%
%ADD23RoundRect,0.150000X0.625000X-0.150000X0.625000X0.150000X-0.625000X0.150000X-0.625000X-0.150000X0*%
%ADD24RoundRect,0.250000X0.650000X-0.350000X0.650000X0.350000X-0.650000X0.350000X-0.650000X-0.350000X0*%
%ADD25RoundRect,0.250000X-0.830000X-0.310000X0.830000X-0.310000X0.830000X0.310000X-0.830000X0.310000X0*%
%ADD26RoundRect,0.135000X-0.185000X0.135000X-0.185000X-0.135000X0.185000X-0.135000X0.185000X0.135000X0*%
%ADD27RoundRect,0.225000X-0.250000X0.225000X-0.250000X-0.225000X0.250000X-0.225000X0.250000X0.225000X0*%
%ADD28RoundRect,0.250000X-0.350000X0.450000X-0.350000X-0.450000X0.350000X-0.450000X0.350000X0.450000X0*%
%ADD29RoundRect,0.225000X0.250000X-0.225000X0.250000X0.225000X-0.250000X0.225000X-0.250000X-0.225000X0*%
%ADD30RoundRect,0.150000X0.512500X0.150000X-0.512500X0.150000X-0.512500X-0.150000X0.512500X-0.150000X0*%
%ADD31RoundRect,0.150000X0.825000X0.150000X-0.825000X0.150000X-0.825000X-0.150000X0.825000X-0.150000X0*%
%ADD32RoundRect,0.150000X0.470000X-0.150000X0.470000X0.150000X-0.470000X0.150000X-0.470000X-0.150000X0*%
%ADD33RoundRect,0.075000X0.545000X-0.075000X0.545000X0.075000X-0.545000X0.075000X-0.545000X-0.075000X0*%
%ADD34RoundRect,0.075000X-0.700000X-0.075000X0.700000X-0.075000X0.700000X0.075000X-0.700000X0.075000X0*%
%ADD35RoundRect,0.075000X-0.075000X-0.700000X0.075000X-0.700000X0.075000X0.700000X-0.075000X0.700000X0*%
G04 APERTURE END LIST*
D10*
%TO.C,C13*%
X161250000Y-101950000D03*
X161250000Y-100990000D03*
%TD*%
D11*
%TO.C,R6*%
X138900000Y-94250000D03*
X137250000Y-94250000D03*
%TD*%
D12*
%TO.C,C1*%
X143230000Y-115500000D03*
X142270000Y-115500000D03*
%TD*%
D13*
%TO.C,U4*%
X163750000Y-115200000D03*
X163750000Y-114250000D03*
X163750000Y-113300000D03*
X161050000Y-113300000D03*
X161050000Y-115200000D03*
%TD*%
D14*
%TO.C,C24*%
X161000000Y-108520000D03*
X161000000Y-109480000D03*
%TD*%
D15*
%TO.C,D1*%
X162000000Y-116580000D03*
X162000000Y-117550000D03*
%TD*%
D16*
%TO.C,C20*%
X159200000Y-111500000D03*
X160750000Y-111500000D03*
%TD*%
D17*
%TO.C,R1*%
X121480000Y-97000000D03*
X122500000Y-97000000D03*
%TD*%
D18*
%TO.C,C9*%
X134500000Y-107750000D03*
X135460000Y-107750000D03*
%TD*%
D19*
%TO.C,SW5*%
X124600000Y-119924900D03*
X128900000Y-119924900D03*
X124600000Y-122075100D03*
X128900000Y-122075100D03*
%TD*%
D10*
%TO.C,C10*%
X136250000Y-104210000D03*
X136250000Y-103250000D03*
%TD*%
D20*
%TO.C,R9*%
X130500000Y-119500000D03*
X130500000Y-118480000D03*
%TD*%
D21*
%TO.C,FB1*%
X136250000Y-109000000D03*
X134675000Y-109000000D03*
%TD*%
D20*
%TO.C,R11*%
X139500000Y-119520000D03*
X139500000Y-118500000D03*
%TD*%
D17*
%TO.C,R3*%
X140740000Y-98000000D03*
X141760000Y-98000000D03*
%TD*%
D22*
%TO.C,R12*%
X138250000Y-118500000D03*
X137230000Y-118500000D03*
%TD*%
D12*
%TO.C,C23*%
X141750000Y-114500000D03*
X140790000Y-114500000D03*
%TD*%
D23*
%TO.C,J1*%
X165375000Y-96500000D03*
X165375000Y-95500000D03*
X165375000Y-94500000D03*
X165375000Y-93500000D03*
D24*
X169250000Y-97800000D03*
X169250000Y-92200000D03*
%TD*%
D25*
%TO.C,SW1*%
X115270000Y-93500000D03*
X122000000Y-93500000D03*
%TD*%
D14*
%TO.C,C22*%
X139000000Y-111270000D03*
X139000000Y-112230000D03*
%TD*%
D10*
%TO.C,C11*%
X136250000Y-106500000D03*
X136250000Y-105540000D03*
%TD*%
D19*
%TO.C,SW7*%
X167900000Y-122650200D03*
X163600000Y-122650200D03*
X167900000Y-120500000D03*
X163600000Y-120500000D03*
%TD*%
D12*
%TO.C,C21*%
X139000000Y-95500000D03*
X138040000Y-95500000D03*
%TD*%
D26*
%TO.C,R5*%
X137250000Y-96500000D03*
X137250000Y-97520000D03*
%TD*%
D27*
%TO.C,C15*%
X159000000Y-115550000D03*
X159000000Y-117100000D03*
%TD*%
D20*
%TO.C,R4*%
X137250000Y-93000000D03*
X137250000Y-91980000D03*
%TD*%
D28*
%TO.C,Y1*%
X132800000Y-103760000D03*
X132800000Y-105960000D03*
X134500000Y-105960000D03*
X134500000Y-103760000D03*
%TD*%
D22*
%TO.C,R10*%
X129250000Y-118500000D03*
X128230000Y-118500000D03*
%TD*%
D29*
%TO.C,C14*%
X165750000Y-115575000D03*
X165750000Y-114025000D03*
%TD*%
D14*
%TO.C,C16*%
X149500000Y-93000000D03*
X149500000Y-93960000D03*
%TD*%
D10*
%TO.C,C7*%
X138750000Y-109000000D03*
X138750000Y-108040000D03*
%TD*%
D30*
%TO.C,U2*%
X160000000Y-106200000D03*
X160000000Y-105250000D03*
X160000000Y-104300000D03*
X157725000Y-104300000D03*
X157725000Y-105250000D03*
X157725000Y-106200000D03*
%TD*%
D18*
%TO.C,C2*%
X138270000Y-102500000D03*
X139230000Y-102500000D03*
%TD*%
D26*
%TO.C,R2*%
X160750000Y-116550000D03*
X160750000Y-117570000D03*
%TD*%
D16*
%TO.C,C6*%
X138220000Y-101000000D03*
X139770000Y-101000000D03*
%TD*%
D19*
%TO.C,SW6*%
X133350000Y-119924900D03*
X137650000Y-119924900D03*
X133350000Y-122075100D03*
X137650000Y-122075100D03*
%TD*%
D26*
%TO.C,R7*%
X159000000Y-100980000D03*
X159000000Y-102000000D03*
%TD*%
D31*
%TO.C,U3*%
X147475000Y-96655000D03*
X147475000Y-95385000D03*
X147475000Y-94115000D03*
X147475000Y-92845000D03*
X142525000Y-92845000D03*
X142525000Y-94115000D03*
X142525000Y-95385000D03*
X142525000Y-96655000D03*
%TD*%
D10*
%TO.C,C8*%
X137750000Y-109000000D03*
X137750000Y-108040000D03*
%TD*%
%TO.C,C4*%
X153750000Y-102460000D03*
X153750000Y-101500000D03*
%TD*%
D14*
%TO.C,C17*%
X150500000Y-93000000D03*
X150500000Y-93960000D03*
%TD*%
D29*
%TO.C,C18*%
X155250000Y-103525000D03*
X155250000Y-101975000D03*
%TD*%
D32*
%TO.C,J7*%
X163000000Y-108450000D03*
X163000000Y-107650000D03*
D33*
X163000000Y-106500000D03*
X163000000Y-105500000D03*
X163000000Y-105000000D03*
X163000000Y-104000000D03*
D32*
X163000000Y-102850000D03*
X163000000Y-102050000D03*
X163000000Y-102050000D03*
X163000000Y-102850000D03*
D33*
X163000000Y-103500000D03*
X163000000Y-104500000D03*
X163000000Y-106000000D03*
X163000000Y-107000000D03*
D32*
X163000000Y-107650000D03*
X163000000Y-108450000D03*
%TD*%
D16*
%TO.C,C19*%
X150450000Y-116000000D03*
X152000000Y-116000000D03*
%TD*%
D18*
%TO.C,C5*%
X151040000Y-114500000D03*
X152000000Y-114500000D03*
%TD*%
%TO.C,C3*%
X141790000Y-100000000D03*
X142750000Y-100000000D03*
%TD*%
D34*
%TO.C,U1*%
X140650000Y-103500000D03*
X140650000Y-104000000D03*
X140650000Y-104500000D03*
X140650000Y-105000000D03*
X140650000Y-105500000D03*
X140650000Y-106000000D03*
X140650000Y-106500000D03*
X140650000Y-107000000D03*
X140650000Y-107500000D03*
X140650000Y-108000000D03*
X140650000Y-108500000D03*
X140650000Y-109000000D03*
X140650000Y-109500000D03*
X140650000Y-110000000D03*
X140650000Y-110500000D03*
X140650000Y-111000000D03*
D35*
X142575000Y-112925000D03*
X143075000Y-112925000D03*
X143575000Y-112925000D03*
X144075000Y-112925000D03*
X144575000Y-112925000D03*
X145075000Y-112925000D03*
X145575000Y-112925000D03*
X146075000Y-112925000D03*
X146575000Y-112925000D03*
X147075000Y-112925000D03*
X147575000Y-112925000D03*
X148075000Y-112925000D03*
X148575000Y-112925000D03*
X149075000Y-112925000D03*
X149575000Y-112925000D03*
X150075000Y-112925000D03*
D34*
X152000000Y-111000000D03*
X152000000Y-110500000D03*
X152000000Y-110000000D03*
X152000000Y-109500000D03*
X152000000Y-109000000D03*
X152000000Y-108500000D03*
X152000000Y-108000000D03*
X152000000Y-107500000D03*
X152000000Y-107000000D03*
X152000000Y-106500000D03*
X152000000Y-106000000D03*
X152000000Y-105500000D03*
X152000000Y-105000000D03*
X152000000Y-104500000D03*
X152000000Y-104000000D03*
X152000000Y-103500000D03*
D35*
X150075000Y-101575000D03*
X149575000Y-101575000D03*
X149075000Y-101575000D03*
X148575000Y-101575000D03*
X148075000Y-101575000D03*
X147575000Y-101575000D03*
X147075000Y-101575000D03*
X146575000Y-101575000D03*
X146075000Y-101575000D03*
X145575000Y-101575000D03*
X145075000Y-101575000D03*
X144575000Y-101575000D03*
X144075000Y-101575000D03*
X143575000Y-101575000D03*
X143075000Y-101575000D03*
X142575000Y-101575000D03*
%TD*%
D20*
%TO.C,R8*%
X158750000Y-109500000D03*
X158750000Y-108480000D03*
%TD*%
M02*
