%TF.GenerationSoftware,KiCad,Pcbnew,10.0.6*%
%TF.CreationDate,2026-09-17T10:40:40+08:00*%
%TF.ProjectId,stm32f4-dev-module,73746d33-3266-4342-9d64-65762d6d6f64,rev?*%
%TF.SameCoordinates,Original*%
%TF.FileFunction,Copper,L4,Bot*%
%TF.FilePolarity,Positive*%
%FSLAX46Y46*%
G04 Gerber Fmt 4.6, Leading zero omitted, Abs format (unit mm)*
G04 Created by KiCad (PCBNEW 10.0.6) date 2026-09-17 10:40:40*
%MOMM*%
%LPD*%
G01*
G04 APERTURE LIST*
G04 Aperture macros list*
%AMRoundRect*
0 Rectangle with rounded corners*
0 $1 Rounding radius*
0 $2 $3 $4 $5 $6 $7 $8 $9 X,Y pos of 4 corners*
0 Add a 4 corners polygon primitive as box body*
4,1,4,$2,$3,$4,$5,$6,$7,$8,$9,$2,$3,0*
0 Add four circle primitives for the rounded corners*
1,1,$1+$1,$2,$3*
1,1,$1+$1,$4,$5*
1,1,$1+$1,$6,$7*
1,1,$1+$1,$8,$9*
0 Add four rect primitives between the rounded corners*
20,1,$1+$1,$2,$3,$4,$5,0*
20,1,$1+$1,$4,$5,$6,$7,0*
20,1,$1+$1,$6,$7,$8,$9,0*
20,1,$1+$1,$8,$9,$2,$3,0*%
G04 Aperture macros list end*
%TA.AperFunction,ComponentPad*%
%ADD10R,1.700000X1.700000*%
%TD*%
%TA.AperFunction,ComponentPad*%
%ADD11C,1.700000*%
%TD*%
%TA.AperFunction,ComponentPad*%
%ADD12RoundRect,0.250000X0.750000X0.750000X-0.750000X0.750000X-0.750000X-0.750000X0.750000X-0.750000X0*%
%TD*%
%TA.AperFunction,ComponentPad*%
%ADD13C,2.000000*%
%TD*%
%TA.AperFunction,ComponentPad*%
%ADD14O,2.100000X1.000000*%
%TD*%
%TA.AperFunction,ComponentPad*%
%ADD15O,1.800000X1.000000*%
%TD*%
%TA.AperFunction,ViaPad*%
%ADD16C,0.600000*%
%TD*%
%TA.AperFunction,Conductor*%
%ADD17C,0.300000*%
%TD*%
G04 APERTURE END LIST*
D10*
%TO.P,J9,1,Pin_1_1*%
%TO.N,TIM1_CH3*%
X159750000Y-119975000D03*
D11*
%TO.P,J9,2,Pin_2_2*%
%TO.N,TIM1_CH3N*%
X159750000Y-122515000D03*
%TO.P,J9,3,Pin_3_3*%
%TO.N,TIM1_CH2*%
X157210000Y-119975000D03*
%TO.P,J9,4,Pin_4_4*%
%TO.N,TIM1_CH2N*%
X157210000Y-122515000D03*
%TO.P,J9,5,Pin_5_5*%
%TO.N,TIM1_CH1*%
X154670000Y-119975000D03*
%TO.P,J9,6,Pin_6_6*%
%TO.N,TIM1_CH1N*%
X154670000Y-122515000D03*
%TD*%
D10*
%TO.P,J5,1,Pin_1_1*%
%TO.N,+5V*%
X168500000Y-116790000D03*
D11*
%TO.P,J5,2,Pin_2_2*%
%TO.N,GND*%
X168500000Y-114250000D03*
%TD*%
D10*
%TO.P,J6,1,Pin_1_1*%
%TO.N,GND*%
X123500000Y-111290000D03*
D11*
%TO.P,J6,2,Pin_2_2*%
%TO.N,+5V*%
X123500000Y-108750000D03*
%TO.P,J6,3,Pin_3_3*%
%TO.N,I2C2_SCL*%
X123500000Y-106210000D03*
%TO.P,J6,4,Pin_4_4*%
%TO.N,I2C2_SDA*%
X123500000Y-103670000D03*
%TD*%
D12*
%TO.P,J10,1,Pin_1_1*%
%TO.N,GND*%
X134000000Y-94750000D03*
D13*
%TO.P,J10,2,Pin_2_2*%
%TO.N,/CANL*%
X130190000Y-94750000D03*
%TO.P,J10,3,Pin_3_3*%
%TO.N,/CANH*%
X126380000Y-94750000D03*
%TD*%
D10*
%TO.P,J11,1,Pin_1_1*%
%TO.N,+3.3V*%
X115960000Y-99000000D03*
D11*
%TO.P,J11,2,Pin_2_2*%
X118500000Y-99000000D03*
%TO.P,J11,3,Pin_3_3*%
%TO.N,+5V*%
X115960000Y-101540000D03*
%TO.P,J11,4,Pin_4_4*%
X118500000Y-101540000D03*
%TO.P,J11,5,Pin_5_5*%
%TO.N,GND*%
X115960000Y-104080000D03*
%TO.P,J11,6,Pin_6_6*%
X118500000Y-104080000D03*
%TO.P,J11,7,Pin_7_7*%
%TO.N,PB4*%
X115960000Y-106620000D03*
%TO.P,J11,8,Pin_8_8*%
%TO.N,PB3*%
X118500000Y-106620000D03*
%TO.P,J11,9,Pin_9_9*%
%TO.N,PC12*%
X115960000Y-109160000D03*
%TO.P,J11,10,Pin_10_10*%
%TO.N,PC2*%
X118500000Y-109160000D03*
%TO.P,J11,11,Pin_11_11*%
%TO.N,PC3*%
X115960000Y-111700000D03*
%TO.P,J11,12,Pin_12_12*%
%TO.N,PA0*%
X118500000Y-111700000D03*
%TO.P,J11,13,Pin_13_13*%
%TO.N,PA1*%
X115960000Y-114240000D03*
%TO.P,J11,14,Pin_14_14*%
%TO.N,PC9*%
X118500000Y-114240000D03*
%TO.P,J11,15,Pin_15_15*%
%TO.N,PC8*%
X115960000Y-116780000D03*
%TO.P,J11,16,Pin_16_16*%
%TO.N,PC7*%
X118500000Y-116780000D03*
%TO.P,J11,17,Pin_17_17*%
%TO.N,PC6*%
X115960000Y-119320000D03*
%TO.P,J11,18,Pin_18_18*%
%TO.N,PB15*%
X118500000Y-119320000D03*
%TO.P,J11,19,Pin_19_19*%
%TO.N,PB14*%
X115960000Y-121860000D03*
%TO.P,J11,20,Pin_20_20*%
%TO.N,PB12*%
X118500000Y-121860000D03*
%TD*%
D14*
%TO.P,J7,SH,SHIELD_SH*%
%TO.N,GND*%
X163600000Y-109570000D03*
D15*
X167800000Y-109570000D03*
D14*
X163600000Y-100930000D03*
D15*
X167800000Y-100930000D03*
%TD*%
D10*
%TO.P,J3,1,Pin_1_1*%
%TO.N,GND*%
X160790000Y-92500000D03*
D11*
%TO.P,J3,2,Pin_2_2*%
%TO.N,+3.3V*%
X158250000Y-92500000D03*
%TO.P,J3,3,Pin_3_3*%
%TO.N,I2C1_SCL*%
X155710000Y-92500000D03*
%TO.P,J3,4,Pin_4_4*%
%TO.N,I2C1_SDA*%
X153170000Y-92500000D03*
%TD*%
D10*
%TO.P,J8,1,Pin_1_1*%
%TO.N,GND*%
X160790000Y-96750000D03*
D11*
%TO.P,J8,2,Pin_2_2*%
%TO.N,+3.3V*%
X158250000Y-96750000D03*
%TO.P,J8,3,Pin_3_3*%
%TO.N,USART3_TX*%
X155710000Y-96750000D03*
%TO.P,J8,4,Pin_4_4*%
%TO.N,USART3_RX*%
X153170000Y-96750000D03*
%TD*%
D10*
%TO.P,J4,1,Pin_1_1*%
%TO.N,+3.3V*%
X149460000Y-119975000D03*
D11*
%TO.P,J4,2,Pin_2_2*%
%TO.N,SPI1_MOSI*%
X149460000Y-122515000D03*
%TO.P,J4,3,Pin_3_3*%
%TO.N,GND*%
X146920000Y-119975000D03*
%TO.P,J4,4,Pin_4_4*%
%TO.N,SPI1_MISO*%
X146920000Y-122515000D03*
%TO.P,J4,5,Pin_5_5*%
%TO.N,SPI1_CLK*%
X144380000Y-119975000D03*
%TO.P,J4,6,Pin_6_6*%
%TO.N,SPI1_CS*%
X144380000Y-122515000D03*
%TD*%
D16*
%TO.N,+5V*%
X164750000Y-119000000D03*
X164500000Y-108000000D03*
X165500000Y-102500000D03*
X168500000Y-119250000D03*
X158250000Y-107250000D03*
X160000000Y-108500000D03*
X157250000Y-108500000D03*
X157250000Y-103000000D03*
X164750000Y-117000000D03*
X158250000Y-103000000D03*
X164750000Y-118000000D03*
X157750000Y-100750000D03*
X160250000Y-102000000D03*
X165750000Y-118000000D03*
X158000000Y-111500000D03*
X166750000Y-115500000D03*
X166250000Y-117250000D03*
X165500000Y-108000000D03*
X164500000Y-102500000D03*
X157250000Y-111500000D03*
X157250000Y-110000000D03*
X164500000Y-107250000D03*
X161000000Y-102750000D03*
X165500000Y-103250000D03*
X156500000Y-105250000D03*
X163750000Y-119000000D03*
X160750000Y-107750000D03*
X164250000Y-116250000D03*
X165750000Y-116550000D03*
X164500000Y-103250000D03*
X157250000Y-107250000D03*
X165500000Y-107250000D03*
X157250000Y-101750000D03*
X163750000Y-118000000D03*
%TO.N,GND*%
X163250000Y-117050000D03*
X128000000Y-113250000D03*
X159000000Y-100150000D03*
X133250000Y-113250000D03*
X131250000Y-107500000D03*
X146500000Y-116250000D03*
X135000000Y-112000000D03*
X141500000Y-122250000D03*
X161000000Y-110250000D03*
X154000000Y-100750000D03*
X126000000Y-102750000D03*
X157750000Y-116800000D03*
X129750000Y-112000000D03*
X146292310Y-114876930D03*
X123750000Y-100250000D03*
X138750000Y-107250000D03*
X142500000Y-97750000D03*
X136250000Y-105000000D03*
X123000000Y-122250000D03*
X129500000Y-105000000D03*
X161250000Y-105250000D03*
X127250000Y-100250000D03*
X134250000Y-100250000D03*
X135000000Y-113250000D03*
X152000000Y-117250000D03*
X132750000Y-107250000D03*
X150500000Y-94750000D03*
X131250000Y-102750000D03*
X148000000Y-117750000D03*
X127750000Y-102750000D03*
X142757638Y-102839853D03*
X140000000Y-123500000D03*
X129500000Y-107500000D03*
X140000000Y-121000000D03*
X136250000Y-107750000D03*
X122000000Y-100250000D03*
X128000000Y-112000000D03*
X139750000Y-100000000D03*
X136250000Y-102500000D03*
X136750000Y-112000000D03*
X131750000Y-119750000D03*
X141500000Y-123500000D03*
X152000000Y-113750000D03*
X134500000Y-102500000D03*
X127750000Y-107500000D03*
X155250000Y-101000000D03*
X131750000Y-122250000D03*
X162000000Y-111500000D03*
X161209311Y-100150000D03*
X132500000Y-100250000D03*
X136000000Y-100250000D03*
X131500000Y-113250000D03*
X138250000Y-112250000D03*
X141500000Y-121000000D03*
X123000000Y-119750000D03*
X158750000Y-110250000D03*
X130750000Y-100250000D03*
X133250000Y-112000000D03*
X131250000Y-105000000D03*
X141250000Y-113750000D03*
X126000000Y-107500000D03*
X131500000Y-112000000D03*
X169250000Y-120500000D03*
X126000000Y-113250000D03*
X121000000Y-98000000D03*
X129500000Y-102750000D03*
X169250000Y-122750000D03*
X129750000Y-113250000D03*
X137750000Y-107250000D03*
X165750000Y-113050000D03*
X138469669Y-96469669D03*
X129000000Y-100250000D03*
X141500000Y-119750000D03*
X126000000Y-105000000D03*
X142000000Y-116250000D03*
X141500000Y-118500000D03*
X136750000Y-113250000D03*
X163750000Y-93500000D03*
X125500000Y-100250000D03*
X147250000Y-117000000D03*
X141896496Y-109242213D03*
X127750000Y-105000000D03*
X140000000Y-122250000D03*
%TO.N,+3.3V*%
X150500000Y-92250000D03*
X159000000Y-113250000D03*
X156750000Y-114250000D03*
X127500000Y-118500000D03*
X156750000Y-113250000D03*
X157750000Y-114250000D03*
X161000000Y-114250000D03*
X153000000Y-102500000D03*
X133750000Y-109250000D03*
X141000000Y-100000000D03*
X157750000Y-115300000D03*
X114750000Y-96250000D03*
X156750000Y-115250000D03*
X138250000Y-100000000D03*
X156750000Y-116250000D03*
X136500000Y-118500000D03*
X151000000Y-113750000D03*
X163750000Y-94500000D03*
X143575000Y-111750000D03*
X159794239Y-114205761D03*
%TO.N,TIM1_CH3N*%
X158000000Y-123750000D03*
X155750000Y-123750000D03*
%TO.N,/NRST*%
X161975478Y-118345000D03*
X145250000Y-105250000D03*
%TO.N,I2C2_SCL*%
X143250000Y-106000000D03*
%TO.N,I2C2_SDA*%
X144000000Y-103500000D03*
%TO.N,CAN1_Rx*%
X145250000Y-97750000D03*
X145250000Y-95750000D03*
%TO.N,PC2*%
X142750000Y-107000000D03*
%TO.N,PC3*%
X142750000Y-108500000D03*
%TO.N,PB12*%
X150500000Y-111500000D03*
%TO.N,PB14*%
X150000000Y-110750000D03*
%TO.N,PB15*%
X150001355Y-109928361D03*
%TO.N,PC6*%
X149995278Y-109128382D03*
%TO.N,PC7*%
X149951127Y-108289605D03*
%TO.N,PC8*%
X150000000Y-107459620D03*
%TO.N,PC9*%
X150000000Y-106500000D03*
%TO.N,PC12*%
X148500000Y-103250000D03*
%TO.N,PB3*%
X147750000Y-100250000D03*
%TO.N,PB4*%
X147750000Y-99250000D03*
%TO.N,/BOOT0*%
X145250000Y-99000000D03*
X142250000Y-99000000D03*
%TD*%
%TO.N,TIM1_CH3N*%
D17*
X155750000Y-123750000D02*
X158000000Y-123750000D01*
%TO.N,/NRST*%
X162000000Y-118320478D02*
X162000000Y-117330761D01*
X162000000Y-117330761D02*
X149919239Y-105250000D01*
X149919239Y-105250000D02*
X145250000Y-105250000D01*
X161975478Y-118345000D02*
X162000000Y-118320478D01*
%TO.N,I2C2_SCL*%
X143250000Y-106000000D02*
X123710000Y-106000000D01*
X123710000Y-106000000D02*
X123500000Y-106210000D01*
%TO.N,I2C2_SDA*%
X123670000Y-103500000D02*
X123500000Y-103670000D01*
X144000000Y-103500000D02*
X123670000Y-103500000D01*
%TO.N,CAN1_Rx*%
X145250000Y-95750000D02*
X145250000Y-97750000D01*
%TO.N,PC2*%
X142750000Y-107000000D02*
X142250000Y-106500000D01*
X124907057Y-106500000D02*
X123857057Y-107550000D01*
X142250000Y-106500000D02*
X124907057Y-106500000D01*
X120110000Y-107550000D02*
X118500000Y-109160000D01*
X123857057Y-107550000D02*
X120110000Y-107550000D01*
%TO.N,PC3*%
X142750000Y-108500000D02*
X125447057Y-108500000D01*
X123857057Y-110090000D02*
X119407057Y-110090000D01*
X117160000Y-110500000D02*
X115960000Y-111700000D01*
X119407057Y-110090000D02*
X118997057Y-110500000D01*
X125447057Y-108500000D02*
X123857057Y-110090000D01*
X118997057Y-110500000D02*
X117160000Y-110500000D01*
%TO.N,PB12*%
X150500000Y-111500000D02*
X148750000Y-111500000D01*
X122610000Y-117750000D02*
X118500000Y-121860000D01*
X142500000Y-117750000D02*
X122610000Y-117750000D01*
X148750000Y-111500000D02*
X142500000Y-117750000D01*
%TO.N,PB14*%
X150000000Y-110750000D02*
X148750000Y-110750000D01*
X148750000Y-110750000D02*
X142250000Y-117250000D01*
X118997057Y-120520000D02*
X117300000Y-120520000D01*
X142250000Y-117250000D02*
X122267057Y-117250000D01*
X122267057Y-117250000D02*
X118997057Y-120520000D01*
X117300000Y-120520000D02*
X115960000Y-121860000D01*
%TO.N,PB15*%
X150001355Y-109928361D02*
X147321639Y-109928361D01*
X140500000Y-116750000D02*
X121070000Y-116750000D01*
X121070000Y-116750000D02*
X118500000Y-119320000D01*
X147321639Y-109928361D02*
X140500000Y-116750000D01*
%TO.N,PC6*%
X118992893Y-118120000D02*
X117160000Y-118120000D01*
X147371618Y-109128382D02*
X140250000Y-116250000D01*
X117160000Y-118120000D02*
X115960000Y-119320000D01*
X120862893Y-116250000D02*
X118992893Y-118120000D01*
X140250000Y-116250000D02*
X120862893Y-116250000D01*
X149995278Y-109128382D02*
X147371618Y-109128382D01*
%TO.N,PC7*%
X119530000Y-115750000D02*
X118500000Y-116780000D01*
X149951127Y-108289605D02*
X145791156Y-108289605D01*
X138330761Y-115750000D02*
X119530000Y-115750000D01*
X145791156Y-108289605D02*
X138330761Y-115750000D01*
%TO.N,PC8*%
X150000000Y-107459620D02*
X145790380Y-107459620D01*
X117160000Y-115580000D02*
X115960000Y-116780000D01*
X118992894Y-115580000D02*
X117160000Y-115580000D01*
X138000000Y-115250000D02*
X119322893Y-115250000D01*
X119322893Y-115250000D02*
X118992894Y-115580000D01*
X145790380Y-107459620D02*
X138000000Y-115250000D01*
%TO.N,PC9*%
X138250000Y-114250000D02*
X138240000Y-114240000D01*
X146000000Y-106500000D02*
X138250000Y-114250000D01*
X150000000Y-106500000D02*
X146000000Y-106500000D01*
X138240000Y-114240000D02*
X118500000Y-114240000D01*
%TO.N,PC12*%
X117160000Y-107960000D02*
X115960000Y-109160000D01*
X148500000Y-103250000D02*
X147500000Y-104250000D01*
X118857057Y-107960000D02*
X117160000Y-107960000D01*
X121807057Y-105010000D02*
X118857057Y-107960000D01*
X124750000Y-104250000D02*
X123990000Y-105010000D01*
X147500000Y-104250000D02*
X124750000Y-104250000D01*
X123990000Y-105010000D02*
X121807057Y-105010000D01*
%TO.N,PB3*%
X123270000Y-101850000D02*
X118500000Y-106620000D01*
X147750000Y-100250000D02*
X146150000Y-101850000D01*
X146150000Y-101850000D02*
X123270000Y-101850000D01*
%TO.N,PB4*%
X118997057Y-105280000D02*
X117300000Y-105280000D01*
X122927057Y-101350000D02*
X118997057Y-105280000D01*
X145650000Y-101350000D02*
X122927057Y-101350000D01*
X117300000Y-105280000D02*
X115960000Y-106620000D01*
X147750000Y-99250000D02*
X145650000Y-101350000D01*
%TO.N,/BOOT0*%
X145250000Y-99000000D02*
X142250000Y-99000000D01*
%TD*%
%TA.AperFunction,Conductor*%
%TO.N,GND*%
G36*
X146454075Y-120167993D02*
G01*
X146519901Y-120282007D01*
X146612993Y-120375099D01*
X146727007Y-120440925D01*
X146790590Y-120457962D01*
X146158282Y-121090269D01*
X146158282Y-121090270D01*
X146212452Y-121129626D01*
X146212451Y-121129626D01*
X146221495Y-121134234D01*
X146272292Y-121182208D01*
X146289087Y-121250029D01*
X146266550Y-121316164D01*
X146221499Y-121355202D01*
X146212182Y-121359949D01*
X146040213Y-121484890D01*
X145889890Y-121635213D01*
X145764949Y-121807182D01*
X145760484Y-121815946D01*
X145712509Y-121866742D01*
X145644688Y-121883536D01*
X145578553Y-121860998D01*
X145539516Y-121815946D01*
X145535050Y-121807182D01*
X145410109Y-121635213D01*
X145259786Y-121484890D01*
X145087820Y-121359951D01*
X145087115Y-121359591D01*
X145079054Y-121355485D01*
X145028259Y-121307512D01*
X145011463Y-121239692D01*
X145033999Y-121173556D01*
X145079054Y-121134515D01*
X145087816Y-121130051D01*
X145174138Y-121067335D01*
X145259786Y-121005109D01*
X145259788Y-121005106D01*
X145259792Y-121005104D01*
X145410104Y-120854792D01*
X145410106Y-120854788D01*
X145410109Y-120854786D01*
X145477515Y-120762007D01*
X145535051Y-120682816D01*
X145539793Y-120673508D01*
X145587763Y-120622711D01*
X145655583Y-120605911D01*
X145721719Y-120628445D01*
X145760763Y-120673500D01*
X145765373Y-120682547D01*
X145804728Y-120736716D01*
X146437037Y-120104408D01*
X146454075Y-120167993D01*
G37*
%TD.AperFunction*%
%TA.AperFunction,Conductor*%
G36*
X148073181Y-120774628D02*
G01*
X148106666Y-120835951D01*
X148109500Y-120862300D01*
X148109500Y-120872865D01*
X148109501Y-120872876D01*
X148115908Y-120932483D01*
X148166202Y-121067328D01*
X148166206Y-121067335D01*
X148252452Y-121182544D01*
X148252455Y-121182547D01*
X148367664Y-121268793D01*
X148367671Y-121268797D01*
X148499082Y-121317810D01*
X148555016Y-121359681D01*
X148579433Y-121425145D01*
X148564582Y-121493418D01*
X148543431Y-121521673D01*
X148429889Y-121635215D01*
X148304949Y-121807182D01*
X148300484Y-121815946D01*
X148252509Y-121866742D01*
X148184688Y-121883536D01*
X148118553Y-121860998D01*
X148079516Y-121815946D01*
X148075050Y-121807182D01*
X147950109Y-121635213D01*
X147799786Y-121484890D01*
X147627817Y-121359949D01*
X147618504Y-121355204D01*
X147567707Y-121307230D01*
X147550912Y-121239409D01*
X147573449Y-121173274D01*
X147618507Y-121134232D01*
X147627555Y-121129622D01*
X147681716Y-121090270D01*
X147681717Y-121090270D01*
X147049408Y-120457962D01*
X147112993Y-120440925D01*
X147227007Y-120375099D01*
X147320099Y-120282007D01*
X147385925Y-120167993D01*
X147402962Y-120104409D01*
X148073181Y-120774628D01*
G37*
%TD.AperFunction*%
%TA.AperFunction,Conductor*%
G36*
X147768871Y-110598546D02*
G01*
X147814626Y-110651350D01*
X147824570Y-110720508D01*
X147795545Y-110784064D01*
X147789513Y-110790541D01*
X144898945Y-113681109D01*
X142016873Y-116563181D01*
X141955550Y-116596666D01*
X141929192Y-116599500D01*
X141869808Y-116599500D01*
X141802769Y-116579815D01*
X141757014Y-116527011D01*
X141747070Y-116457853D01*
X141776095Y-116394297D01*
X141782127Y-116387819D01*
X147554766Y-110615180D01*
X147616089Y-110581695D01*
X147642447Y-110578861D01*
X147701832Y-110578861D01*
X147768871Y-110598546D01*
G37*
%TD.AperFunction*%
%TA.AperFunction,Conductor*%
G36*
X142892152Y-112211067D02*
G01*
X142948085Y-112252939D01*
X142951917Y-112258354D01*
X142953207Y-112260284D01*
X142953213Y-112260292D01*
X143048806Y-112355885D01*
X143082291Y-112417208D01*
X143077307Y-112486900D01*
X143048806Y-112531247D01*
X140016873Y-115563181D01*
X139955550Y-115596666D01*
X139929192Y-115599500D01*
X139700569Y-115599500D01*
X139633530Y-115579815D01*
X139587775Y-115527011D01*
X139577831Y-115457853D01*
X139606856Y-115394297D01*
X139612888Y-115387819D01*
X140371535Y-114629172D01*
X142761139Y-112239566D01*
X142822460Y-112206083D01*
X142892152Y-112211067D01*
G37*
%TD.AperFunction*%
%TA.AperFunction,Conductor*%
G36*
X132892539Y-109170185D02*
G01*
X132938294Y-109222989D01*
X132949500Y-109274500D01*
X132949500Y-109328846D01*
X132980261Y-109483489D01*
X132980264Y-109483501D01*
X133040602Y-109629172D01*
X133040609Y-109629185D01*
X133128210Y-109760288D01*
X133128213Y-109760292D01*
X133239707Y-109871786D01*
X133239711Y-109871789D01*
X133370814Y-109959390D01*
X133370827Y-109959397D01*
X133516498Y-110019735D01*
X133516503Y-110019737D01*
X133617326Y-110039792D01*
X133671153Y-110050499D01*
X133671156Y-110050500D01*
X133671158Y-110050500D01*
X133828844Y-110050500D01*
X133828845Y-110050499D01*
X133983497Y-110019737D01*
X134129179Y-109959394D01*
X134260289Y-109871789D01*
X134371789Y-109760289D01*
X134459394Y-109629179D01*
X134462854Y-109620827D01*
X134484533Y-109568487D01*
X134519737Y-109483497D01*
X134550500Y-109328842D01*
X134550500Y-109274500D01*
X134570185Y-109207461D01*
X134622989Y-109161706D01*
X134674500Y-109150500D01*
X142130191Y-109150500D01*
X142197230Y-109170185D01*
X142242985Y-109222989D01*
X142252929Y-109292147D01*
X142223904Y-109355703D01*
X142217872Y-109362181D01*
X138026873Y-113553181D01*
X137965550Y-113586666D01*
X137939192Y-113589500D01*
X119759618Y-113589500D01*
X119692579Y-113569815D01*
X119658900Y-113535408D01*
X119657915Y-113536125D01*
X119530109Y-113360213D01*
X119379786Y-113209890D01*
X119207820Y-113084951D01*
X119207115Y-113084591D01*
X119199054Y-113080485D01*
X119148259Y-113032512D01*
X119131463Y-112964692D01*
X119153999Y-112898556D01*
X119199054Y-112859515D01*
X119207816Y-112855051D01*
X119229789Y-112839086D01*
X119379786Y-112730109D01*
X119379788Y-112730106D01*
X119379792Y-112730104D01*
X119530104Y-112579792D01*
X119530106Y-112579788D01*
X119530109Y-112579786D01*
X119655048Y-112407820D01*
X119655047Y-112407820D01*
X119655051Y-112407816D01*
X119751557Y-112218412D01*
X119817246Y-112016243D01*
X119850500Y-111806287D01*
X119850500Y-111593713D01*
X119817246Y-111383757D01*
X119751557Y-111181588D01*
X119655051Y-110992184D01*
X119620416Y-110944514D01*
X119596937Y-110878709D01*
X119612762Y-110810655D01*
X119633060Y-110783941D01*
X119640197Y-110776806D01*
X119701525Y-110743330D01*
X119727866Y-110740500D01*
X122026000Y-110740500D01*
X122093039Y-110760185D01*
X122138794Y-110812989D01*
X122150000Y-110864500D01*
X122150000Y-111040000D01*
X123066988Y-111040000D01*
X123034075Y-111097007D01*
X123000000Y-111224174D01*
X123000000Y-111355826D01*
X123034075Y-111482993D01*
X123066988Y-111540000D01*
X122150000Y-111540000D01*
X122150000Y-112187844D01*
X122156401Y-112247372D01*
X122156403Y-112247379D01*
X122206645Y-112382086D01*
X122206649Y-112382093D01*
X122292809Y-112497187D01*
X122292812Y-112497190D01*
X122407906Y-112583350D01*
X122407913Y-112583354D01*
X122542620Y-112633596D01*
X122542627Y-112633598D01*
X122602155Y-112639999D01*
X122602172Y-112640000D01*
X123250000Y-112640000D01*
X123250000Y-111723012D01*
X123307007Y-111755925D01*
X123434174Y-111790000D01*
X123565826Y-111790000D01*
X123692993Y-111755925D01*
X123750000Y-111723012D01*
X123750000Y-112640000D01*
X124397828Y-112640000D01*
X124397844Y-112639999D01*
X124457372Y-112633598D01*
X124457379Y-112633596D01*
X124592086Y-112583354D01*
X124592093Y-112583350D01*
X124707187Y-112497190D01*
X124707190Y-112497187D01*
X124793350Y-112382093D01*
X124793354Y-112382086D01*
X124843596Y-112247379D01*
X124843598Y-112247372D01*
X124849999Y-112187844D01*
X124850000Y-112187827D01*
X124850000Y-111540000D01*
X123933012Y-111540000D01*
X123965925Y-111482993D01*
X124000000Y-111355826D01*
X124000000Y-111224174D01*
X123965925Y-111097007D01*
X123933012Y-111040000D01*
X124850000Y-111040000D01*
X124850000Y-110392172D01*
X124849999Y-110392155D01*
X124843598Y-110332627D01*
X124843596Y-110332620D01*
X124790254Y-110189601D01*
X124791781Y-110189031D01*
X124779100Y-110130735D01*
X124803516Y-110065270D01*
X124815096Y-110051906D01*
X125680184Y-109186819D01*
X125741507Y-109153334D01*
X125767865Y-109150500D01*
X132825500Y-109150500D01*
X132892539Y-109170185D01*
G37*
%TD.AperFunction*%
%TA.AperFunction,Conductor*%
G36*
X141930161Y-107170185D02*
G01*
X141975916Y-107222989D01*
X141977784Y-107227930D01*
X141977932Y-107227869D01*
X142040602Y-107379172D01*
X142040609Y-107379185D01*
X142128210Y-107510288D01*
X142128213Y-107510292D01*
X142239708Y-107621787D01*
X142240621Y-107622397D01*
X142240991Y-107622839D01*
X142244419Y-107625653D01*
X142243885Y-107626303D01*
X142285427Y-107676010D01*
X142294134Y-107745334D01*
X142263980Y-107808362D01*
X142204537Y-107845082D01*
X142171731Y-107849500D01*
X125382986Y-107849500D01*
X125257318Y-107874497D01*
X125257308Y-107874500D01*
X125208277Y-107894810D01*
X125138938Y-107923530D01*
X125138920Y-107923540D01*
X125032389Y-107994721D01*
X124887079Y-108140031D01*
X124825756Y-108173515D01*
X124756064Y-108168531D01*
X124700131Y-108126659D01*
X124688913Y-108108643D01*
X124655050Y-108042182D01*
X124561504Y-107913426D01*
X124538024Y-107847620D01*
X124553850Y-107779566D01*
X124574137Y-107752864D01*
X125140184Y-107186819D01*
X125201507Y-107153334D01*
X125227865Y-107150500D01*
X141863122Y-107150500D01*
X141930161Y-107170185D01*
G37*
%TD.AperFunction*%
%TA.AperFunction,Conductor*%
G36*
X144419282Y-104920185D02*
G01*
X144465037Y-104972989D01*
X144474981Y-105042147D01*
X144473860Y-105048692D01*
X144449500Y-105171155D01*
X144449500Y-105328846D01*
X144480261Y-105483489D01*
X144480264Y-105483501D01*
X144540602Y-105629172D01*
X144540609Y-105629185D01*
X144628210Y-105760288D01*
X144628213Y-105760292D01*
X144739707Y-105871786D01*
X144739711Y-105871789D01*
X144870814Y-105959390D01*
X144870827Y-105959397D01*
X144956113Y-105994723D01*
X145016503Y-106019737D01*
X145171153Y-106050499D01*
X145171156Y-106050500D01*
X145230191Y-106050500D01*
X145297230Y-106070185D01*
X145342985Y-106122989D01*
X145352929Y-106192147D01*
X145323904Y-106255703D01*
X145317872Y-106262181D01*
X143566169Y-108013883D01*
X143504846Y-108047368D01*
X143435154Y-108042384D01*
X143379221Y-108000512D01*
X143375388Y-107995096D01*
X143371790Y-107989712D01*
X143371786Y-107989707D01*
X143260292Y-107878213D01*
X143260284Y-107878207D01*
X143222712Y-107853102D01*
X143177906Y-107799490D01*
X143169199Y-107730165D01*
X143199353Y-107667138D01*
X143222712Y-107646898D01*
X143255483Y-107625000D01*
X143260289Y-107621789D01*
X143371789Y-107510289D01*
X143459394Y-107379179D01*
X143462854Y-107370827D01*
X143514755Y-107245525D01*
X143519737Y-107233497D01*
X143550500Y-107078842D01*
X143550500Y-106921158D01*
X143550500Y-106921155D01*
X143537426Y-106855431D01*
X143543653Y-106785840D01*
X143586515Y-106730662D01*
X143611589Y-106716679D01*
X143629179Y-106709394D01*
X143760289Y-106621789D01*
X143871789Y-106510289D01*
X143959394Y-106379179D01*
X144019737Y-106233497D01*
X144050500Y-106078842D01*
X144050500Y-105921158D01*
X144050500Y-105921155D01*
X144050499Y-105921153D01*
X144045050Y-105893759D01*
X144019737Y-105766503D01*
X144015411Y-105756059D01*
X143959397Y-105620827D01*
X143959390Y-105620814D01*
X143871789Y-105489711D01*
X143871786Y-105489707D01*
X143760292Y-105378213D01*
X143760288Y-105378210D01*
X143629185Y-105290609D01*
X143629172Y-105290602D01*
X143483501Y-105230264D01*
X143483489Y-105230261D01*
X143328845Y-105199500D01*
X143328842Y-105199500D01*
X143171158Y-105199500D01*
X143171155Y-105199500D01*
X143016510Y-105230261D01*
X143016498Y-105230264D01*
X142870827Y-105290602D01*
X142870820Y-105290606D01*
X142852640Y-105302754D01*
X142813955Y-105328602D01*
X142747279Y-105349480D01*
X142745065Y-105349500D01*
X124869808Y-105349500D01*
X124802769Y-105329815D01*
X124757014Y-105277011D01*
X124747070Y-105207853D01*
X124776095Y-105144297D01*
X124782127Y-105137819D01*
X124983127Y-104936819D01*
X125044450Y-104903334D01*
X125070808Y-104900500D01*
X144352243Y-104900500D01*
X144419282Y-104920185D01*
G37*
%TD.AperFunction*%
%TA.AperFunction,Conductor*%
G36*
X117301444Y-102193999D02*
G01*
X117340484Y-102239054D01*
X117344591Y-102247115D01*
X117344951Y-102247820D01*
X117469890Y-102419786D01*
X117620213Y-102570109D01*
X117792179Y-102695048D01*
X117792181Y-102695049D01*
X117792184Y-102695051D01*
X117801493Y-102699794D01*
X117852290Y-102747766D01*
X117869087Y-102815587D01*
X117846552Y-102881722D01*
X117801505Y-102920760D01*
X117792446Y-102925376D01*
X117792440Y-102925380D01*
X117738282Y-102964727D01*
X117738282Y-102964728D01*
X118370591Y-103597037D01*
X118307007Y-103614075D01*
X118192993Y-103679901D01*
X118099901Y-103772993D01*
X118034075Y-103887007D01*
X118017037Y-103950591D01*
X117384728Y-103318282D01*
X117384727Y-103318282D01*
X117345380Y-103372440D01*
X117340483Y-103382051D01*
X117292506Y-103432845D01*
X117224684Y-103449638D01*
X117158550Y-103427098D01*
X117119516Y-103382048D01*
X117114626Y-103372452D01*
X117075270Y-103318282D01*
X117075269Y-103318282D01*
X116442962Y-103950590D01*
X116425925Y-103887007D01*
X116360099Y-103772993D01*
X116267007Y-103679901D01*
X116152993Y-103614075D01*
X116089409Y-103597037D01*
X116721716Y-102964728D01*
X116667547Y-102925373D01*
X116667547Y-102925372D01*
X116658500Y-102920763D01*
X116607706Y-102872788D01*
X116590912Y-102804966D01*
X116613451Y-102738832D01*
X116658508Y-102699793D01*
X116667816Y-102695051D01*
X116759814Y-102628211D01*
X116839786Y-102570109D01*
X116839788Y-102570106D01*
X116839792Y-102570104D01*
X116990104Y-102419792D01*
X116990106Y-102419788D01*
X116990109Y-102419786D01*
X117115048Y-102247820D01*
X117115047Y-102247820D01*
X117115051Y-102247816D01*
X117119514Y-102239054D01*
X117167488Y-102188259D01*
X117235308Y-102171463D01*
X117301444Y-102193999D01*
G37*
%TD.AperFunction*%
%TA.AperFunction,Conductor*%
G36*
X143764849Y-102520185D02*
G01*
X143810604Y-102572989D01*
X143820548Y-102642147D01*
X143791523Y-102705703D01*
X143745262Y-102739061D01*
X143620827Y-102790602D01*
X143620820Y-102790606D01*
X143599330Y-102804966D01*
X143563955Y-102828602D01*
X143497279Y-102849480D01*
X143495065Y-102849500D01*
X124636364Y-102849500D01*
X124569325Y-102829815D01*
X124536046Y-102798386D01*
X124530105Y-102790209D01*
X124452077Y-102712181D01*
X124418592Y-102650858D01*
X124423576Y-102581166D01*
X124465448Y-102525233D01*
X124530912Y-102500816D01*
X124539758Y-102500500D01*
X143697810Y-102500500D01*
X143764849Y-102520185D01*
G37*
%TD.AperFunction*%
%TA.AperFunction,Conductor*%
G36*
X169506059Y-90751097D02*
G01*
X169525086Y-90752970D01*
X169634070Y-90763705D01*
X169657906Y-90768447D01*
X169775137Y-90804009D01*
X169779476Y-90806852D01*
X169797592Y-90813310D01*
X169905627Y-90871056D01*
X169925839Y-90884561D01*
X170020535Y-90962276D01*
X170037723Y-90979464D01*
X170115438Y-91074160D01*
X170128943Y-91094372D01*
X170186688Y-91202405D01*
X170187004Y-91203293D01*
X170187343Y-91203646D01*
X170195990Y-91224862D01*
X170231552Y-91342093D01*
X170236295Y-91365934D01*
X170248903Y-91493937D01*
X170249500Y-91506092D01*
X170249500Y-124493905D01*
X170248903Y-124506060D01*
X170236295Y-124634065D01*
X170231552Y-124657906D01*
X170195990Y-124775137D01*
X170186688Y-124797594D01*
X170128943Y-124905627D01*
X170115438Y-124925839D01*
X170037723Y-125020535D01*
X170020535Y-125037723D01*
X169925839Y-125115438D01*
X169905627Y-125128943D01*
X169797594Y-125186688D01*
X169796703Y-125187005D01*
X169796352Y-125187343D01*
X169775137Y-125195990D01*
X169657906Y-125231552D01*
X169634065Y-125236295D01*
X169506060Y-125248903D01*
X169493905Y-125249500D01*
X113256095Y-125249500D01*
X113243940Y-125248903D01*
X113115934Y-125236295D01*
X113092093Y-125231552D01*
X112974862Y-125195990D01*
X112952405Y-125186688D01*
X112844372Y-125128943D01*
X112824160Y-125115438D01*
X112729464Y-125037723D01*
X112712276Y-125020535D01*
X112634561Y-124925839D01*
X112621056Y-124905627D01*
X112563311Y-124797594D01*
X112562993Y-124796703D01*
X112562656Y-124796352D01*
X112554009Y-124775137D01*
X112518447Y-124657906D01*
X112513705Y-124634070D01*
X112501097Y-124506059D01*
X112500500Y-124493905D01*
X112500500Y-98102135D01*
X114609500Y-98102135D01*
X114609500Y-99897870D01*
X114609501Y-99897876D01*
X114615908Y-99957483D01*
X114666202Y-100092328D01*
X114666206Y-100092335D01*
X114752452Y-100207544D01*
X114752455Y-100207547D01*
X114867664Y-100293793D01*
X114867671Y-100293797D01*
X114999082Y-100342810D01*
X115055016Y-100384681D01*
X115079433Y-100450145D01*
X115064582Y-100518418D01*
X115043431Y-100546673D01*
X114929889Y-100660215D01*
X114804951Y-100832179D01*
X114708444Y-101021585D01*
X114642753Y-101223760D01*
X114619462Y-101370814D01*
X114609500Y-101433713D01*
X114609500Y-101646287D01*
X114613439Y-101671155D01*
X114638414Y-101828846D01*
X114642754Y-101856243D01*
X114707477Y-102055440D01*
X114708444Y-102058414D01*
X114804951Y-102247820D01*
X114929890Y-102419786D01*
X115080213Y-102570109D01*
X115252179Y-102695048D01*
X115252181Y-102695049D01*
X115252184Y-102695051D01*
X115261493Y-102699794D01*
X115312290Y-102747766D01*
X115329087Y-102815587D01*
X115306552Y-102881722D01*
X115261505Y-102920760D01*
X115252446Y-102925376D01*
X115252440Y-102925380D01*
X115198282Y-102964727D01*
X115198282Y-102964728D01*
X115830591Y-103597037D01*
X115767007Y-103614075D01*
X115652993Y-103679901D01*
X115559901Y-103772993D01*
X115494075Y-103887007D01*
X115477037Y-103950591D01*
X114844728Y-103318282D01*
X114844727Y-103318282D01*
X114805380Y-103372439D01*
X114708904Y-103561782D01*
X114643242Y-103763869D01*
X114643242Y-103763872D01*
X114610000Y-103973753D01*
X114610000Y-104186246D01*
X114643242Y-104396127D01*
X114643242Y-104396130D01*
X114708904Y-104598217D01*
X114805375Y-104787550D01*
X114844728Y-104841716D01*
X115477037Y-104209408D01*
X115494075Y-104272993D01*
X115559901Y-104387007D01*
X115652993Y-104480099D01*
X115767007Y-104545925D01*
X115830590Y-104562962D01*
X115198282Y-105195269D01*
X115198282Y-105195270D01*
X115252452Y-105234626D01*
X115252451Y-105234626D01*
X115261495Y-105239234D01*
X115312292Y-105287208D01*
X115329087Y-105355029D01*
X115306550Y-105421164D01*
X115261499Y-105460202D01*
X115252182Y-105464949D01*
X115080213Y-105589890D01*
X114929890Y-105740213D01*
X114804951Y-105912179D01*
X114708444Y-106101585D01*
X114642753Y-106303760D01*
X114609500Y-106513713D01*
X114609500Y-106726286D01*
X114640364Y-106921158D01*
X114642754Y-106936243D01*
X114705128Y-107128211D01*
X114708444Y-107138414D01*
X114804951Y-107327820D01*
X114929890Y-107499786D01*
X115080213Y-107650109D01*
X115252182Y-107775050D01*
X115260946Y-107779516D01*
X115311742Y-107827491D01*
X115328536Y-107895312D01*
X115305998Y-107961447D01*
X115260946Y-108000484D01*
X115252182Y-108004949D01*
X115080213Y-108129890D01*
X114929890Y-108280213D01*
X114804951Y-108452179D01*
X114708444Y-108641585D01*
X114708443Y-108641587D01*
X114708443Y-108641588D01*
X114689591Y-108699609D01*
X114642753Y-108843760D01*
X114627494Y-108940105D01*
X114609500Y-109053713D01*
X114609500Y-109266287D01*
X114614500Y-109297853D01*
X114642332Y-109473582D01*
X114642754Y-109476243D01*
X114689732Y-109620827D01*
X114708444Y-109678414D01*
X114804951Y-109867820D01*
X114929890Y-110039786D01*
X115080213Y-110190109D01*
X115252182Y-110315050D01*
X115260946Y-110319516D01*
X115311742Y-110367491D01*
X115328536Y-110435312D01*
X115305998Y-110501447D01*
X115260946Y-110540484D01*
X115252182Y-110544949D01*
X115080213Y-110669890D01*
X114929890Y-110820213D01*
X114804951Y-110992179D01*
X114708444Y-111181585D01*
X114642753Y-111383760D01*
X114609500Y-111593713D01*
X114609500Y-111806286D01*
X114641810Y-112010288D01*
X114642754Y-112016243D01*
X114706056Y-112211067D01*
X114708444Y-112218414D01*
X114804951Y-112407820D01*
X114929890Y-112579786D01*
X115080213Y-112730109D01*
X115252182Y-112855050D01*
X115260946Y-112859516D01*
X115311742Y-112907491D01*
X115328536Y-112975312D01*
X115305998Y-113041447D01*
X115260946Y-113080484D01*
X115252182Y-113084949D01*
X115080213Y-113209890D01*
X114929890Y-113360213D01*
X114804951Y-113532179D01*
X114708444Y-113721585D01*
X114642753Y-113923760D01*
X114609500Y-114133713D01*
X114609500Y-114346286D01*
X114636971Y-114519735D01*
X114642754Y-114556243D01*
X114705209Y-114748460D01*
X114708444Y-114758414D01*
X114804951Y-114947820D01*
X114929890Y-115119786D01*
X115080213Y-115270109D01*
X115252182Y-115395050D01*
X115260946Y-115399516D01*
X115311742Y-115447491D01*
X115328536Y-115515312D01*
X115305998Y-115581447D01*
X115260946Y-115620484D01*
X115252182Y-115624949D01*
X115080213Y-115749890D01*
X114929890Y-115900213D01*
X114804951Y-116072179D01*
X114708444Y-116261585D01*
X114642753Y-116463760D01*
X114609500Y-116673713D01*
X114609500Y-116886286D01*
X114639468Y-117075500D01*
X114642754Y-117096243D01*
X114705905Y-117290602D01*
X114708444Y-117298414D01*
X114804951Y-117487820D01*
X114929890Y-117659786D01*
X115080213Y-117810109D01*
X115252182Y-117935050D01*
X115260946Y-117939516D01*
X115311742Y-117987491D01*
X115328536Y-118055312D01*
X115305998Y-118121447D01*
X115260946Y-118160484D01*
X115252182Y-118164949D01*
X115080213Y-118289890D01*
X114929890Y-118440213D01*
X114804951Y-118612179D01*
X114708444Y-118801585D01*
X114708443Y-118801587D01*
X114708443Y-118801588D01*
X114692318Y-118851214D01*
X114642753Y-119003760D01*
X114609500Y-119213713D01*
X114609500Y-119426286D01*
X114640464Y-119621789D01*
X114642754Y-119636243D01*
X114696124Y-119800499D01*
X114708444Y-119838414D01*
X114804951Y-120027820D01*
X114929890Y-120199786D01*
X115080213Y-120350109D01*
X115252182Y-120475050D01*
X115260946Y-120479516D01*
X115311742Y-120527491D01*
X115328536Y-120595312D01*
X115305998Y-120661447D01*
X115260946Y-120700484D01*
X115252182Y-120704949D01*
X115080213Y-120829890D01*
X114929890Y-120980213D01*
X114804951Y-121152179D01*
X114708444Y-121341585D01*
X114642753Y-121543760D01*
X114628268Y-121635215D01*
X114609500Y-121753713D01*
X114609500Y-121966287D01*
X114642754Y-122176243D01*
X114650070Y-122198760D01*
X114708444Y-122378414D01*
X114804951Y-122567820D01*
X114929890Y-122739786D01*
X115080213Y-122890109D01*
X115252179Y-123015048D01*
X115252181Y-123015049D01*
X115252184Y-123015051D01*
X115441588Y-123111557D01*
X115643757Y-123177246D01*
X115853713Y-123210500D01*
X115853714Y-123210500D01*
X116066286Y-123210500D01*
X116066287Y-123210500D01*
X116276243Y-123177246D01*
X116478412Y-123111557D01*
X116667816Y-123015051D01*
X116720671Y-122976650D01*
X116839786Y-122890109D01*
X116839788Y-122890106D01*
X116839792Y-122890104D01*
X116990104Y-122739792D01*
X116990106Y-122739788D01*
X116990109Y-122739786D01*
X117115048Y-122567820D01*
X117115047Y-122567820D01*
X117115051Y-122567816D01*
X117119514Y-122559054D01*
X117167488Y-122508259D01*
X117235308Y-122491463D01*
X117301444Y-122513999D01*
X117340486Y-122559056D01*
X117344951Y-122567820D01*
X117469890Y-122739786D01*
X117620213Y-122890109D01*
X117792179Y-123015048D01*
X117792181Y-123015049D01*
X117792184Y-123015051D01*
X117981588Y-123111557D01*
X118183757Y-123177246D01*
X118393713Y-123210500D01*
X118393714Y-123210500D01*
X118606286Y-123210500D01*
X118606287Y-123210500D01*
X118816243Y-123177246D01*
X119018412Y-123111557D01*
X119207816Y-123015051D01*
X119260671Y-122976650D01*
X119379786Y-122890109D01*
X119379788Y-122890106D01*
X119379792Y-122890104D01*
X119530104Y-122739792D01*
X119530106Y-122739788D01*
X119530109Y-122739786D01*
X119655048Y-122567820D01*
X119655047Y-122567820D01*
X119655051Y-122567816D01*
X119751557Y-122378412D01*
X119817246Y-122176243D01*
X119850500Y-121966287D01*
X119850500Y-121753713D01*
X119831731Y-121635208D01*
X119816484Y-121538945D01*
X119818123Y-121538685D01*
X119821257Y-121476126D01*
X119850655Y-121429289D01*
X121411232Y-119868713D01*
X143029500Y-119868713D01*
X143029500Y-120081286D01*
X143048268Y-120199786D01*
X143062754Y-120291243D01*
X143081879Y-120350104D01*
X143128444Y-120493414D01*
X143224951Y-120682820D01*
X143349890Y-120854786D01*
X143500213Y-121005109D01*
X143672182Y-121130050D01*
X143680946Y-121134516D01*
X143731742Y-121182491D01*
X143748536Y-121250312D01*
X143725998Y-121316447D01*
X143680946Y-121355484D01*
X143672182Y-121359949D01*
X143500213Y-121484890D01*
X143349890Y-121635213D01*
X143224951Y-121807179D01*
X143128444Y-121996585D01*
X143062753Y-122198760D01*
X143029500Y-122408713D01*
X143029500Y-122621286D01*
X143048268Y-122739786D01*
X143062754Y-122831243D01*
X143081879Y-122890104D01*
X143128444Y-123033414D01*
X143224951Y-123222820D01*
X143349890Y-123394786D01*
X143500213Y-123545109D01*
X143672179Y-123670048D01*
X143672181Y-123670049D01*
X143672184Y-123670051D01*
X143861588Y-123766557D01*
X144063757Y-123832246D01*
X144273713Y-123865500D01*
X144273714Y-123865500D01*
X144486286Y-123865500D01*
X144486287Y-123865500D01*
X144696243Y-123832246D01*
X144898412Y-123766557D01*
X145087816Y-123670051D01*
X145149787Y-123625027D01*
X145259786Y-123545109D01*
X145259788Y-123545106D01*
X145259792Y-123545104D01*
X145410104Y-123394792D01*
X145410106Y-123394788D01*
X145410109Y-123394786D01*
X145535048Y-123222820D01*
X145535047Y-123222820D01*
X145535051Y-123222816D01*
X145539514Y-123214054D01*
X145587488Y-123163259D01*
X145655308Y-123146463D01*
X145721444Y-123168999D01*
X145760486Y-123214056D01*
X145764951Y-123222820D01*
X145889890Y-123394786D01*
X146040213Y-123545109D01*
X146212179Y-123670048D01*
X146212181Y-123670049D01*
X146212184Y-123670051D01*
X146401588Y-123766557D01*
X146603757Y-123832246D01*
X146813713Y-123865500D01*
X146813714Y-123865500D01*
X147026286Y-123865500D01*
X147026287Y-123865500D01*
X147236243Y-123832246D01*
X147438412Y-123766557D01*
X147627816Y-123670051D01*
X147689787Y-123625027D01*
X147799786Y-123545109D01*
X147799788Y-123545106D01*
X147799792Y-123545104D01*
X147950104Y-123394792D01*
X147950106Y-123394788D01*
X147950109Y-123394786D01*
X148075048Y-123222820D01*
X148075047Y-123222820D01*
X148075051Y-123222816D01*
X148079514Y-123214054D01*
X148127488Y-123163259D01*
X148195308Y-123146463D01*
X148261444Y-123168999D01*
X148300486Y-123214056D01*
X148304951Y-123222820D01*
X148429890Y-123394786D01*
X148580213Y-123545109D01*
X148752179Y-123670048D01*
X148752181Y-123670049D01*
X148752184Y-123670051D01*
X148941588Y-123766557D01*
X149143757Y-123832246D01*
X149353713Y-123865500D01*
X149353714Y-123865500D01*
X149566286Y-123865500D01*
X149566287Y-123865500D01*
X149776243Y-123832246D01*
X149978412Y-123766557D01*
X150167816Y-123670051D01*
X150229787Y-123625027D01*
X150339786Y-123545109D01*
X150339788Y-123545106D01*
X150339792Y-123545104D01*
X150490104Y-123394792D01*
X150490106Y-123394788D01*
X150490109Y-123394786D01*
X150615048Y-123222820D01*
X150615047Y-123222820D01*
X150615051Y-123222816D01*
X150711557Y-123033412D01*
X150777246Y-122831243D01*
X150810500Y-122621287D01*
X150810500Y-122408713D01*
X150777246Y-122198757D01*
X150711557Y-121996588D01*
X150615051Y-121807184D01*
X150615049Y-121807181D01*
X150615048Y-121807179D01*
X150490109Y-121635213D01*
X150376569Y-121521673D01*
X150343084Y-121460350D01*
X150348068Y-121390658D01*
X150389940Y-121334725D01*
X150420915Y-121317810D01*
X150552331Y-121268796D01*
X150667546Y-121182546D01*
X150753796Y-121067331D01*
X150804091Y-120932483D01*
X150810500Y-120872873D01*
X150810499Y-119868713D01*
X153319500Y-119868713D01*
X153319500Y-120081286D01*
X153338268Y-120199786D01*
X153352754Y-120291243D01*
X153371879Y-120350104D01*
X153418444Y-120493414D01*
X153514951Y-120682820D01*
X153639890Y-120854786D01*
X153790213Y-121005109D01*
X153962182Y-121130050D01*
X153970946Y-121134516D01*
X154021742Y-121182491D01*
X154038536Y-121250312D01*
X154015998Y-121316447D01*
X153970946Y-121355484D01*
X153962182Y-121359949D01*
X153790213Y-121484890D01*
X153639890Y-121635213D01*
X153514951Y-121807179D01*
X153418444Y-121996585D01*
X153352753Y-122198760D01*
X153319500Y-122408713D01*
X153319500Y-122621286D01*
X153338268Y-122739786D01*
X153352754Y-122831243D01*
X153371879Y-122890104D01*
X153418444Y-123033414D01*
X153514951Y-123222820D01*
X153639890Y-123394786D01*
X153790213Y-123545109D01*
X153962179Y-123670048D01*
X153962181Y-123670049D01*
X153962184Y-123670051D01*
X154151588Y-123766557D01*
X154353757Y-123832246D01*
X154563713Y-123865500D01*
X154563714Y-123865500D01*
X154776285Y-123865500D01*
X154776287Y-123865500D01*
X154833523Y-123856434D01*
X154902814Y-123865388D01*
X154956267Y-123910384D01*
X154974537Y-123954714D01*
X154980261Y-123983492D01*
X154980264Y-123983501D01*
X155040602Y-124129172D01*
X155040609Y-124129185D01*
X155128210Y-124260288D01*
X155128213Y-124260292D01*
X155239707Y-124371786D01*
X155239711Y-124371789D01*
X155370814Y-124459390D01*
X155370827Y-124459397D01*
X155516498Y-124519735D01*
X155516503Y-124519737D01*
X155671153Y-124550499D01*
X155671156Y-124550500D01*
X155671158Y-124550500D01*
X155828844Y-124550500D01*
X155828845Y-124550499D01*
X155983497Y-124519737D01*
X156129179Y-124459394D01*
X156186044Y-124421397D01*
X156252721Y-124400520D01*
X156254935Y-124400500D01*
X157495065Y-124400500D01*
X157562104Y-124420185D01*
X157563909Y-124421366D01*
X157620821Y-124459394D01*
X157620823Y-124459395D01*
X157620827Y-124459397D01*
X157766498Y-124519735D01*
X157766503Y-124519737D01*
X157921153Y-124550499D01*
X157921156Y-124550500D01*
X157921158Y-124550500D01*
X158078844Y-124550500D01*
X158078845Y-124550499D01*
X158233497Y-124519737D01*
X158379179Y-124459394D01*
X158510289Y-124371789D01*
X158621789Y-124260289D01*
X158709394Y-124129179D01*
X158769737Y-123983497D01*
X158800500Y-123828842D01*
X158800500Y-123737821D01*
X158820185Y-123670782D01*
X158872989Y-123625027D01*
X158942147Y-123615083D01*
X158997384Y-123637502D01*
X159042184Y-123670051D01*
X159231588Y-123766557D01*
X159433757Y-123832246D01*
X159643713Y-123865500D01*
X159643714Y-123865500D01*
X159856286Y-123865500D01*
X159856287Y-123865500D01*
X160066243Y-123832246D01*
X160268412Y-123766557D01*
X160457816Y-123670051D01*
X160519787Y-123625027D01*
X160629786Y-123545109D01*
X160629788Y-123545106D01*
X160629792Y-123545104D01*
X160780104Y-123394792D01*
X160780106Y-123394788D01*
X160780109Y-123394786D01*
X160905048Y-123222820D01*
X160905047Y-123222820D01*
X160905051Y-123222816D01*
X161001557Y-123033412D01*
X161067246Y-122831243D01*
X161100500Y-122621287D01*
X161100500Y-122408713D01*
X161067246Y-122198757D01*
X161001557Y-121996588D01*
X160905051Y-121807184D01*
X160905049Y-121807181D01*
X160905048Y-121807179D01*
X160780109Y-121635213D01*
X160666569Y-121521673D01*
X160633084Y-121460350D01*
X160638068Y-121390658D01*
X160679940Y-121334725D01*
X160710915Y-121317810D01*
X160842331Y-121268796D01*
X160957546Y-121182546D01*
X161043796Y-121067331D01*
X161094091Y-120932483D01*
X161100500Y-120872873D01*
X161100499Y-119077128D01*
X161094091Y-119017517D01*
X161093715Y-119016510D01*
X161043797Y-118882671D01*
X161043793Y-118882664D01*
X160957547Y-118767455D01*
X160957544Y-118767452D01*
X160842335Y-118681206D01*
X160842328Y-118681202D01*
X160707482Y-118630908D01*
X160707483Y-118630908D01*
X160647883Y-118624501D01*
X160647881Y-118624500D01*
X160647873Y-118624500D01*
X160647864Y-118624500D01*
X158852129Y-118624500D01*
X158852123Y-118624501D01*
X158792516Y-118630908D01*
X158657671Y-118681202D01*
X158657664Y-118681206D01*
X158542455Y-118767452D01*
X158542452Y-118767455D01*
X158456206Y-118882664D01*
X158456203Y-118882669D01*
X158407189Y-119014083D01*
X158365317Y-119070016D01*
X158299853Y-119094433D01*
X158231580Y-119079581D01*
X158203326Y-119058430D01*
X158089786Y-118944890D01*
X157917820Y-118819951D01*
X157728414Y-118723444D01*
X157728413Y-118723443D01*
X157728412Y-118723443D01*
X157526243Y-118657754D01*
X157526241Y-118657753D01*
X157526240Y-118657753D01*
X157364957Y-118632208D01*
X157316287Y-118624500D01*
X157103713Y-118624500D01*
X157055042Y-118632208D01*
X156893760Y-118657753D01*
X156792672Y-118690598D01*
X156734839Y-118709390D01*
X156691585Y-118723444D01*
X156502179Y-118819951D01*
X156330213Y-118944890D01*
X156179890Y-119095213D01*
X156054949Y-119267182D01*
X156050484Y-119275946D01*
X156002509Y-119326742D01*
X155934688Y-119343536D01*
X155868553Y-119320998D01*
X155829516Y-119275946D01*
X155825050Y-119267182D01*
X155700109Y-119095213D01*
X155549786Y-118944890D01*
X155377820Y-118819951D01*
X155188414Y-118723444D01*
X155188413Y-118723443D01*
X155188412Y-118723443D01*
X154986243Y-118657754D01*
X154986241Y-118657753D01*
X154986240Y-118657753D01*
X154824957Y-118632208D01*
X154776287Y-118624500D01*
X154563713Y-118624500D01*
X154515042Y-118632208D01*
X154353760Y-118657753D01*
X154252672Y-118690598D01*
X154194839Y-118709390D01*
X154151585Y-118723444D01*
X153962179Y-118819951D01*
X153790213Y-118944890D01*
X153639890Y-119095213D01*
X153514951Y-119267179D01*
X153418444Y-119456585D01*
X153352753Y-119658760D01*
X153319500Y-119868713D01*
X150810499Y-119868713D01*
X150810499Y-119077128D01*
X150804091Y-119017517D01*
X150803715Y-119016510D01*
X150753797Y-118882671D01*
X150753793Y-118882664D01*
X150667547Y-118767455D01*
X150667544Y-118767452D01*
X150552335Y-118681206D01*
X150552328Y-118681202D01*
X150417482Y-118630908D01*
X150417483Y-118630908D01*
X150357883Y-118624501D01*
X150357881Y-118624500D01*
X150357873Y-118624500D01*
X150357864Y-118624500D01*
X148562129Y-118624500D01*
X148562123Y-118624501D01*
X148502516Y-118630908D01*
X148367671Y-118681202D01*
X148367664Y-118681206D01*
X148252455Y-118767452D01*
X148252452Y-118767455D01*
X148166206Y-118882664D01*
X148166202Y-118882671D01*
X148115908Y-119017517D01*
X148109501Y-119077116D01*
X148109501Y-119077123D01*
X148109500Y-119077135D01*
X148109500Y-119087690D01*
X148089815Y-119154729D01*
X148073181Y-119175371D01*
X147402962Y-119845590D01*
X147385925Y-119782007D01*
X147320099Y-119667993D01*
X147227007Y-119574901D01*
X147112993Y-119509075D01*
X147049409Y-119492037D01*
X147681716Y-118859728D01*
X147627550Y-118820375D01*
X147438217Y-118723904D01*
X147236129Y-118658242D01*
X147026246Y-118625000D01*
X146813754Y-118625000D01*
X146603872Y-118658242D01*
X146603869Y-118658242D01*
X146401782Y-118723904D01*
X146212439Y-118820380D01*
X146158282Y-118859727D01*
X146158282Y-118859728D01*
X146790591Y-119492037D01*
X146727007Y-119509075D01*
X146612993Y-119574901D01*
X146519901Y-119667993D01*
X146454075Y-119782007D01*
X146437037Y-119845591D01*
X145804728Y-119213282D01*
X145804727Y-119213282D01*
X145765380Y-119267440D01*
X145765376Y-119267446D01*
X145760760Y-119276505D01*
X145712781Y-119327297D01*
X145644959Y-119344087D01*
X145578826Y-119321543D01*
X145539794Y-119276493D01*
X145535051Y-119267184D01*
X145535049Y-119267181D01*
X145535048Y-119267179D01*
X145410109Y-119095213D01*
X145259786Y-118944890D01*
X145087820Y-118819951D01*
X144898414Y-118723444D01*
X144898413Y-118723443D01*
X144898412Y-118723443D01*
X144696243Y-118657754D01*
X144696241Y-118657753D01*
X144696240Y-118657753D01*
X144534957Y-118632208D01*
X144486287Y-118624500D01*
X144273713Y-118624500D01*
X144225042Y-118632208D01*
X144063760Y-118657753D01*
X143962672Y-118690598D01*
X143904839Y-118709390D01*
X143861585Y-118723444D01*
X143672179Y-118819951D01*
X143500213Y-118944890D01*
X143349890Y-119095213D01*
X143224951Y-119267179D01*
X143128444Y-119456585D01*
X143062753Y-119658760D01*
X143029500Y-119868713D01*
X121411232Y-119868713D01*
X122843127Y-118436819D01*
X122904450Y-118403334D01*
X122930808Y-118400500D01*
X126575500Y-118400500D01*
X126642539Y-118420185D01*
X126688294Y-118472989D01*
X126699500Y-118524500D01*
X126699500Y-118578846D01*
X126730261Y-118733489D01*
X126730264Y-118733501D01*
X126790602Y-118879172D01*
X126790609Y-118879185D01*
X126878210Y-119010288D01*
X126878213Y-119010292D01*
X126989707Y-119121786D01*
X126989711Y-119121789D01*
X127120814Y-119209390D01*
X127120827Y-119209397D01*
X127260972Y-119267446D01*
X127266503Y-119269737D01*
X127421153Y-119300499D01*
X127421156Y-119300500D01*
X127421158Y-119300500D01*
X127578844Y-119300500D01*
X127578845Y-119300499D01*
X127733497Y-119269737D01*
X127868752Y-119213713D01*
X127879172Y-119209397D01*
X127879172Y-119209396D01*
X127879179Y-119209394D01*
X128010289Y-119121789D01*
X128121789Y-119010289D01*
X128209394Y-118879179D01*
X128212854Y-118870827D01*
X128254393Y-118770540D01*
X128269737Y-118733497D01*
X128300500Y-118578842D01*
X128300500Y-118524500D01*
X128320185Y-118457461D01*
X128372989Y-118411706D01*
X128424500Y-118400500D01*
X135575500Y-118400500D01*
X135642539Y-118420185D01*
X135688294Y-118472989D01*
X135699500Y-118524500D01*
X135699500Y-118578846D01*
X135730261Y-118733489D01*
X135730264Y-118733501D01*
X135790602Y-118879172D01*
X135790609Y-118879185D01*
X135878210Y-119010288D01*
X135878213Y-119010292D01*
X135989707Y-119121786D01*
X135989711Y-119121789D01*
X136120814Y-119209390D01*
X136120827Y-119209397D01*
X136260972Y-119267446D01*
X136266503Y-119269737D01*
X136421153Y-119300499D01*
X136421156Y-119300500D01*
X136421158Y-119300500D01*
X136578844Y-119300500D01*
X136578845Y-119300499D01*
X136733497Y-119269737D01*
X136868752Y-119213713D01*
X136879172Y-119209397D01*
X136879172Y-119209396D01*
X136879179Y-119209394D01*
X137010289Y-119121789D01*
X137121789Y-119010289D01*
X137209394Y-118879179D01*
X137212854Y-118870827D01*
X137254393Y-118770540D01*
X137269737Y-118733497D01*
X137300500Y-118578842D01*
X137300500Y-118524500D01*
X137320185Y-118457461D01*
X137372989Y-118411706D01*
X137424500Y-118400500D01*
X142564071Y-118400500D01*
X142648615Y-118383682D01*
X142689744Y-118375501D01*
X142808127Y-118326465D01*
X142835572Y-118308127D01*
X142914669Y-118255277D01*
X147498793Y-113671153D01*
X150199500Y-113671153D01*
X150199500Y-113828846D01*
X150230261Y-113983489D01*
X150230264Y-113983501D01*
X150290600Y-114129167D01*
X150290609Y-114129185D01*
X150378210Y-114260288D01*
X150378213Y-114260292D01*
X150489707Y-114371786D01*
X150489711Y-114371789D01*
X150620814Y-114459390D01*
X150620827Y-114459397D01*
X150766498Y-114519735D01*
X150766503Y-114519737D01*
X150921153Y-114550499D01*
X150921156Y-114550500D01*
X150921158Y-114550500D01*
X151078844Y-114550500D01*
X151078845Y-114550499D01*
X151233497Y-114519737D01*
X151379179Y-114459394D01*
X151510289Y-114371789D01*
X151621789Y-114260289D01*
X151709394Y-114129179D01*
X151709395Y-114129174D01*
X151709400Y-114129167D01*
X151769735Y-113983501D01*
X151769737Y-113983497D01*
X151800500Y-113828842D01*
X151800500Y-113671158D01*
X151800500Y-113671155D01*
X151800499Y-113671153D01*
X151796093Y-113649005D01*
X151769737Y-113516503D01*
X151761398Y-113496370D01*
X151709397Y-113370827D01*
X151709390Y-113370814D01*
X151621789Y-113239711D01*
X151621786Y-113239707D01*
X151510292Y-113128213D01*
X151510288Y-113128210D01*
X151379185Y-113040609D01*
X151379172Y-113040602D01*
X151233501Y-112980264D01*
X151233489Y-112980261D01*
X151078845Y-112949500D01*
X151078842Y-112949500D01*
X150921158Y-112949500D01*
X150921155Y-112949500D01*
X150766510Y-112980261D01*
X150766498Y-112980264D01*
X150620827Y-113040602D01*
X150620814Y-113040609D01*
X150489711Y-113128210D01*
X150489707Y-113128213D01*
X150378213Y-113239707D01*
X150378210Y-113239711D01*
X150290609Y-113370814D01*
X150290602Y-113370827D01*
X150230264Y-113516498D01*
X150230261Y-113516510D01*
X150199500Y-113671153D01*
X147498793Y-113671153D01*
X148983127Y-112186819D01*
X149044450Y-112153334D01*
X149070808Y-112150500D01*
X149995065Y-112150500D01*
X150062104Y-112170185D01*
X150063909Y-112171366D01*
X150120821Y-112209394D01*
X150120823Y-112209395D01*
X150120827Y-112209397D01*
X150266498Y-112269735D01*
X150266503Y-112269737D01*
X150381870Y-112292685D01*
X150421153Y-112300499D01*
X150421156Y-112300500D01*
X150421158Y-112300500D01*
X150578844Y-112300500D01*
X150578845Y-112300499D01*
X150733497Y-112269737D01*
X150857403Y-112218414D01*
X150879172Y-112209397D01*
X150879172Y-112209396D01*
X150879179Y-112209394D01*
X151010289Y-112121789D01*
X151121789Y-112010289D01*
X151209394Y-111879179D01*
X151269737Y-111733497D01*
X151300500Y-111578842D01*
X151300500Y-111421158D01*
X151300500Y-111421155D01*
X151300499Y-111421153D01*
X151293060Y-111383757D01*
X151269737Y-111266503D01*
X151263857Y-111252307D01*
X151209397Y-111120827D01*
X151209390Y-111120814D01*
X151121789Y-110989711D01*
X151121786Y-110989707D01*
X151010292Y-110878213D01*
X151010288Y-110878210D01*
X150879185Y-110790609D01*
X150879169Y-110790601D01*
X150877038Y-110789718D01*
X150876094Y-110788957D01*
X150873809Y-110787736D01*
X150874040Y-110787302D01*
X150822638Y-110745873D01*
X150800579Y-110679577D01*
X150800500Y-110675161D01*
X150800500Y-110671155D01*
X150800499Y-110671153D01*
X150795674Y-110646898D01*
X150769737Y-110516503D01*
X150733907Y-110430000D01*
X150716621Y-110388268D01*
X150709152Y-110318799D01*
X150716621Y-110293364D01*
X150759392Y-110190104D01*
X150771092Y-110161858D01*
X150801855Y-110007203D01*
X150801855Y-109849519D01*
X150801855Y-109849516D01*
X150801854Y-109849514D01*
X150785341Y-109766498D01*
X150771092Y-109694864D01*
X150764278Y-109678414D01*
X150718746Y-109568487D01*
X150711277Y-109499018D01*
X150718746Y-109473582D01*
X150765015Y-109361879D01*
X150795778Y-109207224D01*
X150795778Y-109049540D01*
X150795778Y-109049537D01*
X150795777Y-109049535D01*
X150777925Y-108959790D01*
X150765015Y-108894885D01*
X150765013Y-108894880D01*
X150704675Y-108749209D01*
X150704667Y-108749195D01*
X150693677Y-108732747D01*
X150672798Y-108666070D01*
X150682216Y-108616407D01*
X150720864Y-108523102D01*
X150751627Y-108368447D01*
X150751627Y-108210763D01*
X150751627Y-108210760D01*
X150751626Y-108210758D01*
X150735397Y-108129172D01*
X150720864Y-108056108D01*
X150686271Y-107972595D01*
X150678803Y-107903126D01*
X150697731Y-107856252D01*
X150709394Y-107838799D01*
X150769737Y-107693117D01*
X150800500Y-107538462D01*
X150800500Y-107380778D01*
X150800500Y-107380775D01*
X150798415Y-107370296D01*
X150804639Y-107300704D01*
X150847500Y-107245525D01*
X150913389Y-107222278D01*
X150981387Y-107238343D01*
X151007712Y-107258419D01*
X156220926Y-112471633D01*
X156254411Y-112532956D01*
X156249427Y-112602648D01*
X156220926Y-112646995D01*
X156128213Y-112739707D01*
X156128210Y-112739711D01*
X156040609Y-112870814D01*
X156040602Y-112870827D01*
X155980264Y-113016498D01*
X155980261Y-113016510D01*
X155949500Y-113171153D01*
X155949500Y-113328846D01*
X155980261Y-113483489D01*
X155980264Y-113483501D01*
X156040602Y-113629172D01*
X156040609Y-113629185D01*
X156075304Y-113681109D01*
X156096182Y-113747786D01*
X156077698Y-113815167D01*
X156075304Y-113818891D01*
X156040609Y-113870814D01*
X156040602Y-113870827D01*
X155980264Y-114016498D01*
X155980261Y-114016510D01*
X155949500Y-114171153D01*
X155949500Y-114328846D01*
X155980261Y-114483489D01*
X155980264Y-114483501D01*
X156040602Y-114629172D01*
X156040609Y-114629185D01*
X156075304Y-114681109D01*
X156096182Y-114747786D01*
X156077698Y-114815167D01*
X156075304Y-114818891D01*
X156040609Y-114870814D01*
X156040602Y-114870827D01*
X155980264Y-115016498D01*
X155980261Y-115016510D01*
X155949500Y-115171153D01*
X155949500Y-115328846D01*
X155980261Y-115483489D01*
X155980264Y-115483501D01*
X156040602Y-115629172D01*
X156040609Y-115629185D01*
X156075304Y-115681109D01*
X156096182Y-115747786D01*
X156077698Y-115815167D01*
X156075304Y-115818891D01*
X156040609Y-115870814D01*
X156040602Y-115870827D01*
X155980264Y-116016498D01*
X155980261Y-116016510D01*
X155949500Y-116171153D01*
X155949500Y-116328846D01*
X155980261Y-116483489D01*
X155980264Y-116483501D01*
X156040602Y-116629172D01*
X156040609Y-116629185D01*
X156128210Y-116760288D01*
X156128213Y-116760292D01*
X156239707Y-116871786D01*
X156239711Y-116871789D01*
X156370814Y-116959390D01*
X156370827Y-116959397D01*
X156508695Y-117016503D01*
X156516503Y-117019737D01*
X156671153Y-117050499D01*
X156671156Y-117050500D01*
X156671158Y-117050500D01*
X156828844Y-117050500D01*
X156828845Y-117050499D01*
X156983497Y-117019737D01*
X157129179Y-116959394D01*
X157260289Y-116871789D01*
X157371789Y-116760289D01*
X157459394Y-116629179D01*
X157519737Y-116483497D01*
X157550500Y-116328842D01*
X157550500Y-116224500D01*
X157570185Y-116157461D01*
X157622989Y-116111706D01*
X157674500Y-116100500D01*
X157828844Y-116100500D01*
X157828845Y-116100499D01*
X157983497Y-116069737D01*
X158129179Y-116009394D01*
X158260289Y-115921789D01*
X158371789Y-115810289D01*
X158459394Y-115679179D01*
X158519737Y-115533497D01*
X158550500Y-115378842D01*
X158550500Y-115221158D01*
X158550500Y-115221155D01*
X158530543Y-115120827D01*
X158525972Y-115097848D01*
X158532199Y-115028258D01*
X158575061Y-114973081D01*
X158640951Y-114949836D01*
X158708948Y-114965903D01*
X158735270Y-114985977D01*
X161313181Y-117563888D01*
X161346666Y-117625211D01*
X161349500Y-117651569D01*
X161349500Y-117803364D01*
X161329815Y-117870403D01*
X161328602Y-117872255D01*
X161266087Y-117965814D01*
X161266080Y-117965827D01*
X161205742Y-118111498D01*
X161205739Y-118111510D01*
X161174978Y-118266153D01*
X161174978Y-118423846D01*
X161205739Y-118578489D01*
X161205742Y-118578501D01*
X161266080Y-118724172D01*
X161266087Y-118724185D01*
X161353688Y-118855288D01*
X161353691Y-118855292D01*
X161465185Y-118966786D01*
X161465189Y-118966789D01*
X161596292Y-119054390D01*
X161596305Y-119054397D01*
X161741976Y-119114735D01*
X161741981Y-119114737D01*
X161896631Y-119145499D01*
X161896634Y-119145500D01*
X161896636Y-119145500D01*
X162054322Y-119145500D01*
X162054323Y-119145499D01*
X162208975Y-119114737D01*
X162354657Y-119054394D01*
X162485767Y-118966789D01*
X162597267Y-118855289D01*
X162684872Y-118724179D01*
X162685177Y-118723444D01*
X162702673Y-118681204D01*
X162745215Y-118578497D01*
X162775978Y-118423842D01*
X162775978Y-118363700D01*
X162795663Y-118296661D01*
X162848467Y-118250906D01*
X162917625Y-118240962D01*
X162981181Y-118269987D01*
X163014539Y-118316248D01*
X163040602Y-118379172D01*
X163040609Y-118379185D01*
X163075304Y-118431109D01*
X163096182Y-118497786D01*
X163077698Y-118565167D01*
X163075304Y-118568891D01*
X163040609Y-118620814D01*
X163040602Y-118620827D01*
X162980264Y-118766498D01*
X162980261Y-118766510D01*
X162949500Y-118921153D01*
X162949500Y-119078846D01*
X162980261Y-119233489D01*
X162980264Y-119233501D01*
X163040602Y-119379172D01*
X163040609Y-119379185D01*
X163128210Y-119510288D01*
X163128213Y-119510292D01*
X163239707Y-119621786D01*
X163239711Y-119621789D01*
X163370814Y-119709390D01*
X163370827Y-119709397D01*
X163516498Y-119769735D01*
X163516503Y-119769737D01*
X163671153Y-119800499D01*
X163671156Y-119800500D01*
X163671158Y-119800500D01*
X163828844Y-119800500D01*
X163828845Y-119800499D01*
X163983497Y-119769737D01*
X164129179Y-119709394D01*
X164181110Y-119674694D01*
X164247785Y-119653816D01*
X164315165Y-119672300D01*
X164318863Y-119674676D01*
X164370821Y-119709394D01*
X164370823Y-119709395D01*
X164370825Y-119709396D01*
X164516498Y-119769735D01*
X164516503Y-119769737D01*
X164671153Y-119800499D01*
X164671156Y-119800500D01*
X164671158Y-119800500D01*
X164828844Y-119800500D01*
X164828845Y-119800499D01*
X164983497Y-119769737D01*
X165129179Y-119709394D01*
X165260289Y-119621789D01*
X165371789Y-119510289D01*
X165459394Y-119379179D01*
X165519737Y-119233497D01*
X165532138Y-119171153D01*
X167699500Y-119171153D01*
X167699500Y-119328846D01*
X167730261Y-119483489D01*
X167730264Y-119483501D01*
X167790602Y-119629172D01*
X167790609Y-119629185D01*
X167878210Y-119760288D01*
X167878213Y-119760292D01*
X167989707Y-119871786D01*
X167989711Y-119871789D01*
X168120814Y-119959390D01*
X168120827Y-119959397D01*
X168266498Y-120019735D01*
X168266503Y-120019737D01*
X168372524Y-120040826D01*
X168421153Y-120050499D01*
X168421156Y-120050500D01*
X168421158Y-120050500D01*
X168578844Y-120050500D01*
X168578845Y-120050499D01*
X168733497Y-120019737D01*
X168879179Y-119959394D01*
X169010289Y-119871789D01*
X169121789Y-119760289D01*
X169209394Y-119629179D01*
X169269737Y-119483497D01*
X169300500Y-119328842D01*
X169300500Y-119171158D01*
X169300500Y-119171155D01*
X169300499Y-119171153D01*
X169285393Y-119095213D01*
X169269737Y-119016503D01*
X169264459Y-119003760D01*
X169209397Y-118870827D01*
X169209390Y-118870814D01*
X169121789Y-118739711D01*
X169121786Y-118739707D01*
X169010292Y-118628213D01*
X169010288Y-118628210D01*
X168879185Y-118540609D01*
X168879172Y-118540602D01*
X168733501Y-118480264D01*
X168733489Y-118480261D01*
X168578845Y-118449500D01*
X168578842Y-118449500D01*
X168421158Y-118449500D01*
X168421155Y-118449500D01*
X168266510Y-118480261D01*
X168266498Y-118480264D01*
X168120827Y-118540602D01*
X168120814Y-118540609D01*
X167989711Y-118628210D01*
X167989707Y-118628213D01*
X167878213Y-118739707D01*
X167878210Y-118739711D01*
X167790609Y-118870814D01*
X167790602Y-118870827D01*
X167730264Y-119016498D01*
X167730261Y-119016510D01*
X167699500Y-119171153D01*
X165532138Y-119171153D01*
X165550500Y-119078842D01*
X165550500Y-118921158D01*
X165550479Y-118921054D01*
X165550732Y-118916926D01*
X165561367Y-118887488D01*
X165570185Y-118857461D01*
X165573143Y-118854897D01*
X165574474Y-118851214D01*
X165599341Y-118832197D01*
X165622989Y-118811706D01*
X165627386Y-118810749D01*
X165629975Y-118808770D01*
X165640413Y-118807915D01*
X165674500Y-118800500D01*
X165828844Y-118800500D01*
X165828845Y-118800499D01*
X165983497Y-118769737D01*
X166129179Y-118709394D01*
X166260289Y-118621789D01*
X166371789Y-118510289D01*
X166459394Y-118379179D01*
X166460918Y-118375501D01*
X166506208Y-118266158D01*
X166519737Y-118233497D01*
X166550500Y-118078842D01*
X166550500Y-118074837D01*
X166551093Y-118072814D01*
X166551097Y-118072782D01*
X166551103Y-118072782D01*
X166570185Y-118007798D01*
X166622989Y-117962043D01*
X166626986Y-117960302D01*
X166629179Y-117959394D01*
X166760289Y-117871789D01*
X166871789Y-117760289D01*
X166927855Y-117676380D01*
X166981465Y-117631577D01*
X167050790Y-117622869D01*
X167113818Y-117653023D01*
X167150538Y-117712466D01*
X167154245Y-117732016D01*
X167155907Y-117747480D01*
X167206202Y-117882328D01*
X167206206Y-117882335D01*
X167292452Y-117997544D01*
X167292455Y-117997547D01*
X167407664Y-118083793D01*
X167407671Y-118083797D01*
X167542517Y-118134091D01*
X167542516Y-118134091D01*
X167549444Y-118134835D01*
X167602127Y-118140500D01*
X169397872Y-118140499D01*
X169457483Y-118134091D01*
X169592331Y-118083796D01*
X169707546Y-117997546D01*
X169793796Y-117882331D01*
X169844091Y-117747483D01*
X169850500Y-117687873D01*
X169850499Y-115892128D01*
X169844091Y-115832517D01*
X169813275Y-115749896D01*
X169793797Y-115697671D01*
X169793793Y-115697664D01*
X169707547Y-115582455D01*
X169707544Y-115582452D01*
X169592335Y-115496206D01*
X169592328Y-115496202D01*
X169457482Y-115445908D01*
X169457483Y-115445908D01*
X169397883Y-115439501D01*
X169397881Y-115439500D01*
X169397873Y-115439500D01*
X169397865Y-115439500D01*
X169387309Y-115439500D01*
X169320270Y-115419815D01*
X169299628Y-115403181D01*
X168629408Y-114732962D01*
X168692993Y-114715925D01*
X168807007Y-114650099D01*
X168900099Y-114557007D01*
X168965925Y-114442993D01*
X168982962Y-114379409D01*
X169615270Y-115011717D01*
X169615270Y-115011716D01*
X169654622Y-114957554D01*
X169751095Y-114768217D01*
X169816757Y-114566130D01*
X169816757Y-114566127D01*
X169850000Y-114356246D01*
X169850000Y-114143753D01*
X169816757Y-113933872D01*
X169816757Y-113933869D01*
X169751095Y-113731782D01*
X169654624Y-113542449D01*
X169615270Y-113488282D01*
X169615269Y-113488282D01*
X168982962Y-114120590D01*
X168965925Y-114057007D01*
X168900099Y-113942993D01*
X168807007Y-113849901D01*
X168692993Y-113784075D01*
X168629409Y-113767037D01*
X169261716Y-113134728D01*
X169207550Y-113095375D01*
X169018217Y-112998904D01*
X168816129Y-112933242D01*
X168606246Y-112900000D01*
X168393754Y-112900000D01*
X168183872Y-112933242D01*
X168183869Y-112933242D01*
X167981782Y-112998904D01*
X167792439Y-113095380D01*
X167738282Y-113134727D01*
X167738282Y-113134728D01*
X168370591Y-113767037D01*
X168307007Y-113784075D01*
X168192993Y-113849901D01*
X168099901Y-113942993D01*
X168034075Y-114057007D01*
X168017037Y-114120591D01*
X167384728Y-113488282D01*
X167384727Y-113488282D01*
X167345380Y-113542439D01*
X167248904Y-113731782D01*
X167183242Y-113933869D01*
X167183242Y-113933872D01*
X167150000Y-114143753D01*
X167150000Y-114356246D01*
X167183242Y-114566127D01*
X167183241Y-114566127D01*
X167192812Y-114595582D01*
X167194806Y-114665423D01*
X167158724Y-114725255D01*
X167096023Y-114756082D01*
X167027429Y-114748460D01*
X166983497Y-114730263D01*
X166983492Y-114730262D01*
X166983489Y-114730261D01*
X166828845Y-114699500D01*
X166828842Y-114699500D01*
X166671158Y-114699500D01*
X166671155Y-114699500D01*
X166516510Y-114730261D01*
X166516498Y-114730264D01*
X166370827Y-114790602D01*
X166370814Y-114790609D01*
X166239711Y-114878210D01*
X166239707Y-114878213D01*
X166128213Y-114989707D01*
X166128210Y-114989711D01*
X166040609Y-115120814D01*
X166040602Y-115120827D01*
X165980264Y-115266498D01*
X165980261Y-115266510D01*
X165949500Y-115421153D01*
X165949500Y-115421158D01*
X165949500Y-115578842D01*
X165950219Y-115582455D01*
X165953969Y-115601310D01*
X165947740Y-115670901D01*
X165904877Y-115726078D01*
X165838987Y-115749322D01*
X165832351Y-115749500D01*
X165671155Y-115749500D01*
X165516510Y-115780261D01*
X165516498Y-115780264D01*
X165370827Y-115840602D01*
X165370814Y-115840609D01*
X165239711Y-115928210D01*
X165239706Y-115928214D01*
X165189528Y-115978392D01*
X165128205Y-116011876D01*
X165058513Y-116006891D01*
X165002580Y-115965020D01*
X164987289Y-115938166D01*
X164959394Y-115870821D01*
X164959390Y-115870814D01*
X164871789Y-115739711D01*
X164871786Y-115739707D01*
X164760292Y-115628213D01*
X164760288Y-115628210D01*
X164629185Y-115540609D01*
X164629172Y-115540602D01*
X164483501Y-115480264D01*
X164483489Y-115480261D01*
X164328845Y-115449500D01*
X164328842Y-115449500D01*
X164171158Y-115449500D01*
X164171155Y-115449500D01*
X164016510Y-115480261D01*
X164016498Y-115480264D01*
X163870827Y-115540602D01*
X163870814Y-115540609D01*
X163739711Y-115628210D01*
X163739707Y-115628213D01*
X163628213Y-115739707D01*
X163628210Y-115739711D01*
X163540609Y-115870814D01*
X163540602Y-115870827D01*
X163480264Y-116016498D01*
X163480261Y-116016510D01*
X163449500Y-116171153D01*
X163449500Y-116328846D01*
X163480261Y-116483489D01*
X163480264Y-116483501D01*
X163540602Y-116629172D01*
X163540609Y-116629185D01*
X163628210Y-116760288D01*
X163628213Y-116760292D01*
X163739710Y-116871789D01*
X163806015Y-116916092D01*
X163870821Y-116959394D01*
X163872945Y-116960274D01*
X163873885Y-116961031D01*
X163876192Y-116962264D01*
X163875958Y-116962701D01*
X163927349Y-117004107D01*
X163949421Y-117070399D01*
X163949500Y-117074837D01*
X163949500Y-117075500D01*
X163929815Y-117142539D01*
X163877011Y-117188294D01*
X163825500Y-117199500D01*
X163671155Y-117199500D01*
X163516510Y-117230261D01*
X163516498Y-117230264D01*
X163370827Y-117290602D01*
X163370814Y-117290609D01*
X163239711Y-117378210D01*
X163239707Y-117378213D01*
X163128213Y-117489707D01*
X163128210Y-117489711D01*
X163040609Y-117620814D01*
X163040602Y-117620827D01*
X162980264Y-117766498D01*
X162980261Y-117766510D01*
X162949500Y-117921153D01*
X162949500Y-117981300D01*
X162929815Y-118048339D01*
X162877011Y-118094094D01*
X162807853Y-118104038D01*
X162744297Y-118075013D01*
X162710939Y-118028753D01*
X162698012Y-117997544D01*
X162684872Y-117965821D01*
X162680575Y-117959390D01*
X162671397Y-117945653D01*
X162650520Y-117878976D01*
X162650500Y-117876764D01*
X162650500Y-117266689D01*
X162625502Y-117141022D01*
X162625501Y-117141021D01*
X162625501Y-117141017D01*
X162576465Y-117022634D01*
X162572373Y-117016511D01*
X162572370Y-117016501D01*
X162572368Y-117016503D01*
X162505277Y-116916092D01*
X162505275Y-116916090D01*
X162505273Y-116916087D01*
X162505272Y-116916086D01*
X160851366Y-115262181D01*
X160817881Y-115200858D01*
X160822865Y-115131166D01*
X160864737Y-115075233D01*
X160930201Y-115050816D01*
X160939047Y-115050500D01*
X161078844Y-115050500D01*
X161078845Y-115050499D01*
X161233497Y-115019737D01*
X161379179Y-114959394D01*
X161510289Y-114871789D01*
X161621789Y-114760289D01*
X161709394Y-114629179D01*
X161769737Y-114483497D01*
X161800500Y-114328842D01*
X161800500Y-114171158D01*
X161800500Y-114171155D01*
X161800499Y-114171153D01*
X161769738Y-114016510D01*
X161769737Y-114016503D01*
X161756062Y-113983489D01*
X161709397Y-113870827D01*
X161709390Y-113870814D01*
X161621789Y-113739711D01*
X161621786Y-113739707D01*
X161510292Y-113628213D01*
X161510288Y-113628210D01*
X161379185Y-113540609D01*
X161379172Y-113540602D01*
X161233501Y-113480264D01*
X161233489Y-113480261D01*
X161078845Y-113449500D01*
X161078842Y-113449500D01*
X160921158Y-113449500D01*
X160921155Y-113449500D01*
X160766510Y-113480261D01*
X160766498Y-113480264D01*
X160620827Y-113540602D01*
X160620814Y-113540609D01*
X160489835Y-113628127D01*
X160423157Y-113649005D01*
X160355777Y-113630520D01*
X160333263Y-113612706D01*
X160304531Y-113583974D01*
X160304527Y-113583971D01*
X160173424Y-113496370D01*
X160173411Y-113496363D01*
X160027740Y-113436025D01*
X160027730Y-113436022D01*
X159900308Y-113410676D01*
X159872177Y-113395961D01*
X159843297Y-113382772D01*
X159841440Y-113379882D01*
X159838397Y-113378291D01*
X159822684Y-113350698D01*
X159805523Y-113323994D01*
X159804862Y-113319400D01*
X159803823Y-113317575D01*
X159800500Y-113289059D01*
X159800500Y-113171155D01*
X159800499Y-113171153D01*
X159769737Y-113016503D01*
X159758114Y-112988443D01*
X159709397Y-112870827D01*
X159709390Y-112870814D01*
X159621789Y-112739711D01*
X159621786Y-112739707D01*
X159510292Y-112628213D01*
X159510288Y-112628210D01*
X159379185Y-112540609D01*
X159379172Y-112540602D01*
X159233501Y-112480264D01*
X159233489Y-112480261D01*
X159078845Y-112449500D01*
X159078842Y-112449500D01*
X158921158Y-112449500D01*
X158921155Y-112449500D01*
X158766510Y-112480261D01*
X158766498Y-112480264D01*
X158620827Y-112540602D01*
X158620814Y-112540609D01*
X158489711Y-112628210D01*
X158489707Y-112628213D01*
X158441234Y-112676687D01*
X158379911Y-112710172D01*
X158310219Y-112705188D01*
X158265872Y-112676687D01*
X158085108Y-112495923D01*
X158051623Y-112434600D01*
X158056607Y-112364908D01*
X158098479Y-112308975D01*
X158148598Y-112286625D01*
X158184089Y-112279564D01*
X158233497Y-112269737D01*
X158357403Y-112218414D01*
X158379172Y-112209397D01*
X158379172Y-112209396D01*
X158379179Y-112209394D01*
X158510289Y-112121789D01*
X158621789Y-112010289D01*
X158709394Y-111879179D01*
X158769737Y-111733497D01*
X158800500Y-111578842D01*
X158800500Y-111421158D01*
X158800500Y-111421155D01*
X158800499Y-111421153D01*
X158793060Y-111383757D01*
X158769737Y-111266503D01*
X158763857Y-111252307D01*
X158709397Y-111120827D01*
X158709390Y-111120814D01*
X158621789Y-110989711D01*
X158621786Y-110989707D01*
X158510292Y-110878213D01*
X158510288Y-110878210D01*
X158379185Y-110790609D01*
X158379172Y-110790602D01*
X158233501Y-110730264D01*
X158233489Y-110730261D01*
X158078845Y-110699500D01*
X158078842Y-110699500D01*
X157977350Y-110699500D01*
X157910311Y-110679815D01*
X157864556Y-110627011D01*
X157854612Y-110557853D01*
X157874248Y-110506609D01*
X157959390Y-110379185D01*
X157959390Y-110379184D01*
X157959394Y-110379179D01*
X158019737Y-110233497D01*
X158050500Y-110078842D01*
X158050500Y-109921158D01*
X158050500Y-109921155D01*
X158050499Y-109921153D01*
X158028561Y-109810860D01*
X158019738Y-109766508D01*
X158019737Y-109766507D01*
X158019737Y-109766503D01*
X158014643Y-109754205D01*
X157959397Y-109620827D01*
X157959390Y-109620814D01*
X157871789Y-109489711D01*
X157871786Y-109489707D01*
X157760292Y-109378213D01*
X157760284Y-109378207D01*
X157722712Y-109353102D01*
X157695047Y-109320000D01*
X162080138Y-109320000D01*
X162883012Y-109320000D01*
X162865795Y-109329940D01*
X162809940Y-109385795D01*
X162770444Y-109454204D01*
X162750000Y-109530504D01*
X162750000Y-109609496D01*
X162770444Y-109685796D01*
X162809940Y-109754205D01*
X162865795Y-109810060D01*
X162883012Y-109820000D01*
X162080138Y-109820000D01*
X162088430Y-109861690D01*
X162088430Y-109861692D01*
X162163807Y-110043671D01*
X162163814Y-110043684D01*
X162273248Y-110207462D01*
X162273251Y-110207466D01*
X162412533Y-110346748D01*
X162412537Y-110346751D01*
X162576315Y-110456185D01*
X162576328Y-110456192D01*
X162758306Y-110531569D01*
X162758318Y-110531572D01*
X162951504Y-110569999D01*
X162951508Y-110570000D01*
X163350000Y-110570000D01*
X163350000Y-109870000D01*
X163850000Y-109870000D01*
X163850000Y-110570000D01*
X164248492Y-110570000D01*
X164248495Y-110569999D01*
X164441681Y-110531572D01*
X164441693Y-110531569D01*
X164623671Y-110456192D01*
X164623684Y-110456185D01*
X164787462Y-110346751D01*
X164787466Y-110346748D01*
X164926748Y-110207466D01*
X164926751Y-110207462D01*
X165036185Y-110043684D01*
X165036192Y-110043671D01*
X165111569Y-109861692D01*
X165111569Y-109861690D01*
X165119862Y-109820000D01*
X164316988Y-109820000D01*
X164334205Y-109810060D01*
X164390060Y-109754205D01*
X164429556Y-109685796D01*
X164450000Y-109609496D01*
X164450000Y-109530504D01*
X164429556Y-109454204D01*
X164390060Y-109385795D01*
X164334205Y-109329940D01*
X164316988Y-109320000D01*
X165119862Y-109320000D01*
X166430138Y-109320000D01*
X167233012Y-109320000D01*
X167215795Y-109329940D01*
X167159940Y-109385795D01*
X167120444Y-109454204D01*
X167100000Y-109530504D01*
X167100000Y-109609496D01*
X167120444Y-109685796D01*
X167159940Y-109754205D01*
X167215795Y-109810060D01*
X167233012Y-109820000D01*
X166430138Y-109820000D01*
X166438430Y-109861690D01*
X166438430Y-109861692D01*
X166513807Y-110043671D01*
X166513814Y-110043684D01*
X166623248Y-110207462D01*
X166623251Y-110207466D01*
X166762533Y-110346748D01*
X166762537Y-110346751D01*
X166926315Y-110456185D01*
X166926328Y-110456192D01*
X167108306Y-110531569D01*
X167108318Y-110531572D01*
X167301504Y-110569999D01*
X167301508Y-110570000D01*
X167550000Y-110570000D01*
X167550000Y-109870000D01*
X168050000Y-109870000D01*
X168050000Y-110570000D01*
X168298492Y-110570000D01*
X168298495Y-110569999D01*
X168491681Y-110531572D01*
X168491693Y-110531569D01*
X168673671Y-110456192D01*
X168673684Y-110456185D01*
X168837462Y-110346751D01*
X168837466Y-110346748D01*
X168976748Y-110207466D01*
X168976751Y-110207462D01*
X169086185Y-110043684D01*
X169086192Y-110043671D01*
X169161569Y-109861692D01*
X169161569Y-109861690D01*
X169169862Y-109820000D01*
X168366988Y-109820000D01*
X168384205Y-109810060D01*
X168440060Y-109754205D01*
X168479556Y-109685796D01*
X168500000Y-109609496D01*
X168500000Y-109530504D01*
X168479556Y-109454204D01*
X168440060Y-109385795D01*
X168384205Y-109329940D01*
X168366988Y-109320000D01*
X169169862Y-109320000D01*
X169161569Y-109278309D01*
X169161569Y-109278307D01*
X169086192Y-109096328D01*
X169086185Y-109096315D01*
X168976751Y-108932537D01*
X168976748Y-108932533D01*
X168837466Y-108793251D01*
X168837462Y-108793248D01*
X168673684Y-108683814D01*
X168673671Y-108683807D01*
X168491693Y-108608430D01*
X168491681Y-108608427D01*
X168298495Y-108570000D01*
X168050000Y-108570000D01*
X168050000Y-109270000D01*
X167550000Y-109270000D01*
X167550000Y-108570000D01*
X167301504Y-108570000D01*
X167108318Y-108608427D01*
X167108306Y-108608430D01*
X166926328Y-108683807D01*
X166926315Y-108683814D01*
X166762537Y-108793248D01*
X166762533Y-108793251D01*
X166623251Y-108932533D01*
X166623248Y-108932537D01*
X166513814Y-109096315D01*
X166513807Y-109096328D01*
X166438430Y-109278307D01*
X166438430Y-109278309D01*
X166430138Y-109320000D01*
X165119862Y-109320000D01*
X165111569Y-109278309D01*
X165111569Y-109278307D01*
X165036192Y-109096328D01*
X165036185Y-109096315D01*
X164926751Y-108932537D01*
X164926748Y-108932533D01*
X164880772Y-108886557D01*
X164847287Y-108825234D01*
X164852271Y-108755542D01*
X164894143Y-108699609D01*
X164899542Y-108695787D01*
X164931110Y-108674693D01*
X164997784Y-108653816D01*
X165065165Y-108672299D01*
X165068863Y-108674676D01*
X165120821Y-108709394D01*
X165120823Y-108709395D01*
X165120825Y-108709396D01*
X165232233Y-108755542D01*
X165266503Y-108769737D01*
X165421153Y-108800499D01*
X165421156Y-108800500D01*
X165421158Y-108800500D01*
X165578844Y-108800500D01*
X165578845Y-108800499D01*
X165733497Y-108769737D01*
X165879179Y-108709394D01*
X166010289Y-108621789D01*
X166121789Y-108510289D01*
X166209394Y-108379179D01*
X166213839Y-108368449D01*
X166253379Y-108272989D01*
X166269737Y-108233497D01*
X166300500Y-108078842D01*
X166300500Y-107921158D01*
X166300500Y-107921155D01*
X166300499Y-107921153D01*
X166291956Y-107878207D01*
X166269737Y-107766503D01*
X166230778Y-107672449D01*
X166223310Y-107602984D01*
X166230775Y-107577556D01*
X166269737Y-107483497D01*
X166300500Y-107328842D01*
X166300500Y-107171158D01*
X166300500Y-107171155D01*
X166300499Y-107171153D01*
X166291957Y-107128210D01*
X166269737Y-107016503D01*
X166269735Y-107016498D01*
X166209397Y-106870827D01*
X166209390Y-106870814D01*
X166121789Y-106739711D01*
X166121786Y-106739707D01*
X166010292Y-106628213D01*
X166010288Y-106628210D01*
X165879185Y-106540609D01*
X165879172Y-106540602D01*
X165733501Y-106480264D01*
X165733489Y-106480261D01*
X165578845Y-106449500D01*
X165578842Y-106449500D01*
X165421158Y-106449500D01*
X165421155Y-106449500D01*
X165266510Y-106480261D01*
X165266498Y-106480264D01*
X165120827Y-106540602D01*
X165120814Y-106540609D01*
X165068891Y-106575304D01*
X165002214Y-106596182D01*
X164934833Y-106577698D01*
X164931109Y-106575304D01*
X164879185Y-106540609D01*
X164879172Y-106540602D01*
X164733501Y-106480264D01*
X164733489Y-106480261D01*
X164578845Y-106449500D01*
X164578842Y-106449500D01*
X164421158Y-106449500D01*
X164421155Y-106449500D01*
X164266510Y-106480261D01*
X164266498Y-106480264D01*
X164120827Y-106540602D01*
X164120814Y-106540609D01*
X163989711Y-106628210D01*
X163989707Y-106628213D01*
X163878213Y-106739707D01*
X163878210Y-106739711D01*
X163790609Y-106870814D01*
X163790602Y-106870827D01*
X163730264Y-107016498D01*
X163730261Y-107016510D01*
X163699500Y-107171153D01*
X163699500Y-107328846D01*
X163730261Y-107483489D01*
X163730264Y-107483501D01*
X163769219Y-107577548D01*
X163776688Y-107647018D01*
X163769219Y-107672452D01*
X163730264Y-107766498D01*
X163730261Y-107766510D01*
X163699500Y-107921153D01*
X163699500Y-108078846D01*
X163730261Y-108233489D01*
X163730264Y-108233501D01*
X163790602Y-108379172D01*
X163790609Y-108379185D01*
X163834290Y-108444558D01*
X163855168Y-108511236D01*
X163850000Y-108530073D01*
X163850000Y-109270000D01*
X163350000Y-109270000D01*
X163350000Y-108570000D01*
X162951504Y-108570000D01*
X162758318Y-108608427D01*
X162758306Y-108608430D01*
X162576328Y-108683807D01*
X162576315Y-108683814D01*
X162412537Y-108793248D01*
X162412533Y-108793251D01*
X162273251Y-108932533D01*
X162273248Y-108932537D01*
X162163814Y-109096315D01*
X162163807Y-109096328D01*
X162088430Y-109278307D01*
X162088430Y-109278309D01*
X162080138Y-109320000D01*
X157695047Y-109320000D01*
X157677906Y-109299490D01*
X157669199Y-109230165D01*
X157699353Y-109167138D01*
X157722712Y-109146898D01*
X157749279Y-109129145D01*
X157760289Y-109121789D01*
X157871789Y-109010289D01*
X157959394Y-108879179D01*
X158019737Y-108733497D01*
X158050500Y-108578842D01*
X158050500Y-108421158D01*
X158050500Y-108421155D01*
X158050499Y-108421153D01*
X159199500Y-108421153D01*
X159199500Y-108578846D01*
X159230261Y-108733489D01*
X159230264Y-108733501D01*
X159290602Y-108879172D01*
X159290609Y-108879185D01*
X159378210Y-109010288D01*
X159378213Y-109010292D01*
X159489707Y-109121786D01*
X159489711Y-109121789D01*
X159620814Y-109209390D01*
X159620827Y-109209397D01*
X159691741Y-109238770D01*
X159766503Y-109269737D01*
X159921153Y-109300499D01*
X159921156Y-109300500D01*
X159921158Y-109300500D01*
X160078844Y-109300500D01*
X160078845Y-109300499D01*
X160233497Y-109269737D01*
X160281147Y-109250000D01*
X160308260Y-109238770D01*
X160379172Y-109209397D01*
X160379172Y-109209396D01*
X160379179Y-109209394D01*
X160510289Y-109121789D01*
X160621789Y-109010289D01*
X160709394Y-108879179D01*
X160769737Y-108733497D01*
X160789038Y-108636460D01*
X160821422Y-108574553D01*
X160882138Y-108539979D01*
X160886400Y-108539050D01*
X160983497Y-108519737D01*
X161129179Y-108459394D01*
X161260289Y-108371789D01*
X161371789Y-108260289D01*
X161459394Y-108129179D01*
X161462854Y-108120827D01*
X161494258Y-108045009D01*
X161519737Y-107983497D01*
X161550500Y-107828842D01*
X161550500Y-107671158D01*
X161550500Y-107671155D01*
X161550499Y-107671153D01*
X161541448Y-107625653D01*
X161519737Y-107516503D01*
X161506062Y-107483489D01*
X161459397Y-107370827D01*
X161459390Y-107370814D01*
X161371790Y-107239712D01*
X161371784Y-107239705D01*
X161260292Y-107128213D01*
X161260288Y-107128210D01*
X161129185Y-107040609D01*
X161129172Y-107040602D01*
X160983501Y-106980264D01*
X160983489Y-106980261D01*
X160828845Y-106949500D01*
X160828842Y-106949500D01*
X160671158Y-106949500D01*
X160671155Y-106949500D01*
X160516510Y-106980261D01*
X160516498Y-106980264D01*
X160370827Y-107040602D01*
X160370814Y-107040609D01*
X160239711Y-107128210D01*
X160239707Y-107128213D01*
X160128213Y-107239707D01*
X160128210Y-107239711D01*
X160040609Y-107370814D01*
X160040602Y-107370827D01*
X159980264Y-107516498D01*
X159980261Y-107516508D01*
X159960961Y-107613536D01*
X159928576Y-107675447D01*
X159867860Y-107710021D01*
X159863536Y-107710961D01*
X159766508Y-107730261D01*
X159766498Y-107730264D01*
X159620827Y-107790602D01*
X159620814Y-107790609D01*
X159489711Y-107878210D01*
X159489707Y-107878213D01*
X159378213Y-107989707D01*
X159378210Y-107989711D01*
X159290609Y-108120814D01*
X159290602Y-108120827D01*
X159230264Y-108266498D01*
X159230261Y-108266510D01*
X159199500Y-108421153D01*
X158050499Y-108421153D01*
X158038895Y-108362818D01*
X158019737Y-108266503D01*
X158007442Y-108236819D01*
X157997414Y-108212609D01*
X157989945Y-108143140D01*
X158021221Y-108080661D01*
X158081310Y-108045009D01*
X158136167Y-108043540D01*
X158171156Y-108050500D01*
X158171158Y-108050500D01*
X158328844Y-108050500D01*
X158328845Y-108050499D01*
X158483497Y-108019737D01*
X158597306Y-107972596D01*
X158629172Y-107959397D01*
X158629172Y-107959396D01*
X158629179Y-107959394D01*
X158760289Y-107871789D01*
X158871789Y-107760289D01*
X158959394Y-107629179D01*
X158965874Y-107613536D01*
X158996970Y-107538462D01*
X159019737Y-107483497D01*
X159050500Y-107328842D01*
X159050500Y-107171158D01*
X159050500Y-107171155D01*
X159050499Y-107171153D01*
X159041957Y-107128210D01*
X159019737Y-107016503D01*
X159019735Y-107016498D01*
X158959397Y-106870827D01*
X158959390Y-106870814D01*
X158871789Y-106739711D01*
X158871786Y-106739707D01*
X158760292Y-106628213D01*
X158760288Y-106628210D01*
X158629185Y-106540609D01*
X158629172Y-106540602D01*
X158483501Y-106480264D01*
X158483489Y-106480261D01*
X158328845Y-106449500D01*
X158328842Y-106449500D01*
X158171158Y-106449500D01*
X158171155Y-106449500D01*
X158016510Y-106480261D01*
X158016498Y-106480264D01*
X157870827Y-106540602D01*
X157870814Y-106540609D01*
X157818891Y-106575304D01*
X157752214Y-106596182D01*
X157684833Y-106577698D01*
X157681109Y-106575304D01*
X157629185Y-106540609D01*
X157629172Y-106540602D01*
X157483501Y-106480264D01*
X157483489Y-106480261D01*
X157328845Y-106449500D01*
X157328842Y-106449500D01*
X157171158Y-106449500D01*
X157171155Y-106449500D01*
X157016510Y-106480261D01*
X157016498Y-106480264D01*
X156870827Y-106540602D01*
X156870814Y-106540609D01*
X156739711Y-106628210D01*
X156739707Y-106628213D01*
X156628213Y-106739707D01*
X156628210Y-106739711D01*
X156540609Y-106870814D01*
X156540602Y-106870827D01*
X156480264Y-107016498D01*
X156480261Y-107016510D01*
X156449500Y-107171153D01*
X156449500Y-107328846D01*
X156480261Y-107483489D01*
X156480264Y-107483501D01*
X156540602Y-107629172D01*
X156540609Y-107629185D01*
X156628210Y-107760288D01*
X156628213Y-107760292D01*
X156655240Y-107787319D01*
X156688725Y-107848642D01*
X156683741Y-107918334D01*
X156655240Y-107962681D01*
X156628213Y-107989707D01*
X156628210Y-107989711D01*
X156540609Y-108120814D01*
X156540602Y-108120827D01*
X156480264Y-108266498D01*
X156480261Y-108266510D01*
X156449500Y-108421153D01*
X156449500Y-108578846D01*
X156480261Y-108733489D01*
X156480264Y-108733501D01*
X156540602Y-108879172D01*
X156540609Y-108879185D01*
X156628210Y-109010288D01*
X156628213Y-109010292D01*
X156739707Y-109121786D01*
X156739710Y-109121788D01*
X156739711Y-109121789D01*
X156765219Y-109138833D01*
X156777289Y-109146898D01*
X156822093Y-109200511D01*
X156830800Y-109269836D01*
X156800645Y-109332863D01*
X156777289Y-109353102D01*
X156739707Y-109378213D01*
X156628213Y-109489707D01*
X156628210Y-109489711D01*
X156540609Y-109620814D01*
X156540602Y-109620827D01*
X156480264Y-109766498D01*
X156480261Y-109766510D01*
X156449500Y-109921153D01*
X156449500Y-110078846D01*
X156480261Y-110233489D01*
X156480264Y-110233501D01*
X156540602Y-110379172D01*
X156540609Y-110379185D01*
X156628210Y-110510288D01*
X156628213Y-110510292D01*
X156739707Y-110621786D01*
X156739710Y-110621788D01*
X156739711Y-110621789D01*
X156765219Y-110638833D01*
X156777289Y-110646898D01*
X156822093Y-110700511D01*
X156830800Y-110769836D01*
X156800645Y-110832863D01*
X156777289Y-110853102D01*
X156739707Y-110878213D01*
X156691233Y-110926687D01*
X156629910Y-110960171D01*
X156560218Y-110955186D01*
X156515872Y-110926686D01*
X150760339Y-105171153D01*
X155699500Y-105171153D01*
X155699500Y-105328846D01*
X155730261Y-105483489D01*
X155730264Y-105483501D01*
X155790602Y-105629172D01*
X155790609Y-105629185D01*
X155878210Y-105760288D01*
X155878213Y-105760292D01*
X155989707Y-105871786D01*
X155989711Y-105871789D01*
X156120814Y-105959390D01*
X156120827Y-105959397D01*
X156206113Y-105994723D01*
X156266503Y-106019737D01*
X156421153Y-106050499D01*
X156421156Y-106050500D01*
X156421158Y-106050500D01*
X156578844Y-106050500D01*
X156578845Y-106050499D01*
X156733497Y-106019737D01*
X156879179Y-105959394D01*
X157010289Y-105871789D01*
X157121789Y-105760289D01*
X157209394Y-105629179D01*
X157212854Y-105620827D01*
X157267163Y-105489711D01*
X157269737Y-105483497D01*
X157300500Y-105328842D01*
X157300500Y-105171158D01*
X157300500Y-105171155D01*
X157300499Y-105171153D01*
X157269738Y-105016510D01*
X157269737Y-105016503D01*
X157229841Y-104920185D01*
X157209397Y-104870827D01*
X157209390Y-104870814D01*
X157121789Y-104739711D01*
X157121786Y-104739707D01*
X157010292Y-104628213D01*
X157010288Y-104628210D01*
X156879185Y-104540609D01*
X156879172Y-104540602D01*
X156733501Y-104480264D01*
X156733489Y-104480261D01*
X156578845Y-104449500D01*
X156578842Y-104449500D01*
X156421158Y-104449500D01*
X156421155Y-104449500D01*
X156266510Y-104480261D01*
X156266498Y-104480264D01*
X156120827Y-104540602D01*
X156120814Y-104540609D01*
X155989711Y-104628210D01*
X155989707Y-104628213D01*
X155878213Y-104739707D01*
X155878210Y-104739711D01*
X155790609Y-104870814D01*
X155790602Y-104870827D01*
X155730264Y-105016498D01*
X155730261Y-105016510D01*
X155699500Y-105171153D01*
X150760339Y-105171153D01*
X150333912Y-104744726D01*
X150333908Y-104744723D01*
X150227366Y-104673535D01*
X150108983Y-104624499D01*
X150108977Y-104624497D01*
X149983310Y-104599500D01*
X149983308Y-104599500D01*
X148369808Y-104599500D01*
X148302769Y-104579815D01*
X148257014Y-104527011D01*
X148247070Y-104457853D01*
X148276095Y-104394297D01*
X148282117Y-104387828D01*
X148602932Y-104067012D01*
X148664252Y-104033530D01*
X148666317Y-104033099D01*
X148733497Y-104019737D01*
X148879179Y-103959394D01*
X149010289Y-103871789D01*
X149121789Y-103760289D01*
X149209394Y-103629179D01*
X149269737Y-103483497D01*
X149300500Y-103328842D01*
X149300500Y-103171158D01*
X149300500Y-103171155D01*
X149300499Y-103171153D01*
X149269738Y-103016510D01*
X149269738Y-103016508D01*
X149269737Y-103016503D01*
X149267163Y-103010288D01*
X149209397Y-102870827D01*
X149209390Y-102870814D01*
X149121789Y-102739711D01*
X149121786Y-102739707D01*
X149010292Y-102628213D01*
X149010288Y-102628210D01*
X148879185Y-102540609D01*
X148879173Y-102540602D01*
X148852674Y-102529627D01*
X148733501Y-102480264D01*
X148733489Y-102480261D01*
X148578845Y-102449500D01*
X148578842Y-102449500D01*
X148421158Y-102449500D01*
X148421155Y-102449500D01*
X148266510Y-102480261D01*
X148266498Y-102480264D01*
X148120827Y-102540602D01*
X148120814Y-102540609D01*
X147989711Y-102628210D01*
X147989707Y-102628213D01*
X147878213Y-102739707D01*
X147878210Y-102739711D01*
X147790609Y-102870814D01*
X147790602Y-102870827D01*
X147730264Y-103016498D01*
X147730261Y-103016508D01*
X147716920Y-103083579D01*
X147684535Y-103145490D01*
X147682984Y-103147068D01*
X147266873Y-103563181D01*
X147205550Y-103596666D01*
X147179192Y-103599500D01*
X144924500Y-103599500D01*
X144857461Y-103579815D01*
X144811706Y-103527011D01*
X144800500Y-103475500D01*
X144800500Y-103421155D01*
X144800499Y-103421153D01*
X144782137Y-103328842D01*
X144769737Y-103266503D01*
X144720266Y-103147068D01*
X144709397Y-103120827D01*
X144709390Y-103120814D01*
X144621789Y-102989711D01*
X144621786Y-102989707D01*
X144510292Y-102878213D01*
X144510288Y-102878210D01*
X144379185Y-102790609D01*
X144379172Y-102790602D01*
X144254738Y-102739061D01*
X144200334Y-102695221D01*
X144178269Y-102628926D01*
X144195548Y-102561227D01*
X144246685Y-102513616D01*
X144302190Y-102500500D01*
X146214071Y-102500500D01*
X146315804Y-102480263D01*
X146339744Y-102475501D01*
X146458127Y-102426465D01*
X146460307Y-102425008D01*
X146462516Y-102423533D01*
X146466078Y-102421153D01*
X152199500Y-102421153D01*
X152199500Y-102578846D01*
X152230261Y-102733489D01*
X152230264Y-102733501D01*
X152290602Y-102879172D01*
X152290609Y-102879185D01*
X152378210Y-103010288D01*
X152378213Y-103010292D01*
X152489707Y-103121786D01*
X152489711Y-103121789D01*
X152620814Y-103209390D01*
X152620827Y-103209397D01*
X152758683Y-103266498D01*
X152766503Y-103269737D01*
X152921153Y-103300499D01*
X152921156Y-103300500D01*
X152921158Y-103300500D01*
X153078844Y-103300500D01*
X153078845Y-103300499D01*
X153233497Y-103269737D01*
X153379179Y-103209394D01*
X153510289Y-103121789D01*
X153621789Y-103010289D01*
X153709394Y-102879179D01*
X153712854Y-102870827D01*
X153730244Y-102828842D01*
X153769737Y-102733497D01*
X153800500Y-102578842D01*
X153800500Y-102421158D01*
X153800500Y-102421155D01*
X153800499Y-102421153D01*
X153791957Y-102378210D01*
X153769737Y-102266503D01*
X153761997Y-102247816D01*
X153709397Y-102120827D01*
X153709390Y-102120814D01*
X153621789Y-101989711D01*
X153621786Y-101989707D01*
X153510292Y-101878213D01*
X153510288Y-101878210D01*
X153379185Y-101790609D01*
X153379173Y-101790602D01*
X153352674Y-101779627D01*
X153233501Y-101730264D01*
X153233489Y-101730261D01*
X153078845Y-101699500D01*
X153078842Y-101699500D01*
X152921158Y-101699500D01*
X152921155Y-101699500D01*
X152766510Y-101730261D01*
X152766498Y-101730264D01*
X152620827Y-101790602D01*
X152620814Y-101790609D01*
X152489711Y-101878210D01*
X152489707Y-101878213D01*
X152378213Y-101989707D01*
X152378210Y-101989711D01*
X152290609Y-102120814D01*
X152290602Y-102120827D01*
X152230264Y-102266498D01*
X152230261Y-102266510D01*
X152199500Y-102421153D01*
X146466078Y-102421153D01*
X146541416Y-102370814D01*
X146564669Y-102355277D01*
X147248792Y-101671153D01*
X156449500Y-101671153D01*
X156449500Y-101828846D01*
X156480261Y-101983489D01*
X156480264Y-101983501D01*
X156540602Y-102129172D01*
X156540609Y-102129185D01*
X156628210Y-102260288D01*
X156628213Y-102260292D01*
X156655240Y-102287319D01*
X156688725Y-102348642D01*
X156683741Y-102418334D01*
X156655240Y-102462681D01*
X156628213Y-102489707D01*
X156628210Y-102489711D01*
X156540609Y-102620814D01*
X156540602Y-102620827D01*
X156480264Y-102766498D01*
X156480261Y-102766510D01*
X156449500Y-102921153D01*
X156449500Y-103078846D01*
X156480261Y-103233489D01*
X156480264Y-103233501D01*
X156540602Y-103379172D01*
X156540609Y-103379185D01*
X156628210Y-103510288D01*
X156628213Y-103510292D01*
X156739707Y-103621786D01*
X156739711Y-103621789D01*
X156870814Y-103709390D01*
X156870827Y-103709397D01*
X157016498Y-103769735D01*
X157016503Y-103769737D01*
X157171153Y-103800499D01*
X157171156Y-103800500D01*
X157171158Y-103800500D01*
X157328844Y-103800500D01*
X157328845Y-103800499D01*
X157483497Y-103769737D01*
X157629179Y-103709394D01*
X157681110Y-103674694D01*
X157747785Y-103653816D01*
X157815165Y-103672300D01*
X157818863Y-103674676D01*
X157870821Y-103709394D01*
X157870823Y-103709395D01*
X157870825Y-103709396D01*
X158016498Y-103769735D01*
X158016503Y-103769737D01*
X158171153Y-103800499D01*
X158171156Y-103800500D01*
X158171158Y-103800500D01*
X158328844Y-103800500D01*
X158328845Y-103800499D01*
X158483497Y-103769737D01*
X158629179Y-103709394D01*
X158760289Y-103621789D01*
X158871789Y-103510289D01*
X158959394Y-103379179D01*
X159019737Y-103233497D01*
X159050500Y-103078842D01*
X159050500Y-102921158D01*
X159050500Y-102921155D01*
X159050499Y-102921153D01*
X159041957Y-102878210D01*
X159019737Y-102766503D01*
X159011976Y-102747766D01*
X158959397Y-102620827D01*
X158959390Y-102620814D01*
X158871789Y-102489711D01*
X158871786Y-102489707D01*
X158760292Y-102378213D01*
X158760288Y-102378210D01*
X158629185Y-102290609D01*
X158629172Y-102290602D01*
X158483501Y-102230264D01*
X158483489Y-102230261D01*
X158328845Y-102199500D01*
X158328842Y-102199500D01*
X158171158Y-102199500D01*
X158171157Y-102199500D01*
X158136164Y-102206460D01*
X158133452Y-102206217D01*
X158130988Y-102207376D01*
X158098855Y-102203120D01*
X158066573Y-102200231D01*
X158064422Y-102198560D01*
X158061723Y-102198203D01*
X158036993Y-102177252D01*
X158011396Y-102157367D01*
X158010489Y-102154798D01*
X158008413Y-102153039D01*
X157998936Y-102122047D01*
X157988153Y-102091477D01*
X157988535Y-102088029D01*
X157987983Y-102086223D01*
X157989750Y-102077068D01*
X157992616Y-102051235D01*
X157994604Y-102044172D01*
X158019737Y-101983497D01*
X158032138Y-101921153D01*
X159449500Y-101921153D01*
X159449500Y-102078846D01*
X159480261Y-102233489D01*
X159480264Y-102233501D01*
X159540602Y-102379172D01*
X159540609Y-102379185D01*
X159628210Y-102510288D01*
X159628213Y-102510292D01*
X159739707Y-102621786D01*
X159739711Y-102621789D01*
X159870814Y-102709390D01*
X159870827Y-102709397D01*
X160008683Y-102766498D01*
X160016503Y-102769737D01*
X160112367Y-102788805D01*
X160113535Y-102789038D01*
X160175446Y-102821422D01*
X160210020Y-102882138D01*
X160210961Y-102886463D01*
X160230261Y-102983491D01*
X160230264Y-102983501D01*
X160290602Y-103129172D01*
X160290609Y-103129185D01*
X160378210Y-103260288D01*
X160378213Y-103260292D01*
X160489707Y-103371786D01*
X160489711Y-103371789D01*
X160620814Y-103459390D01*
X160620827Y-103459397D01*
X160766498Y-103519735D01*
X160766503Y-103519737D01*
X160921153Y-103550499D01*
X160921156Y-103550500D01*
X160921158Y-103550500D01*
X161078844Y-103550500D01*
X161078845Y-103550499D01*
X161233497Y-103519737D01*
X161379179Y-103459394D01*
X161510289Y-103371789D01*
X161621789Y-103260289D01*
X161709394Y-103129179D01*
X161712854Y-103120827D01*
X161730244Y-103078842D01*
X161769737Y-102983497D01*
X161800500Y-102828842D01*
X161800500Y-102671158D01*
X161800500Y-102671155D01*
X161800499Y-102671153D01*
X161794729Y-102642147D01*
X161769737Y-102516503D01*
X161729074Y-102418334D01*
X161709397Y-102370827D01*
X161709390Y-102370814D01*
X161621789Y-102239711D01*
X161621786Y-102239707D01*
X161510292Y-102128213D01*
X161510288Y-102128210D01*
X161379185Y-102040609D01*
X161379172Y-102040602D01*
X161233501Y-101980264D01*
X161233491Y-101980261D01*
X161136463Y-101960961D01*
X161074552Y-101928576D01*
X161039978Y-101867860D01*
X161039038Y-101863535D01*
X161038805Y-101862367D01*
X161019737Y-101766503D01*
X161013155Y-101750613D01*
X160959397Y-101620827D01*
X160959390Y-101620814D01*
X160871789Y-101489711D01*
X160871786Y-101489707D01*
X160760292Y-101378213D01*
X160760288Y-101378210D01*
X160629185Y-101290609D01*
X160629172Y-101290602D01*
X160558260Y-101261230D01*
X160483501Y-101230264D01*
X160483489Y-101230261D01*
X160328845Y-101199500D01*
X160328842Y-101199500D01*
X160171158Y-101199500D01*
X160171155Y-101199500D01*
X160016510Y-101230261D01*
X160016498Y-101230264D01*
X159870827Y-101290602D01*
X159870814Y-101290609D01*
X159739711Y-101378210D01*
X159739707Y-101378213D01*
X159628213Y-101489707D01*
X159628210Y-101489711D01*
X159540609Y-101620814D01*
X159540602Y-101620827D01*
X159480264Y-101766498D01*
X159480261Y-101766510D01*
X159449500Y-101921153D01*
X158032138Y-101921153D01*
X158047051Y-101846182D01*
X158050500Y-101828844D01*
X158050500Y-101671155D01*
X158037426Y-101605431D01*
X158043653Y-101535840D01*
X158086515Y-101480662D01*
X158111589Y-101466679D01*
X158129179Y-101459394D01*
X158260289Y-101371789D01*
X158371789Y-101260289D01*
X158459394Y-101129179D01*
X158519737Y-100983497D01*
X158550500Y-100828842D01*
X158550500Y-100680000D01*
X162080138Y-100680000D01*
X162883012Y-100680000D01*
X162865795Y-100689940D01*
X162809940Y-100745795D01*
X162770444Y-100814204D01*
X162750000Y-100890504D01*
X162750000Y-100969496D01*
X162770444Y-101045796D01*
X162809940Y-101114205D01*
X162865795Y-101170060D01*
X162883012Y-101180000D01*
X162080138Y-101180000D01*
X162088430Y-101221690D01*
X162088430Y-101221692D01*
X162163807Y-101403671D01*
X162163814Y-101403684D01*
X162273248Y-101567462D01*
X162273251Y-101567466D01*
X162412533Y-101706748D01*
X162412537Y-101706751D01*
X162576315Y-101816185D01*
X162576328Y-101816192D01*
X162758306Y-101891569D01*
X162758318Y-101891572D01*
X162951504Y-101929999D01*
X162951508Y-101930000D01*
X163350000Y-101930000D01*
X163350000Y-101230000D01*
X163850000Y-101230000D01*
X163850000Y-101955880D01*
X163852354Y-101960192D01*
X163847370Y-102029884D01*
X163834291Y-102055440D01*
X163790608Y-102120816D01*
X163790602Y-102120827D01*
X163730264Y-102266498D01*
X163730261Y-102266510D01*
X163699500Y-102421153D01*
X163699500Y-102578846D01*
X163730261Y-102733489D01*
X163730264Y-102733501D01*
X163769219Y-102827548D01*
X163776688Y-102897018D01*
X163769219Y-102922452D01*
X163730264Y-103016498D01*
X163730261Y-103016510D01*
X163699500Y-103171153D01*
X163699500Y-103328846D01*
X163730261Y-103483489D01*
X163730264Y-103483501D01*
X163790602Y-103629172D01*
X163790609Y-103629185D01*
X163878210Y-103760288D01*
X163878213Y-103760292D01*
X163989707Y-103871786D01*
X163989711Y-103871789D01*
X164120814Y-103959390D01*
X164120827Y-103959397D01*
X164266498Y-104019735D01*
X164266503Y-104019737D01*
X164370468Y-104040417D01*
X164421153Y-104050499D01*
X164421156Y-104050500D01*
X164421158Y-104050500D01*
X164578844Y-104050500D01*
X164578845Y-104050499D01*
X164733497Y-104019737D01*
X164879179Y-103959394D01*
X164931110Y-103924694D01*
X164997785Y-103903816D01*
X165065165Y-103922300D01*
X165068863Y-103924676D01*
X165120821Y-103959394D01*
X165120823Y-103959395D01*
X165120825Y-103959396D01*
X165266498Y-104019735D01*
X165266503Y-104019737D01*
X165370468Y-104040417D01*
X165421153Y-104050499D01*
X165421156Y-104050500D01*
X165421158Y-104050500D01*
X165578844Y-104050500D01*
X165578845Y-104050499D01*
X165733497Y-104019737D01*
X165879179Y-103959394D01*
X166010289Y-103871789D01*
X166121789Y-103760289D01*
X166209394Y-103629179D01*
X166269737Y-103483497D01*
X166300500Y-103328842D01*
X166300500Y-103171158D01*
X166300500Y-103171155D01*
X166300499Y-103171153D01*
X166269738Y-103016510D01*
X166269738Y-103016508D01*
X166269737Y-103016503D01*
X166230778Y-102922449D01*
X166223310Y-102852984D01*
X166230775Y-102827556D01*
X166269737Y-102733497D01*
X166300500Y-102578842D01*
X166300500Y-102421158D01*
X166300500Y-102421155D01*
X166300499Y-102421153D01*
X166291957Y-102378210D01*
X166269737Y-102266503D01*
X166261997Y-102247816D01*
X166209397Y-102120827D01*
X166209390Y-102120814D01*
X166121789Y-101989711D01*
X166121786Y-101989707D01*
X166010292Y-101878213D01*
X166010288Y-101878210D01*
X165879185Y-101790609D01*
X165879172Y-101790602D01*
X165733501Y-101730264D01*
X165733489Y-101730261D01*
X165578845Y-101699500D01*
X165578842Y-101699500D01*
X165421158Y-101699500D01*
X165421155Y-101699500D01*
X165266510Y-101730261D01*
X165266498Y-101730264D01*
X165120827Y-101790602D01*
X165120814Y-101790609D01*
X165068891Y-101825304D01*
X165002214Y-101846182D01*
X164934833Y-101827698D01*
X164931109Y-101825304D01*
X164899562Y-101804225D01*
X164854757Y-101750613D01*
X164846050Y-101681288D01*
X164876204Y-101618261D01*
X164880773Y-101613441D01*
X164926748Y-101567466D01*
X164926751Y-101567462D01*
X165036185Y-101403684D01*
X165036192Y-101403671D01*
X165111569Y-101221692D01*
X165111569Y-101221690D01*
X165119862Y-101180000D01*
X164316988Y-101180000D01*
X164334205Y-101170060D01*
X164390060Y-101114205D01*
X164429556Y-101045796D01*
X164450000Y-100969496D01*
X164450000Y-100890504D01*
X164429556Y-100814204D01*
X164390060Y-100745795D01*
X164334205Y-100689940D01*
X164316988Y-100680000D01*
X165119862Y-100680000D01*
X166430138Y-100680000D01*
X167233012Y-100680000D01*
X167215795Y-100689940D01*
X167159940Y-100745795D01*
X167120444Y-100814204D01*
X167100000Y-100890504D01*
X167100000Y-100969496D01*
X167120444Y-101045796D01*
X167159940Y-101114205D01*
X167215795Y-101170060D01*
X167233012Y-101180000D01*
X166430138Y-101180000D01*
X166438430Y-101221690D01*
X166438430Y-101221692D01*
X166513807Y-101403671D01*
X166513814Y-101403684D01*
X166623248Y-101567462D01*
X166623251Y-101567466D01*
X166762533Y-101706748D01*
X166762537Y-101706751D01*
X166926315Y-101816185D01*
X166926328Y-101816192D01*
X167108306Y-101891569D01*
X167108318Y-101891572D01*
X167301504Y-101929999D01*
X167301508Y-101930000D01*
X167550000Y-101930000D01*
X167550000Y-101230000D01*
X168050000Y-101230000D01*
X168050000Y-101930000D01*
X168298492Y-101930000D01*
X168298495Y-101929999D01*
X168491681Y-101891572D01*
X168491693Y-101891569D01*
X168673671Y-101816192D01*
X168673684Y-101816185D01*
X168837462Y-101706751D01*
X168837466Y-101706748D01*
X168976748Y-101567466D01*
X168976751Y-101567462D01*
X169086185Y-101403684D01*
X169086192Y-101403671D01*
X169161569Y-101221692D01*
X169161569Y-101221690D01*
X169169862Y-101180000D01*
X168366988Y-101180000D01*
X168384205Y-101170060D01*
X168440060Y-101114205D01*
X168479556Y-101045796D01*
X168500000Y-100969496D01*
X168500000Y-100890504D01*
X168479556Y-100814204D01*
X168440060Y-100745795D01*
X168384205Y-100689940D01*
X168366988Y-100680000D01*
X169169862Y-100680000D01*
X169161569Y-100638309D01*
X169161569Y-100638307D01*
X169086192Y-100456328D01*
X169086185Y-100456315D01*
X168976751Y-100292537D01*
X168976748Y-100292533D01*
X168837466Y-100153251D01*
X168837462Y-100153248D01*
X168673684Y-100043814D01*
X168673671Y-100043807D01*
X168491693Y-99968430D01*
X168491681Y-99968427D01*
X168298495Y-99930000D01*
X168050000Y-99930000D01*
X168050000Y-100630000D01*
X167550000Y-100630000D01*
X167550000Y-99930000D01*
X167301504Y-99930000D01*
X167108318Y-99968427D01*
X167108306Y-99968430D01*
X166926328Y-100043807D01*
X166926315Y-100043814D01*
X166762537Y-100153248D01*
X166762533Y-100153251D01*
X166623251Y-100292533D01*
X166623248Y-100292537D01*
X166513814Y-100456315D01*
X166513807Y-100456328D01*
X166438430Y-100638307D01*
X166438430Y-100638309D01*
X166430138Y-100680000D01*
X165119862Y-100680000D01*
X165111569Y-100638309D01*
X165111569Y-100638307D01*
X165036192Y-100456328D01*
X165036185Y-100456315D01*
X164926751Y-100292537D01*
X164926748Y-100292533D01*
X164787466Y-100153251D01*
X164787462Y-100153248D01*
X164623684Y-100043814D01*
X164623671Y-100043807D01*
X164441693Y-99968430D01*
X164441681Y-99968427D01*
X164248495Y-99930000D01*
X163850000Y-99930000D01*
X163850000Y-100630000D01*
X163350000Y-100630000D01*
X163350000Y-99930000D01*
X162951504Y-99930000D01*
X162758318Y-99968427D01*
X162758306Y-99968430D01*
X162576328Y-100043807D01*
X162576315Y-100043814D01*
X162412537Y-100153248D01*
X162412533Y-100153251D01*
X162273251Y-100292533D01*
X162273248Y-100292537D01*
X162163814Y-100456315D01*
X162163807Y-100456328D01*
X162088430Y-100638307D01*
X162088430Y-100638309D01*
X162080138Y-100680000D01*
X158550500Y-100680000D01*
X158550500Y-100671158D01*
X158550500Y-100671155D01*
X158550499Y-100671153D01*
X158542148Y-100629172D01*
X158519737Y-100516503D01*
X158465135Y-100384681D01*
X158459397Y-100370827D01*
X158459390Y-100370814D01*
X158371789Y-100239711D01*
X158371786Y-100239707D01*
X158260292Y-100128213D01*
X158260288Y-100128210D01*
X158129185Y-100040609D01*
X158129172Y-100040602D01*
X157983501Y-99980264D01*
X157983489Y-99980261D01*
X157828845Y-99949500D01*
X157828842Y-99949500D01*
X157671158Y-99949500D01*
X157671155Y-99949500D01*
X157516510Y-99980261D01*
X157516498Y-99980264D01*
X157370827Y-100040602D01*
X157370814Y-100040609D01*
X157239711Y-100128210D01*
X157239707Y-100128213D01*
X157128213Y-100239707D01*
X157128210Y-100239711D01*
X157040609Y-100370814D01*
X157040602Y-100370827D01*
X156980264Y-100516498D01*
X156980261Y-100516510D01*
X156949500Y-100671153D01*
X156949500Y-100828846D01*
X156962573Y-100894568D01*
X156956346Y-100964159D01*
X156913483Y-101019337D01*
X156888411Y-101033319D01*
X156870826Y-101040603D01*
X156870814Y-101040609D01*
X156739711Y-101128210D01*
X156739707Y-101128213D01*
X156628213Y-101239707D01*
X156628210Y-101239711D01*
X156540609Y-101370814D01*
X156540602Y-101370827D01*
X156480264Y-101516498D01*
X156480261Y-101516510D01*
X156449500Y-101671153D01*
X147248792Y-101671153D01*
X147852931Y-101067013D01*
X147914252Y-101033530D01*
X147916317Y-101033099D01*
X147983497Y-101019737D01*
X148129179Y-100959394D01*
X148260289Y-100871789D01*
X148371789Y-100760289D01*
X148459394Y-100629179D01*
X148519737Y-100483497D01*
X148550500Y-100328842D01*
X148550500Y-100171158D01*
X148550500Y-100171155D01*
X148550499Y-100171153D01*
X148547296Y-100155050D01*
X148519737Y-100016503D01*
X148519735Y-100016498D01*
X148459396Y-99870825D01*
X148459394Y-99870822D01*
X148459394Y-99870821D01*
X148424694Y-99818889D01*
X148403816Y-99752215D01*
X148422300Y-99684835D01*
X148424676Y-99681136D01*
X148459394Y-99629179D01*
X148519737Y-99483497D01*
X148550500Y-99328842D01*
X148550500Y-99171158D01*
X148550500Y-99171155D01*
X148550499Y-99171153D01*
X148519738Y-99016510D01*
X148519738Y-99016508D01*
X148519737Y-99016503D01*
X148480242Y-98921153D01*
X148459397Y-98870827D01*
X148459390Y-98870814D01*
X148371789Y-98739711D01*
X148371786Y-98739707D01*
X148260292Y-98628213D01*
X148260288Y-98628210D01*
X148129185Y-98540609D01*
X148129172Y-98540602D01*
X147983501Y-98480264D01*
X147983489Y-98480261D01*
X147828845Y-98449500D01*
X147828842Y-98449500D01*
X147671158Y-98449500D01*
X147671155Y-98449500D01*
X147516510Y-98480261D01*
X147516498Y-98480264D01*
X147370827Y-98540602D01*
X147370814Y-98540609D01*
X147239711Y-98628210D01*
X147239707Y-98628213D01*
X147128213Y-98739707D01*
X147128210Y-98739711D01*
X147040609Y-98870814D01*
X147040602Y-98870827D01*
X146980264Y-99016498D01*
X146980261Y-99016508D01*
X146966920Y-99083579D01*
X146934535Y-99145490D01*
X146932984Y-99147068D01*
X145416873Y-100663181D01*
X145355550Y-100696666D01*
X145329192Y-100699500D01*
X141727350Y-100699500D01*
X141660311Y-100679815D01*
X141614556Y-100627011D01*
X141604612Y-100557853D01*
X141624248Y-100506609D01*
X141709390Y-100379185D01*
X141709390Y-100379184D01*
X141709394Y-100379179D01*
X141712854Y-100370827D01*
X141744760Y-100293797D01*
X141769737Y-100233497D01*
X141800500Y-100078842D01*
X141800500Y-99921158D01*
X141800500Y-99921155D01*
X141793540Y-99886167D01*
X141799767Y-99816576D01*
X141842629Y-99761398D01*
X141908519Y-99738153D01*
X141962609Y-99747414D01*
X142008683Y-99766498D01*
X142016503Y-99769737D01*
X142171153Y-99800499D01*
X142171156Y-99800500D01*
X142171158Y-99800500D01*
X142328844Y-99800500D01*
X142328845Y-99800499D01*
X142483497Y-99769737D01*
X142629179Y-99709394D01*
X142686044Y-99671397D01*
X142752721Y-99650520D01*
X142754935Y-99650500D01*
X144745065Y-99650500D01*
X144812104Y-99670185D01*
X144813909Y-99671366D01*
X144870821Y-99709394D01*
X144870823Y-99709395D01*
X144870827Y-99709397D01*
X145008683Y-99766498D01*
X145016503Y-99769737D01*
X145171153Y-99800499D01*
X145171156Y-99800500D01*
X145171158Y-99800500D01*
X145328844Y-99800500D01*
X145328845Y-99800499D01*
X145483497Y-99769737D01*
X145629179Y-99709394D01*
X145760289Y-99621789D01*
X145871789Y-99510289D01*
X145959394Y-99379179D01*
X146019737Y-99233497D01*
X146050500Y-99078842D01*
X146050500Y-98921158D01*
X146050500Y-98921155D01*
X146050499Y-98921153D01*
X146019738Y-98766510D01*
X146019737Y-98766503D01*
X146019735Y-98766498D01*
X145959397Y-98620827D01*
X145959390Y-98620814D01*
X145871789Y-98489711D01*
X145871786Y-98489707D01*
X145844760Y-98462681D01*
X145811275Y-98401358D01*
X145816259Y-98331666D01*
X145844760Y-98287319D01*
X145871786Y-98260292D01*
X145871789Y-98260289D01*
X145959394Y-98129179D01*
X146019737Y-97983497D01*
X146050500Y-97828842D01*
X146050500Y-97671158D01*
X146050500Y-97671155D01*
X146050499Y-97671153D01*
X146046192Y-97649500D01*
X146019737Y-97516503D01*
X145959394Y-97370821D01*
X145921396Y-97313953D01*
X145900520Y-97247276D01*
X145900500Y-97245064D01*
X145900500Y-96643713D01*
X151819500Y-96643713D01*
X151819500Y-96856286D01*
X151850260Y-97050500D01*
X151852754Y-97066243D01*
X151911575Y-97247276D01*
X151918444Y-97268414D01*
X152014951Y-97457820D01*
X152139890Y-97629786D01*
X152290213Y-97780109D01*
X152462179Y-97905048D01*
X152462181Y-97905049D01*
X152462184Y-97905051D01*
X152651588Y-98001557D01*
X152853757Y-98067246D01*
X153063713Y-98100500D01*
X153063714Y-98100500D01*
X153276286Y-98100500D01*
X153276287Y-98100500D01*
X153486243Y-98067246D01*
X153688412Y-98001557D01*
X153877816Y-97905051D01*
X153982707Y-97828844D01*
X154049786Y-97780109D01*
X154049788Y-97780106D01*
X154049792Y-97780104D01*
X154200104Y-97629792D01*
X154200106Y-97629788D01*
X154200109Y-97629786D01*
X154325048Y-97457820D01*
X154325047Y-97457820D01*
X154325051Y-97457816D01*
X154329514Y-97449054D01*
X154377488Y-97398259D01*
X154445308Y-97381463D01*
X154511444Y-97403999D01*
X154550486Y-97449056D01*
X154554951Y-97457820D01*
X154679890Y-97629786D01*
X154830213Y-97780109D01*
X155002179Y-97905048D01*
X155002181Y-97905049D01*
X155002184Y-97905051D01*
X155191588Y-98001557D01*
X155393757Y-98067246D01*
X155603713Y-98100500D01*
X155603714Y-98100500D01*
X155816286Y-98100500D01*
X155816287Y-98100500D01*
X156026243Y-98067246D01*
X156228412Y-98001557D01*
X156417816Y-97905051D01*
X156522707Y-97828844D01*
X156589786Y-97780109D01*
X156589788Y-97780106D01*
X156589792Y-97780104D01*
X156740104Y-97629792D01*
X156740106Y-97629788D01*
X156740109Y-97629786D01*
X156865048Y-97457820D01*
X156865047Y-97457820D01*
X156865051Y-97457816D01*
X156869514Y-97449054D01*
X156917488Y-97398259D01*
X156985308Y-97381463D01*
X157051444Y-97403999D01*
X157090486Y-97449056D01*
X157094951Y-97457820D01*
X157219890Y-97629786D01*
X157370213Y-97780109D01*
X157542179Y-97905048D01*
X157542181Y-97905049D01*
X157542184Y-97905051D01*
X157731588Y-98001557D01*
X157933757Y-98067246D01*
X158143713Y-98100500D01*
X158143714Y-98100500D01*
X158356286Y-98100500D01*
X158356287Y-98100500D01*
X158566243Y-98067246D01*
X158768412Y-98001557D01*
X158957816Y-97905051D01*
X159062707Y-97828844D01*
X159129784Y-97780110D01*
X159129784Y-97780109D01*
X159129792Y-97780104D01*
X159243717Y-97666178D01*
X159305036Y-97632696D01*
X159374728Y-97637680D01*
X159430662Y-97679551D01*
X159447577Y-97710528D01*
X159496645Y-97842085D01*
X159496649Y-97842093D01*
X159582809Y-97957187D01*
X159582812Y-97957190D01*
X159697906Y-98043350D01*
X159697913Y-98043354D01*
X159832620Y-98093596D01*
X159832627Y-98093598D01*
X159892155Y-98099999D01*
X159892172Y-98100000D01*
X160540000Y-98100000D01*
X160540000Y-97183012D01*
X160597007Y-97215925D01*
X160724174Y-97250000D01*
X160855826Y-97250000D01*
X160982993Y-97215925D01*
X161040000Y-97183012D01*
X161040000Y-98100000D01*
X161687828Y-98100000D01*
X161687844Y-98099999D01*
X161747372Y-98093598D01*
X161747379Y-98093596D01*
X161882086Y-98043354D01*
X161882093Y-98043350D01*
X161997187Y-97957190D01*
X161997190Y-97957187D01*
X162083350Y-97842093D01*
X162083355Y-97842085D01*
X162133596Y-97707379D01*
X162133598Y-97707372D01*
X162139999Y-97647844D01*
X162140000Y-97647827D01*
X162140000Y-97000000D01*
X161223012Y-97000000D01*
X161255925Y-96942993D01*
X161290000Y-96815826D01*
X161290000Y-96684174D01*
X161255925Y-96557007D01*
X161223012Y-96500000D01*
X162140000Y-96500000D01*
X162140000Y-95852172D01*
X162139999Y-95852155D01*
X162133598Y-95792627D01*
X162133596Y-95792620D01*
X162083354Y-95657913D01*
X162083350Y-95657906D01*
X161997190Y-95542812D01*
X161997187Y-95542809D01*
X161882093Y-95456649D01*
X161882086Y-95456645D01*
X161747379Y-95406403D01*
X161747372Y-95406401D01*
X161687844Y-95400000D01*
X161040000Y-95400000D01*
X161040000Y-96316988D01*
X160982993Y-96284075D01*
X160855826Y-96250000D01*
X160724174Y-96250000D01*
X160597007Y-96284075D01*
X160540000Y-96316988D01*
X160540000Y-95400000D01*
X159892155Y-95400000D01*
X159832627Y-95406401D01*
X159832620Y-95406403D01*
X159697913Y-95456645D01*
X159697906Y-95456649D01*
X159582812Y-95542809D01*
X159582809Y-95542812D01*
X159496649Y-95657906D01*
X159496646Y-95657912D01*
X159447577Y-95789471D01*
X159405705Y-95845404D01*
X159340241Y-95869821D01*
X159271968Y-95854969D01*
X159243714Y-95833818D01*
X159129786Y-95719890D01*
X158957820Y-95594951D01*
X158768414Y-95498444D01*
X158768413Y-95498443D01*
X158768412Y-95498443D01*
X158566243Y-95432754D01*
X158566241Y-95432753D01*
X158566240Y-95432753D01*
X158404957Y-95407208D01*
X158356287Y-95399500D01*
X158143713Y-95399500D01*
X158095042Y-95407208D01*
X157933760Y-95432753D01*
X157731585Y-95498444D01*
X157542179Y-95594951D01*
X157370213Y-95719890D01*
X157219890Y-95870213D01*
X157094949Y-96042182D01*
X157090484Y-96050946D01*
X157042509Y-96101742D01*
X156974688Y-96118536D01*
X156908553Y-96095998D01*
X156869516Y-96050946D01*
X156865050Y-96042182D01*
X156740109Y-95870213D01*
X156589786Y-95719890D01*
X156417820Y-95594951D01*
X156228414Y-95498444D01*
X156228413Y-95498443D01*
X156228412Y-95498443D01*
X156026243Y-95432754D01*
X156026241Y-95432753D01*
X156026240Y-95432753D01*
X155864957Y-95407208D01*
X155816287Y-95399500D01*
X155603713Y-95399500D01*
X155555042Y-95407208D01*
X155393760Y-95432753D01*
X155191585Y-95498444D01*
X155002179Y-95594951D01*
X154830213Y-95719890D01*
X154679890Y-95870213D01*
X154554949Y-96042182D01*
X154550484Y-96050946D01*
X154502509Y-96101742D01*
X154434688Y-96118536D01*
X154368553Y-96095998D01*
X154329516Y-96050946D01*
X154325050Y-96042182D01*
X154200109Y-95870213D01*
X154049786Y-95719890D01*
X153877820Y-95594951D01*
X153688414Y-95498444D01*
X153688413Y-95498443D01*
X153688412Y-95498443D01*
X153486243Y-95432754D01*
X153486241Y-95432753D01*
X153486240Y-95432753D01*
X153324957Y-95407208D01*
X153276287Y-95399500D01*
X153063713Y-95399500D01*
X153015042Y-95407208D01*
X152853760Y-95432753D01*
X152651585Y-95498444D01*
X152462179Y-95594951D01*
X152290213Y-95719890D01*
X152139890Y-95870213D01*
X152014951Y-96042179D01*
X151918444Y-96231585D01*
X151852753Y-96433760D01*
X151819500Y-96643713D01*
X145900500Y-96643713D01*
X145900500Y-96254935D01*
X145920185Y-96187896D01*
X145921366Y-96186090D01*
X145959394Y-96129179D01*
X145963803Y-96118536D01*
X145999090Y-96033343D01*
X146019737Y-95983497D01*
X146050500Y-95828842D01*
X146050500Y-95671158D01*
X146050500Y-95671155D01*
X146050499Y-95671153D01*
X146026397Y-95549986D01*
X146019737Y-95516503D01*
X146012256Y-95498443D01*
X145959397Y-95370827D01*
X145959390Y-95370814D01*
X145871789Y-95239711D01*
X145871786Y-95239707D01*
X145760292Y-95128213D01*
X145760288Y-95128210D01*
X145629185Y-95040609D01*
X145629172Y-95040602D01*
X145483501Y-94980264D01*
X145483489Y-94980261D01*
X145328845Y-94949500D01*
X145328842Y-94949500D01*
X145171158Y-94949500D01*
X145171155Y-94949500D01*
X145016510Y-94980261D01*
X145016498Y-94980264D01*
X144870827Y-95040602D01*
X144870814Y-95040609D01*
X144739711Y-95128210D01*
X144739707Y-95128213D01*
X144628213Y-95239707D01*
X144628210Y-95239711D01*
X144540609Y-95370814D01*
X144540602Y-95370827D01*
X144480264Y-95516498D01*
X144480261Y-95516510D01*
X144449500Y-95671153D01*
X144449500Y-95828846D01*
X144480261Y-95983489D01*
X144480264Y-95983501D01*
X144540602Y-96129172D01*
X144540606Y-96129179D01*
X144578602Y-96186044D01*
X144599480Y-96252721D01*
X144599500Y-96254935D01*
X144599500Y-97245064D01*
X144579815Y-97312103D01*
X144578603Y-97313954D01*
X144540608Y-97370817D01*
X144540602Y-97370828D01*
X144480264Y-97516498D01*
X144480261Y-97516510D01*
X144449500Y-97671153D01*
X144449500Y-97828846D01*
X144480261Y-97983489D01*
X144480264Y-97983501D01*
X144540602Y-98129172D01*
X144540610Y-98129187D01*
X144558933Y-98156608D01*
X144579812Y-98223285D01*
X144561328Y-98290666D01*
X144509350Y-98337356D01*
X144455832Y-98349500D01*
X142754935Y-98349500D01*
X142687896Y-98329815D01*
X142686090Y-98328633D01*
X142629179Y-98290606D01*
X142629172Y-98290602D01*
X142483501Y-98230264D01*
X142483489Y-98230261D01*
X142328845Y-98199500D01*
X142328842Y-98199500D01*
X142171158Y-98199500D01*
X142171155Y-98199500D01*
X142016510Y-98230261D01*
X142016498Y-98230264D01*
X141870827Y-98290602D01*
X141870814Y-98290609D01*
X141739711Y-98378210D01*
X141739707Y-98378213D01*
X141628213Y-98489707D01*
X141628210Y-98489711D01*
X141540609Y-98620814D01*
X141540602Y-98620827D01*
X141480264Y-98766498D01*
X141480261Y-98766510D01*
X141449500Y-98921153D01*
X141449500Y-98921158D01*
X141449500Y-99078842D01*
X141449501Y-99078846D01*
X141456460Y-99113834D01*
X141450231Y-99183426D01*
X141407368Y-99238602D01*
X141341478Y-99261846D01*
X141287391Y-99252586D01*
X141241314Y-99233501D01*
X141233497Y-99230263D01*
X141233493Y-99230262D01*
X141233489Y-99230261D01*
X141078845Y-99199500D01*
X141078842Y-99199500D01*
X140921158Y-99199500D01*
X140921155Y-99199500D01*
X140766510Y-99230261D01*
X140766498Y-99230264D01*
X140620827Y-99290602D01*
X140620814Y-99290609D01*
X140489711Y-99378210D01*
X140489707Y-99378213D01*
X140378213Y-99489707D01*
X140378210Y-99489711D01*
X140290609Y-99620814D01*
X140290602Y-99620827D01*
X140230264Y-99766498D01*
X140230261Y-99766510D01*
X140199500Y-99921153D01*
X140199500Y-100078846D01*
X140230261Y-100233489D01*
X140230264Y-100233501D01*
X140290602Y-100379172D01*
X140290609Y-100379185D01*
X140375752Y-100506609D01*
X140396630Y-100573286D01*
X140378146Y-100640666D01*
X140326167Y-100687357D01*
X140272650Y-100699500D01*
X138977350Y-100699500D01*
X138910311Y-100679815D01*
X138864556Y-100627011D01*
X138854612Y-100557853D01*
X138874248Y-100506609D01*
X138959390Y-100379185D01*
X138959390Y-100379184D01*
X138959394Y-100379179D01*
X138962854Y-100370827D01*
X138994760Y-100293797D01*
X139019737Y-100233497D01*
X139050500Y-100078842D01*
X139050500Y-99921158D01*
X139050500Y-99921155D01*
X139050499Y-99921153D01*
X139042272Y-99879792D01*
X139019737Y-99766503D01*
X139019735Y-99766498D01*
X138959397Y-99620827D01*
X138959390Y-99620814D01*
X138871789Y-99489711D01*
X138871786Y-99489707D01*
X138760292Y-99378213D01*
X138760288Y-99378210D01*
X138629185Y-99290609D01*
X138629172Y-99290602D01*
X138483501Y-99230264D01*
X138483489Y-99230261D01*
X138328845Y-99199500D01*
X138328842Y-99199500D01*
X138171158Y-99199500D01*
X138171155Y-99199500D01*
X138016510Y-99230261D01*
X138016498Y-99230264D01*
X137870827Y-99290602D01*
X137870814Y-99290609D01*
X137739711Y-99378210D01*
X137739707Y-99378213D01*
X137628213Y-99489707D01*
X137628210Y-99489711D01*
X137540609Y-99620814D01*
X137540602Y-99620827D01*
X137480264Y-99766498D01*
X137480261Y-99766510D01*
X137449500Y-99921153D01*
X137449500Y-100078846D01*
X137480261Y-100233489D01*
X137480264Y-100233501D01*
X137540602Y-100379172D01*
X137540609Y-100379185D01*
X137625752Y-100506609D01*
X137646630Y-100573286D01*
X137628146Y-100640666D01*
X137576167Y-100687357D01*
X137522650Y-100699500D01*
X122862986Y-100699500D01*
X122737318Y-100724497D01*
X122737312Y-100724499D01*
X122618927Y-100773535D01*
X122512388Y-100844722D01*
X122512381Y-100844728D01*
X119886708Y-103470401D01*
X119825385Y-103503886D01*
X119755693Y-103498902D01*
X119699760Y-103457030D01*
X119688543Y-103439016D01*
X119654626Y-103372452D01*
X119615270Y-103318282D01*
X119615269Y-103318282D01*
X118982962Y-103950589D01*
X118965925Y-103887007D01*
X118900099Y-103772993D01*
X118807007Y-103679901D01*
X118692993Y-103614075D01*
X118629409Y-103597037D01*
X119261716Y-102964728D01*
X119207547Y-102925373D01*
X119207547Y-102925372D01*
X119198500Y-102920763D01*
X119147706Y-102872788D01*
X119130912Y-102804966D01*
X119153451Y-102738832D01*
X119198508Y-102699793D01*
X119207816Y-102695051D01*
X119299814Y-102628211D01*
X119379786Y-102570109D01*
X119379788Y-102570106D01*
X119379792Y-102570104D01*
X119530104Y-102419792D01*
X119530106Y-102419788D01*
X119530109Y-102419786D01*
X119655048Y-102247820D01*
X119655047Y-102247820D01*
X119655051Y-102247816D01*
X119751557Y-102058412D01*
X119817246Y-101856243D01*
X119850500Y-101646287D01*
X119850500Y-101433713D01*
X119817246Y-101223757D01*
X119751557Y-101021588D01*
X119655051Y-100832184D01*
X119655049Y-100832181D01*
X119655048Y-100832179D01*
X119530109Y-100660213D01*
X119379786Y-100509890D01*
X119207820Y-100384951D01*
X119207115Y-100384591D01*
X119199054Y-100380485D01*
X119148259Y-100332512D01*
X119131463Y-100264692D01*
X119153999Y-100198556D01*
X119199054Y-100159515D01*
X119207816Y-100155051D01*
X119294138Y-100092335D01*
X119379786Y-100030109D01*
X119379788Y-100030106D01*
X119379792Y-100030104D01*
X119530104Y-99879792D01*
X119530106Y-99879788D01*
X119530109Y-99879786D01*
X119653902Y-99709397D01*
X119655051Y-99707816D01*
X119751557Y-99518412D01*
X119817246Y-99316243D01*
X119850500Y-99106287D01*
X119850500Y-98893713D01*
X119817246Y-98683757D01*
X119751557Y-98481588D01*
X119655051Y-98292184D01*
X119655049Y-98292181D01*
X119655048Y-98292179D01*
X119530109Y-98120213D01*
X119379786Y-97969890D01*
X119207820Y-97844951D01*
X119018414Y-97748444D01*
X119018413Y-97748443D01*
X119018412Y-97748443D01*
X118816243Y-97682754D01*
X118816241Y-97682753D01*
X118816240Y-97682753D01*
X118654957Y-97657208D01*
X118606287Y-97649500D01*
X118393713Y-97649500D01*
X118345042Y-97657208D01*
X118183760Y-97682753D01*
X117981585Y-97748444D01*
X117792179Y-97844951D01*
X117620215Y-97969889D01*
X117506673Y-98083431D01*
X117445350Y-98116915D01*
X117375658Y-98111931D01*
X117319725Y-98070059D01*
X117302810Y-98039082D01*
X117253797Y-97907671D01*
X117253793Y-97907664D01*
X117167547Y-97792455D01*
X117167544Y-97792452D01*
X117052335Y-97706206D01*
X117052328Y-97706202D01*
X116917482Y-97655908D01*
X116917483Y-97655908D01*
X116857883Y-97649501D01*
X116857881Y-97649500D01*
X116857873Y-97649500D01*
X116857864Y-97649500D01*
X115062129Y-97649500D01*
X115062123Y-97649501D01*
X115002516Y-97655908D01*
X114867671Y-97706202D01*
X114867664Y-97706206D01*
X114752455Y-97792452D01*
X114752452Y-97792455D01*
X114666206Y-97907664D01*
X114666202Y-97907671D01*
X114615908Y-98042517D01*
X114609501Y-98102116D01*
X114609500Y-98102135D01*
X112500500Y-98102135D01*
X112500500Y-96171153D01*
X113949500Y-96171153D01*
X113949500Y-96328846D01*
X113980261Y-96483489D01*
X113980264Y-96483501D01*
X114040602Y-96629172D01*
X114040609Y-96629185D01*
X114128210Y-96760288D01*
X114128213Y-96760292D01*
X114239707Y-96871786D01*
X114239711Y-96871789D01*
X114370814Y-96959390D01*
X114370827Y-96959397D01*
X114468853Y-97000000D01*
X114516503Y-97019737D01*
X114671153Y-97050499D01*
X114671156Y-97050500D01*
X114671158Y-97050500D01*
X114828844Y-97050500D01*
X114828845Y-97050499D01*
X114983497Y-97019737D01*
X115129179Y-96959394D01*
X115260289Y-96871789D01*
X115371789Y-96760289D01*
X115459394Y-96629179D01*
X115519737Y-96483497D01*
X115550500Y-96328842D01*
X115550500Y-96171158D01*
X115550500Y-96171155D01*
X115550499Y-96171153D01*
X115536692Y-96101742D01*
X115519737Y-96016503D01*
X115506062Y-95983489D01*
X115459397Y-95870827D01*
X115459390Y-95870814D01*
X115371789Y-95739711D01*
X115371786Y-95739707D01*
X115260292Y-95628213D01*
X115260288Y-95628210D01*
X115129185Y-95540609D01*
X115129172Y-95540602D01*
X114983501Y-95480264D01*
X114983489Y-95480261D01*
X114828845Y-95449500D01*
X114828842Y-95449500D01*
X114671158Y-95449500D01*
X114671155Y-95449500D01*
X114516510Y-95480261D01*
X114516498Y-95480264D01*
X114370827Y-95540602D01*
X114370814Y-95540609D01*
X114239711Y-95628210D01*
X114239707Y-95628213D01*
X114128213Y-95739707D01*
X114128210Y-95739711D01*
X114040609Y-95870814D01*
X114040602Y-95870827D01*
X113980264Y-96016498D01*
X113980261Y-96016510D01*
X113949500Y-96171153D01*
X112500500Y-96171153D01*
X112500500Y-94631902D01*
X124879500Y-94631902D01*
X124879500Y-94868097D01*
X124916446Y-95101368D01*
X124989433Y-95325996D01*
X125086500Y-95516498D01*
X125096657Y-95536433D01*
X125235483Y-95727510D01*
X125402490Y-95894517D01*
X125593567Y-96033343D01*
X125628115Y-96050946D01*
X125804003Y-96140566D01*
X125804005Y-96140566D01*
X125804008Y-96140568D01*
X125898139Y-96171153D01*
X126028631Y-96213553D01*
X126261903Y-96250500D01*
X126261908Y-96250500D01*
X126498097Y-96250500D01*
X126731368Y-96213553D01*
X126955992Y-96140568D01*
X127166433Y-96033343D01*
X127357510Y-95894517D01*
X127524517Y-95727510D01*
X127663343Y-95536433D01*
X127770568Y-95325992D01*
X127843553Y-95101368D01*
X127853177Y-95040606D01*
X127880500Y-94868097D01*
X127880500Y-94631902D01*
X128689500Y-94631902D01*
X128689500Y-94868097D01*
X128726446Y-95101368D01*
X128799433Y-95325996D01*
X128896500Y-95516498D01*
X128906657Y-95536433D01*
X129045483Y-95727510D01*
X129212490Y-95894517D01*
X129403567Y-96033343D01*
X129438115Y-96050946D01*
X129614003Y-96140566D01*
X129614005Y-96140566D01*
X129614008Y-96140568D01*
X129708139Y-96171153D01*
X129838631Y-96213553D01*
X130071903Y-96250500D01*
X130071908Y-96250500D01*
X130308097Y-96250500D01*
X130541368Y-96213553D01*
X130765992Y-96140568D01*
X130976433Y-96033343D01*
X131167510Y-95894517D01*
X131334517Y-95727510D01*
X131473343Y-95536433D01*
X131580568Y-95325992D01*
X131653553Y-95101368D01*
X131663177Y-95040606D01*
X131680816Y-94929240D01*
X131690500Y-94868097D01*
X131690500Y-94631902D01*
X131653553Y-94398631D01*
X131610624Y-94266510D01*
X131580568Y-94174008D01*
X131580566Y-94174005D01*
X131580566Y-94174003D01*
X131493516Y-94003159D01*
X131473342Y-93963566D01*
X131463495Y-93950013D01*
X132500000Y-93950013D01*
X132500000Y-94500000D01*
X133509252Y-94500000D01*
X133487482Y-94537708D01*
X133450000Y-94677591D01*
X133450000Y-94822409D01*
X133487482Y-94962292D01*
X133509252Y-95000000D01*
X132500001Y-95000000D01*
X132500001Y-95549986D01*
X132510494Y-95652697D01*
X132565641Y-95819119D01*
X132565643Y-95819124D01*
X132657684Y-95968345D01*
X132781654Y-96092315D01*
X132930875Y-96184356D01*
X132930880Y-96184358D01*
X133097302Y-96239505D01*
X133097309Y-96239506D01*
X133200019Y-96249999D01*
X133749999Y-96249999D01*
X133750000Y-96249998D01*
X133750000Y-95240747D01*
X133787708Y-95262518D01*
X133927591Y-95300000D01*
X134072409Y-95300000D01*
X134212292Y-95262518D01*
X134250000Y-95240747D01*
X134250000Y-96249999D01*
X134799972Y-96249999D01*
X134799986Y-96249998D01*
X134902697Y-96239505D01*
X135069119Y-96184358D01*
X135069124Y-96184356D01*
X135218345Y-96092315D01*
X135342315Y-95968345D01*
X135434356Y-95819124D01*
X135434358Y-95819119D01*
X135489505Y-95652697D01*
X135489506Y-95652690D01*
X135499999Y-95549986D01*
X135500000Y-95549973D01*
X135500000Y-95000000D01*
X134490748Y-95000000D01*
X134512518Y-94962292D01*
X134550000Y-94822409D01*
X134550000Y-94677591D01*
X134512518Y-94537708D01*
X134490748Y-94500000D01*
X135499999Y-94500000D01*
X135499999Y-94421153D01*
X162949500Y-94421153D01*
X162949500Y-94578846D01*
X162980261Y-94733489D01*
X162980264Y-94733501D01*
X163040602Y-94879172D01*
X163040609Y-94879185D01*
X163128210Y-95010288D01*
X163128213Y-95010292D01*
X163239707Y-95121786D01*
X163239711Y-95121789D01*
X163370814Y-95209390D01*
X163370827Y-95209397D01*
X163516498Y-95269735D01*
X163516503Y-95269737D01*
X163668644Y-95300000D01*
X163671153Y-95300499D01*
X163671156Y-95300500D01*
X163671158Y-95300500D01*
X163828844Y-95300500D01*
X163828845Y-95300499D01*
X163983497Y-95269737D01*
X164129179Y-95209394D01*
X164260289Y-95121789D01*
X164371789Y-95010289D01*
X164459394Y-94879179D01*
X164519737Y-94733497D01*
X164550500Y-94578842D01*
X164550500Y-94421158D01*
X164550500Y-94421155D01*
X164550499Y-94421153D01*
X164519738Y-94266510D01*
X164519737Y-94266503D01*
X164481423Y-94174003D01*
X164459397Y-94120827D01*
X164459390Y-94120814D01*
X164371789Y-93989711D01*
X164371786Y-93989707D01*
X164260292Y-93878213D01*
X164260288Y-93878210D01*
X164129185Y-93790609D01*
X164129172Y-93790602D01*
X163983501Y-93730264D01*
X163983489Y-93730261D01*
X163828845Y-93699500D01*
X163828842Y-93699500D01*
X163671158Y-93699500D01*
X163671155Y-93699500D01*
X163516510Y-93730261D01*
X163516498Y-93730264D01*
X163370827Y-93790602D01*
X163370814Y-93790609D01*
X163239711Y-93878210D01*
X163239707Y-93878213D01*
X163128213Y-93989707D01*
X163128210Y-93989711D01*
X163040609Y-94120814D01*
X163040602Y-94120827D01*
X162980264Y-94266498D01*
X162980261Y-94266510D01*
X162949500Y-94421153D01*
X135499999Y-94421153D01*
X135499999Y-93950028D01*
X135499998Y-93950013D01*
X135489505Y-93847302D01*
X135434358Y-93680880D01*
X135434356Y-93680875D01*
X135342315Y-93531654D01*
X135218345Y-93407684D01*
X135069124Y-93315643D01*
X135069119Y-93315641D01*
X134902697Y-93260494D01*
X134902690Y-93260493D01*
X134799986Y-93250000D01*
X134250000Y-93250000D01*
X134250000Y-94259252D01*
X134212292Y-94237482D01*
X134072409Y-94200000D01*
X133927591Y-94200000D01*
X133787708Y-94237482D01*
X133750000Y-94259252D01*
X133750000Y-93250000D01*
X133200028Y-93250000D01*
X133200012Y-93250001D01*
X133097302Y-93260494D01*
X132930880Y-93315641D01*
X132930875Y-93315643D01*
X132781654Y-93407684D01*
X132657684Y-93531654D01*
X132565643Y-93680875D01*
X132565641Y-93680880D01*
X132510494Y-93847302D01*
X132510493Y-93847309D01*
X132500000Y-93950013D01*
X131463495Y-93950013D01*
X131411329Y-93878213D01*
X131334517Y-93772490D01*
X131167510Y-93605483D01*
X130976433Y-93466657D01*
X130958210Y-93457372D01*
X130765996Y-93359433D01*
X130541368Y-93286446D01*
X130308097Y-93249500D01*
X130308092Y-93249500D01*
X130071908Y-93249500D01*
X130071903Y-93249500D01*
X129838631Y-93286446D01*
X129614003Y-93359433D01*
X129403566Y-93466657D01*
X129294550Y-93545862D01*
X129212490Y-93605483D01*
X129212488Y-93605485D01*
X129212487Y-93605485D01*
X129045485Y-93772487D01*
X129045485Y-93772488D01*
X129045483Y-93772490D01*
X129012966Y-93817246D01*
X128906657Y-93963566D01*
X128799433Y-94174003D01*
X128726446Y-94398631D01*
X128689500Y-94631902D01*
X127880500Y-94631902D01*
X127843553Y-94398631D01*
X127800624Y-94266510D01*
X127770568Y-94174008D01*
X127770566Y-94174005D01*
X127770566Y-94174003D01*
X127663342Y-93963566D01*
X127601329Y-93878213D01*
X127524517Y-93772490D01*
X127357510Y-93605483D01*
X127166433Y-93466657D01*
X127148210Y-93457372D01*
X126955996Y-93359433D01*
X126731368Y-93286446D01*
X126498097Y-93249500D01*
X126498092Y-93249500D01*
X126261908Y-93249500D01*
X126261903Y-93249500D01*
X126028631Y-93286446D01*
X125804003Y-93359433D01*
X125593566Y-93466657D01*
X125484550Y-93545862D01*
X125402490Y-93605483D01*
X125402488Y-93605485D01*
X125402487Y-93605485D01*
X125235485Y-93772487D01*
X125235485Y-93772488D01*
X125235483Y-93772490D01*
X125202966Y-93817246D01*
X125096657Y-93963566D01*
X124989433Y-94174003D01*
X124916446Y-94398631D01*
X124879500Y-94631902D01*
X112500500Y-94631902D01*
X112500500Y-92171153D01*
X149699500Y-92171153D01*
X149699500Y-92328846D01*
X149730261Y-92483489D01*
X149730264Y-92483501D01*
X149790602Y-92629172D01*
X149790609Y-92629185D01*
X149878210Y-92760288D01*
X149878213Y-92760292D01*
X149989707Y-92871786D01*
X149989711Y-92871789D01*
X150120814Y-92959390D01*
X150120827Y-92959397D01*
X150218853Y-93000000D01*
X150266503Y-93019737D01*
X150421153Y-93050499D01*
X150421156Y-93050500D01*
X150421158Y-93050500D01*
X150578844Y-93050500D01*
X150578845Y-93050499D01*
X150733497Y-93019737D01*
X150863412Y-92965925D01*
X150879172Y-92959397D01*
X150879172Y-92959396D01*
X150879179Y-92959394D01*
X151010289Y-92871789D01*
X151121789Y-92760289D01*
X151209394Y-92629179D01*
X151269737Y-92483497D01*
X151279548Y-92434174D01*
X151287597Y-92393713D01*
X151819500Y-92393713D01*
X151819500Y-92606286D01*
X151843891Y-92760289D01*
X151852754Y-92816243D01*
X151899265Y-92959390D01*
X151918444Y-93018414D01*
X152014951Y-93207820D01*
X152139890Y-93379786D01*
X152290213Y-93530109D01*
X152462179Y-93655048D01*
X152462181Y-93655049D01*
X152462184Y-93655051D01*
X152651588Y-93751557D01*
X152853757Y-93817246D01*
X153063713Y-93850500D01*
X153063714Y-93850500D01*
X153276286Y-93850500D01*
X153276287Y-93850500D01*
X153486243Y-93817246D01*
X153688412Y-93751557D01*
X153877816Y-93655051D01*
X153964478Y-93592088D01*
X154049786Y-93530109D01*
X154049788Y-93530106D01*
X154049792Y-93530104D01*
X154200104Y-93379792D01*
X154200106Y-93379788D01*
X154200109Y-93379786D01*
X154325048Y-93207820D01*
X154325047Y-93207820D01*
X154325051Y-93207816D01*
X154329514Y-93199054D01*
X154377488Y-93148259D01*
X154445308Y-93131463D01*
X154511444Y-93153999D01*
X154550486Y-93199056D01*
X154554951Y-93207820D01*
X154679890Y-93379786D01*
X154830213Y-93530109D01*
X155002179Y-93655048D01*
X155002181Y-93655049D01*
X155002184Y-93655051D01*
X155191588Y-93751557D01*
X155393757Y-93817246D01*
X155603713Y-93850500D01*
X155603714Y-93850500D01*
X155816286Y-93850500D01*
X155816287Y-93850500D01*
X156026243Y-93817246D01*
X156228412Y-93751557D01*
X156417816Y-93655051D01*
X156504478Y-93592088D01*
X156589786Y-93530109D01*
X156589788Y-93530106D01*
X156589792Y-93530104D01*
X156740104Y-93379792D01*
X156740106Y-93379788D01*
X156740109Y-93379786D01*
X156865048Y-93207820D01*
X156865047Y-93207820D01*
X156865051Y-93207816D01*
X156869514Y-93199054D01*
X156917488Y-93148259D01*
X156985308Y-93131463D01*
X157051444Y-93153999D01*
X157090486Y-93199056D01*
X157094951Y-93207820D01*
X157219890Y-93379786D01*
X157370213Y-93530109D01*
X157542179Y-93655048D01*
X157542181Y-93655049D01*
X157542184Y-93655051D01*
X157731588Y-93751557D01*
X157933757Y-93817246D01*
X158143713Y-93850500D01*
X158143714Y-93850500D01*
X158356286Y-93850500D01*
X158356287Y-93850500D01*
X158566243Y-93817246D01*
X158768412Y-93751557D01*
X158957816Y-93655051D01*
X159044478Y-93592088D01*
X159129784Y-93530110D01*
X159129784Y-93530109D01*
X159129792Y-93530104D01*
X159243717Y-93416178D01*
X159305036Y-93382696D01*
X159374728Y-93387680D01*
X159430662Y-93429551D01*
X159447577Y-93460528D01*
X159496646Y-93592088D01*
X159496649Y-93592093D01*
X159582809Y-93707187D01*
X159582812Y-93707190D01*
X159697906Y-93793350D01*
X159697913Y-93793354D01*
X159832620Y-93843596D01*
X159832627Y-93843598D01*
X159892155Y-93849999D01*
X159892172Y-93850000D01*
X160540000Y-93850000D01*
X160540000Y-92933012D01*
X160597007Y-92965925D01*
X160724174Y-93000000D01*
X160855826Y-93000000D01*
X160982993Y-92965925D01*
X161040000Y-92933012D01*
X161040000Y-93850000D01*
X161687828Y-93850000D01*
X161687844Y-93849999D01*
X161747372Y-93843598D01*
X161747379Y-93843596D01*
X161882086Y-93793354D01*
X161882093Y-93793350D01*
X161997187Y-93707190D01*
X161997190Y-93707187D01*
X162083350Y-93592093D01*
X162083354Y-93592086D01*
X162133596Y-93457379D01*
X162133598Y-93457372D01*
X162139999Y-93397844D01*
X162140000Y-93397827D01*
X162140000Y-92750000D01*
X161223012Y-92750000D01*
X161255925Y-92692993D01*
X161290000Y-92565826D01*
X161290000Y-92434174D01*
X161255925Y-92307007D01*
X161223012Y-92250000D01*
X162140000Y-92250000D01*
X162140000Y-91602172D01*
X162139999Y-91602155D01*
X162133598Y-91542627D01*
X162133596Y-91542620D01*
X162083354Y-91407913D01*
X162083350Y-91407906D01*
X161997190Y-91292812D01*
X161997187Y-91292809D01*
X161882093Y-91206649D01*
X161882086Y-91206645D01*
X161747379Y-91156403D01*
X161747372Y-91156401D01*
X161687844Y-91150000D01*
X161040000Y-91150000D01*
X161040000Y-92066988D01*
X160982993Y-92034075D01*
X160855826Y-92000000D01*
X160724174Y-92000000D01*
X160597007Y-92034075D01*
X160540000Y-92066988D01*
X160540000Y-91150000D01*
X159892155Y-91150000D01*
X159832627Y-91156401D01*
X159832620Y-91156403D01*
X159697913Y-91206645D01*
X159697906Y-91206649D01*
X159582812Y-91292809D01*
X159582809Y-91292812D01*
X159496649Y-91407906D01*
X159496646Y-91407912D01*
X159447577Y-91539471D01*
X159405705Y-91595404D01*
X159340241Y-91619821D01*
X159271968Y-91604969D01*
X159243714Y-91583818D01*
X159129786Y-91469890D01*
X158957820Y-91344951D01*
X158768414Y-91248444D01*
X158768413Y-91248443D01*
X158768412Y-91248443D01*
X158566243Y-91182754D01*
X158566241Y-91182753D01*
X158566240Y-91182753D01*
X158404957Y-91157208D01*
X158356287Y-91149500D01*
X158143713Y-91149500D01*
X158095042Y-91157208D01*
X157933760Y-91182753D01*
X157731585Y-91248444D01*
X157542179Y-91344951D01*
X157370213Y-91469890D01*
X157219890Y-91620213D01*
X157094949Y-91792182D01*
X157090484Y-91800946D01*
X157042509Y-91851742D01*
X156974688Y-91868536D01*
X156908553Y-91845998D01*
X156869516Y-91800946D01*
X156865050Y-91792182D01*
X156740109Y-91620213D01*
X156589786Y-91469890D01*
X156417820Y-91344951D01*
X156228414Y-91248444D01*
X156228413Y-91248443D01*
X156228412Y-91248443D01*
X156026243Y-91182754D01*
X156026241Y-91182753D01*
X156026240Y-91182753D01*
X155864957Y-91157208D01*
X155816287Y-91149500D01*
X155603713Y-91149500D01*
X155555042Y-91157208D01*
X155393760Y-91182753D01*
X155191585Y-91248444D01*
X155002179Y-91344951D01*
X154830213Y-91469890D01*
X154679890Y-91620213D01*
X154554949Y-91792182D01*
X154550484Y-91800946D01*
X154502509Y-91851742D01*
X154434688Y-91868536D01*
X154368553Y-91845998D01*
X154329516Y-91800946D01*
X154325050Y-91792182D01*
X154200109Y-91620213D01*
X154049786Y-91469890D01*
X153877820Y-91344951D01*
X153688414Y-91248444D01*
X153688413Y-91248443D01*
X153688412Y-91248443D01*
X153486243Y-91182754D01*
X153486241Y-91182753D01*
X153486240Y-91182753D01*
X153324957Y-91157208D01*
X153276287Y-91149500D01*
X153063713Y-91149500D01*
X153015042Y-91157208D01*
X152853760Y-91182753D01*
X152651585Y-91248444D01*
X152462179Y-91344951D01*
X152290213Y-91469890D01*
X152139890Y-91620213D01*
X152014951Y-91792179D01*
X151918444Y-91981585D01*
X151852753Y-92183760D01*
X151819500Y-92393713D01*
X151287597Y-92393713D01*
X151293378Y-92364649D01*
X151293378Y-92364648D01*
X151300499Y-92328846D01*
X151300500Y-92328844D01*
X151300500Y-92171155D01*
X151300499Y-92171153D01*
X151269738Y-92016510D01*
X151269737Y-92016503D01*
X151255274Y-91981585D01*
X151209397Y-91870827D01*
X151209390Y-91870814D01*
X151121789Y-91739711D01*
X151121786Y-91739707D01*
X151010292Y-91628213D01*
X151010288Y-91628210D01*
X150879185Y-91540609D01*
X150879172Y-91540602D01*
X150733501Y-91480264D01*
X150733489Y-91480261D01*
X150578845Y-91449500D01*
X150578842Y-91449500D01*
X150421158Y-91449500D01*
X150421155Y-91449500D01*
X150266510Y-91480261D01*
X150266498Y-91480264D01*
X150120827Y-91540602D01*
X150120814Y-91540609D01*
X149989711Y-91628210D01*
X149989707Y-91628213D01*
X149878213Y-91739707D01*
X149878210Y-91739711D01*
X149790609Y-91870814D01*
X149790602Y-91870827D01*
X149730264Y-92016498D01*
X149730261Y-92016510D01*
X149699500Y-92171153D01*
X112500500Y-92171153D01*
X112500500Y-91506092D01*
X112501076Y-91500165D01*
X112501097Y-91493938D01*
X112503465Y-91469896D01*
X112513705Y-91365927D01*
X112518447Y-91342093D01*
X112533397Y-91292812D01*
X112554009Y-91224862D01*
X112563308Y-91202411D01*
X112621059Y-91094366D01*
X112634556Y-91074166D01*
X112712280Y-90979459D01*
X112729459Y-90962280D01*
X112824166Y-90884556D01*
X112844366Y-90871059D01*
X112952411Y-90813308D01*
X112974862Y-90804009D01*
X112980793Y-90802209D01*
X113092095Y-90768446D01*
X113115927Y-90763705D01*
X113226954Y-90752769D01*
X113243941Y-90751097D01*
X113256095Y-90750500D01*
X113315893Y-90750500D01*
X169434107Y-90750500D01*
X169493905Y-90750500D01*
X169506059Y-90751097D01*
G37*
%TD.AperFunction*%
%TD*%
M02*
