M48
; DRILL file KiCad 10.0.6 date 2026-09-17T10:40:35
; FORMAT={-:-/ absolute / metric / decimal}
; #@! TF.CreationDate,2026-09-17T10:40:35+08:00
; #@! TF.GenerationSoftware,Kicad,Pcbnew,10.0.6
; #@! TF.FileFunction,MixedPlating,1,4
FMAT,2
METRIC
; #@! TA.AperFunction,Plated,PTH,ViaDrill
T1C0.300
; #@! TA.AperFunction,Plated,PTH,ComponentDrill
T2C0.600
; #@! TA.AperFunction,Plated,PTH,ComponentDrill
T3C1.000
; #@! TA.AperFunction,Plated,PTH,ComponentDrill
T4C1.100
%
G90
G05
T1
X114.75Y-96.25
X121.0Y-98.0
X122.0Y-100.25
X123.0Y-119.75
X123.0Y-122.25
X123.75Y-100.25
X125.5Y-100.25
X126.0Y-102.75
X126.0Y-105.0
X126.0Y-107.5
X126.0Y-113.25
X127.25Y-100.25
X127.5Y-118.5
X127.75Y-102.75
X127.75Y-105.0
X127.75Y-107.5
X128.0Y-112.0
X128.0Y-113.25
X129.0Y-100.25
X129.5Y-102.75
X129.5Y-105.0
X129.5Y-107.5
X129.75Y-112.0
X129.75Y-113.25
X130.75Y-100.25
X131.25Y-102.75
X131.25Y-105.0
X131.25Y-107.5
X131.5Y-112.0
X131.5Y-113.25
X131.75Y-119.75
X131.75Y-122.25
X132.5Y-100.25
X132.75Y-107.25
X133.25Y-112.0
X133.25Y-113.25
X133.75Y-109.25
X134.25Y-100.25
X134.5Y-102.5
X135.0Y-112.0
X135.0Y-113.25
X136.0Y-100.25
X136.25Y-102.5
X136.25Y-105.0
X136.25Y-107.75
X136.5Y-118.5
X136.75Y-112.0
X136.75Y-113.25
X137.75Y-107.25
X138.25Y-100.0
X138.25Y-112.25
X138.47Y-96.47
X138.75Y-107.25
X139.75Y-100.0
X140.0Y-121.0
X140.0Y-122.25
X140.0Y-123.5
X141.0Y-100.0
X141.25Y-113.75
X141.5Y-118.5
X141.5Y-119.75
X141.5Y-121.0
X141.5Y-122.25
X141.5Y-123.5
X141.896Y-109.242
X142.0Y-116.25
X142.25Y-99.0
X142.5Y-97.75
X142.75Y-107.0
X142.75Y-108.5
X142.758Y-102.84
X143.25Y-106.0
X143.575Y-111.75
X144.0Y-103.5
X145.25Y-95.75
X145.25Y-97.75
X145.25Y-99.0
X145.25Y-105.25
X146.292Y-114.877
X146.5Y-116.25
X147.25Y-117.0
X147.75Y-99.25
X147.75Y-100.25
X148.0Y-117.75
X148.5Y-103.25
X149.951Y-108.29
X149.995Y-109.128
X150.0Y-106.5
X150.0Y-107.46
X150.0Y-110.75
X150.001Y-109.928
X150.5Y-92.25
X150.5Y-94.75
X150.5Y-111.5
X151.0Y-113.75
X152.0Y-113.75
X152.0Y-117.25
X153.0Y-102.5
X154.0Y-100.75
X155.25Y-101.0
X155.75Y-123.75
X156.5Y-105.25
X156.75Y-113.25
X156.75Y-114.25
X156.75Y-115.25
X156.75Y-116.25
X157.25Y-101.75
X157.25Y-103.0
X157.25Y-107.25
X157.25Y-108.5
X157.25Y-110.0
X157.25Y-111.5
X157.75Y-100.75
X157.75Y-114.25
X157.75Y-115.3
X157.75Y-116.8
X158.0Y-111.5
X158.0Y-123.75
X158.25Y-103.0
X158.25Y-107.25
X158.75Y-110.25
X159.0Y-100.15
X159.0Y-113.25
X159.794Y-114.206
X160.0Y-108.5
X160.25Y-102.0
X160.75Y-107.75
X161.0Y-102.75
X161.0Y-110.25
X161.0Y-114.25
X161.209Y-100.15
X161.25Y-105.25
X161.975Y-118.345
X162.0Y-111.5
X163.25Y-117.05
X163.75Y-93.5
X163.75Y-94.5
X163.75Y-118.0
X163.75Y-119.0
X164.25Y-116.25
X164.5Y-102.5
X164.5Y-103.25
X164.5Y-107.25
X164.5Y-108.0
X164.75Y-117.0
X164.75Y-118.0
X164.75Y-119.0
X165.5Y-102.5
X165.5Y-103.25
X165.5Y-107.25
X165.5Y-108.0
X165.75Y-113.05
X165.75Y-116.55
X165.75Y-118.0
X166.25Y-117.25
X166.75Y-115.5
X168.5Y-119.25
X169.25Y-120.5
X169.25Y-122.75
T3
X115.96Y-99.0
X115.96Y-101.54
X115.96Y-104.08
X115.96Y-106.62
X115.96Y-109.16
X115.96Y-111.7
X115.96Y-114.24
X115.96Y-116.78
X115.96Y-119.32
X115.96Y-121.86
X118.5Y-99.0
X118.5Y-101.54
X118.5Y-104.08
X118.5Y-106.62
X118.5Y-109.16
X118.5Y-111.7
X118.5Y-114.24
X118.5Y-116.78
X118.5Y-119.32
X118.5Y-121.86
X123.5Y-103.67
X123.5Y-106.21
X123.5Y-108.75
X123.5Y-111.29
X144.38Y-119.975
X144.38Y-122.515
X146.92Y-119.975
X146.92Y-122.515
X149.46Y-119.975
X149.46Y-122.515
X153.17Y-92.5
X153.17Y-96.75
X154.67Y-119.975
X154.67Y-122.515
X155.71Y-92.5
X155.71Y-96.75
X157.21Y-119.975
X157.21Y-122.515
X158.25Y-92.5
X158.25Y-96.75
X159.75Y-119.975
X159.75Y-122.515
X160.79Y-92.5
X160.79Y-96.75
X168.5Y-114.25
X168.5Y-116.79
T4
X126.38Y-94.75
X130.19Y-94.75
X134.0Y-94.75
T2
G00X163.05Y-100.93
M15
G01X164.15Y-100.93
M16
G05
G00X163.05Y-109.57
M15
G01X164.15Y-109.57
M16
G05
G00X167.4Y-100.93
M15
G01X168.2Y-100.93
M16
G05
G00X167.4Y-109.57
M15
G01X168.2Y-109.57
M16
G05
M30
