%TF.GenerationSoftware,KiCad,Pcbnew,10.0.6*%
%TF.CreationDate,2026-09-22T01:33:18+08:00*%
%TF.ProjectId,bldc-hat,626c6463-2d68-4617-942e-6b696361645f,rev?*%
%TF.SameCoordinates,Original*%
%TF.FileFunction,Copper,L1,Top*%
%TF.FilePolarity,Positive*%
%FSLAX46Y46*%
G04 Gerber Fmt 4.6, Leading zero omitted, Abs format (unit mm)*
G04 Created by KiCad (PCBNEW 10.0.6) date 2026-09-22 01:33:18*
%MOMM*%
%LPD*%
G01*
G04 APERTURE LIST*
G04 Aperture macros list*
%AMRoundRect*
0 Rectangle with rounded corners*
0 $1 Rounding radius*
0 $2 $3 $4 $5 $6 $7 $8 $9 X,Y pos of 4 corners*
0 Add a 4 corners polygon primitive as box body*
4,1,4,$2,$3,$4,$5,$6,$7,$8,$9,$2,$3,0*
0 Add four circle primitives for the rounded corners*
1,1,$1+$1,$2,$3*
1,1,$1+$1,$4,$5*
1,1,$1+$1,$6,$7*
1,1,$1+$1,$8,$9*
0 Add four rect primitives between the rounded corners*
20,1,$1+$1,$2,$3,$4,$5,0*
20,1,$1+$1,$4,$5,$6,$7,0*
20,1,$1+$1,$6,$7,$8,$9,0*
20,1,$1+$1,$8,$9,$2,$3,0*%
G04 Aperture macros list end*
%TA.AperFunction,EtchedComponent*%
%ADD10C,0.000000*%
%TD*%
%TA.AperFunction,SMDPad,CuDef*%
%ADD11RoundRect,0.135000X-0.135000X-0.185000X0.135000X-0.185000X0.135000X0.185000X-0.135000X0.185000X0*%
%TD*%
%TA.AperFunction,SMDPad,CuDef*%
%ADD12RoundRect,0.135000X0.185000X-0.135000X0.185000X0.135000X-0.185000X0.135000X-0.185000X-0.135000X0*%
%TD*%
%TA.AperFunction,SMDPad,CuDef*%
%ADD13RoundRect,0.250000X-1.100000X0.325000X-1.100000X-0.325000X1.100000X-0.325000X1.100000X0.325000X0*%
%TD*%
%TA.AperFunction,SMDPad,CuDef*%
%ADD14C,0.500000*%
%TD*%
%TA.AperFunction,SMDPad,CuDef*%
%ADD15RoundRect,0.140000X-0.140000X-0.170000X0.140000X-0.170000X0.140000X0.170000X-0.140000X0.170000X0*%
%TD*%
%TA.AperFunction,SMDPad,CuDef*%
%ADD16RoundRect,0.250000X0.250000X0.475000X-0.250000X0.475000X-0.250000X-0.475000X0.250000X-0.475000X0*%
%TD*%
%TA.AperFunction,SMDPad,CuDef*%
%ADD17RoundRect,0.140000X0.140000X0.170000X-0.140000X0.170000X-0.140000X-0.170000X0.140000X-0.170000X0*%
%TD*%
%TA.AperFunction,SMDPad,CuDef*%
%ADD18R,0.250000X0.600000*%
%TD*%
%TA.AperFunction,SMDPad,CuDef*%
%ADD19R,0.600000X0.250000*%
%TD*%
%TA.AperFunction,ComponentPad*%
%ADD20C,0.700000*%
%TD*%
%TA.AperFunction,SMDPad,CuDef*%
%ADD21R,5.700000X3.700000*%
%TD*%
%TA.AperFunction,SMDPad,CuDef*%
%ADD22RoundRect,0.135000X0.135000X0.185000X-0.135000X0.185000X-0.135000X-0.185000X0.135000X-0.185000X0*%
%TD*%
%TA.AperFunction,SMDPad,CuDef*%
%ADD23RoundRect,0.147500X-0.172500X0.147500X-0.172500X-0.147500X0.172500X-0.147500X0.172500X0.147500X0*%
%TD*%
%TA.AperFunction,ComponentPad*%
%ADD24O,2.500000X2.500000*%
%TD*%
%TA.AperFunction,ComponentPad*%
%ADD25O,1.800000X1.800000*%
%TD*%
%TA.AperFunction,SMDPad,CuDef*%
%ADD26RoundRect,0.250000X-0.550000X1.500000X-0.550000X-1.500000X0.550000X-1.500000X0.550000X1.500000X0*%
%TD*%
%TA.AperFunction,SMDPad,CuDef*%
%ADD27RoundRect,0.147500X0.147500X0.172500X-0.147500X0.172500X-0.147500X-0.172500X0.147500X-0.172500X0*%
%TD*%
%TA.AperFunction,SMDPad,CuDef*%
%ADD28RoundRect,0.135000X-0.185000X0.135000X-0.185000X-0.135000X0.185000X-0.135000X0.185000X0.135000X0*%
%TD*%
%TA.AperFunction,SMDPad,CuDef*%
%ADD29R,1.500000X2.400000*%
%TD*%
%TA.AperFunction,SMDPad,CuDef*%
%ADD30RoundRect,0.225000X0.250000X-0.225000X0.250000X0.225000X-0.250000X0.225000X-0.250000X-0.225000X0*%
%TD*%
%TA.AperFunction,SMDPad,CuDef*%
%ADD31RoundRect,0.250000X0.310000X-0.830000X0.310000X0.830000X-0.310000X0.830000X-0.310000X-0.830000X0*%
%TD*%
%TA.AperFunction,ComponentPad*%
%ADD32O,2.800000X2.800000*%
%TD*%
%TA.AperFunction,ComponentPad*%
%ADD33O,1.700000X1.700000*%
%TD*%
%TA.AperFunction,ComponentPad*%
%ADD34R,1.700000X1.700000*%
%TD*%
%TA.AperFunction,ComponentPad*%
%ADD35C,1.700000*%
%TD*%
%TA.AperFunction,SMDPad,CuDef*%
%ADD36RoundRect,0.250000X-0.650000X0.325000X-0.650000X-0.325000X0.650000X-0.325000X0.650000X0.325000X0*%
%TD*%
%TA.AperFunction,SMDPad,CuDef*%
%ADD37RoundRect,0.225000X0.225000X0.250000X-0.225000X0.250000X-0.225000X-0.250000X0.225000X-0.250000X0*%
%TD*%
%TA.AperFunction,SMDPad,CuDef*%
%ADD38RoundRect,0.150000X-0.512500X-0.150000X0.512500X-0.150000X0.512500X0.150000X-0.512500X0.150000X0*%
%TD*%
%TA.AperFunction,ViaPad*%
%ADD39C,0.500000*%
%TD*%
%TA.AperFunction,ViaPad*%
%ADD40C,0.600000*%
%TD*%
%TA.AperFunction,Conductor*%
%ADD41C,0.500000*%
%TD*%
%TA.AperFunction,Conductor*%
%ADD42C,0.300000*%
%TD*%
%TA.AperFunction,Conductor*%
%ADD43C,1.000000*%
%TD*%
%TA.AperFunction,Conductor*%
%ADD44C,0.200000*%
%TD*%
G04 APERTURE END LIST*
D10*
%TA.AperFunction,EtchedComponent*%
%TO.C,NT3*%
G36*
X182900000Y-119450000D02*
G01*
X181900000Y-119450000D01*
X181900000Y-118950000D01*
X182900000Y-118950000D01*
X182900000Y-119450000D01*
G37*
%TD.AperFunction*%
%TD*%
D11*
%TO.P,R11,2*%
%TO.N,VBUS*%
X177769500Y-124500000D03*
%TO.P,R11,1*%
%TO.N,Net-(U4-EN)*%
X176749500Y-124500000D03*
%TD*%
D12*
%TO.P,R13,1*%
%TO.N,Net-(R12-Pad2)*%
X165700000Y-113890000D03*
%TO.P,R13,2*%
%TO.N,Net-(D2-K)*%
X165700000Y-112870000D03*
%TD*%
D13*
%TO.P,C20,1*%
%TO.N,VBUS*%
X187800000Y-127450000D03*
%TO.P,C20,2*%
%TO.N,GND*%
X187800000Y-130400000D03*
%TD*%
D14*
%TO.P,NT3,1,1_1*%
%TO.N,GNDA*%
X182900000Y-119200000D03*
%TO.P,NT3,2,2_2*%
%TO.N,GND*%
X181900000Y-119200000D03*
%TD*%
D15*
%TO.P,C11,1*%
%TO.N,VBUS*%
X195420000Y-125400000D03*
%TO.P,C11,2*%
%TO.N,GND*%
X196380000Y-125400000D03*
%TD*%
D16*
%TO.P,C4,1*%
%TO.N,Net-(U1-FB_BK)*%
X188600000Y-125000000D03*
%TO.P,C4,2*%
%TO.N,GND*%
X186700000Y-125000000D03*
%TD*%
D17*
%TO.P,C9,1*%
%TO.N,+3.3V*%
X194100000Y-115400000D03*
%TO.P,C9,2*%
%TO.N,GND*%
X193140000Y-115400000D03*
%TD*%
D18*
%TO.P,U1,1,NC_1*%
%TO.N,unconnected-(U1-NC-Pad1)*%
X189950100Y-121720700D03*
%TO.P,U1,2,AGND_2*%
%TO.N,GND*%
X190449900Y-121720700D03*
%TO.P,U1,3,FB_BK_3*%
%TO.N,Net-(U1-FB_BK)*%
X190950100Y-121720700D03*
%TO.P,U1,4,GND_BK_4*%
%TO.N,GND*%
X191449900Y-121720700D03*
%TO.P,U1,5,SW_BK_5*%
%TO.N,Net-(U1-SW_BK)*%
X191950100Y-121720700D03*
%TO.P,U1,6,CPL_6*%
%TO.N,Net-(U1-CPL)*%
X192449900Y-121720700D03*
%TO.P,U1,7,CPH_7*%
%TO.N,Net-(U1-CPH)*%
X192950100Y-121720700D03*
%TO.P,U1,8,CP_8*%
%TO.N,Net-(U1-CP)*%
X193449900Y-121720700D03*
%TO.P,U1,9,VM_9*%
%TO.N,VBUS*%
X193950100Y-121720700D03*
%TO.P,U1,10,VM_10*%
X194449900Y-121720700D03*
%TO.P,U1,11,VM_11*%
X194950100Y-121720700D03*
%TO.P,U1,12,PGND_12*%
%TO.N,GND*%
X195449900Y-121720700D03*
D19*
%TO.P,U1,13,OUTA_13*%
%TO.N,Net-(U1-OUTA-Pad13)*%
X196099900Y-121070700D03*
%TO.P,U1,14,OUTA_14*%
X196099900Y-120570900D03*
%TO.P,U1,15,PGND_15*%
%TO.N,GND*%
X196099900Y-120070700D03*
%TO.P,U1,16,OUTB_16*%
%TO.N,Net-(U1-OUTB-Pad16)*%
X196099900Y-119570900D03*
%TO.P,U1,17,OUTB_17*%
X196099900Y-119070700D03*
%TO.P,U1,18,PGND_18*%
%TO.N,GND*%
X196099900Y-118570900D03*
%TO.P,U1,19,OUTC_19*%
%TO.N,Net-(U1-OUTC-Pad19)*%
X196099900Y-118070700D03*
%TO.P,U1,20,OUTC_20*%
X196099900Y-117570900D03*
D18*
%TO.P,U1,21,DRVOFF_21*%
%TO.N,DRVOFF*%
X195449900Y-116920900D03*
%TO.P,U1,22,nFAULT_22*%
%TO.N,/nFAULT*%
X194950100Y-116920900D03*
%TO.P,U1,23,nSLEEP_23*%
%TO.N,/nSLEEP*%
X194449900Y-116920900D03*
%TO.P,U1,24,NC_24*%
%TO.N,unconnected-(U1-NC-Pad24)*%
X193950100Y-116920900D03*
%TO.P,U1,25,AVDD_25*%
%TO.N,+3.3V*%
X193449900Y-116920900D03*
%TO.P,U1,26,AGND_26*%
%TO.N,GND*%
X192950100Y-116920900D03*
%TO.P,U1,27,INHA_27*%
%TO.N,INHA*%
X192449900Y-116920900D03*
%TO.P,U1,28,INLA_28*%
%TO.N,INLA*%
X191950100Y-116920900D03*
%TO.P,U1,29,INHB_29*%
%TO.N,INHB*%
X191449900Y-116920900D03*
%TO.P,U1,30,INLB_30*%
%TO.N,INLB*%
X190950100Y-116920900D03*
%TO.P,U1,31,INHC_31*%
%TO.N,INHC*%
X190449900Y-116920900D03*
%TO.P,U1,32,INLC_32*%
%TO.N,INLC*%
X189950100Y-116920900D03*
D19*
%TO.P,U1,33,SDO_33*%
%TO.N,SDO*%
X189300100Y-117570900D03*
%TO.P,U1,34,SDI_34*%
%TO.N,SDI*%
X189300100Y-118070700D03*
%TO.P,U1,35,SCLK_35*%
%TO.N,SCLK*%
X189300100Y-118570900D03*
%TO.P,U1,36,nSCS_36*%
%TO.N,nSCS*%
X189300100Y-119070700D03*
%TO.P,U1,37,VREF/ILIM_37*%
%TO.N,MCU_VREF*%
X189300100Y-119570900D03*
%TO.P,U1,38,SOC_38*%
%TO.N,/SOC*%
X189300100Y-120070700D03*
%TO.P,U1,39,SOB_39*%
%TO.N,/SOB*%
X189300100Y-120570900D03*
%TO.P,U1,40,SOA_40*%
%TO.N,/SOA*%
X189300100Y-121070700D03*
D20*
%TO.P,U1,41,PAD_41*%
%TO.N,GND*%
X190700000Y-118320800D03*
X190700000Y-119320800D03*
X190700000Y-120320800D03*
D21*
X192699900Y-119320700D03*
D20*
X192700000Y-118320800D03*
X192700000Y-119320800D03*
X192700000Y-120320800D03*
X194700000Y-118320800D03*
X194700000Y-119320800D03*
X194700000Y-120320800D03*
%TD*%
D11*
%TO.P,R10,1*%
%TO.N,Net-(U1-FB_BK)*%
X189980000Y-123800000D03*
%TO.P,R10,2*%
%TO.N,Net-(U1-SW_BK)*%
X191000000Y-123800000D03*
%TD*%
D13*
%TO.P,C3,1*%
%TO.N,+5V*%
X170750000Y-120700000D03*
%TO.P,C3,2*%
%TO.N,GND*%
X170750000Y-123650000D03*
%TD*%
D15*
%TO.P,C10,1*%
%TO.N,VBUS*%
X195440000Y-123000000D03*
%TO.P,C10,2*%
%TO.N,GND*%
X196400000Y-123000000D03*
%TD*%
D22*
%TO.P,R7,1*%
%TO.N,/SOA*%
X187000000Y-122800000D03*
%TO.P,R7,2*%
%TO.N,SOA_MCU*%
X185980000Y-122800000D03*
%TD*%
D23*
%TO.P,D2,1,K_1*%
%TO.N,Net-(D2-K)*%
X167000000Y-112890000D03*
%TO.P,D2,2,A_2*%
%TO.N,Net-(D2-A)*%
X167000000Y-113860000D03*
%TD*%
D24*
%TO.P,CN1,1,-_1*%
%TO.N,GND*%
X167600000Y-127800000D03*
%TO.P,CN1,2,+_2*%
%TO.N,VBUS*%
X172600000Y-127800000D03*
D25*
%TO.P,CN1,3,3_3*%
%TO.N,unconnected-(CN1-Pad3)*%
X175600000Y-137800000D03*
%TO.P,CN1,4,4_4*%
%TO.N,unconnected-(CN1-Pad4)*%
X164600000Y-137800000D03*
%TD*%
D26*
%TO.P,C8,1*%
%TO.N,VBUS*%
X180800000Y-128300000D03*
%TO.P,C8,2*%
%TO.N,GND*%
X180800000Y-133700000D03*
%TD*%
D22*
%TO.P,R9,1*%
%TO.N,/SOC*%
X187000000Y-120400000D03*
%TO.P,R9,2*%
%TO.N,SOC_MCU*%
X185980000Y-120400000D03*
%TD*%
D12*
%TO.P,R6,1*%
%TO.N,/nFAULT*%
X196400000Y-114400000D03*
%TO.P,R6,2*%
%TO.N,Net-(D1-K)*%
X196400000Y-113380000D03*
%TD*%
%TO.P,R5,1*%
%TO.N,DRVOFF*%
X197400000Y-114420000D03*
%TO.P,R5,2*%
%TO.N,GND*%
X197400000Y-113400000D03*
%TD*%
D11*
%TO.P,R8,1*%
%TO.N,SOB_MCU*%
X185980000Y-121500000D03*
%TO.P,R8,2*%
%TO.N,/SOB*%
X187000000Y-121500000D03*
%TD*%
D27*
%TO.P,D1,1,K_1*%
%TO.N,Net-(D1-K)*%
X195400000Y-112420000D03*
%TO.P,D1,2,A_2*%
%TO.N,+3.3V*%
X194430000Y-112420000D03*
%TD*%
D15*
%TO.P,C12,1*%
%TO.N,VBUS*%
X195440000Y-124200000D03*
%TO.P,C12,2*%
%TO.N,GND*%
X196400000Y-124200000D03*
%TD*%
D17*
%TO.P,C15,1*%
%TO.N,SOA_MCU*%
X184000000Y-122800000D03*
%TO.P,C15,2*%
%TO.N,GNDA*%
X183040000Y-122800000D03*
%TD*%
D28*
%TO.P,R4,1*%
%TO.N,+3.3V*%
X194400000Y-113380000D03*
%TO.P,R4,2*%
%TO.N,/nSLEEP*%
X194400000Y-114400000D03*
%TD*%
D29*
%TO.P,L1,1,1_1*%
%TO.N,Net-(U4-SW)*%
X176519500Y-115800000D03*
%TO.P,L1,2,2_2*%
%TO.N,+5V*%
X171019500Y-115800000D03*
%TD*%
D30*
%TO.P,C6,1*%
%TO.N,VBUS*%
X194000000Y-125150000D03*
%TO.P,C6,2*%
%TO.N,Net-(U1-CP)*%
X194000000Y-123600000D03*
%TD*%
D31*
%TO.P,SW1,1,A_1*%
%TO.N,+5V*%
X165800000Y-122600000D03*
%TO.P,SW1,2,B_2*%
%TO.N,Net-(D2-A)*%
X165800000Y-115870000D03*
%TD*%
D28*
%TO.P,R12,1*%
%TO.N,GND*%
X164500000Y-112890000D03*
%TO.P,R12,2*%
%TO.N,Net-(R12-Pad2)*%
X164500000Y-113910000D03*
%TD*%
%TO.P,R1,1*%
%TO.N,+5V*%
X173050000Y-120380000D03*
%TO.P,R1,2*%
%TO.N,Net-(U4-FB)*%
X173050000Y-121400000D03*
%TD*%
D32*
%TO.P,U3,1,1_1*%
%TO.N,Net-(U1-OUTA-Pad13)*%
X201000000Y-122699900D03*
%TO.P,U3,2,2_2*%
%TO.N,Net-(U1-OUTB-Pad16)*%
X201000000Y-119200000D03*
%TO.P,U3,3,3_3*%
%TO.N,Net-(U1-OUTC-Pad19)*%
X201000000Y-115700100D03*
D33*
%TO.P,U3,4,4_4*%
%TO.N,unconnected-(U3-Pad4)*%
X211000000Y-112699900D03*
%TO.P,U3,5,5_5*%
%TO.N,unconnected-(U3-Pad5)*%
X211000000Y-125700100D03*
%TD*%
D13*
%TO.P,C19,1*%
%TO.N,VBUS*%
X191350000Y-127550000D03*
%TO.P,C19,2*%
%TO.N,GND*%
X191350000Y-130500000D03*
%TD*%
D34*
%TO.P,J5,1,Pin_1_1*%
%TO.N,GND*%
X202800000Y-106500000D03*
D35*
%TO.P,J5,2,Pin_2_2*%
%TO.N,MCU_VREF*%
X200260000Y-106500000D03*
%TO.P,J5,3,Pin_3_3*%
%TO.N,unconnected-(J5-Pin_3-Pad3)*%
X197720000Y-106500000D03*
%TO.P,J5,4,Pin_4_4*%
%TO.N,unconnected-(J5-Pin_4-Pad4)*%
X195180000Y-106500000D03*
%TD*%
D17*
%TO.P,C16,1*%
%TO.N,SOB_MCU*%
X184000000Y-121500000D03*
%TO.P,C16,2*%
%TO.N,GNDA*%
X183040000Y-121500000D03*
%TD*%
D28*
%TO.P,R3,1*%
%TO.N,+3.3V*%
X195400000Y-113380000D03*
%TO.P,R3,2*%
%TO.N,/nFAULT*%
X195400000Y-114400000D03*
%TD*%
D34*
%TO.P,J1,1,Pin_1_1*%
%TO.N,unconnected-(J1-Pin_1-Pad1)*%
X191500000Y-134000000D03*
D35*
%TO.P,J1,2,Pin_2_2*%
%TO.N,SDI*%
X191500000Y-136540000D03*
%TO.P,J1,3,Pin_3_3*%
%TO.N,GND*%
X188960000Y-134000000D03*
%TO.P,J1,4,Pin_4_4*%
%TO.N,SDO*%
X188960000Y-136540000D03*
%TO.P,J1,5,Pin_5_5*%
%TO.N,SCLK*%
X186420000Y-134000000D03*
%TO.P,J1,6,Pin_6_6*%
%TO.N,unconnected-(J1-Pin_6-Pad6)*%
X186420000Y-136540000D03*
%TD*%
D28*
%TO.P,R2,1*%
%TO.N,Net-(U4-FB)*%
X173050000Y-123200000D03*
%TO.P,R2,2*%
%TO.N,GND*%
X173050000Y-124220000D03*
%TD*%
D36*
%TO.P,C2,1*%
%TO.N,GND*%
X179699500Y-121250000D03*
%TO.P,C2,2*%
%TO.N,VBUS*%
X179699500Y-124200000D03*
%TD*%
D34*
%TO.P,J4,1,Pin_1_1*%
%TO.N,INHC*%
X201740000Y-134025000D03*
D35*
%TO.P,J4,2,Pin_2_2*%
%TO.N,INLC*%
X201740000Y-136565000D03*
%TO.P,J4,3,Pin_3_3*%
%TO.N,INHB*%
X199200000Y-134025000D03*
%TO.P,J4,4,Pin_4_4*%
%TO.N,INLB*%
X199200000Y-136565000D03*
%TO.P,J4,5,Pin_5_5*%
%TO.N,INHA*%
X196660000Y-134025000D03*
%TO.P,J4,6,Pin_6_6*%
%TO.N,INLA*%
X196660000Y-136565000D03*
%TD*%
D37*
%TO.P,C5,1*%
%TO.N,Net-(U1-CPH)*%
X192400000Y-125200000D03*
%TO.P,C5,2*%
%TO.N,Net-(U1-CPL)*%
X190850000Y-125200000D03*
%TD*%
D15*
%TO.P,C1,1*%
%TO.N,Net-(U4-CB)*%
X175609500Y-119900000D03*
%TO.P,C1,2*%
%TO.N,Net-(U4-SW)*%
X176569500Y-119900000D03*
%TD*%
D13*
%TO.P,C18,1*%
%TO.N,VBUS*%
X194900000Y-127550000D03*
%TO.P,C18,2*%
%TO.N,GND*%
X194900000Y-130500000D03*
%TD*%
D38*
%TO.P,U4,1,CB_1*%
%TO.N,Net-(U4-CB)*%
X175000000Y-121274000D03*
%TO.P,U4,2,GND_2*%
%TO.N,GND*%
X175000000Y-122224000D03*
%TO.P,U4,3,FB_3*%
%TO.N,Net-(U4-FB)*%
X175000000Y-123174000D03*
%TO.P,U4,4,EN_4*%
%TO.N,Net-(U4-EN)*%
X177275000Y-123174000D03*
%TO.P,U4,5,VIN_5*%
%TO.N,VBUS*%
X177275000Y-122224000D03*
%TO.P,U4,6,SW_6*%
%TO.N,Net-(U4-SW)*%
X177275000Y-121274000D03*
%TD*%
D17*
%TO.P,C17,1*%
%TO.N,SOC_MCU*%
X184000000Y-120300000D03*
%TO.P,C17,2*%
%TO.N,GNDA*%
X183040000Y-120300000D03*
%TD*%
D34*
%TO.P,J2,1,Pin_1_1*%
%TO.N,unconnected-(J2-Pin_1-Pad1)*%
X157960000Y-113025000D03*
D35*
%TO.P,J2,2,Pin_2_2*%
%TO.N,unconnected-(J2-Pin_2-Pad2)*%
X160500000Y-113025000D03*
%TO.P,J2,3,Pin_3_3*%
%TO.N,Net-(D2-A)*%
X157960000Y-115565000D03*
%TO.P,J2,4,Pin_4_4*%
X160500000Y-115565000D03*
%TO.P,J2,5,Pin_5_5*%
%TO.N,GND*%
X157960000Y-118105000D03*
%TO.P,J2,6,Pin_6_6*%
X160500000Y-118105000D03*
%TO.P,J2,7,Pin_7_7*%
%TO.N,unconnected-(J2-Pin_7-Pad7)*%
X157960000Y-120645000D03*
%TO.P,J2,8,Pin_8_8*%
%TO.N,unconnected-(J2-Pin_8-Pad8)*%
X160500000Y-120645000D03*
%TO.P,J2,9,Pin_9_9*%
%TO.N,DRVOFF*%
X157960000Y-123185000D03*
%TO.P,J2,10,Pin_10_10*%
%TO.N,nSCS*%
X160500000Y-123185000D03*
%TO.P,J2,11,Pin_11_11*%
%TO.N,SOC_MCU*%
X157960000Y-125725000D03*
%TO.P,J2,12,Pin_12_12*%
%TO.N,SOB_MCU*%
X160500000Y-125725000D03*
%TO.P,J2,13,Pin_13_13*%
%TO.N,SOA_MCU*%
X157960000Y-128265000D03*
%TO.P,J2,14,Pin_14_14*%
%TO.N,unconnected-(J2-Pin_14-Pad14)*%
X160500000Y-128265000D03*
%TO.P,J2,15,Pin_15_15*%
%TO.N,unconnected-(J2-Pin_15-Pad15)*%
X157960000Y-130805000D03*
%TO.P,J2,16,Pin_16_16*%
%TO.N,unconnected-(J2-Pin_16-Pad16)*%
X160500000Y-130805000D03*
%TO.P,J2,17,Pin_17_17*%
%TO.N,unconnected-(J2-Pin_17-Pad17)*%
X157960000Y-133345000D03*
%TO.P,J2,18,Pin_18_18*%
%TO.N,unconnected-(J2-Pin_18-Pad18)*%
X160500000Y-133345000D03*
%TO.P,J2,19,Pin_19_19*%
%TO.N,unconnected-(J2-Pin_19-Pad19)*%
X157960000Y-135885000D03*
%TO.P,J2,20,Pin_20_20*%
%TO.N,unconnected-(J2-Pin_20-Pad20)*%
X160500000Y-135885000D03*
%TD*%
D39*
%TO.N,GND*%
X178500000Y-138500000D03*
X178500000Y-136750000D03*
X187000000Y-112250000D03*
X180500000Y-110500000D03*
X170250000Y-111500000D03*
X174500000Y-111500000D03*
X211000000Y-129200000D03*
X208500000Y-131500000D03*
X211000000Y-110000000D03*
X211000000Y-108000000D03*
X208000000Y-108000000D03*
X184550000Y-108250000D03*
X184550000Y-106050000D03*
X180500000Y-106050000D03*
X187100000Y-115450000D03*
X185650000Y-115450000D03*
X184050000Y-115450000D03*
X185500000Y-112250000D03*
X181250000Y-117500000D03*
X179350000Y-117500000D03*
X179350000Y-114500000D03*
X181250000Y-114500000D03*
X188500000Y-106050000D03*
X192550000Y-106050000D03*
X185500000Y-130950000D03*
X185500000Y-130200000D03*
X188150000Y-131550000D03*
X190850000Y-131650000D03*
X191750000Y-131650000D03*
X195150000Y-131650000D03*
X193600000Y-131650000D03*
X198550000Y-126250000D03*
X200050000Y-126250000D03*
X197250000Y-126250000D03*
X197250000Y-125250000D03*
X197250000Y-124350000D03*
X208000000Y-106000000D03*
X197350000Y-118250000D03*
D40*
%TO.N,DRVOFF*%
X195900000Y-115400000D03*
%TO.N,GND*%
X173900000Y-121800000D03*
%TO.N,SOB_MCU*%
X185000000Y-121500000D03*
D39*
%TO.N,GND*%
X170200000Y-136000000D03*
D40*
%TO.N,SCLK*%
X186100000Y-116600000D03*
%TO.N,SOA_MCU*%
X185000000Y-122800000D03*
%TO.N,nSCS*%
X184900000Y-116600000D03*
D39*
%TO.N,GND*%
X211000000Y-131500000D03*
D40*
X198300000Y-113400000D03*
D39*
X197300000Y-120400000D03*
X211000000Y-106000000D03*
X173700000Y-136000000D03*
D40*
X185600000Y-125300000D03*
D39*
X201500000Y-125300000D03*
D40*
%TO.N,SDO*%
X188300000Y-116600000D03*
D39*
%TO.N,GND*%
X163700000Y-112900000D03*
X170200000Y-132900000D03*
X180750000Y-138500000D03*
X180750000Y-136750000D03*
D40*
X178969500Y-119600000D03*
D39*
X166700000Y-136000000D03*
D40*
X191263782Y-122848352D03*
D39*
X183000000Y-138500000D03*
X166700000Y-132900000D03*
D40*
%TO.N,SDI*%
X187200000Y-116600000D03*
%TO.N,GND*%
X168750000Y-123650000D03*
D39*
X183000000Y-136750000D03*
X200050000Y-125300000D03*
D40*
%TO.N,SOC_MCU*%
X185000000Y-120400000D03*
%TO.N,GND*%
X173800000Y-123950000D03*
D39*
X173700000Y-132900000D03*
X198550000Y-125250000D03*
X180500000Y-108250000D03*
%TD*%
%TO.N,GND*%
D41*
X197400000Y-113400000D02*
X198300000Y-113400000D01*
%TO.N,INHA*%
D42*
X196660000Y-131740000D02*
X196660000Y-134025000D01*
X203900000Y-124500000D02*
X196660000Y-131740000D01*
X201350000Y-111750000D02*
X203900000Y-114300000D01*
X203900000Y-114300000D02*
X203900000Y-124500000D01*
X192449900Y-113372440D02*
X194072340Y-111750000D01*
X192449900Y-116920900D02*
X192449900Y-113372440D01*
X194072340Y-111750000D02*
X201350000Y-111750000D01*
%TO.N,INLB*%
X190950100Y-115750100D02*
X190950100Y-116920900D01*
X189900000Y-114700000D02*
X190950100Y-115750100D01*
X189900000Y-112800000D02*
X189900000Y-114700000D01*
X192950000Y-109750000D02*
X189900000Y-112800000D01*
X203150000Y-109750000D02*
X192950000Y-109750000D01*
X206800000Y-113400000D02*
X203150000Y-109750000D01*
X206800000Y-126500000D02*
X206800000Y-113400000D01*
X200400000Y-132900000D02*
X206800000Y-126500000D01*
X200400000Y-135365000D02*
X200400000Y-132900000D01*
X199200000Y-136565000D02*
X200400000Y-135365000D01*
%TO.N,INLA*%
X204900000Y-125100000D02*
X197860000Y-132140000D01*
X197860000Y-132140000D02*
X197860000Y-135365000D01*
X204900000Y-114100000D02*
X204900000Y-125100000D01*
X193700000Y-111100000D02*
X201900000Y-111100000D01*
X191600000Y-113200000D02*
X193700000Y-111100000D01*
X191600000Y-114200000D02*
X191600000Y-113200000D01*
X191950100Y-114550100D02*
X191600000Y-114200000D01*
X201900000Y-111100000D02*
X204900000Y-114100000D01*
X191950100Y-116920900D02*
X191950100Y-114550100D01*
X197860000Y-135365000D02*
X196660000Y-136565000D01*
%TO.N,Net-(U4-EN)*%
X176595500Y-123174000D02*
X177275000Y-123174000D01*
%TO.N,Net-(U1-FB_BK)*%
X190950100Y-121720700D02*
X190950100Y-122242794D01*
%TO.N,SOA_MCU*%
X185980000Y-122800000D02*
X185000000Y-122800000D01*
%TO.N,Net-(U1-CP)*%
X193449900Y-121720700D02*
X193449900Y-122249900D01*
%TO.N,GND*%
D43*
X160500000Y-118105000D02*
X157960000Y-118105000D01*
%TO.N,+3.3V*%
D41*
X194400000Y-112450000D02*
X194430000Y-112420000D01*
%TO.N,+5V*%
D43*
X165800000Y-122600000D02*
X165800000Y-121600000D01*
%TO.N,/SOB*%
D42*
X188429100Y-120570900D02*
X187500000Y-121500000D01*
%TO.N,INHB*%
X205800000Y-125900000D02*
X199200000Y-132500000D01*
%TO.N,+3.3V*%
X193449900Y-116296100D02*
X194100000Y-115646000D01*
%TO.N,GND*%
X190449900Y-121095900D02*
X192225100Y-119320700D01*
%TO.N,Net-(U1-CPL)*%
X191675000Y-124375000D02*
X190850000Y-125200000D01*
%TO.N,/nFAULT*%
D41*
X196400000Y-114400000D02*
X195400000Y-114400000D01*
%TO.N,GND*%
D42*
X192950100Y-115589900D02*
X193140000Y-115400000D01*
%TO.N,SDO*%
X188770900Y-117570900D02*
X189300100Y-117570900D01*
%TO.N,INHB*%
X205800000Y-113700000D02*
X205800000Y-125900000D01*
%TO.N,nSCS*%
X184900000Y-117000000D02*
X186970700Y-119070700D01*
%TO.N,GND*%
X195449900Y-121720700D02*
X196400000Y-122670800D01*
%TO.N,+5V*%
D43*
X171019500Y-115800000D02*
X170750000Y-116069500D01*
%TO.N,Net-(U1-CP)*%
D42*
X194000000Y-122800000D02*
X194000000Y-123600000D01*
%TO.N,Net-(U4-EN)*%
X176369500Y-124200000D02*
X176369500Y-123400000D01*
%TO.N,+3.3V*%
X193730000Y-114050000D02*
X194400000Y-113380000D01*
%TO.N,INHB*%
X191449900Y-116920900D02*
X191449900Y-115149900D01*
%TO.N,GND*%
X190449900Y-121720700D02*
X190449900Y-121095900D01*
%TO.N,Net-(U1-FB_BK)*%
X190950100Y-122242794D02*
X189980000Y-123212894D01*
%TO.N,Net-(D2-A)*%
D43*
X165495000Y-115565000D02*
X165800000Y-115870000D01*
%TO.N,Net-(U4-FB)*%
D41*
X173050000Y-123200000D02*
X173050000Y-121400000D01*
%TO.N,+3.3V*%
D42*
X194100000Y-115400000D02*
X193730000Y-115030000D01*
%TO.N,GND*%
D44*
X196970700Y-120070700D02*
X196099900Y-120070700D01*
%TO.N,Net-(U1-CPH)*%
D42*
X192400000Y-125200000D02*
X192949900Y-124650100D01*
%TO.N,GND*%
X191449900Y-122450100D02*
X191449900Y-121720700D01*
D41*
X174324000Y-122224000D02*
X175000000Y-122224000D01*
%TO.N,+5V*%
X173050000Y-120380000D02*
X171070000Y-120380000D01*
%TO.N,Net-(D1-K)*%
X196400000Y-113125001D02*
X196400000Y-113380000D01*
%TO.N,Net-(D2-A)*%
X167000000Y-113860000D02*
X167000000Y-114670000D01*
%TO.N,GND*%
D43*
X179169500Y-119600000D02*
X179699500Y-120130000D01*
%TO.N,SOC_MCU*%
D42*
X184100000Y-120400000D02*
X184000000Y-120300000D01*
%TO.N,INHB*%
X202500000Y-110400000D02*
X205800000Y-113700000D01*
%TO.N,/SOA*%
X187400000Y-122800000D02*
X187000000Y-122800000D01*
%TO.N,Net-(U1-CPH)*%
X192950100Y-122456807D02*
X192950100Y-121720700D01*
%TO.N,GND*%
X192950100Y-116920900D02*
X192950100Y-115589900D01*
%TO.N,Net-(U1-SW_BK)*%
X191950100Y-123449900D02*
X191600000Y-123800000D01*
%TO.N,DRVOFF*%
X197400000Y-114420000D02*
X197380000Y-114420000D01*
%TO.N,INHB*%
X191449900Y-115149900D02*
X190700000Y-114400000D01*
%TO.N,Net-(U1-FB_BK)*%
X189980000Y-123212894D02*
X189980000Y-123800000D01*
%TO.N,GND*%
D41*
X173530000Y-124220000D02*
X173800000Y-123950000D01*
%TO.N,Net-(U1-SW_BK)*%
D42*
X191950100Y-121720700D02*
X191950100Y-123449900D01*
%TO.N,/nSLEEP*%
D44*
X194449900Y-116920900D02*
X194449900Y-116318728D01*
%TO.N,GND*%
D41*
X163710000Y-112890000D02*
X163700000Y-112900000D01*
%TO.N,DRVOFF*%
D44*
X195449900Y-116450100D02*
X195449900Y-116920900D01*
%TO.N,GND*%
D42*
X191215430Y-122684570D02*
X191449900Y-122450100D01*
%TO.N,SCLK*%
X187670900Y-118570900D02*
X189300100Y-118570900D01*
%TO.N,INHB*%
X190700000Y-113000000D02*
X193300000Y-110400000D01*
%TO.N,Net-(D2-A)*%
D43*
X157960000Y-115565000D02*
X160500000Y-115565000D01*
%TO.N,GND*%
D44*
X197300000Y-120400000D02*
X196970700Y-120070700D01*
%TO.N,Net-(U1-CPH)*%
D42*
X192949900Y-124650100D02*
X192949900Y-122457007D01*
X192949900Y-122457007D02*
X192950100Y-122456807D01*
%TO.N,Net-(R12-Pad2)*%
D41*
X164520000Y-113890000D02*
X164500000Y-113910000D01*
%TO.N,+5V*%
D43*
X170750000Y-116069500D02*
X170750000Y-120700000D01*
%TO.N,GND*%
X178969500Y-119600000D02*
X179169500Y-119600000D01*
%TO.N,SOC_MCU*%
D42*
X185980000Y-120400000D02*
X185000000Y-120400000D01*
%TO.N,SCLK*%
X186100000Y-117000000D02*
X187670900Y-118570900D01*
%TO.N,SOA_MCU*%
X185000000Y-122800000D02*
X184000000Y-122800000D01*
%TO.N,GND*%
D44*
X197029100Y-118570900D02*
X196099900Y-118570900D01*
%TO.N,+5V*%
D41*
X171070000Y-120380000D02*
X170750000Y-120700000D01*
%TO.N,Net-(D2-K)*%
X165720000Y-112890000D02*
X165700000Y-112870000D01*
%TO.N,INHC*%
D42*
X192500000Y-109100000D02*
X203799998Y-109100000D01*
%TO.N,/SOA*%
X189300100Y-121070700D02*
X189129300Y-121070700D01*
%TO.N,GND*%
D41*
X173900000Y-121800000D02*
X174324000Y-122224000D01*
%TO.N,SDI*%
D42*
X188177806Y-118070700D02*
X189300100Y-118070700D01*
%TO.N,Net-(R12-Pad2)*%
D41*
X165700000Y-113890000D02*
X164520000Y-113890000D01*
%TO.N,GND*%
D42*
X192950100Y-119070500D02*
X192710300Y-119310300D01*
D41*
X164500000Y-112890000D02*
X163710000Y-112890000D01*
D42*
X191263782Y-122848352D02*
X191215430Y-122800000D01*
%TO.N,nSCS*%
X184900000Y-116600000D02*
X184900000Y-117000000D01*
%TO.N,SOB_MCU*%
X185980000Y-121500000D02*
X185000000Y-121500000D01*
%TO.N,INHC*%
X201740000Y-133260000D02*
X201740000Y-134025000D01*
%TO.N,GND*%
D41*
X186700000Y-125000000D02*
X185900000Y-125000000D01*
D42*
X191215430Y-122800000D02*
X191215430Y-122684570D01*
X192225100Y-119320700D02*
X192699900Y-119320700D01*
%TO.N,/SOB*%
X187500000Y-121500000D02*
X187000000Y-121500000D01*
%TO.N,/SOC*%
X187600000Y-120400000D02*
X187000000Y-120400000D01*
%TO.N,Net-(U4-FB)*%
D41*
X175000000Y-123174000D02*
X173076000Y-123174000D01*
%TO.N,GND*%
X171320000Y-124220000D02*
X173050000Y-124220000D01*
%TO.N,INHC*%
D42*
X207800000Y-113100002D02*
X207800000Y-127200000D01*
%TO.N,Net-(U4-CB)*%
D41*
X175000000Y-120509500D02*
X175609500Y-119900000D01*
%TO.N,/nSLEEP*%
D44*
X194449900Y-116318728D02*
X194800000Y-115968628D01*
%TO.N,+3.3V*%
D42*
X194100000Y-115646000D02*
X194100000Y-115400000D01*
%TO.N,SOC_MCU*%
X185000000Y-120400000D02*
X184100000Y-120400000D01*
%TO.N,+5V*%
D43*
X165800000Y-121600000D02*
X166700000Y-120700000D01*
%TO.N,/SOC*%
D42*
X189300100Y-120070700D02*
X187929300Y-120070700D01*
%TO.N,SOB_MCU*%
X185000000Y-121500000D02*
X184000000Y-121500000D01*
%TO.N,Net-(U1-FB_BK)*%
D41*
X188600000Y-125000000D02*
X188780000Y-125000000D01*
%TO.N,Net-(U4-EN)*%
D42*
X176669500Y-124500000D02*
X176369500Y-124200000D01*
%TO.N,/nFAULT*%
D44*
X194950100Y-116920900D02*
X194950100Y-116384214D01*
%TO.N,/SOA*%
D42*
X189129300Y-121070700D02*
X187400000Y-122800000D01*
%TO.N,/nFAULT*%
D44*
X195300000Y-116034314D02*
X195300000Y-114500000D01*
%TO.N,nSCS*%
D42*
X186970700Y-119070700D02*
X189300100Y-119070700D01*
%TO.N,SDO*%
X188300000Y-117100000D02*
X188770900Y-117570900D01*
%TO.N,Net-(U4-CB)*%
D41*
X175000000Y-121274000D02*
X175000000Y-120509500D01*
%TO.N,GND*%
D42*
X192950100Y-116920900D02*
X192950100Y-119070500D01*
%TO.N,+3.3V*%
X193449900Y-116920900D02*
X193449900Y-116296100D01*
%TO.N,DRVOFF*%
D44*
X195700000Y-115600000D02*
X195700000Y-116200000D01*
%TO.N,GND*%
D42*
X192710300Y-119310300D02*
X192699900Y-119320700D01*
%TO.N,INHB*%
X193300000Y-110400000D02*
X202500000Y-110400000D01*
%TO.N,+3.3V*%
X193730000Y-115030000D02*
X193730000Y-114050000D01*
%TO.N,DRVOFF*%
D44*
X196420000Y-115400000D02*
X197400000Y-114420000D01*
%TO.N,Net-(U4-FB)*%
D41*
X173076000Y-123174000D02*
X173050000Y-123200000D01*
%TO.N,Net-(U1-SW_BK)*%
D42*
X191600000Y-123800000D02*
X191000000Y-123800000D01*
%TO.N,/nFAULT*%
D44*
X195300000Y-114500000D02*
X195400000Y-114400000D01*
%TO.N,+3.3V*%
D42*
X194100000Y-115400000D02*
X194000000Y-115500000D01*
%TO.N,+5V*%
D43*
X166700000Y-120700000D02*
X170750000Y-120700000D01*
%TO.N,Net-(U1-FB_BK)*%
D41*
X188780000Y-125000000D02*
X189980000Y-123800000D01*
%TO.N,+3.3V*%
X194400000Y-113380000D02*
X194400000Y-112450000D01*
%TO.N,SDI*%
D42*
X187200000Y-116600000D02*
X187200000Y-117092894D01*
%TO.N,INHB*%
X199200000Y-132500000D02*
X199200000Y-134025000D01*
%TO.N,GND*%
D41*
X168750000Y-123650000D02*
X170750000Y-123650000D01*
%TO.N,INHC*%
D42*
X190449900Y-116920900D02*
X190449900Y-116349900D01*
%TO.N,Net-(U4-EN)*%
X176749500Y-124500000D02*
X176669500Y-124500000D01*
%TO.N,DRVOFF*%
D44*
X195900000Y-115400000D02*
X196420000Y-115400000D01*
%TO.N,GND*%
D43*
X179699500Y-120130000D02*
X179699500Y-121250000D01*
%TO.N,Net-(U1-CPL)*%
D42*
X192225000Y-124375000D02*
X191675000Y-124375000D01*
%TO.N,GND*%
D41*
X157955000Y-118100000D02*
X157960000Y-118105000D01*
%TO.N,+3.3V*%
X194400000Y-113380000D02*
X195400000Y-113380000D01*
%TO.N,Net-(U1-CPL)*%
D42*
X192449900Y-124150100D02*
X192225000Y-124375000D01*
%TO.N,Net-(U4-EN)*%
X176369500Y-123400000D02*
X176595500Y-123174000D01*
%TO.N,GND*%
D41*
X185900000Y-125000000D02*
X185600000Y-125300000D01*
%TO.N,Net-(D2-A)*%
X167000000Y-114670000D02*
X165800000Y-115870000D01*
%TO.N,SDI*%
D42*
X187200000Y-117092894D02*
X188177806Y-118070700D01*
%TO.N,INHC*%
X189100000Y-115000000D02*
X189100000Y-112500000D01*
%TO.N,/nSLEEP*%
D44*
X194800000Y-114800000D02*
X194400000Y-114400000D01*
%TO.N,INHC*%
D42*
X207800000Y-127200000D02*
X201740000Y-133260000D01*
X189100000Y-112500000D02*
X192500000Y-109100000D01*
%TO.N,/SOC*%
X187929300Y-120070700D02*
X187600000Y-120400000D01*
%TO.N,Net-(U1-CPL)*%
X192449900Y-121720700D02*
X192449900Y-124150100D01*
%TO.N,DRVOFF*%
D44*
X195700000Y-116200000D02*
X195449900Y-116450100D01*
%TO.N,Net-(D1-K)*%
D41*
X195400000Y-112420000D02*
X195694999Y-112420000D01*
X195694999Y-112420000D02*
X196400000Y-113125001D01*
%TO.N,Net-(D2-A)*%
D43*
X160500000Y-115565000D02*
X165495000Y-115565000D01*
%TO.N,GND*%
D44*
X197350000Y-118250000D02*
X197029100Y-118570900D01*
D41*
X173050000Y-124220000D02*
X173530000Y-124220000D01*
X170750000Y-123650000D02*
X171320000Y-124220000D01*
%TO.N,Net-(U1-CP)*%
D42*
X193449900Y-122249900D02*
X194000000Y-122800000D01*
%TO.N,/nSLEEP*%
D44*
X194800000Y-115968628D02*
X194800000Y-114800000D01*
%TO.N,INHC*%
D42*
X190449900Y-116349900D02*
X189100000Y-115000000D01*
%TO.N,GND*%
X196400000Y-122670800D02*
X196400000Y-123000000D01*
%TO.N,DRVOFF*%
D44*
X195900000Y-115400000D02*
X195700000Y-115600000D01*
%TO.N,SCLK*%
D42*
X186100000Y-116600000D02*
X186100000Y-117000000D01*
%TO.N,Net-(D2-K)*%
D41*
X167000000Y-112890000D02*
X165720000Y-112890000D01*
%TO.N,INHB*%
D42*
X190700000Y-114400000D02*
X190700000Y-113000000D01*
%TO.N,/nFAULT*%
D44*
X194950100Y-116384214D02*
X195300000Y-116034314D01*
%TO.N,INHC*%
D42*
X203799998Y-109100000D02*
X207800000Y-113100002D01*
%TO.N,/SOB*%
X189300100Y-120570900D02*
X188429100Y-120570900D01*
%TO.N,SDO*%
X188300000Y-116600000D02*
X188300000Y-117100000D01*
%TO.N,INLC*%
X202135000Y-136565000D02*
X201740000Y-136565000D01*
X203400000Y-135300000D02*
X202135000Y-136565000D01*
X208800000Y-128000000D02*
X203400000Y-133400000D01*
X204600000Y-108500000D02*
X208800000Y-112700000D01*
X192000000Y-108500000D02*
X204600000Y-108500000D01*
X203400000Y-133400000D02*
X203400000Y-135300000D01*
X188300000Y-112200000D02*
X192000000Y-108500000D01*
X188300000Y-115270800D02*
X188300000Y-112200000D01*
X208800000Y-112700000D02*
X208800000Y-128000000D01*
X189950100Y-116920900D02*
X188300000Y-115270800D01*
%TO.N,MCU_VREF*%
X188100000Y-107900000D02*
X182900000Y-113100000D01*
X182900000Y-116900000D02*
X185570900Y-119570900D01*
X198860000Y-107900000D02*
X188100000Y-107900000D01*
X182900000Y-113100000D02*
X182900000Y-116900000D01*
X185570900Y-119570900D02*
X189300100Y-119570900D01*
X200260000Y-106500000D02*
X198860000Y-107900000D01*
%TD*%
%TA.AperFunction,Conductor*%
%TO.N,GND*%
G36*
X188481311Y-134227647D02*
G01*
X188537244Y-134269519D01*
X188545363Y-134281828D01*
X188559896Y-134307000D01*
X188559899Y-134307004D01*
X188559901Y-134307007D01*
X188652993Y-134400099D01*
X188678169Y-134414634D01*
X188726384Y-134465202D01*
X188739606Y-134533809D01*
X188713638Y-134598673D01*
X188703849Y-134609702D01*
X188198282Y-135115268D01*
X188198282Y-135115269D01*
X188198282Y-135115270D01*
X188206373Y-135131149D01*
X188245612Y-135151142D01*
X188274450Y-135171469D01*
X188283868Y-135180363D01*
X188319092Y-135240700D01*
X188316104Y-135310505D01*
X188279932Y-135364229D01*
X188272929Y-135370297D01*
X188255944Y-135381776D01*
X188256331Y-135382407D01*
X188252172Y-135384955D01*
X188080216Y-135509886D01*
X187929892Y-135660210D01*
X187929888Y-135660216D01*
X187804949Y-135832182D01*
X187804948Y-135832183D01*
X187804945Y-135832188D01*
X187804634Y-135832696D01*
X187803499Y-135834177D01*
X187802085Y-135836125D01*
X187802036Y-135836089D01*
X187789060Y-135853041D01*
X187779353Y-135863319D01*
X187719011Y-135898542D01*
X187649205Y-135895550D01*
X187595488Y-135859378D01*
X187589285Y-135852219D01*
X187577274Y-135835811D01*
X187575053Y-135832187D01*
X187575051Y-135832184D01*
X187575050Y-135832182D01*
X187450109Y-135660213D01*
X187299786Y-135509890D01*
X187127820Y-135384951D01*
X187127808Y-135384944D01*
X187127303Y-135384635D01*
X187127148Y-135384463D01*
X187123878Y-135382088D01*
X187124377Y-135381400D01*
X187123698Y-135380650D01*
X187106961Y-135369064D01*
X187106490Y-135368619D01*
X187096680Y-135359354D01*
X187082574Y-135335191D01*
X187080430Y-135332821D01*
X187080128Y-135331002D01*
X187061456Y-135299017D01*
X187064445Y-135229211D01*
X187100612Y-135175495D01*
X187107783Y-135169281D01*
X187124194Y-135157269D01*
X187127797Y-135155060D01*
X187127816Y-135155051D01*
X187214138Y-135092335D01*
X187299786Y-135030109D01*
X187299788Y-135030106D01*
X187299792Y-135030104D01*
X187299796Y-135030099D01*
X187299849Y-135030061D01*
X187300605Y-135029290D01*
X187449290Y-134880605D01*
X187450063Y-134879847D01*
X187450101Y-134879794D01*
X187450104Y-134879792D01*
X187450106Y-134879788D01*
X187450109Y-134879786D01*
X187517515Y-134787007D01*
X187575051Y-134707816D01*
X187575058Y-134707801D01*
X187575790Y-134706609D01*
X187591367Y-134686250D01*
X187600924Y-134676131D01*
X187661259Y-134640907D01*
X187731065Y-134643894D01*
X187784789Y-134680067D01*
X187790890Y-134687108D01*
X187802900Y-134703514D01*
X187805367Y-134707540D01*
X187844727Y-134761715D01*
X187844728Y-134761716D01*
X188350297Y-134256147D01*
X188411619Y-134222663D01*
X188481311Y-134227647D01*
G37*
%TD.AperFunction*%
%TA.AperFunction,Conductor*%
G36*
X189558671Y-134246358D02*
G01*
X189569702Y-134256149D01*
X190100573Y-134787020D01*
X190121723Y-134815272D01*
X190134331Y-134838361D01*
X190148807Y-134895076D01*
X190149372Y-134895051D01*
X190149495Y-134897772D01*
X190149500Y-134897790D01*
X190149500Y-134897863D01*
X190149503Y-134897899D01*
X190155907Y-134957481D01*
X190155908Y-134957483D01*
X190206202Y-135092328D01*
X190206206Y-135092335D01*
X190241105Y-135138954D01*
X190292450Y-135207542D01*
X190292452Y-135207544D01*
X190292455Y-135207547D01*
X190407664Y-135293793D01*
X190407671Y-135293797D01*
X190520258Y-135335789D01*
X190522376Y-135336579D01*
X190553350Y-135353491D01*
X190564461Y-135361808D01*
X190606334Y-135417740D01*
X190611321Y-135487432D01*
X190611318Y-135487445D01*
X190610342Y-135491930D01*
X190576860Y-135553244D01*
X190469886Y-135660218D01*
X190405644Y-135748641D01*
X190344949Y-135832182D01*
X190344948Y-135832183D01*
X190344945Y-135832188D01*
X190344634Y-135832696D01*
X190343499Y-135834177D01*
X190342085Y-135836125D01*
X190342036Y-135836089D01*
X190329060Y-135853041D01*
X190319353Y-135863319D01*
X190259011Y-135898542D01*
X190189205Y-135895550D01*
X190135488Y-135859378D01*
X190129285Y-135852219D01*
X190117274Y-135835811D01*
X190115053Y-135832187D01*
X190115051Y-135832184D01*
X190115050Y-135832182D01*
X189990109Y-135660213D01*
X189839786Y-135509890D01*
X189667817Y-135384949D01*
X189667812Y-135384946D01*
X189666584Y-135384194D01*
X189646242Y-135368624D01*
X189636127Y-135359071D01*
X189600906Y-135298734D01*
X189603896Y-135228929D01*
X189640066Y-135175210D01*
X189647122Y-135169096D01*
X189663537Y-135157083D01*
X189667542Y-135154628D01*
X189667555Y-135154622D01*
X189689119Y-135138953D01*
X189715858Y-135129412D01*
X189721717Y-135115269D01*
X189216149Y-134609702D01*
X189182664Y-134548379D01*
X189187648Y-134478688D01*
X189229519Y-134422754D01*
X189241822Y-134414639D01*
X189267007Y-134400099D01*
X189360099Y-134307007D01*
X189374634Y-134281830D01*
X189425199Y-134233616D01*
X189493805Y-134220391D01*
X189558671Y-134246358D01*
G37*
%TD.AperFunction*%
%TA.AperFunction,Conductor*%
G36*
X158558671Y-118351358D02*
G01*
X158569702Y-118361149D01*
X159075269Y-118866717D01*
X159075269Y-118866716D01*
X159075270Y-118866717D01*
X159075270Y-118866716D01*
X159088738Y-118861137D01*
X159094955Y-118839967D01*
X159098941Y-118834135D01*
X159114622Y-118812554D01*
X159114626Y-118812544D01*
X159115605Y-118810949D01*
X159131172Y-118790609D01*
X159140648Y-118780575D01*
X159200984Y-118745355D01*
X159270790Y-118748345D01*
X159324507Y-118784514D01*
X159330577Y-118791519D01*
X159342207Y-118808770D01*
X159342826Y-118808391D01*
X159345373Y-118812548D01*
X159384727Y-118866715D01*
X159384728Y-118866716D01*
X159890297Y-118361147D01*
X159951619Y-118327663D01*
X160021311Y-118332647D01*
X160077244Y-118374519D01*
X160085363Y-118386828D01*
X160099896Y-118412000D01*
X160099899Y-118412004D01*
X160099901Y-118412007D01*
X160192993Y-118505099D01*
X160218169Y-118519634D01*
X160266384Y-118570202D01*
X160279606Y-118638809D01*
X160253638Y-118703673D01*
X160243849Y-118714702D01*
X159738282Y-119220268D01*
X159738282Y-119220269D01*
X159738282Y-119220270D01*
X159746373Y-119236149D01*
X159785612Y-119256142D01*
X159814450Y-119276469D01*
X159823868Y-119285363D01*
X159859092Y-119345700D01*
X159856104Y-119415505D01*
X159819932Y-119469229D01*
X159812929Y-119475297D01*
X159795944Y-119486776D01*
X159796331Y-119487407D01*
X159792172Y-119489955D01*
X159620216Y-119614886D01*
X159469892Y-119765210D01*
X159469890Y-119765213D01*
X159344949Y-119937182D01*
X159344948Y-119937183D01*
X159344945Y-119937188D01*
X159344634Y-119937696D01*
X159343499Y-119939177D01*
X159342085Y-119941125D01*
X159342036Y-119941089D01*
X159329060Y-119958041D01*
X159319353Y-119968319D01*
X159259011Y-120003542D01*
X159189205Y-120000550D01*
X159135488Y-119964378D01*
X159129285Y-119957219D01*
X159117274Y-119940811D01*
X159115053Y-119937187D01*
X159115051Y-119937184D01*
X159115050Y-119937182D01*
X158990109Y-119765213D01*
X158839786Y-119614890D01*
X158667817Y-119489949D01*
X158667812Y-119489946D01*
X158666584Y-119489194D01*
X158646242Y-119473624D01*
X158636127Y-119464071D01*
X158600906Y-119403734D01*
X158603896Y-119333929D01*
X158640066Y-119280210D01*
X158647122Y-119274096D01*
X158663537Y-119262083D01*
X158667542Y-119259628D01*
X158667555Y-119259622D01*
X158689119Y-119243953D01*
X158715858Y-119234412D01*
X158721717Y-119220269D01*
X158216149Y-118714702D01*
X158182664Y-118653379D01*
X158187648Y-118583688D01*
X158229519Y-118527754D01*
X158241822Y-118519639D01*
X158267007Y-118505099D01*
X158360099Y-118412007D01*
X158374634Y-118386830D01*
X158425199Y-118338616D01*
X158493805Y-118325391D01*
X158558671Y-118351358D01*
G37*
%TD.AperFunction*%
%TA.AperFunction,Conductor*%
G36*
X159556902Y-116570521D02*
G01*
X159585772Y-116578999D01*
X159623720Y-116597657D01*
X159792900Y-116720573D01*
X159794387Y-116721520D01*
X159795225Y-116722079D01*
X159795142Y-116722202D01*
X159796311Y-116723051D01*
X159796195Y-116723209D01*
X159813741Y-116736361D01*
X159823865Y-116745921D01*
X159859091Y-116806259D01*
X159856105Y-116876065D01*
X159819938Y-116929785D01*
X159812614Y-116936132D01*
X159794059Y-116949432D01*
X159792440Y-116950379D01*
X159738282Y-116989726D01*
X159738281Y-116989727D01*
X160243850Y-117495296D01*
X160277335Y-117556619D01*
X160272351Y-117626311D01*
X160230479Y-117682244D01*
X160218173Y-117690362D01*
X160192996Y-117704898D01*
X160192990Y-117704903D01*
X160099903Y-117797990D01*
X160099898Y-117797996D01*
X160085362Y-117823173D01*
X160034793Y-117871387D01*
X159966185Y-117884607D01*
X159901322Y-117858637D01*
X159890296Y-117848850D01*
X159384728Y-117343282D01*
X159384727Y-117343282D01*
X159345376Y-117397443D01*
X159344386Y-117399060D01*
X159328810Y-117419408D01*
X159319350Y-117429424D01*
X159259007Y-117464646D01*
X159189201Y-117461652D01*
X159135492Y-117425486D01*
X159129415Y-117418472D01*
X159117814Y-117401216D01*
X159117174Y-117401609D01*
X159114630Y-117397458D01*
X159114623Y-117397449D01*
X159075270Y-117343282D01*
X159075268Y-117343282D01*
X158569702Y-117848849D01*
X158508379Y-117882334D01*
X158438687Y-117877350D01*
X158382754Y-117835478D01*
X158374634Y-117823169D01*
X158360099Y-117797993D01*
X158267007Y-117704901D01*
X158267004Y-117704899D01*
X158267000Y-117704896D01*
X158241828Y-117690363D01*
X158193613Y-117639796D01*
X158180391Y-117571189D01*
X158206359Y-117506324D01*
X158216135Y-117495310D01*
X158721716Y-116989728D01*
X158721713Y-116989726D01*
X158687501Y-116964870D01*
X158681998Y-116957734D01*
X158674388Y-116953857D01*
X158645539Y-116933521D01*
X158636129Y-116924634D01*
X158600905Y-116864292D01*
X158603897Y-116794487D01*
X158640070Y-116740767D01*
X158647084Y-116734690D01*
X158664077Y-116723286D01*
X158663657Y-116722600D01*
X158667808Y-116720055D01*
X158667807Y-116720055D01*
X158667816Y-116720051D01*
X158741010Y-116666873D01*
X158829188Y-116602808D01*
X158851356Y-116589973D01*
X158881769Y-116576344D01*
X158932480Y-116565500D01*
X159521970Y-116565500D01*
X159556902Y-116570521D01*
G37*
%TD.AperFunction*%
%TA.AperFunction,Conductor*%
G36*
X211496927Y-104750649D02*
G01*
X211503005Y-104750947D01*
X211509084Y-104751395D01*
X211520168Y-104752485D01*
X211525086Y-104752970D01*
X211628013Y-104763108D01*
X211640047Y-104764894D01*
X211651943Y-104767261D01*
X211663741Y-104770217D01*
X211761677Y-104799926D01*
X211776034Y-104805624D01*
X211779472Y-104806849D01*
X211779476Y-104806852D01*
X211788915Y-104810217D01*
X211805715Y-104817652D01*
X211900258Y-104868186D01*
X211910686Y-104874436D01*
X211920337Y-104880885D01*
X211920774Y-104881177D01*
X211930544Y-104888423D01*
X212006058Y-104950395D01*
X212015827Y-104958412D01*
X212016026Y-104958631D01*
X212016164Y-104958690D01*
X212024844Y-104966585D01*
X212033413Y-104975154D01*
X212041585Y-104984170D01*
X212111570Y-105069447D01*
X212118819Y-105079221D01*
X212125561Y-105089311D01*
X212131817Y-105099749D01*
X212182323Y-105194240D01*
X212187578Y-105206121D01*
X212191479Y-105213794D01*
X212193823Y-105219544D01*
X212197652Y-105230342D01*
X212206784Y-105260444D01*
X212229782Y-105336258D01*
X212232737Y-105348054D01*
X212235105Y-105359955D01*
X212236892Y-105371999D01*
X212248604Y-105490904D01*
X212249051Y-105496970D01*
X212249350Y-105503052D01*
X212249500Y-105509141D01*
X212249500Y-111723040D01*
X212244476Y-111757978D01*
X212241289Y-111768831D01*
X212203514Y-111827608D01*
X212139957Y-111856631D01*
X212070801Y-111846687D01*
X212065167Y-111844114D01*
X212028998Y-111819002D01*
X211967974Y-111757978D01*
X211879786Y-111669790D01*
X211707820Y-111544851D01*
X211535911Y-111457259D01*
X211530571Y-111453379D01*
X211506254Y-111443306D01*
X211499734Y-111442274D01*
X211438726Y-111422451D01*
X211325074Y-111385523D01*
X211320552Y-111383670D01*
X211311362Y-111381500D01*
X211306599Y-111381126D01*
X211154957Y-111357108D01*
X211135489Y-111354024D01*
X211106290Y-111349400D01*
X211106287Y-111349400D01*
X210893713Y-111349400D01*
X210893709Y-111349400D01*
X210854776Y-111355566D01*
X210845042Y-111357108D01*
X210807654Y-111363029D01*
X210683763Y-111382652D01*
X210481582Y-111448345D01*
X210292182Y-111544849D01*
X210120210Y-111669792D01*
X209969892Y-111820110D01*
X209844949Y-111992082D01*
X209748445Y-112181482D01*
X209682752Y-112383663D01*
X209668567Y-112473225D01*
X209658142Y-112506942D01*
X209653732Y-112516245D01*
X209607228Y-112568391D01*
X209539915Y-112587117D01*
X209473163Y-112566478D01*
X209432692Y-112522263D01*
X209426405Y-112510675D01*
X209420836Y-112498994D01*
X209376467Y-112391876D01*
X209376463Y-112391870D01*
X209376454Y-112391855D01*
X209367592Y-112378593D01*
X209367592Y-112378592D01*
X209367588Y-112378588D01*
X209305283Y-112285339D01*
X209305279Y-112285334D01*
X209305277Y-112285331D01*
X209305275Y-112285329D01*
X209305273Y-112285326D01*
X209305268Y-112285321D01*
X209305264Y-112285316D01*
X205014677Y-107994729D01*
X205014673Y-107994726D01*
X205014669Y-107994723D01*
X204908127Y-107923535D01*
X204908125Y-107923534D01*
X204789753Y-107874502D01*
X204789733Y-107874495D01*
X204789725Y-107874493D01*
X204664074Y-107849500D01*
X204664071Y-107849500D01*
X204664069Y-107849500D01*
X204166207Y-107849500D01*
X204131264Y-107844475D01*
X204119085Y-107840898D01*
X204060309Y-107803119D01*
X204031289Y-107739561D01*
X204039468Y-107674469D01*
X204043153Y-107665573D01*
X204058441Y-107638723D01*
X204093352Y-107592089D01*
X204093354Y-107592086D01*
X204143596Y-107457379D01*
X204143598Y-107457372D01*
X204148028Y-107416178D01*
X204149998Y-107397860D01*
X204150000Y-107397827D01*
X204150000Y-106750000D01*
X203412250Y-106750000D01*
X203345211Y-106730315D01*
X203299456Y-106677511D01*
X203289512Y-106608353D01*
X203292476Y-106593905D01*
X203299999Y-106565828D01*
X203300000Y-106565825D01*
X203300000Y-106434175D01*
X203299999Y-106434171D01*
X203292476Y-106406095D01*
X203294137Y-106336245D01*
X203333299Y-106278382D01*
X203397527Y-106250877D01*
X203412250Y-106250000D01*
X204150000Y-106250000D01*
X204150000Y-105602172D01*
X204149998Y-105602138D01*
X204143598Y-105542628D01*
X204143596Y-105542621D01*
X204143596Y-105542620D01*
X204093354Y-105407913D01*
X204093350Y-105407906D01*
X204007190Y-105292812D01*
X204007187Y-105292809D01*
X204007185Y-105292807D01*
X203916422Y-105224862D01*
X203892093Y-105206649D01*
X203892088Y-105206646D01*
X203892089Y-105206646D01*
X203757377Y-105156402D01*
X203757370Y-105156400D01*
X203697852Y-105150000D01*
X203697844Y-105150000D01*
X203050000Y-105150000D01*
X203050000Y-105887749D01*
X203030315Y-105954788D01*
X202977511Y-106000543D01*
X202908353Y-106010487D01*
X202893908Y-106007524D01*
X202865828Y-106000000D01*
X202865826Y-106000000D01*
X202734174Y-106000000D01*
X202734171Y-106000000D01*
X202706092Y-106007524D01*
X202636242Y-106005861D01*
X202578380Y-105966698D01*
X202550877Y-105902469D01*
X202550000Y-105887749D01*
X202550000Y-105150000D01*
X201902155Y-105150000D01*
X201902146Y-105150000D01*
X201842628Y-105156400D01*
X201842621Y-105156402D01*
X201707910Y-105206646D01*
X201707907Y-105206648D01*
X201592813Y-105292807D01*
X201592810Y-105292810D01*
X201592808Y-105292813D01*
X201506647Y-105407908D01*
X201463807Y-105522767D01*
X201446888Y-105553749D01*
X201438571Y-105564858D01*
X201382635Y-105606726D01*
X201312956Y-105611709D01*
X201308473Y-105610734D01*
X201247148Y-105577252D01*
X201139788Y-105469892D01*
X201139786Y-105469890D01*
X200967820Y-105344951D01*
X200865487Y-105292810D01*
X200795911Y-105257359D01*
X200790571Y-105253479D01*
X200766254Y-105243406D01*
X200759734Y-105242374D01*
X200698726Y-105222551D01*
X200585074Y-105185623D01*
X200580552Y-105183770D01*
X200571362Y-105181600D01*
X200566599Y-105181226D01*
X200414957Y-105157208D01*
X200386695Y-105152732D01*
X200366290Y-105149500D01*
X200366287Y-105149500D01*
X200153713Y-105149500D01*
X200153709Y-105149500D01*
X200114776Y-105155666D01*
X200105042Y-105157208D01*
X200067654Y-105163129D01*
X199943763Y-105182752D01*
X199741582Y-105248445D01*
X199552182Y-105344949D01*
X199552179Y-105344950D01*
X199552179Y-105344951D01*
X199523298Y-105365934D01*
X199380210Y-105469892D01*
X199229892Y-105620210D01*
X199229890Y-105620213D01*
X199104952Y-105792179D01*
X199104945Y-105792188D01*
X199104634Y-105792696D01*
X199103499Y-105794177D01*
X199102085Y-105796125D01*
X199102036Y-105796089D01*
X199089060Y-105813041D01*
X199079353Y-105823319D01*
X199019011Y-105858542D01*
X198949205Y-105855550D01*
X198895488Y-105819378D01*
X198889285Y-105812219D01*
X198877274Y-105795811D01*
X198875053Y-105792187D01*
X198875051Y-105792184D01*
X198875050Y-105792182D01*
X198750109Y-105620213D01*
X198599786Y-105469890D01*
X198427820Y-105344951D01*
X198325487Y-105292810D01*
X198255911Y-105257359D01*
X198250571Y-105253479D01*
X198226254Y-105243406D01*
X198219734Y-105242374D01*
X198158726Y-105222551D01*
X198045074Y-105185623D01*
X198040552Y-105183770D01*
X198031362Y-105181600D01*
X198026599Y-105181226D01*
X197874957Y-105157208D01*
X197846695Y-105152732D01*
X197826290Y-105149500D01*
X197826287Y-105149500D01*
X197613713Y-105149500D01*
X197613709Y-105149500D01*
X197574776Y-105155666D01*
X197565042Y-105157208D01*
X197527654Y-105163129D01*
X197403763Y-105182752D01*
X197201582Y-105248445D01*
X197012182Y-105344949D01*
X197012179Y-105344950D01*
X197012179Y-105344951D01*
X196983298Y-105365934D01*
X196840210Y-105469892D01*
X196689892Y-105620210D01*
X196689890Y-105620213D01*
X196564952Y-105792179D01*
X196564945Y-105792188D01*
X196564634Y-105792696D01*
X196563499Y-105794177D01*
X196562085Y-105796125D01*
X196562036Y-105796089D01*
X196549060Y-105813041D01*
X196539353Y-105823319D01*
X196479011Y-105858542D01*
X196409205Y-105855550D01*
X196355488Y-105819378D01*
X196349285Y-105812219D01*
X196337274Y-105795811D01*
X196335053Y-105792187D01*
X196335051Y-105792184D01*
X196335050Y-105792182D01*
X196210109Y-105620213D01*
X196059786Y-105469890D01*
X195887820Y-105344951D01*
X195785487Y-105292810D01*
X195715911Y-105257359D01*
X195710571Y-105253479D01*
X195686254Y-105243406D01*
X195679734Y-105242374D01*
X195618726Y-105222551D01*
X195505074Y-105185623D01*
X195500552Y-105183770D01*
X195491362Y-105181600D01*
X195486599Y-105181226D01*
X195334957Y-105157208D01*
X195306695Y-105152732D01*
X195286290Y-105149500D01*
X195286287Y-105149500D01*
X195073713Y-105149500D01*
X195073709Y-105149500D01*
X195034776Y-105155666D01*
X195025042Y-105157208D01*
X194987654Y-105163129D01*
X194863763Y-105182752D01*
X194661582Y-105248445D01*
X194472182Y-105344949D01*
X194472179Y-105344950D01*
X194472179Y-105344951D01*
X194443298Y-105365934D01*
X194300210Y-105469892D01*
X194149892Y-105620210D01*
X194024949Y-105792182D01*
X193928445Y-105981580D01*
X193862752Y-106183759D01*
X193829500Y-106393707D01*
X193829500Y-106606291D01*
X193862752Y-106816239D01*
X193928444Y-107018414D01*
X193946229Y-107053320D01*
X193957613Y-107086725D01*
X193960175Y-107100368D01*
X193953201Y-107169889D01*
X193909749Y-107224604D01*
X193909748Y-107224604D01*
X193907020Y-107226527D01*
X193855901Y-107247500D01*
X193853957Y-107247823D01*
X193833633Y-107249500D01*
X188035927Y-107249500D01*
X187910266Y-107274495D01*
X187910250Y-107274500D01*
X187910247Y-107274501D01*
X187874448Y-107289330D01*
X187861220Y-107294810D01*
X187791879Y-107323530D01*
X187791861Y-107323541D01*
X187685329Y-107394723D01*
X187685316Y-107394735D01*
X182394723Y-112685328D01*
X182394723Y-112685329D01*
X182348507Y-112754498D01*
X182323532Y-112791875D01*
X182274502Y-112910245D01*
X182274495Y-112910265D01*
X182274493Y-112910273D01*
X182249500Y-113035923D01*
X182249500Y-113035928D01*
X182249500Y-113035931D01*
X182249500Y-116964069D01*
X182263795Y-117035931D01*
X182269764Y-117065939D01*
X182274499Y-117089744D01*
X182274501Y-117089750D01*
X182323531Y-117208121D01*
X182323534Y-117208125D01*
X182394726Y-117314673D01*
X182394727Y-117314674D01*
X182915531Y-117835478D01*
X183262873Y-118182819D01*
X183296358Y-118244142D01*
X183291374Y-118313833D01*
X183249502Y-118369767D01*
X183184038Y-118394184D01*
X183175192Y-118394500D01*
X182624000Y-118394500D01*
X182623991Y-118394500D01*
X182623990Y-118394501D01*
X182516549Y-118406052D01*
X182516537Y-118406054D01*
X182465027Y-118417260D01*
X182362502Y-118451383D01*
X182362498Y-118451385D01*
X182295580Y-118494391D01*
X182228540Y-118514075D01*
X182181089Y-118504636D01*
X182118770Y-118478823D01*
X182118767Y-118478822D01*
X182118759Y-118478820D01*
X182118754Y-118478819D01*
X182118741Y-118478816D01*
X181973874Y-118450000D01*
X181973872Y-118450000D01*
X181826128Y-118450000D01*
X181826126Y-118450000D01*
X181681257Y-118478816D01*
X181681226Y-118478823D01*
X181575974Y-118522419D01*
X181575973Y-118522420D01*
X181961049Y-118907496D01*
X181994534Y-118968819D01*
X181996107Y-119012814D01*
X181994500Y-119023991D01*
X181994500Y-119054138D01*
X181974815Y-119121177D01*
X181958181Y-119141819D01*
X181900000Y-119200000D01*
X181958181Y-119258181D01*
X181991666Y-119319504D01*
X181994500Y-119345862D01*
X181994500Y-119407689D01*
X181974815Y-119474728D01*
X181958181Y-119495370D01*
X181575973Y-119877576D01*
X181575974Y-119877576D01*
X181575974Y-119877577D01*
X181681236Y-119921178D01*
X181681240Y-119921179D01*
X181818494Y-119948480D01*
X181821221Y-119949203D01*
X181826128Y-119950000D01*
X181870500Y-119950000D01*
X181937539Y-119969685D01*
X181983294Y-120022489D01*
X181994500Y-120074000D01*
X181994500Y-123276000D01*
X181994501Y-123276009D01*
X182006052Y-123383450D01*
X182006054Y-123383462D01*
X182017260Y-123434972D01*
X182051383Y-123537497D01*
X182051386Y-123537503D01*
X182129171Y-123658537D01*
X182129179Y-123658548D01*
X182174923Y-123711340D01*
X182174926Y-123711343D01*
X182174930Y-123711347D01*
X182283664Y-123805567D01*
X182283667Y-123805568D01*
X182283668Y-123805569D01*
X182383778Y-123851289D01*
X182414541Y-123865338D01*
X182481580Y-123885023D01*
X182481584Y-123885024D01*
X182624000Y-123905500D01*
X183475990Y-123905500D01*
X183476000Y-123905500D01*
X183583456Y-123893947D01*
X183634967Y-123882741D01*
X183686431Y-123865612D01*
X183737497Y-123848616D01*
X183737501Y-123848613D01*
X183737504Y-123848613D01*
X183858543Y-123770825D01*
X183911347Y-123725070D01*
X183973541Y-123653295D01*
X184032318Y-123615523D01*
X184067252Y-123610500D01*
X184204682Y-123610500D01*
X184204690Y-123610500D01*
X184236157Y-123608023D01*
X184240041Y-123607871D01*
X184240305Y-123607841D01*
X184241714Y-123607442D01*
X184250594Y-123604974D01*
X184251783Y-123604508D01*
X184303809Y-123589393D01*
X184396395Y-123562494D01*
X184475118Y-123515936D01*
X184507729Y-123502482D01*
X184523515Y-123498477D01*
X184592201Y-123500696D01*
X184614670Y-123507971D01*
X184614670Y-123507970D01*
X184622396Y-123510472D01*
X184631654Y-123513882D01*
X184749017Y-123562494D01*
X184749019Y-123562495D01*
X184766503Y-123569737D01*
X184833216Y-123583007D01*
X184865320Y-123589393D01*
X184913512Y-123598979D01*
X184916247Y-123599703D01*
X184921155Y-123600500D01*
X185078844Y-123600500D01*
X185082964Y-123600500D01*
X185090814Y-123598118D01*
X185233497Y-123569737D01*
X185312824Y-123536879D01*
X185366689Y-123514567D01*
X185400877Y-123505841D01*
X185423537Y-123503405D01*
X185480051Y-123510485D01*
X185483387Y-123511727D01*
X185503240Y-123521201D01*
X185590591Y-123572860D01*
X185590606Y-123572869D01*
X185604601Y-123576934D01*
X185624786Y-123582799D01*
X185647482Y-123589393D01*
X185733997Y-123614528D01*
X185735190Y-123614995D01*
X185744049Y-123617457D01*
X185745459Y-123617858D01*
X185745473Y-123617862D01*
X185745755Y-123617893D01*
X185749631Y-123618045D01*
X185780819Y-123620500D01*
X186032720Y-123620499D01*
X186067643Y-123625518D01*
X186078499Y-123628706D01*
X186137277Y-123666475D01*
X186166307Y-123730028D01*
X186156368Y-123799187D01*
X186156363Y-123799199D01*
X186155714Y-123800620D01*
X186123296Y-123843529D01*
X186122886Y-123843878D01*
X186107609Y-123854992D01*
X185981667Y-123932674D01*
X185981653Y-123932684D01*
X185857683Y-124056655D01*
X185821812Y-124114812D01*
X185781302Y-124180489D01*
X185765641Y-124205879D01*
X185765638Y-124205888D01*
X185710494Y-124372299D01*
X185710493Y-124372304D01*
X185700000Y-124475007D01*
X185700000Y-124475013D01*
X185700000Y-124750000D01*
X186558170Y-124750000D01*
X186563617Y-124751599D01*
X186569188Y-124750490D01*
X186593106Y-124755023D01*
X186608104Y-124759427D01*
X186623112Y-124769069D01*
X186625209Y-124769685D01*
X186626638Y-124771334D01*
X186666855Y-124797172D01*
X186668042Y-124798541D01*
X186695518Y-124853402D01*
X186697163Y-124860960D01*
X186700000Y-124887331D01*
X186700000Y-125108170D01*
X186694975Y-125143114D01*
X186690570Y-125158112D01*
X186682704Y-125170354D01*
X186679366Y-125184498D01*
X186664223Y-125199117D01*
X186652827Y-125216855D01*
X186651458Y-125218042D01*
X186637253Y-125225155D01*
X186629100Y-125233028D01*
X186616539Y-125235530D01*
X186596597Y-125245518D01*
X186589039Y-125247163D01*
X186562668Y-125250000D01*
X185700001Y-125250000D01*
X185700001Y-125524995D01*
X185703363Y-125557898D01*
X185690593Y-125626591D01*
X185642713Y-125677475D01*
X185580005Y-125694500D01*
X182160746Y-125694500D01*
X182093707Y-125674815D01*
X182073065Y-125658181D01*
X181441819Y-125026935D01*
X181408334Y-124965612D01*
X181405500Y-124939254D01*
X181405500Y-123211846D01*
X181405499Y-123211839D01*
X181400533Y-123172304D01*
X181389797Y-123086825D01*
X181374628Y-123027396D01*
X181328494Y-122910147D01*
X181315886Y-122887058D01*
X181276891Y-122826383D01*
X181255741Y-122798131D01*
X181208515Y-122743631D01*
X180812698Y-122347814D01*
X180779213Y-122286491D01*
X180784197Y-122216799D01*
X180815397Y-122175081D01*
X180812738Y-122172422D01*
X180856983Y-122128177D01*
X180941815Y-122043345D01*
X181033856Y-121894124D01*
X181033858Y-121894119D01*
X181089005Y-121727697D01*
X181089006Y-121727690D01*
X181099499Y-121624986D01*
X181099500Y-121624973D01*
X181099500Y-121500000D01*
X179841330Y-121500000D01*
X179806389Y-121494975D01*
X179791390Y-121490570D01*
X179732644Y-121452827D01*
X179731457Y-121451458D01*
X179703977Y-121396583D01*
X179702332Y-121389021D01*
X179699500Y-121362668D01*
X179699500Y-121250000D01*
X179591330Y-121250000D01*
X179556389Y-121244975D01*
X179541390Y-121240570D01*
X179482644Y-121202827D01*
X179481457Y-121201458D01*
X179453977Y-121146583D01*
X179452332Y-121139021D01*
X179449500Y-121112668D01*
X179449500Y-121000000D01*
X179949500Y-121000000D01*
X181099499Y-121000000D01*
X181099499Y-120875028D01*
X181099498Y-120875013D01*
X181089005Y-120772302D01*
X181033858Y-120605880D01*
X181033856Y-120605875D01*
X180941815Y-120456654D01*
X180817845Y-120332684D01*
X180668624Y-120240643D01*
X180668619Y-120240641D01*
X180668610Y-120240638D01*
X180502199Y-120185494D01*
X180502194Y-120185493D01*
X180399491Y-120175000D01*
X180399486Y-120175000D01*
X179949500Y-120175000D01*
X179949500Y-121000000D01*
X179449500Y-121000000D01*
X179449500Y-120175000D01*
X178999528Y-120175000D01*
X178999512Y-120175001D01*
X178999502Y-120175001D01*
X178999502Y-120175002D01*
X178896804Y-120185493D01*
X178896802Y-120185494D01*
X178730387Y-120240638D01*
X178730379Y-120240641D01*
X178730377Y-120240642D01*
X178730375Y-120240643D01*
X178649384Y-120290599D01*
X178581152Y-120332685D01*
X178543935Y-120369902D01*
X178482612Y-120403387D01*
X178412920Y-120398401D01*
X178368574Y-120369901D01*
X178025608Y-120026935D01*
X177992123Y-119965612D01*
X177989289Y-119939254D01*
X177989289Y-119273875D01*
X181149999Y-119273875D01*
X181178816Y-119418741D01*
X181178820Y-119418759D01*
X181178822Y-119418767D01*
X181222421Y-119524024D01*
X181546446Y-119200000D01*
X181546446Y-119199999D01*
X181222421Y-118875974D01*
X181222420Y-118875974D01*
X181178823Y-118981226D01*
X181178816Y-118981257D01*
X181150000Y-119126123D01*
X181150000Y-119126126D01*
X181150000Y-119273873D01*
X181150000Y-119273875D01*
X181149999Y-119273875D01*
X177989289Y-119273875D01*
X177989289Y-114537330D01*
X177987954Y-114512445D01*
X177986389Y-114483261D01*
X177983552Y-114456890D01*
X177974888Y-114403455D01*
X177973243Y-114395897D01*
X177952225Y-114336349D01*
X177931291Y-114277037D01*
X177903818Y-114222183D01*
X177903814Y-114222175D01*
X177833758Y-114117389D01*
X177833711Y-114117335D01*
X177832572Y-114116021D01*
X177723876Y-114021878D01*
X177723872Y-114021875D01*
X177665132Y-113984137D01*
X177665127Y-113984134D01*
X177665126Y-113984134D01*
X177534314Y-113924405D01*
X177534309Y-113924403D01*
X177534308Y-113924403D01*
X177529086Y-113922870D01*
X177519316Y-113920001D01*
X177481377Y-113911747D01*
X177448834Y-113904667D01*
X177413899Y-113899645D01*
X177341961Y-113894500D01*
X177341959Y-113894500D01*
X175737332Y-113894500D01*
X175737330Y-113894500D01*
X175683306Y-113897395D01*
X175656937Y-113900230D01*
X175603571Y-113908875D01*
X175603553Y-113908879D01*
X175595998Y-113910522D01*
X175595973Y-113910529D01*
X175477094Y-113952474D01*
X175477084Y-113952479D01*
X175422210Y-113979956D01*
X175422189Y-113979968D01*
X175317396Y-114050024D01*
X175317388Y-114050030D01*
X175316018Y-114051218D01*
X175221878Y-114159911D01*
X175221875Y-114159915D01*
X175184137Y-114218655D01*
X175173272Y-114242450D01*
X175135211Y-114325809D01*
X175124403Y-114349479D01*
X175123161Y-114353711D01*
X175120001Y-114364472D01*
X175113716Y-114393360D01*
X175104667Y-114434953D01*
X175099645Y-114469888D01*
X175094822Y-114537331D01*
X175094500Y-114541829D01*
X175094500Y-117239020D01*
X175109188Y-117359992D01*
X175109189Y-117359996D01*
X175123392Y-117417621D01*
X175123394Y-117417628D01*
X175166598Y-117531550D01*
X175178999Y-117555178D01*
X175216984Y-117616484D01*
X175216988Y-117616491D01*
X175218855Y-117619072D01*
X175237671Y-117645090D01*
X175284000Y-117700371D01*
X175543405Y-117968468D01*
X175575874Y-118030333D01*
X175578290Y-118054691D01*
X175578290Y-118965500D01*
X175558605Y-119032539D01*
X175505801Y-119078294D01*
X175454290Y-119089500D01*
X175404794Y-119089500D01*
X175368504Y-119092356D01*
X175368502Y-119092356D01*
X175368501Y-119092357D01*
X175368495Y-119092358D01*
X175213116Y-119137502D01*
X175213102Y-119137506D01*
X175073819Y-119219877D01*
X175073801Y-119219891D01*
X174959391Y-119334301D01*
X174959377Y-119334320D01*
X174884979Y-119460121D01*
X174884978Y-119460122D01*
X174877004Y-119473605D01*
X174850322Y-119565446D01*
X174837975Y-119593977D01*
X174822528Y-119620094D01*
X174803480Y-119644649D01*
X174417047Y-120031082D01*
X174386922Y-120076172D01*
X174386919Y-120076176D01*
X174334918Y-120153999D01*
X174334915Y-120154004D01*
X174334906Y-120154022D01*
X174278344Y-120290579D01*
X174278338Y-120290599D01*
X174248913Y-120438522D01*
X174246274Y-120449263D01*
X174239078Y-120473772D01*
X174206139Y-120528132D01*
X174199059Y-120534954D01*
X174176140Y-120552393D01*
X174085640Y-120605913D01*
X174081604Y-120608761D01*
X174069541Y-120616275D01*
X174056596Y-120623342D01*
X173988322Y-120638187D01*
X173922860Y-120613764D01*
X173880994Y-120557829D01*
X173879838Y-120554730D01*
X173878310Y-120550629D01*
X173870499Y-120507315D01*
X173870499Y-120180831D01*
X173870498Y-120180806D01*
X173870041Y-120175000D01*
X173867665Y-120144796D01*
X173822869Y-119990607D01*
X173741135Y-119852402D01*
X173741134Y-119852401D01*
X173741132Y-119852397D01*
X173627608Y-119738873D01*
X173627590Y-119738859D01*
X173489396Y-119657132D01*
X173489391Y-119657130D01*
X173489382Y-119657126D01*
X173335226Y-119612339D01*
X173335211Y-119612336D01*
X173335212Y-119612336D01*
X173335208Y-119612335D01*
X173335202Y-119612334D01*
X173327997Y-119611767D01*
X173299189Y-119609500D01*
X173299181Y-119609500D01*
X172800830Y-119609500D01*
X172800816Y-119609500D01*
X172764795Y-119612334D01*
X172764792Y-119612335D01*
X172731091Y-119622126D01*
X172713978Y-119625811D01*
X172696765Y-119628262D01*
X172679285Y-119629500D01*
X171958418Y-119629500D01*
X171952111Y-119629339D01*
X171947104Y-119629084D01*
X171945828Y-119629019D01*
X171939552Y-119628539D01*
X171938082Y-119628389D01*
X171938078Y-119628388D01*
X171938061Y-119628387D01*
X171909788Y-119625498D01*
X171900018Y-119624500D01*
X171900016Y-119624500D01*
X171900009Y-119624500D01*
X171892330Y-119624500D01*
X171857389Y-119619475D01*
X171842390Y-119615070D01*
X171783644Y-119577327D01*
X171782457Y-119575958D01*
X171754977Y-119521083D01*
X171753332Y-119513521D01*
X171750500Y-119487168D01*
X171750500Y-117636901D01*
X171755523Y-117601965D01*
X171759927Y-117586967D01*
X171797699Y-117528192D01*
X171801723Y-117524705D01*
X171850065Y-117498850D01*
X171850159Y-117498823D01*
X171851572Y-117498436D01*
X171871171Y-117494715D01*
X171876983Y-117494091D01*
X172011831Y-117443796D01*
X172127046Y-117357546D01*
X172213296Y-117242331D01*
X172263591Y-117107483D01*
X172270000Y-117047873D01*
X172269999Y-114552128D01*
X172263591Y-114492517D01*
X172263402Y-114492011D01*
X172232662Y-114409591D01*
X172213298Y-114357673D01*
X172213297Y-114357671D01*
X172213295Y-114357668D01*
X172213293Y-114357664D01*
X172127047Y-114242455D01*
X172127044Y-114242452D01*
X172127042Y-114242450D01*
X172049652Y-114184516D01*
X172011835Y-114156206D01*
X172011832Y-114156204D01*
X172011830Y-114156203D01*
X172011828Y-114156202D01*
X171962344Y-114137746D01*
X171926997Y-114111284D01*
X171825083Y-114100328D01*
X171820242Y-114099500D01*
X171817381Y-114099500D01*
X171817373Y-114099500D01*
X171817364Y-114099500D01*
X170221629Y-114099500D01*
X170221623Y-114099500D01*
X170219692Y-114099659D01*
X170218045Y-114099885D01*
X170162156Y-114105893D01*
X170162016Y-114105908D01*
X170056656Y-114145205D01*
X170027166Y-114156204D01*
X170027165Y-114156205D01*
X169911956Y-114242450D01*
X169911950Y-114242456D01*
X169825705Y-114357665D01*
X169825703Y-114357668D01*
X169775408Y-114492516D01*
X169769000Y-114552125D01*
X169769000Y-115854617D01*
X169768402Y-115866780D01*
X169767212Y-115878853D01*
X169765427Y-115890881D01*
X169749500Y-115970950D01*
X169749500Y-119482670D01*
X169744475Y-119517614D01*
X169740070Y-119532612D01*
X169702293Y-119591385D01*
X169700923Y-119592572D01*
X169646103Y-119620017D01*
X169638547Y-119621662D01*
X169612169Y-119624500D01*
X169600000Y-119624500D01*
X169599982Y-119624500D01*
X169599979Y-119624501D01*
X169497199Y-119635000D01*
X169497199Y-119635001D01*
X169347689Y-119684544D01*
X169335529Y-119687898D01*
X169323204Y-119690631D01*
X169296459Y-119696560D01*
X169269621Y-119699500D01*
X166601453Y-119699500D01*
X166504812Y-119718724D01*
X166504811Y-119718724D01*
X166408195Y-119737941D01*
X166408178Y-119737945D01*
X166408170Y-119737947D01*
X166408166Y-119737948D01*
X166408160Y-119737949D01*
X166408150Y-119737953D01*
X166380279Y-119749499D01*
X166380277Y-119749500D01*
X166286293Y-119788428D01*
X166226082Y-119813368D01*
X166062221Y-119922856D01*
X166062218Y-119922859D01*
X166013585Y-119971494D01*
X165162217Y-120822862D01*
X165121476Y-120863602D01*
X165022859Y-120962218D01*
X165022856Y-120962221D01*
X164913375Y-121126072D01*
X164913366Y-121126087D01*
X164913364Y-121126091D01*
X164913364Y-121126092D01*
X164875435Y-121217664D01*
X164875435Y-121217665D01*
X164837949Y-121308163D01*
X164837942Y-121308191D01*
X164829067Y-121352815D01*
X164829067Y-121352817D01*
X164817258Y-121412180D01*
X164813489Y-121426559D01*
X164808733Y-121441090D01*
X164806127Y-121448292D01*
X164805190Y-121450649D01*
X164780623Y-121524791D01*
X164780622Y-121524794D01*
X164760298Y-121586124D01*
X164751852Y-121599067D01*
X164750365Y-121613630D01*
X164749542Y-121619881D01*
X164749359Y-121623476D01*
X164739500Y-121719973D01*
X164739500Y-121719983D01*
X164739500Y-123480001D01*
X164739501Y-123480018D01*
X164750000Y-123582796D01*
X164750001Y-123582799D01*
X164805185Y-123749331D01*
X164805187Y-123749336D01*
X164824824Y-123781172D01*
X164897288Y-123898656D01*
X165021344Y-124022712D01*
X165170666Y-124114814D01*
X165337203Y-124169999D01*
X165439991Y-124180500D01*
X166160008Y-124180499D01*
X166160058Y-124180499D01*
X166160225Y-124180489D01*
X166161331Y-124180363D01*
X166206459Y-124175753D01*
X166216303Y-124174748D01*
X166216303Y-124174747D01*
X166262797Y-124169999D01*
X166429334Y-124114814D01*
X166574955Y-124024995D01*
X168900001Y-124024995D01*
X168910493Y-124127694D01*
X168910494Y-124127696D01*
X168956612Y-124266873D01*
X168965641Y-124294119D01*
X168965643Y-124294124D01*
X169057684Y-124443345D01*
X169181654Y-124567315D01*
X169330875Y-124659356D01*
X169330880Y-124659358D01*
X169497299Y-124714504D01*
X169497300Y-124714504D01*
X169497302Y-124714505D01*
X169497309Y-124714506D01*
X169600019Y-124724999D01*
X170499999Y-124724999D01*
X170500000Y-124724998D01*
X170500000Y-123900000D01*
X168900001Y-123900000D01*
X168900001Y-124024995D01*
X166574955Y-124024995D01*
X166578656Y-124022712D01*
X166702712Y-123898656D01*
X166794814Y-123749334D01*
X166849999Y-123582797D01*
X166860500Y-123480009D01*
X166860499Y-123275007D01*
X168900000Y-123275007D01*
X168900000Y-123275013D01*
X168900000Y-123400000D01*
X170500000Y-123400000D01*
X170500000Y-122575000D01*
X169600037Y-122575000D01*
X169600028Y-122575000D01*
X169600012Y-122575001D01*
X169600002Y-122575001D01*
X169600002Y-122575002D01*
X169497304Y-122585493D01*
X169497302Y-122585494D01*
X169330887Y-122640638D01*
X169330879Y-122640641D01*
X169330877Y-122640642D01*
X169330875Y-122640643D01*
X169288825Y-122666580D01*
X169181652Y-122732685D01*
X169057685Y-122856652D01*
X168965641Y-123005879D01*
X168965638Y-123005888D01*
X168910494Y-123172299D01*
X168910493Y-123172304D01*
X168900000Y-123275007D01*
X166860499Y-123275007D01*
X166860499Y-123086827D01*
X166860499Y-122699000D01*
X166860499Y-122023611D01*
X166865521Y-121988678D01*
X166866176Y-121986447D01*
X166872933Y-121963433D01*
X166904226Y-121910693D01*
X167065500Y-121749419D01*
X167093746Y-121728275D01*
X167116838Y-121715667D01*
X167176263Y-121700500D01*
X169269621Y-121700500D01*
X169296457Y-121703439D01*
X169335514Y-121712097D01*
X169347672Y-121715449D01*
X169497203Y-121764999D01*
X169599991Y-121775500D01*
X171900008Y-121775499D01*
X172002797Y-121764999D01*
X172108841Y-121729858D01*
X172143581Y-121723638D01*
X172159203Y-121723101D01*
X172226870Y-121740466D01*
X172230927Y-121742880D01*
X172271342Y-121781640D01*
X172271726Y-121782228D01*
X172287508Y-121817306D01*
X172295104Y-121845069D01*
X172299500Y-121877793D01*
X172299500Y-122494295D01*
X172294475Y-122529236D01*
X172290564Y-122542553D01*
X172252787Y-122601329D01*
X172189229Y-122630351D01*
X172182459Y-122631324D01*
X172125815Y-122626291D01*
X172002699Y-122585494D01*
X172002694Y-122585493D01*
X171899991Y-122575000D01*
X171899986Y-122575000D01*
X171000000Y-122575000D01*
X171000000Y-124724999D01*
X171899960Y-124724999D01*
X171899972Y-124724999D01*
X171899986Y-124724998D01*
X172002697Y-124714505D01*
X172169122Y-124659357D01*
X172169124Y-124659355D01*
X172170301Y-124658966D01*
X172190678Y-124654079D01*
X172191671Y-124653928D01*
X172208575Y-124651360D01*
X172277807Y-124660750D01*
X172281065Y-124662207D01*
X172282406Y-124662807D01*
X172326680Y-124696190D01*
X172328034Y-124697800D01*
X172339864Y-124714488D01*
X172346081Y-124724999D01*
X172359259Y-124747282D01*
X172359268Y-124747294D01*
X172472705Y-124860731D01*
X172472714Y-124860738D01*
X172493685Y-124873140D01*
X172610804Y-124942404D01*
X172610805Y-124942404D01*
X172610808Y-124942406D01*
X172610811Y-124942407D01*
X172610833Y-124942413D01*
X172610838Y-124942415D01*
X172764860Y-124987163D01*
X172764863Y-124987163D01*
X172764871Y-124987166D01*
X172764877Y-124987167D01*
X172800000Y-124989931D01*
X172800000Y-124989930D01*
X173300000Y-124989930D01*
X173335122Y-124987167D01*
X173335128Y-124987166D01*
X173489188Y-124942407D01*
X173489191Y-124942406D01*
X173627285Y-124860738D01*
X173627294Y-124860731D01*
X173740731Y-124747294D01*
X173740738Y-124747285D01*
X173822404Y-124609194D01*
X173822404Y-124609190D01*
X173822406Y-124609189D01*
X173862844Y-124470001D01*
X173862843Y-124470000D01*
X173300000Y-124470000D01*
X173300000Y-124989930D01*
X172800000Y-124989930D01*
X172800000Y-124361829D01*
X172805023Y-124326893D01*
X172809427Y-124311895D01*
X172819069Y-124296886D01*
X172819685Y-124294790D01*
X172821334Y-124293360D01*
X172847172Y-124253144D01*
X172848541Y-124251957D01*
X172903420Y-124224477D01*
X172910979Y-124222833D01*
X172937332Y-124220000D01*
X173050000Y-124220000D01*
X173050000Y-124112328D01*
X173055023Y-124077392D01*
X173057646Y-124068461D01*
X173059427Y-124062393D01*
X173097172Y-124003643D01*
X173098541Y-124002456D01*
X173153415Y-123974976D01*
X173160976Y-123973331D01*
X173187331Y-123970499D01*
X173299184Y-123970499D01*
X173299888Y-123970471D01*
X173303031Y-123970289D01*
X173307987Y-123970094D01*
X173312816Y-123970000D01*
X173865228Y-123970000D01*
X173865229Y-123970000D01*
X173892354Y-123949754D01*
X173944603Y-123927080D01*
X173948103Y-123926451D01*
X173970020Y-123924500D01*
X174196390Y-123924500D01*
X174213860Y-123925737D01*
X174231076Y-123928187D01*
X174248196Y-123931873D01*
X174336043Y-123957395D01*
X174374132Y-123968461D01*
X174375327Y-123968929D01*
X174384186Y-123971391D01*
X174385589Y-123971789D01*
X174385613Y-123971796D01*
X174385886Y-123971826D01*
X174389766Y-123971978D01*
X174421806Y-123974500D01*
X174421814Y-123974500D01*
X175575038Y-123974500D01*
X175600527Y-123977147D01*
X175617569Y-123980728D01*
X175679128Y-124013772D01*
X175712114Y-124070979D01*
X175714673Y-124080859D01*
X175715037Y-124082261D01*
X175719000Y-124113361D01*
X175719000Y-124219702D01*
X175713737Y-124237622D01*
X175743994Y-124389726D01*
X175743995Y-124389732D01*
X175744002Y-124389753D01*
X175779308Y-124474989D01*
X175779318Y-124475013D01*
X175793035Y-124508127D01*
X175837728Y-124575016D01*
X175837729Y-124575017D01*
X175864224Y-124614671D01*
X175864225Y-124614672D01*
X175864226Y-124614673D01*
X175932361Y-124682808D01*
X175953512Y-124711063D01*
X175967082Y-124735916D01*
X175979933Y-124779106D01*
X175980696Y-124778967D01*
X175981834Y-124785203D01*
X175981835Y-124785205D01*
X175987311Y-124804053D01*
X176026629Y-124939389D01*
X176026630Y-124939391D01*
X176026632Y-124939396D01*
X176108359Y-125077590D01*
X176108373Y-125077608D01*
X176213584Y-125182819D01*
X176247069Y-125244142D01*
X176242085Y-125313834D01*
X176200213Y-125369767D01*
X176134749Y-125394184D01*
X176125903Y-125394500D01*
X171037330Y-125394500D01*
X170983306Y-125397395D01*
X170956937Y-125400230D01*
X170903571Y-125408875D01*
X170903553Y-125408879D01*
X170895998Y-125410522D01*
X170895973Y-125410529D01*
X170777094Y-125452474D01*
X170777084Y-125452479D01*
X170722210Y-125479956D01*
X170722189Y-125479968D01*
X170617396Y-125550024D01*
X170617388Y-125550030D01*
X170616018Y-125551218D01*
X170521878Y-125659911D01*
X170521875Y-125659915D01*
X170484137Y-125718655D01*
X170484134Y-125718662D01*
X170432708Y-125831291D01*
X170424403Y-125849479D01*
X170421363Y-125859830D01*
X170420001Y-125864472D01*
X170413716Y-125893360D01*
X170404667Y-125934953D01*
X170399645Y-125969888D01*
X170394500Y-126041826D01*
X170394500Y-129162673D01*
X170397391Y-129216649D01*
X170397394Y-129216681D01*
X170400222Y-129243010D01*
X170402682Y-129258190D01*
X170408663Y-129295109D01*
X170408882Y-129296457D01*
X170408886Y-129296483D01*
X170410529Y-129304033D01*
X170410529Y-129304035D01*
X170451978Y-129421496D01*
X170452484Y-129422929D01*
X170479964Y-129477804D01*
X170550030Y-129582610D01*
X170551217Y-129583979D01*
X170659905Y-129678116D01*
X170718651Y-129715859D01*
X170718658Y-129715862D01*
X170849446Y-129775585D01*
X170849447Y-129775585D01*
X170849448Y-129775586D01*
X170864447Y-129779991D01*
X170934931Y-129795327D01*
X170969872Y-129800352D01*
X171041830Y-129805500D01*
X178839254Y-129805500D01*
X178906293Y-129825185D01*
X178926935Y-129841819D01*
X179598815Y-130513700D01*
X179598824Y-130513708D01*
X179598827Y-130513711D01*
X179698322Y-130591003D01*
X179751070Y-130622301D01*
X179866585Y-130672584D01*
X179866589Y-130672585D01*
X179866593Y-130672587D01*
X179891835Y-130679999D01*
X179962316Y-130695332D01*
X179997252Y-130700355D01*
X180069192Y-130705500D01*
X181538156Y-130705500D01*
X181538157Y-130705500D01*
X181663181Y-130689795D01*
X181722611Y-130674625D01*
X181839862Y-130628489D01*
X181862950Y-130615881D01*
X181923615Y-130576892D01*
X181951866Y-130555743D01*
X182006369Y-130508515D01*
X182673064Y-129841818D01*
X182734387Y-129808334D01*
X182760745Y-129805500D01*
X185835113Y-129805500D01*
X185850000Y-129809871D01*
X185850000Y-132352475D01*
X195135689Y-132444413D01*
X195974254Y-131620821D01*
X195976355Y-131622171D01*
X195977542Y-131623540D01*
X196005018Y-131678401D01*
X196006663Y-131685959D01*
X196009500Y-131712330D01*
X196009500Y-132179646D01*
X195998026Y-132231741D01*
X195456262Y-133401960D01*
X195441498Y-133437304D01*
X195440950Y-133439044D01*
X195433178Y-133458040D01*
X195408442Y-133506588D01*
X195342753Y-133708755D01*
X195342753Y-133708758D01*
X195309500Y-133918707D01*
X195309500Y-134131291D01*
X195338793Y-134316239D01*
X195342752Y-134341237D01*
X195395803Y-134504513D01*
X195408441Y-134543406D01*
X195408443Y-134543412D01*
X195503305Y-134729591D01*
X195504951Y-134732820D01*
X195629890Y-134904786D01*
X195780213Y-135055109D01*
X195952182Y-135180050D01*
X195952190Y-135180054D01*
X195952693Y-135180363D01*
X195954174Y-135181496D01*
X195956122Y-135182912D01*
X195956086Y-135182960D01*
X195973034Y-135195934D01*
X195983315Y-135205643D01*
X196018541Y-135265983D01*
X196015552Y-135335789D01*
X195979383Y-135389507D01*
X195972227Y-135395708D01*
X195955814Y-135407723D01*
X195952190Y-135409943D01*
X195780210Y-135534892D01*
X195629892Y-135685210D01*
X195629890Y-135685213D01*
X195507958Y-135853041D01*
X195504949Y-135857182D01*
X195408445Y-136046580D01*
X195342752Y-136248759D01*
X195309500Y-136458707D01*
X195309500Y-136671291D01*
X195338793Y-136856239D01*
X195342752Y-136881237D01*
X195342754Y-136881243D01*
X195402778Y-137065978D01*
X195408444Y-137083414D01*
X195504951Y-137272820D01*
X195629890Y-137444786D01*
X195629892Y-137444788D01*
X195780216Y-137595112D01*
X195952183Y-137720052D01*
X195952471Y-137720197D01*
X196141588Y-137816557D01*
X196343757Y-137882246D01*
X196553713Y-137915500D01*
X196553714Y-137915500D01*
X196766286Y-137915500D01*
X196766287Y-137915500D01*
X196976243Y-137882246D01*
X197178412Y-137816557D01*
X197367816Y-137720051D01*
X197402230Y-137695048D01*
X197409486Y-137689777D01*
X197434861Y-137671340D01*
X197539786Y-137595109D01*
X197539788Y-137595106D01*
X197539792Y-137595104D01*
X197539795Y-137595100D01*
X197539847Y-137595063D01*
X197540592Y-137594303D01*
X197689290Y-137445605D01*
X197690065Y-137444845D01*
X197690124Y-137444765D01*
X197708288Y-137419765D01*
X197719130Y-137404840D01*
X197809315Y-137280712D01*
X197809321Y-137280704D01*
X197820782Y-137264928D01*
X197823062Y-137261789D01*
X197833229Y-137249531D01*
X197840647Y-137241678D01*
X197900985Y-137206457D01*
X197970791Y-137209447D01*
X198024503Y-137245612D01*
X198030707Y-137252771D01*
X198042729Y-137269193D01*
X198044948Y-137272815D01*
X198044951Y-137272820D01*
X198169890Y-137444786D01*
X198169892Y-137444788D01*
X198320216Y-137595112D01*
X198492183Y-137720052D01*
X198492471Y-137720197D01*
X198681588Y-137816557D01*
X198883757Y-137882246D01*
X199093713Y-137915500D01*
X199093714Y-137915500D01*
X199306286Y-137915500D01*
X199306287Y-137915500D01*
X199516243Y-137882246D01*
X199718412Y-137816557D01*
X199907816Y-137720051D01*
X199942230Y-137695048D01*
X199949486Y-137689777D01*
X199974861Y-137671340D01*
X200079786Y-137595109D01*
X200079788Y-137595106D01*
X200079792Y-137595104D01*
X200079795Y-137595100D01*
X200079847Y-137595063D01*
X200080592Y-137594303D01*
X200229290Y-137445605D01*
X200230065Y-137444845D01*
X200230124Y-137444765D01*
X200248288Y-137419765D01*
X200259130Y-137404840D01*
X200349315Y-137280712D01*
X200349321Y-137280704D01*
X200360782Y-137264928D01*
X200363062Y-137261789D01*
X200373229Y-137249531D01*
X200380647Y-137241678D01*
X200440985Y-137206457D01*
X200510791Y-137209447D01*
X200564503Y-137245612D01*
X200570707Y-137252771D01*
X200582729Y-137269193D01*
X200584948Y-137272815D01*
X200584951Y-137272820D01*
X200709890Y-137444786D01*
X200709892Y-137444788D01*
X200860216Y-137595112D01*
X201032183Y-137720052D01*
X201032471Y-137720197D01*
X201221588Y-137816557D01*
X201423757Y-137882246D01*
X201633713Y-137915500D01*
X201633714Y-137915500D01*
X201846286Y-137915500D01*
X201846287Y-137915500D01*
X202056243Y-137882246D01*
X202258412Y-137816557D01*
X202447816Y-137720051D01*
X202482230Y-137695048D01*
X202489486Y-137689777D01*
X202521835Y-137666273D01*
X202619786Y-137595109D01*
X202619788Y-137595106D01*
X202619792Y-137595104D01*
X202619797Y-137595098D01*
X202619849Y-137595061D01*
X202620624Y-137594272D01*
X202677539Y-137537356D01*
X202685716Y-137529878D01*
X202692425Y-137524276D01*
X202695773Y-137520121D01*
X202704614Y-137510280D01*
X202769311Y-137445584D01*
X202770065Y-137444845D01*
X202770107Y-137444787D01*
X202770109Y-137444786D01*
X202895048Y-137272820D01*
X202895047Y-137272820D01*
X202895051Y-137272816D01*
X202895053Y-137272810D01*
X202915445Y-137244744D01*
X202923730Y-137216529D01*
X202991557Y-137083412D01*
X203003738Y-137045919D01*
X203015041Y-137020944D01*
X203077874Y-136915103D01*
X203614914Y-136010464D01*
X203633853Y-135986090D01*
X203825214Y-135794730D01*
X203853457Y-135773586D01*
X203863391Y-135768162D01*
X203931661Y-135753309D01*
X203997126Y-135777723D01*
X204038999Y-135833655D01*
X204039907Y-135836089D01*
X204041682Y-135840847D01*
X204049500Y-135884181D01*
X204049500Y-138487885D01*
X204048912Y-138494150D01*
X204048915Y-138496928D01*
X204049069Y-138496936D01*
X204048922Y-138499859D01*
X204048921Y-138500187D01*
X204048325Y-138511920D01*
X204036892Y-138627998D01*
X204035105Y-138640043D01*
X204032737Y-138651944D01*
X204029782Y-138663740D01*
X203997760Y-138769303D01*
X203993658Y-138780765D01*
X203989015Y-138791973D01*
X203983814Y-138802969D01*
X203931817Y-138900249D01*
X203925561Y-138910687D01*
X203918819Y-138920777D01*
X203911570Y-138930551D01*
X203841585Y-139015828D01*
X203841365Y-139016027D01*
X203841306Y-139016167D01*
X203833413Y-139024844D01*
X203824844Y-139033413D01*
X203815828Y-139041585D01*
X203730551Y-139111570D01*
X203720777Y-139118819D01*
X203710687Y-139125561D01*
X203700249Y-139131817D01*
X203605758Y-139182323D01*
X203593770Y-139187625D01*
X203586145Y-139191503D01*
X203580431Y-139193831D01*
X203569641Y-139197656D01*
X203463741Y-139229781D01*
X203451944Y-139232737D01*
X203440043Y-139235105D01*
X203427999Y-139236892D01*
X203309092Y-139248604D01*
X203303027Y-139249051D01*
X203296946Y-139249350D01*
X203290856Y-139249500D01*
X176374390Y-139249500D01*
X176339446Y-139244474D01*
X176329191Y-139241462D01*
X176270416Y-139203683D01*
X176241396Y-139140126D01*
X176251345Y-139070968D01*
X176287720Y-139024832D01*
X176290828Y-139022400D01*
X176310944Y-139009573D01*
X176334022Y-138997815D01*
X176512365Y-138868242D01*
X176668242Y-138712365D01*
X176797815Y-138534022D01*
X176897895Y-138337606D01*
X176966015Y-138127951D01*
X177000500Y-137910222D01*
X177000500Y-137689778D01*
X176966015Y-137472049D01*
X176901283Y-137272820D01*
X176897896Y-137262396D01*
X176897895Y-137262393D01*
X176833776Y-137136555D01*
X176797815Y-137065978D01*
X176688203Y-136915109D01*
X176668247Y-136887641D01*
X176668243Y-136887636D01*
X176668240Y-136887633D01*
X176668235Y-136887627D01*
X176512369Y-136731761D01*
X176512364Y-136731757D01*
X176512363Y-136731756D01*
X176512358Y-136731752D01*
X176500917Y-136723439D01*
X176341916Y-136607919D01*
X176341583Y-136607635D01*
X176334009Y-136602175D01*
X176333602Y-136601970D01*
X176271098Y-136570123D01*
X176271096Y-136570122D01*
X176137606Y-136502104D01*
X176137602Y-136502102D01*
X176137579Y-136502094D01*
X175927954Y-136433985D01*
X175927955Y-136433985D01*
X175819086Y-136416742D01*
X175710227Y-136399500D01*
X175710222Y-136399500D01*
X175489778Y-136399500D01*
X175489774Y-136399500D01*
X175431716Y-136408696D01*
X175417201Y-136410995D01*
X175272043Y-136433985D01*
X175062419Y-136502094D01*
X175062396Y-136502102D01*
X175062392Y-136502104D01*
X174865972Y-136602187D01*
X174687658Y-136731739D01*
X174687629Y-136731761D01*
X174531761Y-136887629D01*
X174531739Y-136887658D01*
X174402187Y-137065972D01*
X174302104Y-137262392D01*
X174302102Y-137262396D01*
X174302094Y-137262419D01*
X174233985Y-137472043D01*
X174199500Y-137689772D01*
X174199500Y-137910226D01*
X174233985Y-138127955D01*
X174302078Y-138337530D01*
X174302104Y-138337606D01*
X174351274Y-138434105D01*
X174351274Y-138434107D01*
X174351275Y-138434107D01*
X174387936Y-138506059D01*
X174402183Y-138534019D01*
X174402185Y-138534022D01*
X174531739Y-138712341D01*
X174531761Y-138712369D01*
X174687627Y-138868235D01*
X174687635Y-138868242D01*
X174687636Y-138868243D01*
X174687641Y-138868247D01*
X174731689Y-138900249D01*
X174766909Y-138925838D01*
X174766910Y-138925838D01*
X174766911Y-138925839D01*
X174773397Y-138930551D01*
X174865979Y-138997816D01*
X174883849Y-139006921D01*
X174912692Y-139027253D01*
X174920464Y-139034592D01*
X174955687Y-139094932D01*
X174952697Y-139164738D01*
X174912442Y-139221845D01*
X174859104Y-139246441D01*
X174855230Y-139247198D01*
X174831450Y-139249500D01*
X165374390Y-139249500D01*
X165339446Y-139244474D01*
X165329191Y-139241462D01*
X165270416Y-139203683D01*
X165241396Y-139140126D01*
X165251345Y-139070968D01*
X165287720Y-139024832D01*
X165290828Y-139022400D01*
X165310944Y-139009573D01*
X165334022Y-138997815D01*
X165512365Y-138868242D01*
X165668242Y-138712365D01*
X165797815Y-138534022D01*
X165897895Y-138337606D01*
X165966015Y-138127951D01*
X166000500Y-137910222D01*
X166000500Y-137689778D01*
X165966015Y-137472049D01*
X165901283Y-137272820D01*
X165897896Y-137262396D01*
X165897895Y-137262393D01*
X165833776Y-137136555D01*
X165797815Y-137065978D01*
X165688203Y-136915109D01*
X165668247Y-136887641D01*
X165668243Y-136887636D01*
X165668240Y-136887633D01*
X165668235Y-136887627D01*
X165512369Y-136731761D01*
X165512364Y-136731757D01*
X165512363Y-136731756D01*
X165512358Y-136731752D01*
X165500917Y-136723439D01*
X165341916Y-136607919D01*
X165341583Y-136607635D01*
X165334009Y-136602175D01*
X165333602Y-136601970D01*
X165271098Y-136570123D01*
X165271096Y-136570122D01*
X165137606Y-136502104D01*
X165137602Y-136502102D01*
X165137579Y-136502094D01*
X164927954Y-136433985D01*
X164927955Y-136433985D01*
X164819086Y-136416742D01*
X164710227Y-136399500D01*
X164710222Y-136399500D01*
X164489778Y-136399500D01*
X164489774Y-136399500D01*
X164431716Y-136408696D01*
X164417201Y-136410995D01*
X164272043Y-136433985D01*
X164062419Y-136502094D01*
X164062396Y-136502102D01*
X164062392Y-136502104D01*
X163865972Y-136602187D01*
X163687658Y-136731739D01*
X163687629Y-136731761D01*
X163531761Y-136887629D01*
X163531739Y-136887658D01*
X163402187Y-137065972D01*
X163302104Y-137262392D01*
X163302102Y-137262396D01*
X163302094Y-137262419D01*
X163233985Y-137472043D01*
X163199500Y-137689772D01*
X163199500Y-137910226D01*
X163233985Y-138127955D01*
X163302078Y-138337530D01*
X163302104Y-138337606D01*
X163351274Y-138434105D01*
X163351274Y-138434107D01*
X163351275Y-138434107D01*
X163387936Y-138506059D01*
X163402183Y-138534019D01*
X163402185Y-138534022D01*
X163531739Y-138712341D01*
X163531761Y-138712369D01*
X163687627Y-138868235D01*
X163687635Y-138868242D01*
X163687636Y-138868243D01*
X163687641Y-138868247D01*
X163731689Y-138900249D01*
X163766909Y-138925838D01*
X163766910Y-138925838D01*
X163766911Y-138925839D01*
X163773397Y-138930551D01*
X163865979Y-138997816D01*
X163883849Y-139006921D01*
X163912692Y-139027253D01*
X163920464Y-139034592D01*
X163955687Y-139094932D01*
X163952697Y-139164738D01*
X163912442Y-139221845D01*
X163859104Y-139246441D01*
X163855230Y-139247198D01*
X163831450Y-139249500D01*
X155262120Y-139249500D01*
X155255843Y-139248912D01*
X155253090Y-139248914D01*
X155253083Y-139249069D01*
X155250150Y-139248922D01*
X155249812Y-139248921D01*
X155238079Y-139248325D01*
X155122000Y-139236892D01*
X155109955Y-139235105D01*
X155098054Y-139232737D01*
X155086258Y-139229782D01*
X155086255Y-139229781D01*
X154980684Y-139197756D01*
X154969233Y-139193658D01*
X154958025Y-139189015D01*
X154947029Y-139183814D01*
X154849749Y-139131817D01*
X154839311Y-139125561D01*
X154829221Y-139118819D01*
X154819447Y-139111570D01*
X154734170Y-139041585D01*
X154733970Y-139041365D01*
X154733833Y-139041307D01*
X154725154Y-139033413D01*
X154716585Y-139024844D01*
X154708413Y-139015828D01*
X154638428Y-138930551D01*
X154631178Y-138920775D01*
X154624437Y-138910686D01*
X154618182Y-138900250D01*
X154601074Y-138868243D01*
X154567653Y-138805717D01*
X154562336Y-138793704D01*
X154558507Y-138786173D01*
X154556169Y-138780435D01*
X154552342Y-138769641D01*
X154520217Y-138663741D01*
X154517261Y-138651942D01*
X154514894Y-138640045D01*
X154513107Y-138628003D01*
X154503851Y-138534025D01*
X154501392Y-138509056D01*
X154500948Y-138503045D01*
X154500647Y-138496915D01*
X154500500Y-138490855D01*
X154500500Y-115671289D01*
X156609499Y-115671289D01*
X156641108Y-115870862D01*
X156641109Y-115870862D01*
X156642754Y-115881245D01*
X156700292Y-116058326D01*
X156708442Y-116083410D01*
X156708443Y-116083413D01*
X156708444Y-116083414D01*
X156804951Y-116272820D01*
X156929890Y-116444786D01*
X156929892Y-116444788D01*
X157080216Y-116595112D01*
X157252900Y-116720573D01*
X157254387Y-116721520D01*
X157255225Y-116722079D01*
X157255142Y-116722202D01*
X157256311Y-116723051D01*
X157256195Y-116723209D01*
X157273741Y-116736361D01*
X157283865Y-116745921D01*
X157319091Y-116806259D01*
X157316105Y-116876065D01*
X157279938Y-116929785D01*
X157272614Y-116936132D01*
X157254059Y-116949432D01*
X157252440Y-116950379D01*
X157198282Y-116989726D01*
X157198281Y-116989727D01*
X157703850Y-117495296D01*
X157737335Y-117556619D01*
X157732351Y-117626311D01*
X157690479Y-117682244D01*
X157678173Y-117690362D01*
X157652996Y-117704898D01*
X157652990Y-117704903D01*
X157559903Y-117797990D01*
X157559898Y-117797996D01*
X157545362Y-117823173D01*
X157494793Y-117871387D01*
X157426185Y-117884607D01*
X157361322Y-117858637D01*
X157350296Y-117848850D01*
X156844728Y-117343282D01*
X156844727Y-117343282D01*
X156805380Y-117397438D01*
X156708903Y-117586784D01*
X156643242Y-117788865D01*
X156641798Y-117797990D01*
X156610000Y-117998753D01*
X156610000Y-118211246D01*
X156634912Y-118368535D01*
X156641715Y-118411485D01*
X156641716Y-118411493D01*
X156643242Y-118421133D01*
X156691678Y-118570202D01*
X156708904Y-118623217D01*
X156766045Y-118735361D01*
X156805374Y-118812548D01*
X156805375Y-118812550D01*
X156840674Y-118861137D01*
X156844728Y-118866716D01*
X157350297Y-118361147D01*
X157411619Y-118327663D01*
X157481311Y-118332647D01*
X157537244Y-118374519D01*
X157545363Y-118386828D01*
X157559896Y-118412000D01*
X157559899Y-118412004D01*
X157559901Y-118412007D01*
X157652993Y-118505099D01*
X157678169Y-118519634D01*
X157726384Y-118570202D01*
X157739606Y-118638809D01*
X157713638Y-118703673D01*
X157703849Y-118714702D01*
X157198282Y-119220268D01*
X157198282Y-119220269D01*
X157198282Y-119220270D01*
X157206373Y-119236149D01*
X157245612Y-119256142D01*
X157274450Y-119276469D01*
X157283868Y-119285363D01*
X157319092Y-119345700D01*
X157316104Y-119415505D01*
X157279932Y-119469229D01*
X157272929Y-119475297D01*
X157255944Y-119486776D01*
X157256331Y-119487407D01*
X157252172Y-119489955D01*
X157080216Y-119614886D01*
X156929892Y-119765210D01*
X156804949Y-119937182D01*
X156708417Y-120126637D01*
X156707946Y-120127578D01*
X156706863Y-120131449D01*
X156702529Y-120144790D01*
X156702527Y-120144796D01*
X156642752Y-120328762D01*
X156622636Y-120455774D01*
X156622636Y-120455775D01*
X156609500Y-120538708D01*
X156609500Y-120751286D01*
X156614618Y-120783600D01*
X156614618Y-120783601D01*
X156639098Y-120938164D01*
X156642752Y-120961234D01*
X156642754Y-120961242D01*
X156693134Y-121116299D01*
X156708441Y-121163406D01*
X156708443Y-121163412D01*
X156800929Y-121344928D01*
X156804951Y-121352820D01*
X156929890Y-121524786D01*
X157080213Y-121675109D01*
X157252182Y-121800050D01*
X157252190Y-121800054D01*
X157252693Y-121800363D01*
X157254174Y-121801496D01*
X157256122Y-121802912D01*
X157256086Y-121802960D01*
X157273034Y-121815934D01*
X157283315Y-121825643D01*
X157318541Y-121885983D01*
X157315552Y-121955789D01*
X157279383Y-122009507D01*
X157272227Y-122015708D01*
X157255814Y-122027723D01*
X157252190Y-122029943D01*
X157080210Y-122154892D01*
X156929892Y-122305210D01*
X156929890Y-122305213D01*
X156810304Y-122469812D01*
X156804949Y-122477182D01*
X156708445Y-122666580D01*
X156642752Y-122868759D01*
X156609500Y-123078707D01*
X156609500Y-123291291D01*
X156641151Y-123491131D01*
X156641152Y-123491131D01*
X156642754Y-123501244D01*
X156642755Y-123501246D01*
X156685990Y-123634312D01*
X156708443Y-123703414D01*
X156800486Y-123884056D01*
X156804951Y-123892820D01*
X156929890Y-124064786D01*
X157080213Y-124215109D01*
X157252182Y-124340050D01*
X157252190Y-124340054D01*
X157252693Y-124340363D01*
X157254174Y-124341496D01*
X157256122Y-124342912D01*
X157256086Y-124342960D01*
X157273034Y-124355934D01*
X157283315Y-124365643D01*
X157318541Y-124425983D01*
X157315552Y-124495789D01*
X157279383Y-124549507D01*
X157272227Y-124555708D01*
X157255814Y-124567723D01*
X157252190Y-124569943D01*
X157080210Y-124694892D01*
X156929892Y-124845210D01*
X156909600Y-124873140D01*
X156823040Y-124992282D01*
X156804949Y-125017182D01*
X156708445Y-125206580D01*
X156642752Y-125408759D01*
X156609500Y-125618707D01*
X156609500Y-125831291D01*
X156642078Y-126036984D01*
X156642079Y-126036984D01*
X156642754Y-126041244D01*
X156655254Y-126079714D01*
X156706150Y-126236356D01*
X156708443Y-126243412D01*
X156708446Y-126243418D01*
X156800929Y-126424928D01*
X156804951Y-126432820D01*
X156929890Y-126604786D01*
X157080213Y-126755109D01*
X157252182Y-126880050D01*
X157252190Y-126880054D01*
X157252693Y-126880363D01*
X157254174Y-126881496D01*
X157256122Y-126882912D01*
X157256086Y-126882960D01*
X157273034Y-126895934D01*
X157283315Y-126905643D01*
X157318541Y-126965983D01*
X157315552Y-127035789D01*
X157279383Y-127089507D01*
X157272227Y-127095708D01*
X157255814Y-127107723D01*
X157252190Y-127109943D01*
X157080210Y-127234892D01*
X156929892Y-127385210D01*
X156929890Y-127385213D01*
X156810038Y-127550178D01*
X156804949Y-127557182D01*
X156708445Y-127746580D01*
X156642752Y-127948759D01*
X156609500Y-128158707D01*
X156609500Y-128371291D01*
X156639658Y-128561701D01*
X156641870Y-128575670D01*
X156641903Y-128575875D01*
X156642754Y-128581243D01*
X156642754Y-128581244D01*
X156705582Y-128774610D01*
X156705583Y-128774610D01*
X156708445Y-128783417D01*
X156766045Y-128896463D01*
X156804951Y-128972820D01*
X156929890Y-129144786D01*
X157080213Y-129295109D01*
X157252182Y-129420050D01*
X157252190Y-129420054D01*
X157252693Y-129420363D01*
X157254174Y-129421496D01*
X157256122Y-129422912D01*
X157256086Y-129422960D01*
X157273034Y-129435934D01*
X157283315Y-129445643D01*
X157318541Y-129505983D01*
X157315552Y-129575789D01*
X157279383Y-129629507D01*
X157272227Y-129635708D01*
X157255814Y-129647723D01*
X157252190Y-129649943D01*
X157080210Y-129774892D01*
X156929892Y-129925210D01*
X156804949Y-130097182D01*
X156708445Y-130286580D01*
X156642752Y-130488759D01*
X156609500Y-130698707D01*
X156609500Y-130911290D01*
X156630538Y-131044118D01*
X156642753Y-131121239D01*
X156700296Y-131298341D01*
X156708441Y-131323408D01*
X156803186Y-131509357D01*
X156804951Y-131512820D01*
X156929890Y-131684786D01*
X157080213Y-131835109D01*
X157252182Y-131960050D01*
X157252190Y-131960054D01*
X157252693Y-131960363D01*
X157254174Y-131961496D01*
X157256122Y-131962912D01*
X157256086Y-131962960D01*
X157273034Y-131975934D01*
X157283315Y-131985643D01*
X157318541Y-132045983D01*
X157315552Y-132115789D01*
X157279383Y-132169507D01*
X157272227Y-132175708D01*
X157255814Y-132187723D01*
X157252190Y-132189943D01*
X157080210Y-132314892D01*
X156929892Y-132465210D01*
X156898348Y-132508627D01*
X156833181Y-132598324D01*
X156804949Y-132637182D01*
X156708445Y-132826580D01*
X156642752Y-133028759D01*
X156609500Y-133238707D01*
X156609500Y-133451291D01*
X156641226Y-133651598D01*
X156641601Y-133656362D01*
X156643770Y-133665553D01*
X156645623Y-133670074D01*
X156684123Y-133788566D01*
X156708443Y-133863414D01*
X156800486Y-134044056D01*
X156804951Y-134052820D01*
X156929890Y-134224786D01*
X157080213Y-134375109D01*
X157252182Y-134500050D01*
X157252190Y-134500054D01*
X157252693Y-134500363D01*
X157254174Y-134501496D01*
X157256122Y-134502912D01*
X157256086Y-134502960D01*
X157273034Y-134515934D01*
X157283315Y-134525643D01*
X157318541Y-134585983D01*
X157315552Y-134655789D01*
X157279383Y-134709507D01*
X157272227Y-134715708D01*
X157255814Y-134727723D01*
X157252190Y-134729943D01*
X157080210Y-134854892D01*
X156929892Y-135005210D01*
X156929890Y-135005213D01*
X156806178Y-135175491D01*
X156804949Y-135177182D01*
X156708445Y-135366580D01*
X156642753Y-135568759D01*
X156614263Y-135748641D01*
X156609500Y-135778713D01*
X156609500Y-135991286D01*
X156642754Y-136201244D01*
X156658193Y-136248759D01*
X156708445Y-136403418D01*
X156800486Y-136584056D01*
X156804951Y-136592820D01*
X156929890Y-136764786D01*
X156929892Y-136764788D01*
X157080213Y-136915109D01*
X157252183Y-137040052D01*
X157252471Y-137040197D01*
X157441588Y-137136557D01*
X157643757Y-137202246D01*
X157853713Y-137235500D01*
X157853714Y-137235500D01*
X158066286Y-137235500D01*
X158066287Y-137235500D01*
X158276243Y-137202246D01*
X158478412Y-137136557D01*
X158667816Y-137040051D01*
X158720671Y-137001650D01*
X158839786Y-136915109D01*
X158839786Y-136915108D01*
X158839845Y-136915065D01*
X158840605Y-136914290D01*
X158989290Y-136765605D01*
X158990065Y-136764845D01*
X158990124Y-136764765D01*
X159109315Y-136600712D01*
X159109321Y-136600704D01*
X159120782Y-136584928D01*
X159123062Y-136581789D01*
X159133229Y-136569531D01*
X159140647Y-136561678D01*
X159200985Y-136526457D01*
X159270791Y-136529447D01*
X159324503Y-136565612D01*
X159330707Y-136572771D01*
X159342729Y-136589193D01*
X159344949Y-136592817D01*
X159344951Y-136592820D01*
X159469890Y-136764786D01*
X159469892Y-136764788D01*
X159620213Y-136915109D01*
X159792183Y-137040052D01*
X159792471Y-137040197D01*
X159981588Y-137136557D01*
X160183757Y-137202246D01*
X160393713Y-137235500D01*
X160393714Y-137235500D01*
X160606286Y-137235500D01*
X160606287Y-137235500D01*
X160816243Y-137202246D01*
X161018412Y-137136557D01*
X161207816Y-137040051D01*
X161260671Y-137001650D01*
X161379786Y-136915109D01*
X161379786Y-136915108D01*
X161379845Y-136915065D01*
X161380605Y-136914290D01*
X161529290Y-136765605D01*
X161530065Y-136764845D01*
X161530124Y-136764765D01*
X161655048Y-136592820D01*
X161655047Y-136592820D01*
X161655051Y-136592816D01*
X161655053Y-136592810D01*
X161675445Y-136564744D01*
X161683730Y-136536529D01*
X161751557Y-136403412D01*
X161817246Y-136201243D01*
X161850500Y-135991287D01*
X161850500Y-135778713D01*
X161817246Y-135568757D01*
X161751557Y-135366588D01*
X161655198Y-135177473D01*
X161655052Y-135177183D01*
X161530112Y-135005216D01*
X161379782Y-134854886D01*
X161207824Y-134729953D01*
X161207258Y-134729606D01*
X161207089Y-134729419D01*
X161203901Y-134727103D01*
X161204388Y-134726431D01*
X161203725Y-134725698D01*
X161186960Y-134714062D01*
X161176683Y-134704357D01*
X161162543Y-134680136D01*
X161160406Y-134677772D01*
X161160107Y-134675963D01*
X161141457Y-134644017D01*
X161144445Y-134574212D01*
X161180612Y-134520495D01*
X161187783Y-134514281D01*
X161204194Y-134502269D01*
X161207797Y-134500060D01*
X161207816Y-134500051D01*
X161254787Y-134465925D01*
X161379786Y-134375109D01*
X161379788Y-134375106D01*
X161379792Y-134375104D01*
X161379794Y-134375101D01*
X161379845Y-134375065D01*
X161380592Y-134374303D01*
X161529290Y-134225605D01*
X161530065Y-134224845D01*
X161530124Y-134224765D01*
X161533302Y-134220391D01*
X161655048Y-134052820D01*
X161673583Y-134027308D01*
X161680382Y-134006682D01*
X161682627Y-133998747D01*
X161683141Y-133997684D01*
X161736118Y-133893713D01*
X185069500Y-133893713D01*
X185069500Y-134106287D01*
X185073460Y-134131286D01*
X185073460Y-134131298D01*
X185088268Y-134224786D01*
X185097303Y-134281832D01*
X185102754Y-134316243D01*
X185163927Y-134504514D01*
X185168444Y-134518414D01*
X185264951Y-134707820D01*
X185389890Y-134879786D01*
X185540213Y-135030109D01*
X185712182Y-135155050D01*
X185712190Y-135155054D01*
X185712693Y-135155363D01*
X185714174Y-135156496D01*
X185716122Y-135157912D01*
X185716086Y-135157960D01*
X185733034Y-135170934D01*
X185743315Y-135180643D01*
X185778541Y-135240983D01*
X185775552Y-135310789D01*
X185739383Y-135364507D01*
X185732227Y-135370708D01*
X185715814Y-135382723D01*
X185712190Y-135384943D01*
X185540210Y-135509892D01*
X185389892Y-135660210D01*
X185264949Y-135832182D01*
X185168445Y-136021580D01*
X185102753Y-136223759D01*
X185098794Y-136248759D01*
X185074919Y-136399500D01*
X185069500Y-136433713D01*
X185069500Y-136646287D01*
X185073460Y-136671286D01*
X185073460Y-136671298D01*
X185088268Y-136764786D01*
X185102753Y-136856239D01*
X185102753Y-136856240D01*
X185102754Y-136856243D01*
X185121879Y-136915104D01*
X185121881Y-136915109D01*
X185168445Y-137058418D01*
X185260486Y-137239056D01*
X185264951Y-137247820D01*
X185389890Y-137419786D01*
X185389892Y-137419788D01*
X185540216Y-137570112D01*
X185712183Y-137695052D01*
X185712471Y-137695197D01*
X185901588Y-137791557D01*
X186103757Y-137857246D01*
X186313713Y-137890500D01*
X186313714Y-137890500D01*
X186526286Y-137890500D01*
X186526287Y-137890500D01*
X186736243Y-137857246D01*
X186938412Y-137791557D01*
X187127816Y-137695051D01*
X187149789Y-137679086D01*
X187299786Y-137570109D01*
X187299786Y-137570108D01*
X187299844Y-137570066D01*
X187300605Y-137569290D01*
X187449290Y-137420605D01*
X187450065Y-137419845D01*
X187450124Y-137419765D01*
X187569315Y-137255712D01*
X187569321Y-137255704D01*
X187580782Y-137239928D01*
X187583062Y-137236789D01*
X187593229Y-137224531D01*
X187600647Y-137216678D01*
X187660985Y-137181457D01*
X187730791Y-137184447D01*
X187784503Y-137220612D01*
X187790707Y-137227771D01*
X187802729Y-137244193D01*
X187804949Y-137247817D01*
X187804951Y-137247820D01*
X187929890Y-137419786D01*
X187929892Y-137419788D01*
X188080216Y-137570112D01*
X188252183Y-137695052D01*
X188252471Y-137695197D01*
X188441588Y-137791557D01*
X188643757Y-137857246D01*
X188853713Y-137890500D01*
X188853714Y-137890500D01*
X189066286Y-137890500D01*
X189066287Y-137890500D01*
X189276243Y-137857246D01*
X189478412Y-137791557D01*
X189667816Y-137695051D01*
X189689789Y-137679086D01*
X189839786Y-137570109D01*
X189839786Y-137570108D01*
X189839844Y-137570066D01*
X189840605Y-137569290D01*
X189989290Y-137420605D01*
X189990065Y-137419845D01*
X189990124Y-137419765D01*
X190109315Y-137255712D01*
X190109321Y-137255704D01*
X190120782Y-137239928D01*
X190123062Y-137236789D01*
X190133229Y-137224531D01*
X190140647Y-137216678D01*
X190200985Y-137181457D01*
X190270791Y-137184447D01*
X190324503Y-137220612D01*
X190330707Y-137227771D01*
X190342729Y-137244193D01*
X190344949Y-137247817D01*
X190344951Y-137247820D01*
X190469890Y-137419786D01*
X190469892Y-137419788D01*
X190620216Y-137570112D01*
X190792183Y-137695052D01*
X190792471Y-137695197D01*
X190981588Y-137791557D01*
X191183757Y-137857246D01*
X191393713Y-137890500D01*
X191393714Y-137890500D01*
X191606286Y-137890500D01*
X191606287Y-137890500D01*
X191816243Y-137857246D01*
X192018412Y-137791557D01*
X192207816Y-137695051D01*
X192229789Y-137679086D01*
X192379786Y-137570109D01*
X192379786Y-137570108D01*
X192379844Y-137570066D01*
X192380605Y-137569290D01*
X192529290Y-137420605D01*
X192530065Y-137419845D01*
X192530124Y-137419765D01*
X192655048Y-137247820D01*
X192655047Y-137247820D01*
X192655051Y-137247816D01*
X192655053Y-137247810D01*
X192675445Y-137219744D01*
X192683730Y-137191529D01*
X192751557Y-137058412D01*
X192817246Y-136856243D01*
X192831732Y-136764786D01*
X192846540Y-136671287D01*
X192850500Y-136646287D01*
X192850500Y-136433713D01*
X192817246Y-136223757D01*
X192751557Y-136021588D01*
X192655197Y-135832471D01*
X192655052Y-135832183D01*
X192530112Y-135660216D01*
X192429176Y-135559280D01*
X192408027Y-135531030D01*
X192401372Y-135518842D01*
X192386521Y-135450572D01*
X192410935Y-135385111D01*
X192413698Y-135381420D01*
X192469621Y-135339562D01*
X192592331Y-135293796D01*
X192617023Y-135275312D01*
X192646111Y-135253536D01*
X192707546Y-135207546D01*
X192793796Y-135092331D01*
X192844091Y-134957483D01*
X192850500Y-134897873D01*
X192850499Y-133102128D01*
X192844091Y-133042517D01*
X192826327Y-132994890D01*
X192793797Y-132907671D01*
X192793793Y-132907664D01*
X192707547Y-132792455D01*
X192707544Y-132792452D01*
X192707542Y-132792450D01*
X192640649Y-132742374D01*
X192592335Y-132706206D01*
X192592332Y-132706204D01*
X192592330Y-132706203D01*
X192592328Y-132706202D01*
X192542844Y-132687746D01*
X192507497Y-132661284D01*
X192405583Y-132650328D01*
X192400742Y-132649500D01*
X192397881Y-132649500D01*
X192397873Y-132649500D01*
X192397864Y-132649500D01*
X190602129Y-132649500D01*
X190602123Y-132649500D01*
X190600192Y-132649659D01*
X190598545Y-132649885D01*
X190542516Y-132655908D01*
X190457152Y-132687747D01*
X190407666Y-132706204D01*
X190407665Y-132706205D01*
X190292456Y-132792450D01*
X190292450Y-132792456D01*
X190206205Y-132907665D01*
X190206203Y-132907668D01*
X190155908Y-133042516D01*
X190149421Y-133102855D01*
X190149335Y-133104109D01*
X190149305Y-133104464D01*
X190149172Y-133105173D01*
X190149146Y-133105418D01*
X190149126Y-133105415D01*
X190144723Y-133128955D01*
X190137066Y-133155034D01*
X190105769Y-133207782D01*
X189569702Y-133743849D01*
X189508379Y-133777334D01*
X189438687Y-133772350D01*
X189382754Y-133730478D01*
X189374634Y-133718169D01*
X189360099Y-133692993D01*
X189267007Y-133599901D01*
X189267004Y-133599899D01*
X189267000Y-133599896D01*
X189241828Y-133585363D01*
X189193613Y-133534796D01*
X189180391Y-133466189D01*
X189206359Y-133401324D01*
X189216135Y-133390310D01*
X189721716Y-132884728D01*
X189667550Y-132845375D01*
X189563680Y-132792450D01*
X189478214Y-132748902D01*
X189276130Y-132683242D01*
X189066251Y-132650000D01*
X189066246Y-132650000D01*
X188853754Y-132650000D01*
X188853749Y-132650000D01*
X188653513Y-132681715D01*
X188653505Y-132681715D01*
X188653506Y-132681716D01*
X188643865Y-132683242D01*
X188441784Y-132748903D01*
X188252438Y-132845380D01*
X188198282Y-132884727D01*
X188198282Y-132884728D01*
X188703850Y-133390296D01*
X188737335Y-133451619D01*
X188732351Y-133521311D01*
X188690479Y-133577244D01*
X188678173Y-133585362D01*
X188652996Y-133599898D01*
X188652990Y-133599903D01*
X188559903Y-133692990D01*
X188559898Y-133692996D01*
X188545362Y-133718173D01*
X188494793Y-133766387D01*
X188426185Y-133779607D01*
X188361322Y-133753637D01*
X188350296Y-133743850D01*
X187844728Y-133238282D01*
X187844727Y-133238282D01*
X187805379Y-133292440D01*
X187803368Y-133295458D01*
X187803066Y-133295256D01*
X187789233Y-133313707D01*
X187779622Y-133323881D01*
X187719276Y-133359096D01*
X187649471Y-133356096D01*
X187595760Y-133319921D01*
X187589682Y-133312905D01*
X187577425Y-133296091D01*
X187575568Y-133293034D01*
X187575100Y-133292249D01*
X187450112Y-133120216D01*
X187299788Y-132969892D01*
X187299786Y-132969890D01*
X187127820Y-132844951D01*
X186955911Y-132757359D01*
X186950571Y-132753479D01*
X186926254Y-132743406D01*
X186919734Y-132742374D01*
X186830980Y-132713536D01*
X186745074Y-132685623D01*
X186740552Y-132683770D01*
X186731362Y-132681600D01*
X186726599Y-132681226D01*
X186645108Y-132668319D01*
X186574957Y-132657208D01*
X186555489Y-132654124D01*
X186526290Y-132649500D01*
X186526287Y-132649500D01*
X186313713Y-132649500D01*
X186313709Y-132649500D01*
X186274776Y-132655666D01*
X186265042Y-132657208D01*
X186239308Y-132661284D01*
X186103763Y-132682752D01*
X185901582Y-132748445D01*
X185712182Y-132844949D01*
X185712179Y-132844950D01*
X185712179Y-132844951D01*
X185711589Y-132845380D01*
X185540210Y-132969892D01*
X185389892Y-133120210D01*
X185264949Y-133292182D01*
X185168445Y-133481580D01*
X185102752Y-133683759D01*
X185102752Y-133683760D01*
X185083320Y-133806453D01*
X185083305Y-133806550D01*
X185083233Y-133807007D01*
X185069500Y-133893713D01*
X161736118Y-133893713D01*
X161751557Y-133863412D01*
X161817246Y-133661243D01*
X161850500Y-133451287D01*
X161850500Y-133238713D01*
X161817246Y-133028757D01*
X161751557Y-132826588D01*
X161655197Y-132637471D01*
X161655052Y-132637183D01*
X161530112Y-132465216D01*
X161379782Y-132314886D01*
X161207824Y-132189953D01*
X161207258Y-132189606D01*
X161207089Y-132189419D01*
X161203901Y-132187103D01*
X161204388Y-132186431D01*
X161203653Y-132185618D01*
X161186960Y-132174062D01*
X161176683Y-132164357D01*
X161162543Y-132140136D01*
X161160406Y-132137772D01*
X161160107Y-132135963D01*
X161141457Y-132104017D01*
X161144445Y-132034212D01*
X161180612Y-131980495D01*
X161187783Y-131974281D01*
X161204201Y-131962266D01*
X161207810Y-131960054D01*
X161207816Y-131960051D01*
X161268596Y-131915892D01*
X161379786Y-131835109D01*
X161379786Y-131835107D01*
X161379846Y-131835064D01*
X161380605Y-131834290D01*
X161529290Y-131685605D01*
X161530065Y-131684845D01*
X161530124Y-131684765D01*
X161653976Y-131514296D01*
X161660782Y-131504927D01*
X161660787Y-131504921D01*
X161675445Y-131484744D01*
X161683730Y-131456529D01*
X161751557Y-131323412D01*
X161817246Y-131121243D01*
X161850500Y-130911287D01*
X161850500Y-130698713D01*
X161817246Y-130488757D01*
X161751557Y-130286588D01*
X161655197Y-130097471D01*
X161655052Y-130097183D01*
X161530112Y-129925216D01*
X161379782Y-129774886D01*
X161207824Y-129649953D01*
X161207258Y-129649606D01*
X161207089Y-129649419D01*
X161203901Y-129647103D01*
X161204388Y-129646431D01*
X161203654Y-129645619D01*
X161186960Y-129634062D01*
X161176683Y-129624357D01*
X161162543Y-129600136D01*
X161160406Y-129597772D01*
X161160107Y-129595963D01*
X161141457Y-129564017D01*
X161144445Y-129494212D01*
X161180612Y-129440495D01*
X161187783Y-129434281D01*
X161204194Y-129422269D01*
X161207791Y-129420063D01*
X161207816Y-129420051D01*
X161272106Y-129373342D01*
X161379786Y-129295109D01*
X161379786Y-129295108D01*
X161379844Y-129295066D01*
X161380605Y-129294290D01*
X161529290Y-129145605D01*
X161530065Y-129144845D01*
X161530124Y-129144765D01*
X161549170Y-129118550D01*
X161655048Y-128972820D01*
X161655047Y-128972820D01*
X161655051Y-128972816D01*
X161655053Y-128972810D01*
X161675445Y-128944744D01*
X161683730Y-128916529D01*
X161751557Y-128783412D01*
X161817246Y-128581243D01*
X161850500Y-128371287D01*
X161850500Y-128158713D01*
X161850500Y-128158708D01*
X161835510Y-128064070D01*
X161835510Y-128064069D01*
X161830095Y-128029880D01*
X161818773Y-127958400D01*
X161818772Y-127958393D01*
X161818772Y-127958394D01*
X161817246Y-127948760D01*
X161817246Y-127948757D01*
X161753053Y-127751194D01*
X161751989Y-127747421D01*
X161751779Y-127747015D01*
X161751346Y-127746173D01*
X161742503Y-127728816D01*
X161742500Y-127728812D01*
X161700209Y-127645812D01*
X161685397Y-127616742D01*
X161655197Y-127557470D01*
X161655052Y-127557183D01*
X161649833Y-127549999D01*
X165867810Y-127549999D01*
X165867812Y-127550000D01*
X166581002Y-127550000D01*
X166648041Y-127569685D01*
X166693796Y-127622489D01*
X166703740Y-127691647D01*
X166702622Y-127698175D01*
X166700000Y-127711358D01*
X166700000Y-127888642D01*
X166702618Y-127901807D01*
X166696393Y-127971398D01*
X166653531Y-128026576D01*
X166587642Y-128049822D01*
X166581002Y-128050000D01*
X165867812Y-128050000D01*
X165879941Y-128142133D01*
X165908557Y-128248931D01*
X165939318Y-128363730D01*
X166027102Y-128575659D01*
X166027106Y-128575668D01*
X166027107Y-128575670D01*
X166027233Y-128575888D01*
X166141809Y-128774338D01*
X166141814Y-128774344D01*
X166141815Y-128774346D01*
X166281448Y-128956321D01*
X166281452Y-128956326D01*
X166281455Y-128956329D01*
X166281461Y-128956336D01*
X166443663Y-129118538D01*
X166443670Y-129118544D01*
X166443673Y-129118546D01*
X166443677Y-129118550D01*
X166501180Y-129162673D01*
X166625661Y-129258190D01*
X166824331Y-129372893D01*
X166824340Y-129372897D01*
X167036269Y-129460681D01*
X167257859Y-129520056D01*
X167257864Y-129520057D01*
X167295866Y-129525059D01*
X167349997Y-129532186D01*
X167349999Y-129532186D01*
X167350000Y-129532186D01*
X167350000Y-128818998D01*
X167369685Y-128751959D01*
X167422489Y-128706204D01*
X167491647Y-128696260D01*
X167498175Y-128697377D01*
X167511358Y-128700000D01*
X167688641Y-128700000D01*
X167688642Y-128700000D01*
X167701807Y-128697381D01*
X167771398Y-128703607D01*
X167826576Y-128746469D01*
X167849822Y-128812358D01*
X167850000Y-128818998D01*
X167850000Y-129532185D01*
X167850000Y-129532186D01*
X167942135Y-129520057D01*
X167942140Y-129520056D01*
X168163730Y-129460681D01*
X168375659Y-129372897D01*
X168375668Y-129372893D01*
X168574338Y-129258190D01*
X168756329Y-129118544D01*
X168756336Y-129118538D01*
X168918538Y-128956336D01*
X168918544Y-128956329D01*
X169058190Y-128774338D01*
X169172893Y-128575668D01*
X169172897Y-128575659D01*
X169260681Y-128363730D01*
X169320057Y-128142137D01*
X169332188Y-128050000D01*
X168618998Y-128050000D01*
X168551959Y-128030315D01*
X168506204Y-127977511D01*
X168496260Y-127908353D01*
X168497377Y-127901824D01*
X168500000Y-127888642D01*
X168500000Y-127711358D01*
X168497381Y-127698192D01*
X168503607Y-127628602D01*
X168546469Y-127573424D01*
X168612358Y-127550178D01*
X168618998Y-127550000D01*
X169332188Y-127550000D01*
X169332187Y-127549992D01*
X169320057Y-127457862D01*
X169260681Y-127236269D01*
X169172897Y-127024340D01*
X169172893Y-127024331D01*
X169058190Y-126825661D01*
X169004054Y-126755109D01*
X168918550Y-126643677D01*
X168918546Y-126643673D01*
X168918544Y-126643670D01*
X168918538Y-126643663D01*
X168756336Y-126481461D01*
X168756329Y-126481455D01*
X168756326Y-126481452D01*
X168756321Y-126481448D01*
X168574346Y-126341815D01*
X168574344Y-126341814D01*
X168574338Y-126341809D01*
X168403907Y-126243410D01*
X168375670Y-126227107D01*
X168375669Y-126227106D01*
X168375668Y-126227106D01*
X168375659Y-126227102D01*
X168163730Y-126139318D01*
X168163728Y-126139317D01*
X168163727Y-126139317D01*
X168025469Y-126102271D01*
X167942137Y-126079942D01*
X167942132Y-126079941D01*
X167942130Y-126079941D01*
X167850000Y-126067811D01*
X167850000Y-126781001D01*
X167830315Y-126848040D01*
X167777511Y-126893795D01*
X167708353Y-126903739D01*
X167701812Y-126902619D01*
X167688643Y-126900000D01*
X167688642Y-126900000D01*
X167511358Y-126900000D01*
X167511357Y-126900000D01*
X167498188Y-126902619D01*
X167428596Y-126896389D01*
X167373420Y-126853525D01*
X167350178Y-126787634D01*
X167350000Y-126781001D01*
X167350000Y-126067811D01*
X167349999Y-126067811D01*
X167349992Y-126067811D01*
X167257868Y-126079941D01*
X167257862Y-126079942D01*
X167036271Y-126139317D01*
X166981437Y-126162030D01*
X166824340Y-126227102D01*
X166824332Y-126227105D01*
X166824328Y-126227107D01*
X166625661Y-126341809D01*
X166625652Y-126341815D01*
X166443677Y-126481448D01*
X166443662Y-126481462D01*
X166443654Y-126481469D01*
X166281469Y-126643654D01*
X166281462Y-126643662D01*
X166281448Y-126643677D01*
X166141815Y-126825652D01*
X166141809Y-126825661D01*
X166027107Y-127024328D01*
X166027106Y-127024331D01*
X166027102Y-127024340D01*
X165992564Y-127107723D01*
X165939317Y-127236271D01*
X165879942Y-127457862D01*
X165879941Y-127457869D01*
X165867811Y-127549998D01*
X165867811Y-127549999D01*
X165867810Y-127549999D01*
X161649833Y-127549999D01*
X161530112Y-127385216D01*
X161379782Y-127234886D01*
X161207824Y-127109953D01*
X161207258Y-127109606D01*
X161207089Y-127109419D01*
X161203901Y-127107103D01*
X161204388Y-127106431D01*
X161203653Y-127105618D01*
X161186960Y-127094062D01*
X161176683Y-127084357D01*
X161162543Y-127060136D01*
X161160406Y-127057772D01*
X161160107Y-127055963D01*
X161141457Y-127024017D01*
X161144445Y-126954212D01*
X161180612Y-126900495D01*
X161187783Y-126894281D01*
X161204201Y-126882266D01*
X161207812Y-126880052D01*
X161207816Y-126880051D01*
X161241845Y-126855328D01*
X161244326Y-126853525D01*
X161287275Y-126822321D01*
X161379786Y-126755109D01*
X161379786Y-126755108D01*
X161379844Y-126755066D01*
X161380605Y-126754290D01*
X161529290Y-126605605D01*
X161530065Y-126604845D01*
X161530124Y-126604765D01*
X161533916Y-126599546D01*
X161655048Y-126432820D01*
X161655047Y-126432820D01*
X161655051Y-126432816D01*
X161655053Y-126432810D01*
X161675445Y-126404744D01*
X161683730Y-126376529D01*
X161751557Y-126243412D01*
X161817246Y-126041243D01*
X161850500Y-125831287D01*
X161850500Y-125618713D01*
X161817246Y-125408757D01*
X161751557Y-125206588D01*
X161655197Y-125017471D01*
X161655052Y-125017183D01*
X161530112Y-124845216D01*
X161379788Y-124694892D01*
X161379786Y-124694890D01*
X161207820Y-124569951D01*
X161207815Y-124569948D01*
X161207809Y-124569944D01*
X161207310Y-124569638D01*
X161207160Y-124569472D01*
X161203877Y-124567087D01*
X161204378Y-124566397D01*
X161203780Y-124565736D01*
X161186961Y-124554064D01*
X161176680Y-124544354D01*
X161162576Y-124520194D01*
X161160434Y-124517827D01*
X161160132Y-124516009D01*
X161141456Y-124484017D01*
X161144445Y-124414211D01*
X161180612Y-124360495D01*
X161187783Y-124354281D01*
X161204194Y-124342269D01*
X161207792Y-124340063D01*
X161207816Y-124340051D01*
X161250040Y-124309373D01*
X161271031Y-124294124D01*
X161312395Y-124264071D01*
X161379786Y-124215109D01*
X161379788Y-124215106D01*
X161379792Y-124215104D01*
X161379795Y-124215100D01*
X161379847Y-124215063D01*
X161380592Y-124214303D01*
X161529290Y-124065605D01*
X161530064Y-124064846D01*
X161530107Y-124064787D01*
X161530109Y-124064786D01*
X161639086Y-123914789D01*
X161655051Y-123892816D01*
X161751557Y-123703412D01*
X161817246Y-123501243D01*
X161850500Y-123291287D01*
X161850500Y-123078713D01*
X161817246Y-122868757D01*
X161751557Y-122666588D01*
X161655197Y-122477471D01*
X161655052Y-122477183D01*
X161530112Y-122305216D01*
X161379782Y-122154886D01*
X161207824Y-122029953D01*
X161207258Y-122029606D01*
X161207089Y-122029419D01*
X161203901Y-122027103D01*
X161204388Y-122026431D01*
X161203725Y-122025698D01*
X161186960Y-122014062D01*
X161176683Y-122004357D01*
X161162543Y-121980136D01*
X161160406Y-121977772D01*
X161160107Y-121975963D01*
X161141457Y-121944017D01*
X161144445Y-121874212D01*
X161180612Y-121820495D01*
X161187783Y-121814281D01*
X161204194Y-121802269D01*
X161207797Y-121800060D01*
X161207816Y-121800051D01*
X161256063Y-121764998D01*
X161379786Y-121675109D01*
X161379788Y-121675106D01*
X161379792Y-121675104D01*
X161379795Y-121675100D01*
X161379847Y-121675063D01*
X161380592Y-121674303D01*
X161529290Y-121525605D01*
X161530065Y-121524845D01*
X161530124Y-121524765D01*
X161655048Y-121352820D01*
X161655047Y-121352820D01*
X161655051Y-121352816D01*
X161655053Y-121352810D01*
X161675445Y-121324744D01*
X161683730Y-121296529D01*
X161751557Y-121163412D01*
X161817246Y-120961243D01*
X161850500Y-120751287D01*
X161850500Y-120538713D01*
X161817246Y-120328757D01*
X161751557Y-120126588D01*
X161655197Y-119937471D01*
X161655052Y-119937183D01*
X161530112Y-119765216D01*
X161379788Y-119614892D01*
X161379786Y-119614890D01*
X161207817Y-119489949D01*
X161207812Y-119489946D01*
X161206584Y-119489194D01*
X161186242Y-119473624D01*
X161176127Y-119464071D01*
X161140906Y-119403734D01*
X161143896Y-119333929D01*
X161180066Y-119280210D01*
X161187122Y-119274096D01*
X161203537Y-119262083D01*
X161207542Y-119259628D01*
X161207555Y-119259622D01*
X161229119Y-119243953D01*
X161255858Y-119234412D01*
X161261717Y-119220269D01*
X160756149Y-118714702D01*
X160722664Y-118653379D01*
X160727648Y-118583688D01*
X160769519Y-118527754D01*
X160781822Y-118519639D01*
X160807007Y-118505099D01*
X160900099Y-118412007D01*
X160914634Y-118386830D01*
X160965199Y-118338616D01*
X161033805Y-118325391D01*
X161098671Y-118351358D01*
X161109702Y-118361149D01*
X161615269Y-118866717D01*
X161615269Y-118866716D01*
X161615270Y-118866717D01*
X161615270Y-118866716D01*
X161628738Y-118861137D01*
X161634955Y-118839967D01*
X161638947Y-118834128D01*
X161654622Y-118812554D01*
X161751095Y-118623217D01*
X161816757Y-118421130D01*
X161816757Y-118421127D01*
X161819145Y-118406054D01*
X161836260Y-118297993D01*
X161850000Y-118211246D01*
X161850000Y-117998753D01*
X161836260Y-117912007D01*
X161818284Y-117798511D01*
X161818283Y-117798505D01*
X161818283Y-117798506D01*
X161816756Y-117788865D01*
X161789473Y-117704898D01*
X161751095Y-117586782D01*
X161654624Y-117397449D01*
X161615270Y-117343282D01*
X161615269Y-117343282D01*
X161615268Y-117343282D01*
X161109702Y-117848849D01*
X161048379Y-117882334D01*
X160978687Y-117877350D01*
X160922754Y-117835478D01*
X160914634Y-117823169D01*
X160900099Y-117797993D01*
X160807007Y-117704901D01*
X160807004Y-117704899D01*
X160807000Y-117704896D01*
X160781828Y-117690363D01*
X160733613Y-117639796D01*
X160720391Y-117571189D01*
X160746359Y-117506324D01*
X160756135Y-117495310D01*
X161261716Y-116989728D01*
X161261713Y-116989726D01*
X161227501Y-116964870D01*
X161221998Y-116957734D01*
X161214388Y-116953857D01*
X161185539Y-116933521D01*
X161176129Y-116924634D01*
X161140905Y-116864292D01*
X161143897Y-116794487D01*
X161180070Y-116740767D01*
X161187084Y-116734690D01*
X161204077Y-116723286D01*
X161203657Y-116722600D01*
X161207808Y-116720055D01*
X161207807Y-116720055D01*
X161207816Y-116720051D01*
X161281010Y-116666873D01*
X161369188Y-116602808D01*
X161391356Y-116589973D01*
X161421769Y-116576344D01*
X161472480Y-116565500D01*
X164597671Y-116565500D01*
X164632607Y-116570523D01*
X164647605Y-116574927D01*
X164706356Y-116612672D01*
X164707543Y-116614041D01*
X164735019Y-116668902D01*
X164736664Y-116676460D01*
X164739501Y-116702831D01*
X164739501Y-116750026D01*
X164748029Y-116833501D01*
X164750000Y-116852796D01*
X164750001Y-116852799D01*
X164786873Y-116964069D01*
X164805182Y-117019322D01*
X164805187Y-117019337D01*
X164809140Y-117025745D01*
X164822783Y-117047864D01*
X164897288Y-117168656D01*
X165021344Y-117292712D01*
X165170666Y-117384814D01*
X165337203Y-117439999D01*
X165439991Y-117450500D01*
X166160008Y-117450499D01*
X166160071Y-117450499D01*
X166160221Y-117450490D01*
X166161362Y-117450360D01*
X166225617Y-117443797D01*
X166262797Y-117439999D01*
X166429334Y-117384814D01*
X166578656Y-117292712D01*
X166702712Y-117168656D01*
X166794814Y-117019334D01*
X166849999Y-116852797D01*
X166860500Y-116750009D01*
X166860499Y-115940055D01*
X166865521Y-115905124D01*
X166869782Y-115890613D01*
X166872932Y-115879883D01*
X166904226Y-115827139D01*
X167582951Y-115148416D01*
X167665084Y-115025495D01*
X167721658Y-114888913D01*
X167750500Y-114743918D01*
X167750500Y-114596083D01*
X167750500Y-114353711D01*
X167754894Y-114320994D01*
X167755495Y-114318797D01*
X167763374Y-114289995D01*
X167769215Y-114276244D01*
X167770083Y-114273258D01*
X167770985Y-114270675D01*
X167771357Y-114269189D01*
X167772571Y-114264695D01*
X167807288Y-114145202D01*
X167817608Y-114109680D01*
X167817609Y-114109667D01*
X167817648Y-114109182D01*
X167817905Y-114105908D01*
X167820500Y-114072940D01*
X167820500Y-113647060D01*
X167817609Y-113610325D01*
X167817608Y-113610320D01*
X167772179Y-113453955D01*
X167771817Y-113452672D01*
X167758687Y-113420846D01*
X167754702Y-113405141D01*
X167757294Y-113335324D01*
X167763253Y-113326765D01*
X167770498Y-113301831D01*
X167772182Y-113296819D01*
X167773406Y-113291823D01*
X167817605Y-113139689D01*
X167817606Y-113139685D01*
X167817608Y-113139679D01*
X167817609Y-113139673D01*
X167818269Y-113131286D01*
X167820500Y-113102940D01*
X167820500Y-112677060D01*
X167817609Y-112640325D01*
X167817515Y-112640000D01*
X167815764Y-112633972D01*
X167772188Y-112483983D01*
X167771860Y-112482820D01*
X167770230Y-112480227D01*
X167688587Y-112342175D01*
X167572830Y-112226418D01*
X167572819Y-112226409D01*
X167572812Y-112226405D01*
X167553652Y-112215074D01*
X167445378Y-112151041D01*
X167438769Y-112145915D01*
X167434348Y-112144084D01*
X167429505Y-112141956D01*
X167428400Y-112141442D01*
X167425588Y-112140454D01*
X167422659Y-112139241D01*
X167414952Y-112138144D01*
X167274689Y-112097393D01*
X167274685Y-112097392D01*
X167274679Y-112097391D01*
X167274673Y-112097390D01*
X167266511Y-112096747D01*
X167237954Y-112094500D01*
X167237947Y-112094500D01*
X167237940Y-112094500D01*
X166762060Y-112094500D01*
X166762052Y-112094500D01*
X166762041Y-112094500D01*
X166725326Y-112097389D01*
X166724868Y-112097482D01*
X166722998Y-112098066D01*
X166688023Y-112108227D01*
X166647271Y-112120068D01*
X166605764Y-112132126D01*
X166588650Y-112135811D01*
X166571433Y-112138262D01*
X166553957Y-112139500D01*
X166139556Y-112139500D01*
X166122078Y-112138262D01*
X166104863Y-112135811D01*
X166087745Y-112132125D01*
X165985214Y-112102336D01*
X165985208Y-112102335D01*
X165985206Y-112102334D01*
X165949189Y-112099500D01*
X165949181Y-112099500D01*
X165450830Y-112099500D01*
X165450816Y-112099500D01*
X165414796Y-112102334D01*
X165414790Y-112102335D01*
X165260612Y-112147128D01*
X165260597Y-112147135D01*
X165161065Y-112205998D01*
X165128439Y-112219458D01*
X165110876Y-112223914D01*
X165045441Y-112222698D01*
X165034408Y-112219458D01*
X165034330Y-112219435D01*
X165006150Y-112207191D01*
X164939198Y-112167596D01*
X164939191Y-112167593D01*
X164939160Y-112167583D01*
X164785137Y-112122835D01*
X164785127Y-112122833D01*
X164750001Y-112120067D01*
X164750000Y-112120068D01*
X164750000Y-112748170D01*
X164744975Y-112783114D01*
X164740570Y-112798112D01*
X164702827Y-112856855D01*
X164701458Y-112858042D01*
X164646597Y-112885518D01*
X164639039Y-112887163D01*
X164612668Y-112890000D01*
X164500000Y-112890000D01*
X164500000Y-112997670D01*
X164494975Y-113032614D01*
X164490570Y-113047612D01*
X164452827Y-113106355D01*
X164451458Y-113107542D01*
X164396597Y-113135018D01*
X164389039Y-113136663D01*
X164362668Y-113139500D01*
X164250810Y-113139500D01*
X164249189Y-113139586D01*
X164249188Y-113139579D01*
X164246886Y-113139714D01*
X164246706Y-113139721D01*
X164242036Y-113139904D01*
X164237182Y-113140000D01*
X163687156Y-113140000D01*
X163727594Y-113279193D01*
X163752344Y-113321043D01*
X163765802Y-113353665D01*
X163770258Y-113371226D01*
X163769044Y-113436660D01*
X163765782Y-113447769D01*
X163753537Y-113475953D01*
X163727132Y-113520600D01*
X163726994Y-113520936D01*
X163726472Y-113522872D01*
X163682338Y-113674777D01*
X163682336Y-113674787D01*
X163682334Y-113674798D01*
X163679500Y-113710805D01*
X163679500Y-114109182D01*
X163682334Y-114145202D01*
X163727127Y-114299384D01*
X163727132Y-114299396D01*
X163764177Y-114362035D01*
X163777637Y-114394663D01*
X163777954Y-114395910D01*
X163781050Y-114408115D01*
X163778454Y-114477937D01*
X163738532Y-114535263D01*
X163737534Y-114536065D01*
X163683974Y-114561041D01*
X163681412Y-114561548D01*
X163678463Y-114562133D01*
X163654351Y-114564500D01*
X161478030Y-114564500D01*
X161462894Y-114560055D01*
X161447130Y-114560588D01*
X161443094Y-114559477D01*
X161414228Y-114551001D01*
X161376279Y-114532342D01*
X161207823Y-114409953D01*
X161207258Y-114409606D01*
X161205627Y-114408357D01*
X161203901Y-114407103D01*
X161203932Y-114407059D01*
X161186960Y-114394062D01*
X161176683Y-114384357D01*
X161141457Y-114324017D01*
X161144445Y-114254212D01*
X161180612Y-114200495D01*
X161187783Y-114194281D01*
X161204194Y-114182269D01*
X161207797Y-114180060D01*
X161207816Y-114180051D01*
X161294138Y-114117335D01*
X161379786Y-114055109D01*
X161379788Y-114055106D01*
X161379792Y-114055104D01*
X161379796Y-114055099D01*
X161379849Y-114055061D01*
X161380605Y-114054290D01*
X161529290Y-113905605D01*
X161530065Y-113904845D01*
X161530124Y-113904765D01*
X161655048Y-113732820D01*
X161655047Y-113732820D01*
X161655051Y-113732816D01*
X161655053Y-113732810D01*
X161675445Y-113704744D01*
X161683730Y-113676529D01*
X161751557Y-113543412D01*
X161817246Y-113341243D01*
X161850500Y-113131287D01*
X161850500Y-112918713D01*
X161817246Y-112708757D01*
X161794905Y-112640000D01*
X163687156Y-112640000D01*
X164250000Y-112640000D01*
X164250000Y-112120068D01*
X164249982Y-112120068D01*
X164222412Y-112122240D01*
X164219731Y-112122451D01*
X164216726Y-112122569D01*
X164214865Y-112122834D01*
X164060838Y-112167583D01*
X164060807Y-112167593D01*
X164060804Y-112167594D01*
X163922716Y-112249259D01*
X163922704Y-112249268D01*
X163809269Y-112362703D01*
X163809260Y-112362714D01*
X163809257Y-112362719D01*
X163727596Y-112500801D01*
X163723352Y-112515410D01*
X163687156Y-112640000D01*
X161794905Y-112640000D01*
X161751557Y-112506588D01*
X161655197Y-112317471D01*
X161655052Y-112317183D01*
X161530112Y-112145216D01*
X161379788Y-111994892D01*
X161379786Y-111994890D01*
X161207820Y-111869951D01*
X161104781Y-111817450D01*
X161035911Y-111782359D01*
X161030571Y-111778479D01*
X161006254Y-111768406D01*
X160999734Y-111767374D01*
X160918163Y-111740870D01*
X160825074Y-111710623D01*
X160820552Y-111708770D01*
X160811362Y-111706600D01*
X160806599Y-111706226D01*
X160654957Y-111682208D01*
X160635489Y-111679124D01*
X160606290Y-111674500D01*
X160606287Y-111674500D01*
X160393713Y-111674500D01*
X160393709Y-111674500D01*
X160354776Y-111680666D01*
X160345042Y-111682208D01*
X160319308Y-111686284D01*
X160183763Y-111707752D01*
X159981582Y-111773445D01*
X159792182Y-111869949D01*
X159620218Y-111994886D01*
X159519281Y-112095823D01*
X159491024Y-112116975D01*
X159478841Y-112123627D01*
X159410568Y-112138477D01*
X159345104Y-112114058D01*
X159345105Y-112114058D01*
X159343412Y-112112791D01*
X159341414Y-112111295D01*
X159299563Y-112055376D01*
X159294109Y-112040755D01*
X159253797Y-111932671D01*
X159253793Y-111932664D01*
X159169537Y-111820113D01*
X159167548Y-111817456D01*
X159167542Y-111817450D01*
X159100649Y-111767374D01*
X159052335Y-111731206D01*
X159052332Y-111731204D01*
X159052330Y-111731203D01*
X159052328Y-111731202D01*
X159002844Y-111712746D01*
X158967497Y-111686284D01*
X158865583Y-111675328D01*
X158860742Y-111674500D01*
X158857881Y-111674500D01*
X158857873Y-111674500D01*
X158857864Y-111674500D01*
X157062129Y-111674500D01*
X157062123Y-111674500D01*
X157060192Y-111674659D01*
X157058545Y-111674885D01*
X157002516Y-111680908D01*
X156889555Y-111723040D01*
X156867666Y-111731204D01*
X156867665Y-111731205D01*
X156752456Y-111817450D01*
X156752450Y-111817456D01*
X156666205Y-111932665D01*
X156666203Y-111932668D01*
X156615907Y-112067516D01*
X156609501Y-112127116D01*
X156609500Y-112127139D01*
X156609500Y-113922876D01*
X156609659Y-113924806D01*
X156609885Y-113926454D01*
X156615907Y-113982482D01*
X156643690Y-114056971D01*
X156666202Y-114117328D01*
X156666206Y-114117335D01*
X156687070Y-114145205D01*
X156752450Y-114232542D01*
X156752456Y-114232548D01*
X156781396Y-114254212D01*
X156867664Y-114318793D01*
X156867671Y-114318797D01*
X156982376Y-114361579D01*
X157013350Y-114378491D01*
X157024461Y-114386808D01*
X157066334Y-114442740D01*
X157071321Y-114512432D01*
X157071318Y-114512445D01*
X157070342Y-114516930D01*
X157036860Y-114578244D01*
X156929886Y-114685218D01*
X156804949Y-114857182D01*
X156708445Y-115046580D01*
X156642752Y-115248759D01*
X156609500Y-115458707D01*
X156609500Y-115671288D01*
X156609499Y-115671289D01*
X154500500Y-115671289D01*
X154500500Y-110762104D01*
X154501086Y-110755846D01*
X154501083Y-110753100D01*
X154501067Y-110753100D01*
X154501067Y-110753056D01*
X154500931Y-110753050D01*
X154501076Y-110750163D01*
X154501077Y-110749854D01*
X154501672Y-110738098D01*
X154509342Y-110660224D01*
X154513109Y-110621976D01*
X154514890Y-110609966D01*
X154517262Y-110598044D01*
X154520209Y-110586282D01*
X154552246Y-110480672D01*
X154556329Y-110469260D01*
X154560986Y-110458015D01*
X154566169Y-110447057D01*
X154618194Y-110349725D01*
X154624440Y-110339306D01*
X154631173Y-110329229D01*
X154638414Y-110319463D01*
X154708420Y-110234161D01*
X154708634Y-110233967D01*
X154708693Y-110233830D01*
X154716578Y-110225160D01*
X154725159Y-110216579D01*
X154734154Y-110208426D01*
X154819463Y-110138414D01*
X154829211Y-110131184D01*
X154839322Y-110124428D01*
X154849713Y-110118200D01*
X154944293Y-110067646D01*
X154956207Y-110062373D01*
X154963771Y-110058529D01*
X154969578Y-110056162D01*
X154980447Y-110052314D01*
X154980880Y-110052183D01*
X155086267Y-110020214D01*
X155098067Y-110017258D01*
X155099647Y-110016943D01*
X155109953Y-110014893D01*
X155121973Y-110013109D01*
X155226954Y-110002769D01*
X155240932Y-110001393D01*
X155246954Y-110000948D01*
X155253084Y-110000647D01*
X155259145Y-110000500D01*
X165473494Y-110000500D01*
X165508426Y-110005521D01*
X165533670Y-110012934D01*
X165586416Y-110044230D01*
X166192686Y-110650500D01*
X166306814Y-110716392D01*
X166434107Y-110750500D01*
X166434108Y-110750500D01*
X166434109Y-110750500D01*
X177387532Y-110750500D01*
X177387534Y-110750500D01*
X177559938Y-110720100D01*
X177724445Y-110660224D01*
X177876055Y-110572692D01*
X178010163Y-110460163D01*
X178122692Y-110326055D01*
X178210224Y-110174445D01*
X178270100Y-110009938D01*
X178300500Y-109837534D01*
X178300500Y-109750001D01*
X178300500Y-109684109D01*
X178300500Y-105260444D01*
X178300694Y-105253502D01*
X178301086Y-105246525D01*
X178301666Y-105239647D01*
X178303332Y-105224862D01*
X178309894Y-105166612D01*
X178314860Y-105144859D01*
X178315435Y-105141366D01*
X178315437Y-105141362D01*
X178315436Y-105141357D01*
X178316614Y-105134213D01*
X178321925Y-105113407D01*
X178330357Y-105089311D01*
X178343055Y-105053022D01*
X178347292Y-105046138D01*
X178348372Y-105040186D01*
X178354376Y-105027716D01*
X178361086Y-105015574D01*
X178398353Y-104956265D01*
X178406374Y-104944961D01*
X178415016Y-104934124D01*
X178419202Y-104930453D01*
X178420612Y-104927588D01*
X178424252Y-104923788D01*
X178473774Y-104874266D01*
X178484114Y-104865024D01*
X178494961Y-104856374D01*
X178506265Y-104848353D01*
X178565574Y-104811086D01*
X178577716Y-104804376D01*
X178590198Y-104798366D01*
X178603014Y-104793058D01*
X178669098Y-104769933D01*
X178682444Y-104766088D01*
X178695955Y-104763004D01*
X178709641Y-104760680D01*
X178762386Y-104754737D01*
X178778755Y-104752893D01*
X178778755Y-104752894D01*
X178778759Y-104752892D01*
X178789662Y-104751664D01*
X178796549Y-104751085D01*
X178803503Y-104750695D01*
X178810446Y-104750500D01*
X211490855Y-104750500D01*
X211496927Y-104750649D01*
G37*
%TD.AperFunction*%
%TA.AperFunction,Conductor*%
G36*
X209627954Y-125982802D02*
G01*
X209679805Y-126027082D01*
X209683075Y-126032014D01*
X209697658Y-126062216D01*
X209734346Y-126175126D01*
X209747302Y-126214999D01*
X209748444Y-126218514D01*
X209844951Y-126407920D01*
X209969890Y-126579886D01*
X209969891Y-126579887D01*
X209969892Y-126579888D01*
X210120216Y-126730212D01*
X210292183Y-126855152D01*
X210292471Y-126855297D01*
X210481588Y-126951657D01*
X210683757Y-127017346D01*
X210893713Y-127050600D01*
X210893714Y-127050600D01*
X211106286Y-127050600D01*
X211106287Y-127050600D01*
X211316243Y-127017346D01*
X211518412Y-126951657D01*
X211707816Y-126855151D01*
X211784245Y-126799622D01*
X211805147Y-126784437D01*
X211825722Y-126769488D01*
X211879786Y-126730209D01*
X211879787Y-126730207D01*
X211879845Y-126730165D01*
X211880557Y-126729438D01*
X212022653Y-126587342D01*
X212042547Y-126571194D01*
X212055614Y-126562665D01*
X212122511Y-126542506D01*
X212189689Y-126561715D01*
X212235810Y-126614177D01*
X212237919Y-126618710D01*
X212249500Y-126671034D01*
X212249500Y-131837885D01*
X212248912Y-131844150D01*
X212248915Y-131846928D01*
X212249069Y-131846936D01*
X212248922Y-131849859D01*
X212248921Y-131850187D01*
X212248325Y-131861920D01*
X212236892Y-131977998D01*
X212235105Y-131990043D01*
X212232737Y-132001944D01*
X212229782Y-132013740D01*
X212197760Y-132119303D01*
X212193658Y-132130765D01*
X212189015Y-132141973D01*
X212183814Y-132152969D01*
X212131817Y-132250249D01*
X212125561Y-132260687D01*
X212118819Y-132270777D01*
X212111570Y-132280551D01*
X212041585Y-132365828D01*
X212041365Y-132366027D01*
X212041306Y-132366167D01*
X212033413Y-132374844D01*
X212024844Y-132383413D01*
X212015828Y-132391585D01*
X211930551Y-132461570D01*
X211920777Y-132468819D01*
X211910687Y-132475561D01*
X211900249Y-132481817D01*
X211805758Y-132532323D01*
X211793770Y-132537625D01*
X211786145Y-132541503D01*
X211780431Y-132543831D01*
X211769641Y-132547656D01*
X211663741Y-132579781D01*
X211651944Y-132582737D01*
X211640043Y-132585105D01*
X211627999Y-132586892D01*
X211509092Y-132598604D01*
X211503027Y-132599051D01*
X211496946Y-132599350D01*
X211490856Y-132599500D01*
X205438241Y-132599500D01*
X205438241Y-132599005D01*
X205419341Y-132598324D01*
X205406247Y-132596440D01*
X205342695Y-132567409D01*
X205304926Y-132508627D01*
X205304932Y-132438762D01*
X205305893Y-132435490D01*
X205337183Y-132382760D01*
X209305276Y-128414670D01*
X209376465Y-128308127D01*
X209425501Y-128189744D01*
X209430133Y-128166459D01*
X209434971Y-128142137D01*
X209450500Y-128064071D01*
X209450500Y-126102271D01*
X209455519Y-126067351D01*
X209457476Y-126060683D01*
X209495243Y-126001900D01*
X209558795Y-125972867D01*
X209627954Y-125982802D01*
G37*
%TD.AperFunction*%
%TA.AperFunction,Conductor*%
G36*
X195187939Y-119090385D02*
G01*
X195233694Y-119143189D01*
X195244900Y-119194700D01*
X195244900Y-119446700D01*
X195225215Y-119513739D01*
X195172411Y-119559494D01*
X195120900Y-119570700D01*
X192841730Y-119570700D01*
X192836282Y-119569100D01*
X192830712Y-119570210D01*
X192806789Y-119565675D01*
X192791790Y-119561270D01*
X192776785Y-119551630D01*
X192774691Y-119551015D01*
X192773262Y-119549366D01*
X192733044Y-119523527D01*
X192731857Y-119522158D01*
X192704377Y-119467283D01*
X192702732Y-119459721D01*
X192699900Y-119433368D01*
X192699900Y-119212529D01*
X192704923Y-119177593D01*
X192709327Y-119162595D01*
X192717193Y-119150350D01*
X192720533Y-119136201D01*
X192735677Y-119121579D01*
X192747072Y-119103844D01*
X192748441Y-119102657D01*
X192762642Y-119095545D01*
X192770798Y-119087672D01*
X192783367Y-119085167D01*
X192803320Y-119075177D01*
X192810879Y-119073533D01*
X192837232Y-119070700D01*
X195120900Y-119070700D01*
X195187939Y-119090385D01*
G37*
%TD.AperFunction*%
%TA.AperFunction,Conductor*%
G36*
X190747290Y-108555521D02*
G01*
X190758143Y-108558707D01*
X190816924Y-108596477D01*
X190845953Y-108660031D01*
X190836014Y-108729190D01*
X190836013Y-108729192D01*
X190832828Y-108736167D01*
X190807712Y-108772342D01*
X187794727Y-111785325D01*
X187794722Y-111785329D01*
X187794265Y-111785915D01*
X187793052Y-111787830D01*
X187740127Y-111867039D01*
X187740128Y-111867040D01*
X187738190Y-111869941D01*
X187738183Y-111869950D01*
X187723534Y-111891873D01*
X187723530Y-111891880D01*
X187674502Y-112010245D01*
X187674495Y-112010265D01*
X187674493Y-112010273D01*
X187649500Y-112135923D01*
X187649500Y-112135928D01*
X187649500Y-112135931D01*
X187649500Y-115334869D01*
X187665374Y-115414669D01*
X187674499Y-115460544D01*
X187723535Y-115578927D01*
X187785247Y-115671287D01*
X187794726Y-115685473D01*
X187794729Y-115685477D01*
X187848752Y-115739499D01*
X187869905Y-115767756D01*
X187876556Y-115779937D01*
X187891407Y-115848211D01*
X187866990Y-115913672D01*
X187861675Y-115920772D01*
X187805741Y-115962644D01*
X187799476Y-115964791D01*
X187786960Y-115968711D01*
X187717105Y-115969959D01*
X187712556Y-115968712D01*
X187703969Y-115966356D01*
X187667887Y-115949877D01*
X187579201Y-115890619D01*
X187579186Y-115890610D01*
X187579185Y-115890609D01*
X187579172Y-115890602D01*
X187579165Y-115890598D01*
X187433502Y-115830264D01*
X187433471Y-115830257D01*
X187278847Y-115799500D01*
X187278845Y-115799500D01*
X187278842Y-115799500D01*
X187121158Y-115799500D01*
X187121155Y-115799500D01*
X187121153Y-115799500D01*
X186966527Y-115830257D01*
X186966496Y-115830264D01*
X186820833Y-115890598D01*
X186820824Y-115890603D01*
X186820812Y-115890610D01*
X186733713Y-115948808D01*
X186701873Y-115964041D01*
X186686954Y-115968712D01*
X186617103Y-115969959D01*
X186603975Y-115966358D01*
X186567885Y-115949877D01*
X186479191Y-115890613D01*
X186479186Y-115890610D01*
X186479185Y-115890609D01*
X186479172Y-115890602D01*
X186479165Y-115890598D01*
X186333502Y-115830264D01*
X186333471Y-115830257D01*
X186178847Y-115799500D01*
X186178845Y-115799500D01*
X186178842Y-115799500D01*
X186021158Y-115799500D01*
X186021155Y-115799500D01*
X186021153Y-115799500D01*
X185866527Y-115830257D01*
X185866496Y-115830264D01*
X185720833Y-115890598D01*
X185720824Y-115890603D01*
X185720807Y-115890613D01*
X185588307Y-115979148D01*
X185588269Y-115979092D01*
X185577689Y-115985695D01*
X185558311Y-115996276D01*
X185490038Y-116011127D01*
X185490036Y-116011127D01*
X185488233Y-116010998D01*
X185430046Y-115991632D01*
X185424963Y-115988365D01*
X185420808Y-115985695D01*
X185413454Y-115980584D01*
X185410290Y-115978211D01*
X185279191Y-115890613D01*
X185279186Y-115890610D01*
X185279185Y-115890609D01*
X185279172Y-115890602D01*
X185279165Y-115890598D01*
X185133502Y-115830264D01*
X185133471Y-115830257D01*
X184978847Y-115799500D01*
X184978845Y-115799500D01*
X184978842Y-115799500D01*
X184821158Y-115799500D01*
X184821155Y-115799500D01*
X184821153Y-115799500D01*
X184666527Y-115830257D01*
X184666496Y-115830264D01*
X184520833Y-115890598D01*
X184520824Y-115890603D01*
X184520807Y-115890613D01*
X184389708Y-115978211D01*
X184389707Y-115978212D01*
X184389701Y-115978217D01*
X184278217Y-116089701D01*
X184278212Y-116089707D01*
X184278211Y-116089708D01*
X184190613Y-116220807D01*
X184190603Y-116220824D01*
X184190598Y-116220833D01*
X184130264Y-116366496D01*
X184130257Y-116366527D01*
X184099500Y-116521150D01*
X184099500Y-116521153D01*
X184099500Y-116678846D01*
X184099500Y-116678848D01*
X184099499Y-116678848D01*
X184129560Y-116829966D01*
X184130261Y-116833489D01*
X184130264Y-116833501D01*
X184138257Y-116852797D01*
X184151332Y-116884363D01*
X184160058Y-116918550D01*
X184161020Y-116927495D01*
X184148620Y-116996254D01*
X184101013Y-117047394D01*
X184033315Y-117064678D01*
X183972570Y-117046255D01*
X183968210Y-117043562D01*
X183945691Y-117025745D01*
X183599426Y-116679480D01*
X183578274Y-116651224D01*
X183565667Y-116628135D01*
X183550500Y-116568710D01*
X183550500Y-113438637D01*
X183555522Y-113403704D01*
X183562934Y-113378459D01*
X183594228Y-113325717D01*
X188320522Y-108599423D01*
X188348772Y-108578275D01*
X188371864Y-108565667D01*
X188431289Y-108550500D01*
X190712363Y-108550500D01*
X190747290Y-108555521D01*
G37*
%TD.AperFunction*%
%TA.AperFunction,Conductor*%
G36*
X201046294Y-112405521D02*
G01*
X201071538Y-112412934D01*
X201124284Y-112444230D01*
X201961630Y-113281576D01*
X201995115Y-113342899D01*
X201990131Y-113412591D01*
X201948259Y-113468524D01*
X201882795Y-113492941D01*
X201874061Y-113493257D01*
X198459439Y-113496339D01*
X198334662Y-113512097D01*
X198334661Y-113512097D01*
X198334655Y-113512098D01*
X198275352Y-113527263D01*
X198158325Y-113573337D01*
X198135217Y-113585955D01*
X198074537Y-113624953D01*
X198074536Y-113624954D01*
X198074126Y-113625260D01*
X198074057Y-113625286D01*
X198072726Y-113626211D01*
X198072681Y-113626146D01*
X198072674Y-113626151D01*
X198072545Y-113625951D01*
X198072489Y-113625871D01*
X198008666Y-113649683D01*
X197999808Y-113650000D01*
X197662854Y-113650000D01*
X197657976Y-113649904D01*
X197653099Y-113649712D01*
X197650147Y-113649537D01*
X197649187Y-113649500D01*
X197649186Y-113649500D01*
X197649181Y-113649500D01*
X197541830Y-113649500D01*
X197536388Y-113647902D01*
X197530826Y-113649011D01*
X197506889Y-113644475D01*
X197491890Y-113640070D01*
X197476885Y-113630430D01*
X197474791Y-113629815D01*
X197473362Y-113628166D01*
X197433144Y-113602327D01*
X197431957Y-113600958D01*
X197404477Y-113546083D01*
X197402832Y-113538521D01*
X197400000Y-113512168D01*
X197400000Y-113291829D01*
X197405023Y-113256893D01*
X197409427Y-113241895D01*
X197417289Y-113229656D01*
X197420626Y-113215513D01*
X197435774Y-113200884D01*
X197447172Y-113183144D01*
X197448541Y-113181957D01*
X197462734Y-113174849D01*
X197470886Y-113166978D01*
X197483460Y-113164471D01*
X197503420Y-113154477D01*
X197510979Y-113152833D01*
X197537332Y-113150000D01*
X198212843Y-113150000D01*
X198212844Y-113150000D01*
X198212843Y-113149998D01*
X198212844Y-113149998D01*
X198178740Y-113032614D01*
X198172404Y-113010805D01*
X198090738Y-112872714D01*
X198090731Y-112872705D01*
X197977294Y-112759268D01*
X197977285Y-112759261D01*
X197969235Y-112754500D01*
X197839194Y-112677594D01*
X197839191Y-112677593D01*
X197839177Y-112677588D01*
X197782175Y-112661028D01*
X197739222Y-112648549D01*
X197707065Y-112633972D01*
X197701918Y-112630684D01*
X197656019Y-112578005D01*
X197645888Y-112508873D01*
X197674739Y-112445239D01*
X197733410Y-112407306D01*
X197738032Y-112405934D01*
X197739108Y-112405616D01*
X197774359Y-112400500D01*
X201011362Y-112400500D01*
X201046294Y-112405521D01*
G37*
%TD.AperFunction*%
%TD*%
%TA.AperFunction,Conductor*%
%TO.N,GND*%
G36*
X196535816Y-122616041D02*
G01*
X196542920Y-122627464D01*
X196551925Y-122640941D01*
X196559767Y-122651886D01*
X196569566Y-122664656D01*
X196569576Y-122664669D01*
X196578107Y-122675064D01*
X196588803Y-122687261D01*
X196588806Y-122687264D01*
X196598006Y-122697086D01*
X196636829Y-122735909D01*
X196661531Y-122771187D01*
X196670654Y-122790752D01*
X196677747Y-122809967D01*
X196687244Y-122844157D01*
X196687253Y-122844185D01*
X196696876Y-122871300D01*
X196696877Y-122871303D01*
X196710309Y-122902113D01*
X196710319Y-122902134D01*
X196723628Y-122927625D01*
X196723633Y-122927634D01*
X196741772Y-122957137D01*
X196741772Y-122957138D01*
X196758501Y-122980508D01*
X197998384Y-124478698D01*
X198008886Y-124490441D01*
X198022085Y-124504107D01*
X198033451Y-124515008D01*
X198034037Y-124515528D01*
X198034040Y-124515530D01*
X198034041Y-124515531D01*
X198070908Y-124541628D01*
X198118302Y-124567882D01*
X198118304Y-124567882D01*
X198118308Y-124567885D01*
X198159969Y-124585290D01*
X198159979Y-124585294D01*
X198183326Y-124592150D01*
X198183335Y-124592152D01*
X198183332Y-124592152D01*
X198201684Y-124596144D01*
X198211978Y-124598384D01*
X198246916Y-124603408D01*
X198276166Y-124605500D01*
X202462650Y-124605500D01*
X202462668Y-124605500D01*
X202484649Y-124604321D01*
X202511020Y-124601484D01*
X202532743Y-124597962D01*
X202540301Y-124596317D01*
X202588621Y-124579262D01*
X202600000Y-124573563D01*
X202600000Y-125113393D01*
X195135689Y-132444413D01*
X185850000Y-132352475D01*
X185850000Y-129505500D01*
X195138157Y-129505500D01*
X195181938Y-129500000D01*
X195320001Y-129500000D01*
X196172071Y-128618547D01*
X196601579Y-128189040D01*
X196633001Y-128148592D01*
X196664296Y-128095848D01*
X196684739Y-128048886D01*
X196692151Y-128023645D01*
X196698384Y-127994995D01*
X196703408Y-127960058D01*
X196705500Y-127930808D01*
X196705500Y-126847936D01*
X196703851Y-126821957D01*
X196699887Y-126790853D01*
X196694966Y-126765285D01*
X196687290Y-126735662D01*
X196679174Y-126710919D01*
X196667533Y-126681803D01*
X196667530Y-126681798D01*
X196667523Y-126681780D01*
X196656362Y-126658301D01*
X196656356Y-126658288D01*
X196346306Y-126100200D01*
X196346306Y-126100199D01*
X196321104Y-126054835D01*
X196305500Y-125994616D01*
X196305500Y-125970698D01*
X196305499Y-125970669D01*
X196304529Y-125950751D01*
X196304528Y-125950736D01*
X196302189Y-125926767D01*
X196299285Y-125907002D01*
X196298228Y-125901637D01*
X196283016Y-125854869D01*
X196283012Y-125854860D01*
X196258216Y-125801418D01*
X196232328Y-125759604D01*
X196232324Y-125759599D01*
X196227687Y-125753798D01*
X196218446Y-125742237D01*
X196211078Y-125733526D01*
X196201899Y-125723266D01*
X196194054Y-125714974D01*
X196143170Y-125664090D01*
X196118461Y-125628797D01*
X196116610Y-125624826D01*
X196105000Y-125572438D01*
X196105000Y-125227558D01*
X196116609Y-125175171D01*
X196118461Y-125171198D01*
X196143166Y-125135911D01*
X196179137Y-125099940D01*
X196184600Y-125094799D01*
X196186110Y-125093463D01*
X196195795Y-125084411D01*
X196203620Y-125076695D01*
X196207424Y-125072738D01*
X196237035Y-125033435D01*
X196266620Y-124982434D01*
X196286039Y-124937216D01*
X196292153Y-124916394D01*
X196298385Y-124887743D01*
X196303408Y-124852808D01*
X196305500Y-124823562D01*
X196305500Y-124753383D01*
X196299116Y-124702559D01*
X196283947Y-124643130D01*
X196265193Y-124595466D01*
X196252585Y-124572377D01*
X196244658Y-124560043D01*
X196236740Y-124547722D01*
X196236736Y-124547717D01*
X196236732Y-124547710D01*
X196215582Y-124519458D01*
X196196383Y-124497303D01*
X196163167Y-124464087D01*
X196138462Y-124428800D01*
X196136608Y-124424824D01*
X196125000Y-124372439D01*
X196125000Y-124027557D01*
X196136619Y-123975150D01*
X196138468Y-123971185D01*
X196163169Y-123935910D01*
X196201579Y-123897501D01*
X196233001Y-123857053D01*
X196264295Y-123804311D01*
X196284737Y-123757352D01*
X196292150Y-123732109D01*
X196298384Y-123703455D01*
X196303408Y-123668516D01*
X196305500Y-123639267D01*
X196305500Y-123553383D01*
X196299116Y-123502559D01*
X196283947Y-123443130D01*
X196265193Y-123395466D01*
X196252585Y-123372377D01*
X196236732Y-123347710D01*
X196215582Y-123319458D01*
X196196383Y-123297303D01*
X196196370Y-123297290D01*
X196196359Y-123297278D01*
X196163169Y-123264088D01*
X196138470Y-123228815D01*
X196136620Y-123224848D01*
X196125000Y-123172440D01*
X196125000Y-122811689D01*
X196125842Y-122798835D01*
X196125740Y-122798826D01*
X196125975Y-122796156D01*
X196127527Y-122778506D01*
X196128103Y-122765582D01*
X196128479Y-122757196D01*
X196128488Y-122751371D01*
X196128507Y-122739485D01*
X196128385Y-122736549D01*
X196121081Y-122690137D01*
X196106020Y-122635857D01*
X196106017Y-122635849D01*
X196104728Y-122632682D01*
X196103433Y-122619914D01*
X196100000Y-122613626D01*
X196100000Y-122600000D01*
X196526555Y-122600000D01*
X196535816Y-122616041D01*
G37*
%TD.AperFunction*%
%TD*%
%TA.AperFunction,Conductor*%
%TO.N,Net-(U4-SW)*%
G36*
X177376895Y-114405023D02*
G01*
X177391893Y-114409427D01*
X177450644Y-114447172D01*
X177451831Y-114448541D01*
X177479307Y-114503402D01*
X177480952Y-114510960D01*
X177483789Y-114537331D01*
X177483789Y-120200000D01*
X178134862Y-120851073D01*
X178156012Y-120879325D01*
X178168620Y-120902414D01*
X178183789Y-120961843D01*
X178183789Y-121470500D01*
X178164104Y-121537539D01*
X178111300Y-121583294D01*
X178059789Y-121594500D01*
X176537332Y-121594500D01*
X176535905Y-121594576D01*
X176530625Y-121594859D01*
X176462630Y-121578784D01*
X176414119Y-121528501D01*
X176400000Y-121471036D01*
X176400000Y-120800001D01*
X176400000Y-120800000D01*
X176246318Y-120653827D01*
X176135248Y-120548184D01*
X176113396Y-120520466D01*
X176100478Y-120498154D01*
X176083790Y-120436024D01*
X176083790Y-120169249D01*
X176084054Y-120161166D01*
X176084586Y-120153037D01*
X176085380Y-120144990D01*
X176089999Y-120109906D01*
X176090000Y-120109901D01*
X176089999Y-119690100D01*
X176085377Y-119654984D01*
X176084584Y-119646919D01*
X176084055Y-119638835D01*
X176083790Y-119630738D01*
X176083790Y-117800000D01*
X175647283Y-117348866D01*
X175626600Y-117320266D01*
X175614203Y-117296645D01*
X175600000Y-117239020D01*
X175600000Y-114541829D01*
X175605023Y-114506893D01*
X175609427Y-114491895D01*
X175647172Y-114433144D01*
X175648541Y-114431957D01*
X175703420Y-114404477D01*
X175710979Y-114402833D01*
X175737332Y-114400000D01*
X177341959Y-114400000D01*
X177376895Y-114405023D01*
G37*
%TD.AperFunction*%
%TD*%
%TA.AperFunction,Conductor*%
%TO.N,Net-(U1-OUTC-Pad19)*%
G36*
X202492996Y-114003222D02*
G01*
X202507998Y-114007612D01*
X202566807Y-114045328D01*
X202568000Y-114046702D01*
X202595494Y-114101547D01*
X202597153Y-114109155D01*
X202600000Y-114135574D01*
X202600000Y-117170500D01*
X202580315Y-117237539D01*
X202527511Y-117283294D01*
X202476000Y-117294500D01*
X198411206Y-117294500D01*
X198385484Y-117296118D01*
X198385455Y-117296120D01*
X198354651Y-117300010D01*
X198354648Y-117300010D01*
X198354648Y-117300011D01*
X198275299Y-117327297D01*
X198275297Y-117327297D01*
X198275297Y-117327298D01*
X198215257Y-117363027D01*
X198215253Y-117363030D01*
X198203596Y-117372450D01*
X198139080Y-117399272D01*
X198125664Y-117400000D01*
X198099998Y-117400000D01*
X197696278Y-117803720D01*
X197668019Y-117824874D01*
X197657592Y-117830567D01*
X197589319Y-117845416D01*
X197566074Y-117841506D01*
X197514497Y-117827684D01*
X197514494Y-117827684D01*
X197409309Y-117799500D01*
X197409308Y-117799500D01*
X197290691Y-117799500D01*
X197191881Y-117825976D01*
X197175267Y-117828163D01*
X197161974Y-117838364D01*
X197073386Y-117889511D01*
X197073378Y-117889517D01*
X196989517Y-117973378D01*
X196989513Y-117973383D01*
X196930200Y-118076114D01*
X196930199Y-118076117D01*
X196907380Y-118161276D01*
X196893488Y-118193718D01*
X196885354Y-118207063D01*
X196833658Y-118254060D01*
X196825684Y-118257934D01*
X196771498Y-118270400D01*
X196547281Y-118270400D01*
X196523088Y-118268017D01*
X196499585Y-118263341D01*
X196484012Y-118258616D01*
X196483957Y-118258799D01*
X196478135Y-118257032D01*
X196439326Y-118249313D01*
X196419652Y-118245400D01*
X196419651Y-118245400D01*
X195941830Y-118245400D01*
X195906889Y-118240375D01*
X195891890Y-118235970D01*
X195833144Y-118198227D01*
X195831957Y-118196858D01*
X195804477Y-118141983D01*
X195802832Y-118134421D01*
X195800000Y-118108068D01*
X195800000Y-116669191D01*
X195805022Y-116634258D01*
X195812434Y-116609013D01*
X195843728Y-116556271D01*
X197460576Y-114939423D01*
X197488826Y-114918275D01*
X197511918Y-114905667D01*
X197571343Y-114890500D01*
X197624311Y-114890500D01*
X197624317Y-114890500D01*
X197640601Y-114888356D01*
X197673173Y-114884068D01*
X197780404Y-114834065D01*
X197864065Y-114750404D01*
X197914068Y-114643173D01*
X197920500Y-114594316D01*
X197920500Y-114548691D01*
X197925522Y-114513758D01*
X197932934Y-114488513D01*
X197964228Y-114435771D01*
X198349228Y-114050770D01*
X198377474Y-114029625D01*
X198400586Y-114017005D01*
X198459895Y-114001839D01*
X202458062Y-113998232D01*
X202492996Y-114003222D01*
G37*
%TD.AperFunction*%
%TD*%
%TA.AperFunction,Conductor*%
%TO.N,GNDA*%
G36*
X183543039Y-118919685D02*
G01*
X183588794Y-118972489D01*
X183600000Y-119024000D01*
X183600000Y-119859420D01*
X183580315Y-119926459D01*
X183577575Y-119930544D01*
X183576775Y-119931686D01*
X183526027Y-120040514D01*
X183519500Y-120090098D01*
X183519500Y-120509894D01*
X183519501Y-120509900D01*
X183526028Y-120559487D01*
X183526029Y-120559489D01*
X183526029Y-120559490D01*
X183576776Y-120668316D01*
X183577571Y-120669451D01*
X183578265Y-120671509D01*
X183581361Y-120678148D01*
X183580620Y-120678493D01*
X183599902Y-120735656D01*
X183600000Y-120740579D01*
X183600000Y-121059420D01*
X183580315Y-121126459D01*
X183577575Y-121130544D01*
X183576775Y-121131686D01*
X183526027Y-121240514D01*
X183519500Y-121290098D01*
X183519500Y-121709894D01*
X183519501Y-121709900D01*
X183526028Y-121759487D01*
X183526029Y-121759489D01*
X183526029Y-121759490D01*
X183576776Y-121868316D01*
X183577571Y-121869451D01*
X183578265Y-121871509D01*
X183581361Y-121878148D01*
X183580620Y-121878493D01*
X183599902Y-121935656D01*
X183600000Y-121940579D01*
X183600000Y-122359420D01*
X183580315Y-122426459D01*
X183577575Y-122430544D01*
X183576775Y-122431686D01*
X183526027Y-122540514D01*
X183519500Y-122590098D01*
X183519500Y-123009894D01*
X183519501Y-123009900D01*
X183526028Y-123059487D01*
X183526029Y-123059489D01*
X183526029Y-123059490D01*
X183576776Y-123168316D01*
X183577571Y-123169451D01*
X183578265Y-123171509D01*
X183581361Y-123178148D01*
X183580620Y-123178493D01*
X183599902Y-123235656D01*
X183600000Y-123240579D01*
X183600000Y-123276000D01*
X183580315Y-123343039D01*
X183527511Y-123388794D01*
X183476000Y-123400000D01*
X182624000Y-123400000D01*
X182556961Y-123380315D01*
X182511206Y-123327511D01*
X182500000Y-123276000D01*
X182500000Y-119024000D01*
X182519685Y-118956961D01*
X182572489Y-118911206D01*
X182624000Y-118900000D01*
X183476000Y-118900000D01*
X183543039Y-118919685D01*
G37*
%TD.AperFunction*%
%TD*%
%TA.AperFunction,Conductor*%
%TO.N,Net-(U1-OUTA-Pad13)*%
G36*
X196747849Y-120376223D02*
G01*
X196762847Y-120380627D01*
X196791444Y-120399003D01*
X196799783Y-120401368D01*
X196805892Y-120408287D01*
X196821615Y-120418391D01*
X196827421Y-120425090D01*
X196834597Y-120440799D01*
X196846027Y-120453745D01*
X196853492Y-120474208D01*
X196880201Y-120573887D01*
X196909856Y-120625249D01*
X196939511Y-120676613D01*
X197023387Y-120760489D01*
X197126114Y-120819799D01*
X197240691Y-120850500D01*
X197240694Y-120850500D01*
X197359306Y-120850500D01*
X197359307Y-120850500D01*
X197359309Y-120850500D01*
X197458126Y-120824022D01*
X197466281Y-120822948D01*
X197466369Y-120822912D01*
X197474088Y-120820291D01*
X197481402Y-120816685D01*
X197481494Y-120816646D01*
X197488024Y-120811635D01*
X197519682Y-120793357D01*
X197587582Y-120776885D01*
X197653609Y-120799738D01*
X197661775Y-120806082D01*
X197923493Y-121027536D01*
X197934059Y-121035897D01*
X197947117Y-121045552D01*
X198011394Y-121077490D01*
X198026913Y-121082047D01*
X198078425Y-121097173D01*
X198078427Y-121097173D01*
X198078433Y-121097175D01*
X198136331Y-121105500D01*
X198136335Y-121105500D01*
X202476000Y-121105500D01*
X202543039Y-121125185D01*
X202588794Y-121177989D01*
X202600000Y-121229500D01*
X202600000Y-124258170D01*
X202594975Y-124293114D01*
X202590570Y-124308112D01*
X202552827Y-124366855D01*
X202551458Y-124368042D01*
X202496597Y-124395518D01*
X202489039Y-124397163D01*
X202462668Y-124400000D01*
X198276166Y-124400000D01*
X198241228Y-124394976D01*
X198217881Y-124388120D01*
X198170487Y-124361866D01*
X198169898Y-124361343D01*
X198156701Y-124347679D01*
X196916828Y-122849501D01*
X196898691Y-122820001D01*
X196885255Y-122789181D01*
X196875985Y-122755809D01*
X196873972Y-122740513D01*
X196823224Y-122631684D01*
X196743309Y-122551769D01*
X196732613Y-122539572D01*
X196722797Y-122526779D01*
X196713788Y-122513296D01*
X196686747Y-122466461D01*
X196685569Y-122463841D01*
X196681459Y-122457192D01*
X196680547Y-122455666D01*
X196166758Y-121941877D01*
X196162731Y-121937656D01*
X196158825Y-121933364D01*
X196155004Y-121928962D01*
X195990970Y-121730755D01*
X195990967Y-121730752D01*
X195836455Y-121544049D01*
X195818051Y-121513932D01*
X195805491Y-121484693D01*
X195795789Y-121445262D01*
X195779192Y-121229500D01*
X195750944Y-120862284D01*
X195750673Y-120857547D01*
X195750491Y-120852786D01*
X195750400Y-120848049D01*
X195750400Y-120538029D01*
X195755423Y-120503093D01*
X195759827Y-120488095D01*
X195797572Y-120429344D01*
X195798941Y-120428157D01*
X195853820Y-120400677D01*
X195861379Y-120399033D01*
X195887732Y-120396200D01*
X196423769Y-120396200D01*
X196431617Y-120393818D01*
X196439318Y-120392287D01*
X196466157Y-120386949D01*
X196487213Y-120384875D01*
X196489193Y-120384572D01*
X196498267Y-120384487D01*
X196515398Y-120375133D01*
X196517570Y-120374681D01*
X196523090Y-120373583D01*
X196547281Y-120371200D01*
X196712913Y-120371200D01*
X196747849Y-120376223D01*
G37*
%TD.AperFunction*%
%TD*%
%TA.AperFunction,Conductor*%
%TO.N,Net-(U1-OUTB-Pad16)*%
G36*
X202543039Y-117519685D02*
G01*
X202588794Y-117572489D01*
X202600000Y-117624000D01*
X202600000Y-120776000D01*
X202580315Y-120843039D01*
X202527511Y-120888794D01*
X202476000Y-120900000D01*
X198136331Y-120900000D01*
X198069292Y-120880315D01*
X198056234Y-120870660D01*
X197944363Y-120776000D01*
X197777186Y-120634542D01*
X197738725Y-120576212D01*
X197737509Y-120507791D01*
X197750500Y-120459309D01*
X197750500Y-120340691D01*
X197719799Y-120226114D01*
X197660489Y-120123387D01*
X197576613Y-120039511D01*
X197473886Y-119980201D01*
X197359309Y-119949500D01*
X197359306Y-119949500D01*
X197325833Y-119949500D01*
X197258794Y-119929815D01*
X197238152Y-119913181D01*
X197155212Y-119830241D01*
X197155207Y-119830237D01*
X197131115Y-119816328D01*
X197116371Y-119807816D01*
X197116369Y-119807814D01*
X197116369Y-119807815D01*
X197116367Y-119807814D01*
X197110096Y-119804193D01*
X197086690Y-119790679D01*
X197086691Y-119790679D01*
X197048475Y-119780439D01*
X197010262Y-119770200D01*
X197010260Y-119770200D01*
X196535066Y-119770200D01*
X196487609Y-119760759D01*
X196478128Y-119756831D01*
X196419652Y-119745200D01*
X196419648Y-119745200D01*
X195874400Y-119745200D01*
X195807361Y-119725515D01*
X195761606Y-119672711D01*
X195750400Y-119621200D01*
X195750400Y-119020400D01*
X195770085Y-118953361D01*
X195822889Y-118907606D01*
X195874400Y-118896400D01*
X196419650Y-118896400D01*
X196419651Y-118896399D01*
X196449405Y-118890481D01*
X196478128Y-118884768D01*
X196478129Y-118884767D01*
X196478131Y-118884767D01*
X196478131Y-118884766D01*
X196487609Y-118880841D01*
X196535066Y-118871400D01*
X197068660Y-118871400D01*
X197068662Y-118871400D01*
X197145089Y-118850921D01*
X197213611Y-118811360D01*
X197269560Y-118755411D01*
X197288152Y-118736819D01*
X197349475Y-118703334D01*
X197375833Y-118700500D01*
X197409306Y-118700500D01*
X197409309Y-118700500D01*
X197523886Y-118669799D01*
X197626613Y-118610489D01*
X197710489Y-118526613D01*
X197769799Y-118423886D01*
X197800500Y-118309309D01*
X197800500Y-118190691D01*
X197799274Y-118186115D01*
X197800937Y-118116268D01*
X197828181Y-118069651D01*
X198320349Y-117539623D01*
X198380391Y-117503892D01*
X198411215Y-117500000D01*
X202476000Y-117500000D01*
X202543039Y-117519685D01*
G37*
%TD.AperFunction*%
%TD*%
%TA.AperFunction,Conductor*%
%TO.N,VBUS*%
G36*
X195017506Y-121376223D02*
G01*
X195032504Y-121380627D01*
X195091255Y-121418372D01*
X195092442Y-121419741D01*
X195119918Y-121474602D01*
X195121563Y-121482160D01*
X195124400Y-121508531D01*
X195124400Y-121556802D01*
X195123339Y-121572988D01*
X195121236Y-121588961D01*
X195118072Y-121604868D01*
X195099401Y-121674550D01*
X195099401Y-121766848D01*
X195118071Y-121836529D01*
X195121234Y-121852428D01*
X195123338Y-121868402D01*
X195124400Y-121884595D01*
X195124400Y-122040452D01*
X195136031Y-122098929D01*
X195136032Y-122098930D01*
X195138924Y-122104341D01*
X195142817Y-122109085D01*
X195180347Y-122165252D01*
X195246669Y-122209567D01*
X195246670Y-122209568D01*
X195305147Y-122221199D01*
X195305150Y-122221200D01*
X195305152Y-122221200D01*
X195385526Y-122221200D01*
X195420458Y-122226221D01*
X195445702Y-122233634D01*
X195485750Y-122257396D01*
X195496289Y-122262822D01*
X195497016Y-122264080D01*
X195498448Y-122264930D01*
X195875764Y-122642246D01*
X195896914Y-122670498D01*
X195907874Y-122690570D01*
X195908001Y-122690801D01*
X195923062Y-122745081D01*
X195923184Y-122748017D01*
X195922232Y-122769340D01*
X195920467Y-122782750D01*
X195919691Y-122788656D01*
X195919500Y-122790104D01*
X195919500Y-123209900D01*
X195919545Y-123210447D01*
X195919776Y-123211996D01*
X195924968Y-123251436D01*
X195925322Y-123256845D01*
X195925665Y-123258789D01*
X195926740Y-123261014D01*
X195976776Y-123368316D01*
X196051073Y-123442613D01*
X196072223Y-123470865D01*
X196084831Y-123493954D01*
X196100000Y-123553383D01*
X196100000Y-123639267D01*
X196094976Y-123674206D01*
X196087563Y-123699449D01*
X196056269Y-123752191D01*
X195976774Y-123831686D01*
X195926028Y-123940510D01*
X195926026Y-123940518D01*
X195919500Y-123990095D01*
X195919500Y-124409892D01*
X195920771Y-124419557D01*
X195924968Y-124451438D01*
X195925322Y-124456847D01*
X195925665Y-124458790D01*
X195926741Y-124461017D01*
X195976776Y-124568316D01*
X196051073Y-124642613D01*
X196072223Y-124670865D01*
X196084831Y-124693954D01*
X196100000Y-124753383D01*
X196100000Y-124823562D01*
X196094977Y-124858497D01*
X196088863Y-124879319D01*
X196059278Y-124930320D01*
X196055474Y-124934277D01*
X196045789Y-124943329D01*
X196041692Y-124946766D01*
X195956775Y-125031684D01*
X195906028Y-125140510D01*
X195906026Y-125140518D01*
X195899500Y-125190095D01*
X195899500Y-125609892D01*
X195900771Y-125619557D01*
X195904968Y-125651438D01*
X195905322Y-125656846D01*
X195905665Y-125658791D01*
X195906735Y-125661005D01*
X195917214Y-125683476D01*
X195919267Y-125687877D01*
X195919268Y-125687882D01*
X195919269Y-125687882D01*
X195956776Y-125768316D01*
X196048744Y-125860284D01*
X196057923Y-125870544D01*
X196071803Y-125887909D01*
X196096604Y-125941361D01*
X196097661Y-125946726D01*
X196100000Y-125970695D01*
X196100000Y-126080000D01*
X196166667Y-126200000D01*
X196476719Y-126758093D01*
X196488360Y-126787209D01*
X196496036Y-126816832D01*
X196500000Y-126847936D01*
X196500000Y-127930808D01*
X196494976Y-127965745D01*
X196487564Y-127990986D01*
X196456269Y-128043730D01*
X195248926Y-129251073D01*
X195220675Y-129272222D01*
X195197587Y-129284830D01*
X195138157Y-129300000D01*
X182499998Y-129300000D01*
X181648926Y-130151073D01*
X181620675Y-130172222D01*
X181597587Y-130184830D01*
X181538157Y-130200000D01*
X180069192Y-130200000D01*
X180034256Y-130194977D01*
X180009014Y-130187565D01*
X179956269Y-130156269D01*
X179100000Y-129300000D01*
X171041830Y-129300000D01*
X171006889Y-129294975D01*
X170991890Y-129290570D01*
X170933144Y-129252827D01*
X170931957Y-129251458D01*
X170904477Y-129196583D01*
X170902832Y-129189021D01*
X170900000Y-129162668D01*
X170900000Y-126041829D01*
X170905023Y-126006893D01*
X170909427Y-125991895D01*
X170947172Y-125933144D01*
X170948541Y-125931957D01*
X171003420Y-125904477D01*
X171010979Y-125902833D01*
X171037332Y-125900000D01*
X176700000Y-125900000D01*
X177275003Y-125324995D01*
X177303249Y-125303850D01*
X177319158Y-125295163D01*
X177382831Y-125280070D01*
X177394408Y-125280467D01*
X177424747Y-125285316D01*
X177519499Y-125312844D01*
X177519500Y-125312844D01*
X177519500Y-125312843D01*
X178019500Y-125312843D01*
X178158694Y-125272404D01*
X178296785Y-125190738D01*
X178296794Y-125190731D01*
X178410231Y-125077294D01*
X178410238Y-125077285D01*
X178491906Y-124939191D01*
X178491907Y-124939188D01*
X178536666Y-124785128D01*
X178536667Y-124785122D01*
X178539431Y-124750000D01*
X178019500Y-124750000D01*
X178019500Y-125312843D01*
X177519500Y-125312843D01*
X177519500Y-124641829D01*
X177524523Y-124606893D01*
X177528927Y-124591895D01*
X177538569Y-124576886D01*
X177539185Y-124574790D01*
X177540834Y-124573360D01*
X177566672Y-124533144D01*
X177568041Y-124531957D01*
X177622920Y-124504477D01*
X177630479Y-124502833D01*
X177656832Y-124500000D01*
X177769500Y-124500000D01*
X177769500Y-124391829D01*
X177774523Y-124356893D01*
X177778927Y-124341895D01*
X177816672Y-124283144D01*
X177818041Y-124281957D01*
X177872920Y-124254477D01*
X177880479Y-124252833D01*
X177906832Y-124250000D01*
X178539430Y-124250000D01*
X178539431Y-124250000D01*
X178536667Y-124214877D01*
X178536666Y-124214871D01*
X178491907Y-124060811D01*
X178491906Y-124060808D01*
X178410238Y-123922714D01*
X178410234Y-123922709D01*
X178410230Y-123922705D01*
X178296801Y-123809276D01*
X178296790Y-123809266D01*
X178296789Y-123809265D01*
X178296784Y-123809261D01*
X178296780Y-123809259D01*
X178296778Y-123809257D01*
X178276221Y-123797099D01*
X178248712Y-123774996D01*
X178235629Y-123760984D01*
X178205608Y-123704952D01*
X178203341Y-123695384D01*
X178200000Y-123666795D01*
X178200000Y-122700000D01*
X177965638Y-122700000D01*
X177937689Y-122696809D01*
X177910819Y-122690592D01*
X177898152Y-122686096D01*
X177898099Y-122686270D01*
X177888898Y-122683427D01*
X177888893Y-122683426D01*
X177820761Y-122673500D01*
X177820760Y-122673500D01*
X177820756Y-122673500D01*
X176729243Y-122673500D01*
X176729240Y-122673500D01*
X176729239Y-122673500D01*
X176682461Y-122680315D01*
X176669995Y-122682131D01*
X176665200Y-122682478D01*
X176656124Y-122684578D01*
X176639180Y-122690592D01*
X176612309Y-122696809D01*
X176584362Y-122700000D01*
X176541830Y-122700000D01*
X176506889Y-122694975D01*
X176491890Y-122690570D01*
X176433144Y-122652827D01*
X176431957Y-122651458D01*
X176404477Y-122596583D01*
X176402832Y-122589021D01*
X176400000Y-122562668D01*
X176400000Y-121941829D01*
X176405023Y-121906893D01*
X176407886Y-121897145D01*
X176409427Y-121891894D01*
X176447172Y-121833144D01*
X176448541Y-121831957D01*
X176503420Y-121804477D01*
X176510979Y-121802833D01*
X176537332Y-121800000D01*
X178575222Y-121800000D01*
X178610154Y-121805021D01*
X178631764Y-121811367D01*
X178681612Y-121839858D01*
X178684563Y-121842624D01*
X178699533Y-121859459D01*
X178727346Y-121897145D01*
X178727349Y-121897149D01*
X178727353Y-121897153D01*
X178836616Y-121977792D01*
X178836617Y-121977792D01*
X178836618Y-121977793D01*
X178879345Y-121992744D01*
X178964799Y-122022646D01*
X178964803Y-122022647D01*
X178983242Y-122024375D01*
X178995230Y-122025500D01*
X179706308Y-122025500D01*
X179741240Y-122030521D01*
X179766484Y-122037934D01*
X179819230Y-122069230D01*
X180851073Y-123101073D01*
X180872223Y-123129325D01*
X180884831Y-123152414D01*
X180900000Y-123211843D01*
X180900000Y-125200000D01*
X181900000Y-126200000D01*
X192700000Y-126200000D01*
X193024564Y-125875434D01*
X193052818Y-125854285D01*
X193054760Y-125853225D01*
X193066536Y-125846795D01*
X193134792Y-125831944D01*
X193136602Y-125832073D01*
X193194790Y-125851433D01*
X193201303Y-125855619D01*
X193221947Y-125872252D01*
X193297271Y-125947575D01*
X193441507Y-126036542D01*
X193441518Y-126036547D01*
X193602393Y-126089855D01*
X193701683Y-126099999D01*
X194250000Y-126099999D01*
X194298296Y-126099999D01*
X194298308Y-126099999D01*
X194298322Y-126099998D01*
X194397607Y-126089855D01*
X194558481Y-126036547D01*
X194558492Y-126036542D01*
X194702728Y-125947575D01*
X194702732Y-125947572D01*
X194822572Y-125827732D01*
X194822575Y-125827728D01*
X194911542Y-125683492D01*
X194911547Y-125683481D01*
X194919729Y-125658791D01*
X194935932Y-125609892D01*
X194964855Y-125522606D01*
X194974999Y-125423322D01*
X194975000Y-125423309D01*
X194975000Y-125400000D01*
X194250000Y-125400000D01*
X194250000Y-126099999D01*
X193701683Y-126099999D01*
X193749999Y-126099998D01*
X193750000Y-126099998D01*
X193750000Y-125291829D01*
X193755023Y-125256893D01*
X193759427Y-125241895D01*
X193769069Y-125226886D01*
X193769685Y-125224790D01*
X193771334Y-125223360D01*
X193797172Y-125183144D01*
X193798541Y-125181957D01*
X193853420Y-125154477D01*
X193860979Y-125152833D01*
X193887332Y-125150000D01*
X194000000Y-125150000D01*
X194000000Y-125041829D01*
X194005023Y-125006893D01*
X194009427Y-124991895D01*
X194047172Y-124933144D01*
X194048541Y-124931957D01*
X194103420Y-124904477D01*
X194110979Y-124902833D01*
X194137332Y-124900000D01*
X194974999Y-124900000D01*
X194974999Y-124876696D01*
X194974999Y-124876692D01*
X194974998Y-124876677D01*
X194964855Y-124777392D01*
X194911547Y-124616518D01*
X194911542Y-124616507D01*
X194822575Y-124472271D01*
X194748920Y-124398615D01*
X194727774Y-124370365D01*
X194715164Y-124347272D01*
X194700000Y-124287851D01*
X194700000Y-123200000D01*
X194399426Y-122899426D01*
X194378274Y-122871170D01*
X194365667Y-122848081D01*
X194350500Y-122788656D01*
X194350500Y-122753858D01*
X194350500Y-122753856D01*
X194326614Y-122664712D01*
X194314540Y-122643799D01*
X194280470Y-122584788D01*
X193849326Y-122153644D01*
X193828174Y-122125388D01*
X193815567Y-122102299D01*
X193800400Y-122042874D01*
X193800400Y-121674557D01*
X193781728Y-121604874D01*
X193778563Y-121588960D01*
X193776460Y-121572981D01*
X193775400Y-121556801D01*
X193775400Y-121513029D01*
X193780423Y-121478093D01*
X193784827Y-121463095D01*
X193822572Y-121404344D01*
X193823941Y-121403157D01*
X193878820Y-121375677D01*
X193886379Y-121374033D01*
X193912732Y-121371200D01*
X194982570Y-121371200D01*
X195017506Y-121376223D01*
G37*
%TD.AperFunction*%
%TD*%
%TA.AperFunction,Conductor*%
%TO.N,INHA*%
G36*
X196810797Y-132332520D02*
G01*
X196813141Y-132335878D01*
X197405015Y-133614340D01*
X197405381Y-133623287D01*
X197399968Y-133629544D01*
X196665570Y-134027077D01*
X196656663Y-134028002D01*
X196654430Y-134027077D01*
X195920031Y-133629544D01*
X195914387Y-133622592D01*
X195914984Y-133614340D01*
X196506859Y-132335878D01*
X196513444Y-132329810D01*
X196517476Y-132329093D01*
X196802524Y-132329093D01*
X196810797Y-132332520D01*
G37*
%TD.AperFunction*%
%TD*%
%TA.AperFunction,Conductor*%
%TO.N,INLB*%
G36*
X200291541Y-135262545D02*
G01*
X200299336Y-135265962D01*
X200498320Y-135464946D01*
X200500855Y-135468739D01*
X200502049Y-135471620D01*
X200502223Y-135480130D01*
X200017987Y-136799240D01*
X200015610Y-136803134D01*
X200014259Y-136804600D01*
X200006493Y-136808344D01*
X200004991Y-136808452D01*
X200000815Y-136807996D01*
X199204698Y-136571070D01*
X199200661Y-136568939D01*
X199197982Y-136566764D01*
X199194142Y-136561018D01*
X198957055Y-135764362D01*
X198956632Y-135759819D01*
X198956838Y-135757831D01*
X198960819Y-135750195D01*
X198961956Y-135749211D01*
X198965576Y-135747077D01*
X200283919Y-135263124D01*
X200288425Y-135262418D01*
X200291541Y-135262545D01*
G37*
%TD.AperFunction*%
%TD*%
%TA.AperFunction,Conductor*%
%TO.N,INLA*%
G36*
X197755049Y-135262689D02*
G01*
X197758407Y-135265033D01*
X197959966Y-135466592D01*
X197963393Y-135474865D01*
X197962676Y-135478897D01*
X197477186Y-136801425D01*
X197471118Y-136808010D01*
X197462866Y-136808607D01*
X196662469Y-136570407D01*
X196655517Y-136564763D01*
X196654592Y-136562530D01*
X196416392Y-135762133D01*
X196417317Y-135753226D01*
X196423571Y-135747814D01*
X197746103Y-135262323D01*
X197755049Y-135262689D01*
G37*
%TD.AperFunction*%
%TD*%
%TA.AperFunction,Conductor*%
%TO.N,INHB*%
G36*
X199223056Y-132281358D02*
G01*
X199411315Y-132469617D01*
X199414742Y-132477890D01*
X199411315Y-132486163D01*
X199405251Y-132489380D01*
X199350000Y-132500000D01*
X199944161Y-133614053D01*
X199945030Y-133622966D01*
X199939407Y-133629848D01*
X199205570Y-134027077D01*
X199196663Y-134028002D01*
X199194430Y-134027077D01*
X198460592Y-133629848D01*
X198454948Y-133622896D01*
X198455837Y-133614055D01*
X199050000Y-132500000D01*
X199055732Y-132486163D01*
X199093043Y-132396084D01*
X199095576Y-132392291D01*
X199206510Y-132281358D01*
X199214783Y-132277931D01*
X199223056Y-132281358D01*
G37*
%TD.AperFunction*%
%TD*%
%TA.AperFunction,Conductor*%
%TO.N,INHC*%
G36*
X202325909Y-132473829D02*
G01*
X202529230Y-132677150D01*
X202532578Y-132684064D01*
X202588995Y-133166415D01*
X202586552Y-133175030D01*
X202582089Y-133178482D01*
X201233027Y-133772444D01*
X201224074Y-133772641D01*
X201218077Y-133767404D01*
X200895938Y-133185722D01*
X200894927Y-133176825D01*
X200900505Y-133169819D01*
X200900952Y-133169584D01*
X202312451Y-132471613D01*
X202321385Y-132471019D01*
X202325909Y-132473829D01*
G37*
%TD.AperFunction*%
%TD*%
%TA.AperFunction,Conductor*%
%TO.N,INLC*%
G36*
X203000146Y-135492696D02*
G01*
X203003236Y-135494912D01*
X203203799Y-135695475D01*
X203207226Y-135703748D01*
X203205587Y-135709721D01*
X202348057Y-137154221D01*
X202340887Y-137159585D01*
X202332023Y-137158309D01*
X202330493Y-137157226D01*
X201906685Y-136803064D01*
X201902535Y-136795129D01*
X201902706Y-136791839D01*
X202097274Y-135800989D01*
X202102231Y-135793533D01*
X202104999Y-135792164D01*
X202991211Y-135492103D01*
X203000146Y-135492696D01*
G37*
%TD.AperFunction*%
%TD*%
%TA.AperFunction,Conductor*%
%TO.N,MCU_VREF*%
G36*
X200257530Y-106494592D02*
G01*
X200264482Y-106500236D01*
X200265407Y-106502469D01*
X200503607Y-107302866D01*
X200502682Y-107311773D01*
X200496425Y-107317186D01*
X199173897Y-107802676D01*
X199164950Y-107802310D01*
X199161592Y-107799966D01*
X198960033Y-107598407D01*
X198956606Y-107590134D01*
X198957322Y-107586105D01*
X199442814Y-106263572D01*
X199448881Y-106256989D01*
X199457132Y-106256392D01*
X200257530Y-106494592D01*
G37*
%TD.AperFunction*%
%TD*%
M02*
