M48
; DRILL file KiCad 10.0.6 date 2026-09-22T01:33:11
; FORMAT={-:-/ absolute / metric / decimal}
; #@! TF.CreationDate,2026-09-22T01:33:11+08:00
; #@! TF.GenerationSoftware,Kicad,Pcbnew,10.0.6
; #@! TF.FileFunction,MixedPlating,1,4
FMAT,2
METRIC
; #@! TA.AperFunction,Plated,PTH,ViaDrill
T1C0.300
; #@! TA.AperFunction,Plated,PTH,ComponentDrill
T2C0.300
; #@! TA.AperFunction,Plated,PTH,ComponentDrill
T3C1.000
; #@! TA.AperFunction,Plated,PTH,ComponentDrill
T4C1.100
; #@! TA.AperFunction,Plated,PTH,ComponentDrill
T5C1.800
; #@! TA.AperFunction,Plated,PTH,ComponentDrill
T6C1.900
%
G90
G05
T1
X163.7Y-112.9
X166.7Y-132.9
X166.7Y-136.0
X168.75Y-123.65
X170.2Y-132.9
X170.2Y-136.0
X170.25Y-111.5
X173.7Y-132.9
X173.7Y-136.0
X173.8Y-123.95
X173.9Y-121.8
X174.5Y-111.5
X178.5Y-136.75
X178.5Y-138.5
X178.969Y-119.6
X179.35Y-114.5
X179.35Y-117.5
X180.5Y-106.05
X180.5Y-108.25
X180.5Y-110.5
X180.75Y-136.75
X180.75Y-138.5
X181.25Y-114.5
X181.25Y-117.5
X183.0Y-136.75
X183.0Y-138.5
X184.05Y-115.45
X184.55Y-106.05
X184.55Y-108.25
X184.9Y-116.6
X185.0Y-120.4
X185.0Y-121.5
X185.0Y-122.8
X185.5Y-112.25
X185.5Y-130.2
X185.5Y-130.95
X185.6Y-125.3
X185.65Y-115.45
X186.1Y-116.6
X187.0Y-112.25
X187.1Y-115.45
X187.2Y-116.6
X188.15Y-131.55
X188.3Y-116.6
X188.5Y-106.05
X190.85Y-131.65
X191.264Y-122.848
X191.75Y-131.65
X192.55Y-106.05
X193.6Y-131.65
X195.15Y-131.65
X195.9Y-115.4
X197.25Y-124.35
X197.25Y-125.25
X197.25Y-126.25
X197.3Y-120.4
X197.35Y-118.25
X198.3Y-113.4
X198.55Y-125.25
X198.55Y-126.25
X200.05Y-125.3
X200.05Y-126.25
X201.5Y-125.3
X208.0Y-106.0
X208.0Y-108.0
X208.5Y-131.5
X211.0Y-106.0
X211.0Y-108.0
X211.0Y-110.0
X211.0Y-129.2
X211.0Y-131.5
T2
X190.7Y-118.321
X190.7Y-119.321
X190.7Y-120.321
X192.7Y-118.321
X192.7Y-119.321
X192.7Y-120.321
X194.7Y-118.321
X194.7Y-119.321
X194.7Y-120.321
T3
X157.96Y-113.025
X157.96Y-115.565
X157.96Y-118.105
X157.96Y-120.645
X157.96Y-123.185
X157.96Y-125.725
X157.96Y-128.265
X157.96Y-130.805
X157.96Y-133.345
X157.96Y-135.885
X160.5Y-113.025
X160.5Y-115.565
X160.5Y-118.105
X160.5Y-120.645
X160.5Y-123.185
X160.5Y-125.725
X160.5Y-128.265
X160.5Y-130.805
X160.5Y-133.345
X160.5Y-135.885
X186.42Y-134.0
X186.42Y-136.54
X188.96Y-134.0
X188.96Y-136.54
X191.5Y-134.0
X191.5Y-136.54
X195.18Y-106.5
X196.66Y-134.025
X196.66Y-136.565
X197.72Y-106.5
X199.2Y-134.025
X199.2Y-136.565
X200.26Y-106.5
X201.74Y-134.025
X201.74Y-136.565
X202.8Y-106.5
X211.0Y-112.7
X211.0Y-125.7
T4
X164.6Y-137.8
X175.6Y-137.8
T5
X167.6Y-127.8
X172.6Y-127.8
T6
G00X201.0Y-115.653
M15
G01X201.0Y-115.748
M16
G05
G00X201.0Y-119.152
M15
G01X201.0Y-119.247
M16
G05
G00X201.0Y-122.652
M15
G01X201.0Y-122.747
M16
G05
M30
