%TF.GenerationSoftware,KiCad,Pcbnew,10.0.6*%
%TF.CreationDate,2026-09-22T01:33:18+08:00*%
%TF.ProjectId,bldc-hat,626c6463-2d68-4617-942e-6b696361645f,rev?*%
%TF.SameCoordinates,Original*%
%TF.FileFunction,Soldermask,Bot*%
%TF.FilePolarity,Negative*%
%FSLAX46Y46*%
G04 Gerber Fmt 4.6, Leading zero omitted, Abs format (unit mm)*
G04 Created by KiCad (PCBNEW 10.0.6) date 2026-09-22 01:33:18*
%MOMM*%
%LPD*%
G01*
G04 APERTURE LIST*
%ADD10C,0.800000*%
%ADD11O,2.601600X2.601600*%
%ADD12O,1.901600X1.901600*%
%ADD13O,2.900000X2.900000*%
%ADD14O,1.800000X1.800000*%
%ADD15R,1.700000X1.700000*%
%ADD16C,1.700000*%
G04 APERTURE END LIST*
D10*
%TO.C,U1*%
X190700000Y-118320800D03*
X190700000Y-119320800D03*
X190700000Y-120320800D03*
X192700000Y-118320800D03*
X192700000Y-119320800D03*
X192700000Y-120320800D03*
X194700000Y-118320800D03*
X194700000Y-119320800D03*
X194700000Y-120320800D03*
%TD*%
D11*
%TO.C,CN1*%
X167600000Y-127800000D03*
X172600000Y-127800000D03*
D12*
X175600000Y-137800000D03*
X164600000Y-137800000D03*
%TD*%
D13*
%TO.C,U3*%
X201000000Y-122699900D03*
X201000000Y-119200000D03*
X201000000Y-115700100D03*
D14*
X211000000Y-112699900D03*
X211000000Y-125700100D03*
%TD*%
D15*
%TO.C,J5*%
X202800000Y-106500000D03*
D16*
X200260000Y-106500000D03*
X197720000Y-106500000D03*
X195180000Y-106500000D03*
%TD*%
D15*
%TO.C,J1*%
X191500000Y-134000000D03*
D16*
X191500000Y-136540000D03*
X188960000Y-134000000D03*
X188960000Y-136540000D03*
X186420000Y-134000000D03*
X186420000Y-136540000D03*
%TD*%
D15*
%TO.C,J4*%
X201740000Y-134025000D03*
D16*
X201740000Y-136565000D03*
X199200000Y-134025000D03*
X199200000Y-136565000D03*
X196660000Y-134025000D03*
X196660000Y-136565000D03*
%TD*%
D15*
%TO.C,J2*%
X157960000Y-113025000D03*
D16*
X160500000Y-113025000D03*
X157960000Y-115565000D03*
X160500000Y-115565000D03*
X157960000Y-118105000D03*
X160500000Y-118105000D03*
X157960000Y-120645000D03*
X160500000Y-120645000D03*
X157960000Y-123185000D03*
X160500000Y-123185000D03*
X157960000Y-125725000D03*
X160500000Y-125725000D03*
X157960000Y-128265000D03*
X160500000Y-128265000D03*
X157960000Y-130805000D03*
X160500000Y-130805000D03*
X157960000Y-133345000D03*
X160500000Y-133345000D03*
X157960000Y-135885000D03*
X160500000Y-135885000D03*
%TD*%
M02*
