%TF.GenerationSoftware,KiCad,Pcbnew,10.0.6*%
%TF.CreationDate,2026-09-22T01:33:18+08:00*%
%TF.ProjectId,bldc-hat,626c6463-2d68-4617-942e-6b696361645f,rev?*%
%TF.SameCoordinates,Original*%
%TF.FileFunction,Legend,Top*%
%TF.FilePolarity,Positive*%
%FSLAX46Y46*%
G04 Gerber Fmt 4.6, Leading zero omitted, Abs format (unit mm)*
G04 Created by KiCad (PCBNEW 10.0.6) date 2026-09-22 01:33:18*
%MOMM*%
%LPD*%
G01*
G04 APERTURE LIST*
%ADD10C,0.350000*%
%ADD11C,0.160000*%
%ADD12C,0.200000*%
%ADD13C,0.150000*%
%ADD14C,0.300000*%
%ADD15C,0.250000*%
%ADD16C,0.158750*%
%ADD17C,0.120000*%
%ADD18C,0.000000*%
%ADD19C,0.254000*%
%ADD20C,0.100000*%
%ADD21C,0.152000*%
G04 APERTURE END LIST*
D10*
G36*
X181957158Y-109986897D02*
G01*
X181979295Y-110009034D01*
X182019548Y-110089539D01*
X182019548Y-110221202D01*
X181979295Y-110301707D01*
X181948027Y-110332975D01*
X181867522Y-110373228D01*
X181512405Y-110373228D01*
X181512405Y-109937514D01*
X181809006Y-109937514D01*
X181957158Y-109986897D01*
G37*
G36*
X181876599Y-109263481D02*
G01*
X181907865Y-109294746D01*
X181948120Y-109375255D01*
X181948120Y-109435486D01*
X181907865Y-109515995D01*
X181876599Y-109547260D01*
X181796093Y-109587514D01*
X181512405Y-109587514D01*
X181512405Y-109223228D01*
X181796093Y-109223228D01*
X181876599Y-109263481D01*
G37*
G36*
X184528586Y-109272611D02*
G01*
X184622151Y-109366175D01*
X184672290Y-109466454D01*
X184733834Y-109712627D01*
X184733834Y-109883828D01*
X184672290Y-110130001D01*
X184622151Y-110230281D01*
X184528588Y-110323843D01*
X184380435Y-110373228D01*
X184226691Y-110373228D01*
X184226691Y-109223228D01*
X184380437Y-109223228D01*
X184528586Y-109272611D01*
G37*
G36*
X190233835Y-110368643D02*
G01*
X190224666Y-110373228D01*
X189950146Y-110373228D01*
X189896414Y-110346362D01*
X189869549Y-110292630D01*
X189869549Y-110232396D01*
X189896414Y-110178665D01*
X189950146Y-110151800D01*
X190233835Y-110151800D01*
X190233835Y-110368643D01*
G37*
G36*
X191826900Y-110898228D02*
G01*
X180987405Y-110898228D01*
X180987405Y-109048228D01*
X181162405Y-109048228D01*
X181162405Y-110548228D01*
X181165768Y-110582369D01*
X181191898Y-110645453D01*
X181240180Y-110693735D01*
X181303264Y-110719865D01*
X181337405Y-110723228D01*
X181908834Y-110723228D01*
X181942975Y-110719865D01*
X181948784Y-110717458D01*
X181955055Y-110717013D01*
X181987096Y-110704753D01*
X182129953Y-110633325D01*
X182144648Y-110624074D01*
X182148915Y-110622307D01*
X182153719Y-110618363D01*
X182158986Y-110615049D01*
X182162014Y-110611557D01*
X182175435Y-110600544D01*
X182246864Y-110529115D01*
X182257877Y-110515694D01*
X182261369Y-110512666D01*
X182264683Y-110507399D01*
X182268627Y-110502595D01*
X182270394Y-110498328D01*
X182279645Y-110483633D01*
X182351073Y-110340776D01*
X182363333Y-110308735D01*
X182363778Y-110302464D01*
X182366185Y-110296655D01*
X182369548Y-110262514D01*
X182369548Y-110048228D01*
X182366185Y-110014087D01*
X182363778Y-110008277D01*
X182363333Y-110002007D01*
X182351073Y-109969966D01*
X182279645Y-109827109D01*
X182270394Y-109812413D01*
X182268627Y-109808147D01*
X182264683Y-109803342D01*
X182261369Y-109798076D01*
X182257877Y-109795047D01*
X182246864Y-109781627D01*
X182190808Y-109725571D01*
X182193250Y-109721692D01*
X182197198Y-109716882D01*
X182198966Y-109712612D01*
X182208216Y-109697920D01*
X182279644Y-109555063D01*
X182291905Y-109523022D01*
X182292350Y-109516750D01*
X182294757Y-109510941D01*
X182298120Y-109476800D01*
X182298120Y-109333942D01*
X182294757Y-109299801D01*
X182292350Y-109293991D01*
X182291905Y-109287720D01*
X182279644Y-109255679D01*
X182208216Y-109112822D01*
X182198966Y-109098129D01*
X182197198Y-109093860D01*
X182193250Y-109089049D01*
X182189939Y-109083790D01*
X182186450Y-109080764D01*
X182175434Y-109067341D01*
X182156321Y-109048228D01*
X182662405Y-109048228D01*
X182662405Y-110548228D01*
X182665768Y-110582369D01*
X182691898Y-110645453D01*
X182740180Y-110693735D01*
X182803264Y-110719865D01*
X182837405Y-110723228D01*
X183551691Y-110723228D01*
X183585832Y-110719865D01*
X183648916Y-110693735D01*
X183697198Y-110645453D01*
X183723328Y-110582369D01*
X183723328Y-110514087D01*
X183697198Y-110451003D01*
X183648916Y-110402721D01*
X183585832Y-110376591D01*
X183551691Y-110373228D01*
X183012405Y-110373228D01*
X183012405Y-109048228D01*
X183876691Y-109048228D01*
X183876691Y-110548228D01*
X183880054Y-110582369D01*
X183906184Y-110645453D01*
X183954466Y-110693735D01*
X184017550Y-110719865D01*
X184051691Y-110723228D01*
X184408834Y-110723228D01*
X184426109Y-110721526D01*
X184430721Y-110721854D01*
X184436788Y-110720474D01*
X184442975Y-110719865D01*
X184447241Y-110718097D01*
X184464173Y-110714248D01*
X184678459Y-110642820D01*
X184709785Y-110628833D01*
X184714534Y-110624713D01*
X184720345Y-110622307D01*
X184746864Y-110600543D01*
X184889721Y-110457685D01*
X184900735Y-110444263D01*
X184904225Y-110441237D01*
X184907538Y-110435973D01*
X184911484Y-110431166D01*
X184913251Y-110426898D01*
X184922502Y-110412205D01*
X184993930Y-110269348D01*
X184994886Y-110266848D01*
X184995638Y-110265834D01*
X185000755Y-110251510D01*
X185006191Y-110237307D01*
X185006280Y-110236048D01*
X185007181Y-110233528D01*
X185078609Y-109947815D01*
X185079484Y-109941893D01*
X185080471Y-109939512D01*
X185081737Y-109926659D01*
X185083627Y-109913877D01*
X185083247Y-109911326D01*
X185083834Y-109905371D01*
X185083834Y-109691085D01*
X185305263Y-109691085D01*
X185305263Y-109905371D01*
X185305849Y-109911326D01*
X185305470Y-109913877D01*
X185307359Y-109926658D01*
X185308626Y-109939512D01*
X185309612Y-109941894D01*
X185310488Y-109947814D01*
X185381916Y-110233528D01*
X185382816Y-110236048D01*
X185382906Y-110237307D01*
X185388347Y-110251527D01*
X185393459Y-110265834D01*
X185394208Y-110266845D01*
X185395166Y-110269348D01*
X185466595Y-110412205D01*
X185475845Y-110426898D01*
X185477613Y-110431166D01*
X185481558Y-110435973D01*
X185484872Y-110441237D01*
X185488361Y-110444263D01*
X185499376Y-110457685D01*
X185642233Y-110600543D01*
X185668752Y-110622307D01*
X185674562Y-110624713D01*
X185679312Y-110628833D01*
X185710638Y-110642820D01*
X185924924Y-110714248D01*
X185941855Y-110718097D01*
X185946122Y-110719865D01*
X185952308Y-110720474D01*
X185958376Y-110721854D01*
X185962987Y-110721526D01*
X185980263Y-110723228D01*
X186123120Y-110723228D01*
X186140395Y-110721526D01*
X186145007Y-110721854D01*
X186151074Y-110720474D01*
X186157261Y-110719865D01*
X186161527Y-110718097D01*
X186178459Y-110714248D01*
X186392745Y-110642820D01*
X186424071Y-110628833D01*
X186428822Y-110624712D01*
X186434631Y-110622306D01*
X186461151Y-110600543D01*
X186532578Y-110529114D01*
X186554342Y-110502594D01*
X186580472Y-110439510D01*
X186580471Y-110371229D01*
X186554340Y-110308146D01*
X186506057Y-110259863D01*
X186442973Y-110233733D01*
X186374692Y-110233734D01*
X186311609Y-110259865D01*
X186285089Y-110281628D01*
X186242873Y-110323844D01*
X186094721Y-110373228D01*
X186008662Y-110373228D01*
X185860508Y-110323843D01*
X185766944Y-110230279D01*
X185716806Y-110130003D01*
X185655263Y-109883828D01*
X185655263Y-109712627D01*
X185716806Y-109466452D01*
X185766943Y-109366178D01*
X185860509Y-109272612D01*
X186008663Y-109223228D01*
X186094723Y-109223228D01*
X186242873Y-109272611D01*
X186285090Y-109314828D01*
X186311609Y-109336592D01*
X186374693Y-109362722D01*
X186442974Y-109362722D01*
X186506058Y-109336592D01*
X186554341Y-109288309D01*
X186580471Y-109225225D01*
X186580471Y-109156944D01*
X186554341Y-109093860D01*
X186532577Y-109067341D01*
X186513464Y-109048228D01*
X188019548Y-109048228D01*
X188019548Y-110548228D01*
X188022911Y-110582369D01*
X188049041Y-110645453D01*
X188097323Y-110693735D01*
X188160407Y-110719865D01*
X188228689Y-110719865D01*
X188291773Y-110693735D01*
X188340055Y-110645453D01*
X188366185Y-110582369D01*
X188369548Y-110548228D01*
X188369548Y-109937514D01*
X188876691Y-109937514D01*
X188876691Y-110548228D01*
X188880054Y-110582369D01*
X188906184Y-110645453D01*
X188954466Y-110693735D01*
X189017550Y-110719865D01*
X189085832Y-110719865D01*
X189148916Y-110693735D01*
X189197198Y-110645453D01*
X189223328Y-110582369D01*
X189226691Y-110548228D01*
X189226691Y-110191085D01*
X189519549Y-110191085D01*
X189519549Y-110333942D01*
X189522912Y-110368083D01*
X189525318Y-110373892D01*
X189525764Y-110380163D01*
X189538024Y-110412204D01*
X189609452Y-110555062D01*
X189613045Y-110560770D01*
X189613944Y-110563466D01*
X189616855Y-110566822D01*
X189627728Y-110584095D01*
X189644307Y-110598474D01*
X189658683Y-110615049D01*
X189675953Y-110625920D01*
X189679311Y-110628833D01*
X189682006Y-110629731D01*
X189687715Y-110633325D01*
X189830574Y-110704753D01*
X189862614Y-110717014D01*
X189868887Y-110717459D01*
X189874694Y-110719865D01*
X189908835Y-110723228D01*
X190265977Y-110723228D01*
X190300118Y-110719865D01*
X190305927Y-110717458D01*
X190312198Y-110717013D01*
X190341105Y-110705952D01*
X190374694Y-110719865D01*
X190442976Y-110719865D01*
X190506060Y-110693735D01*
X190554342Y-110645453D01*
X190580472Y-110582369D01*
X190583835Y-110548228D01*
X190583835Y-109762514D01*
X190580472Y-109728373D01*
X190578065Y-109722563D01*
X190577620Y-109716292D01*
X190565359Y-109684251D01*
X190493931Y-109541394D01*
X190490336Y-109535684D01*
X190489439Y-109532992D01*
X190486529Y-109529637D01*
X190476740Y-109514087D01*
X190737198Y-109514087D01*
X190737198Y-109582369D01*
X190763328Y-109645453D01*
X190811610Y-109693735D01*
X190874694Y-109719865D01*
X190908835Y-109723228D01*
X190948120Y-109723228D01*
X190948120Y-110333942D01*
X190951483Y-110368083D01*
X190953889Y-110373892D01*
X190954335Y-110380164D01*
X190966595Y-110412204D01*
X191038024Y-110555062D01*
X191041617Y-110560770D01*
X191042516Y-110563466D01*
X191045427Y-110566822D01*
X191056300Y-110584095D01*
X191072875Y-110598471D01*
X191087254Y-110615049D01*
X191104529Y-110625923D01*
X191107884Y-110628833D01*
X191110577Y-110629730D01*
X191116287Y-110633325D01*
X191259144Y-110704753D01*
X191291185Y-110717013D01*
X191297455Y-110717458D01*
X191303265Y-110719865D01*
X191337406Y-110723228D01*
X191480263Y-110723228D01*
X191514404Y-110719865D01*
X191577488Y-110693735D01*
X191625770Y-110645453D01*
X191651900Y-110582369D01*
X191651900Y-110514087D01*
X191625770Y-110451003D01*
X191577488Y-110402721D01*
X191514404Y-110376591D01*
X191480263Y-110373228D01*
X191378718Y-110373228D01*
X191324986Y-110346362D01*
X191298120Y-110292630D01*
X191298120Y-109723228D01*
X191480263Y-109723228D01*
X191514404Y-109719865D01*
X191577488Y-109693735D01*
X191625770Y-109645453D01*
X191651900Y-109582369D01*
X191651900Y-109514087D01*
X191625770Y-109451003D01*
X191577488Y-109402721D01*
X191514404Y-109376591D01*
X191480263Y-109373228D01*
X191298120Y-109373228D01*
X191298120Y-109048228D01*
X191294757Y-109014087D01*
X191268627Y-108951003D01*
X191220345Y-108902721D01*
X191157261Y-108876591D01*
X191088979Y-108876591D01*
X191025895Y-108902721D01*
X190977613Y-108951003D01*
X190951483Y-109014087D01*
X190948120Y-109048228D01*
X190948120Y-109373228D01*
X190908835Y-109373228D01*
X190874694Y-109376591D01*
X190811610Y-109402721D01*
X190763328Y-109451003D01*
X190737198Y-109514087D01*
X190476740Y-109514087D01*
X190475654Y-109512362D01*
X190459076Y-109497984D01*
X190444701Y-109481409D01*
X190427429Y-109470535D01*
X190424071Y-109467623D01*
X190421375Y-109466724D01*
X190415669Y-109463132D01*
X190272812Y-109391703D01*
X190240771Y-109379443D01*
X190234499Y-109378997D01*
X190228690Y-109376591D01*
X190194549Y-109373228D01*
X189908835Y-109373228D01*
X189874694Y-109376591D01*
X189868884Y-109378997D01*
X189862613Y-109379443D01*
X189830573Y-109391703D01*
X189687715Y-109463132D01*
X189658682Y-109481409D01*
X189613944Y-109532992D01*
X189592351Y-109597769D01*
X189597192Y-109665879D01*
X189627729Y-109726952D01*
X189679312Y-109771690D01*
X189744089Y-109793283D01*
X189812199Y-109788442D01*
X189844239Y-109776182D01*
X189950147Y-109723228D01*
X190153236Y-109723228D01*
X190206968Y-109750093D01*
X190231190Y-109798537D01*
X190224665Y-109801800D01*
X189908835Y-109801800D01*
X189874694Y-109805163D01*
X189868887Y-109807568D01*
X189862614Y-109808014D01*
X189830574Y-109820275D01*
X189687715Y-109891703D01*
X189682005Y-109895297D01*
X189679312Y-109896195D01*
X189675956Y-109899104D01*
X189658683Y-109909979D01*
X189644306Y-109926554D01*
X189627728Y-109940933D01*
X189616855Y-109958205D01*
X189613944Y-109961562D01*
X189613045Y-109964257D01*
X189609452Y-109969966D01*
X189538024Y-110112823D01*
X189525764Y-110144864D01*
X189525318Y-110151134D01*
X189522912Y-110156944D01*
X189519549Y-110191085D01*
X189226691Y-110191085D01*
X189226691Y-109048228D01*
X189223328Y-109014087D01*
X189197198Y-108951003D01*
X189148916Y-108902721D01*
X189085832Y-108876591D01*
X189017550Y-108876591D01*
X188954466Y-108902721D01*
X188906184Y-108951003D01*
X188880054Y-109014087D01*
X188876691Y-109048228D01*
X188876691Y-109587514D01*
X188369548Y-109587514D01*
X188369548Y-109048228D01*
X188366185Y-109014087D01*
X188340055Y-108951003D01*
X188291773Y-108902721D01*
X188228689Y-108876591D01*
X188160407Y-108876591D01*
X188097323Y-108902721D01*
X188049041Y-108951003D01*
X188022911Y-109014087D01*
X188019548Y-109048228D01*
X186513464Y-109048228D01*
X186461150Y-108995913D01*
X186434630Y-108974150D01*
X186428821Y-108971744D01*
X186424071Y-108967624D01*
X186392746Y-108953637D01*
X186178460Y-108882209D01*
X186161531Y-108878360D01*
X186157261Y-108876591D01*
X186151068Y-108875981D01*
X186145008Y-108874603D01*
X186140401Y-108874930D01*
X186123120Y-108873228D01*
X185980263Y-108873228D01*
X185962981Y-108874930D01*
X185958375Y-108874603D01*
X185952314Y-108875981D01*
X185946122Y-108876591D01*
X185941851Y-108878360D01*
X185924923Y-108882209D01*
X185710637Y-108953638D01*
X185679311Y-108967624D01*
X185674560Y-108971744D01*
X185668752Y-108974150D01*
X185642233Y-108995914D01*
X185499376Y-109138770D01*
X185488360Y-109152193D01*
X185484872Y-109155219D01*
X185481559Y-109160481D01*
X185477613Y-109165290D01*
X185475845Y-109169557D01*
X185466595Y-109184251D01*
X185395166Y-109327108D01*
X185394208Y-109329610D01*
X185393459Y-109330622D01*
X185388347Y-109344928D01*
X185382906Y-109359149D01*
X185382816Y-109360407D01*
X185381916Y-109362928D01*
X185310488Y-109648642D01*
X185309612Y-109654561D01*
X185308626Y-109656944D01*
X185307359Y-109669797D01*
X185305470Y-109682579D01*
X185305849Y-109685129D01*
X185305263Y-109691085D01*
X185083834Y-109691085D01*
X185083247Y-109685129D01*
X185083627Y-109682579D01*
X185081737Y-109669796D01*
X185080471Y-109656944D01*
X185079484Y-109654562D01*
X185078609Y-109648641D01*
X185007181Y-109362928D01*
X185006280Y-109360407D01*
X185006191Y-109359149D01*
X185000755Y-109344945D01*
X184995638Y-109330622D01*
X184994886Y-109329607D01*
X184993930Y-109327108D01*
X184922502Y-109184251D01*
X184913252Y-109169558D01*
X184911484Y-109165289D01*
X184907536Y-109160478D01*
X184904225Y-109155219D01*
X184900736Y-109152193D01*
X184889720Y-109138770D01*
X184746864Y-108995913D01*
X184720344Y-108974150D01*
X184714535Y-108971744D01*
X184709785Y-108967624D01*
X184678460Y-108953637D01*
X184464174Y-108882209D01*
X184447245Y-108878360D01*
X184442975Y-108876591D01*
X184436782Y-108875981D01*
X184430722Y-108874603D01*
X184426115Y-108874930D01*
X184408834Y-108873228D01*
X184051691Y-108873228D01*
X184017550Y-108876591D01*
X183954466Y-108902721D01*
X183906184Y-108951003D01*
X183880054Y-109014087D01*
X183876691Y-109048228D01*
X183012405Y-109048228D01*
X183009042Y-109014087D01*
X182982912Y-108951003D01*
X182934630Y-108902721D01*
X182871546Y-108876591D01*
X182803264Y-108876591D01*
X182740180Y-108902721D01*
X182691898Y-108951003D01*
X182665768Y-109014087D01*
X182662405Y-109048228D01*
X182156321Y-109048228D01*
X182104007Y-108995913D01*
X182090586Y-108984899D01*
X182087558Y-108981408D01*
X182082291Y-108978093D01*
X182077487Y-108974150D01*
X182073220Y-108972382D01*
X182058525Y-108963132D01*
X181915667Y-108891703D01*
X181883627Y-108879443D01*
X181877355Y-108878997D01*
X181871546Y-108876591D01*
X181837405Y-108873228D01*
X181337405Y-108873228D01*
X181303264Y-108876591D01*
X181240180Y-108902721D01*
X181191898Y-108951003D01*
X181165768Y-109014087D01*
X181162405Y-109048228D01*
X180987405Y-109048228D01*
X180987405Y-108698228D01*
X191826900Y-108698228D01*
X191826900Y-110898228D01*
G37*
D11*
X158130953Y-110823346D02*
X157521429Y-110823346D01*
X157673810Y-111013822D02*
X157521429Y-110823346D01*
X157521429Y-110823346D02*
X157673810Y-110632870D01*
X158778571Y-110680489D02*
X158892857Y-110728108D01*
X158892857Y-110728108D02*
X158930952Y-110775727D01*
X158930952Y-110775727D02*
X158969048Y-110870965D01*
X158969048Y-110870965D02*
X158969048Y-111013822D01*
X158969048Y-111013822D02*
X158930952Y-111109060D01*
X158930952Y-111109060D02*
X158892857Y-111156680D01*
X158892857Y-111156680D02*
X158816667Y-111204299D01*
X158816667Y-111204299D02*
X158511905Y-111204299D01*
X158511905Y-111204299D02*
X158511905Y-110204299D01*
X158511905Y-110204299D02*
X158778571Y-110204299D01*
X158778571Y-110204299D02*
X158854762Y-110251918D01*
X158854762Y-110251918D02*
X158892857Y-110299537D01*
X158892857Y-110299537D02*
X158930952Y-110394775D01*
X158930952Y-110394775D02*
X158930952Y-110490013D01*
X158930952Y-110490013D02*
X158892857Y-110585251D01*
X158892857Y-110585251D02*
X158854762Y-110632870D01*
X158854762Y-110632870D02*
X158778571Y-110680489D01*
X158778571Y-110680489D02*
X158511905Y-110680489D01*
X159464286Y-110204299D02*
X159616667Y-110204299D01*
X159616667Y-110204299D02*
X159692857Y-110251918D01*
X159692857Y-110251918D02*
X159769048Y-110347156D01*
X159769048Y-110347156D02*
X159807143Y-110537632D01*
X159807143Y-110537632D02*
X159807143Y-110870965D01*
X159807143Y-110870965D02*
X159769048Y-111061441D01*
X159769048Y-111061441D02*
X159692857Y-111156680D01*
X159692857Y-111156680D02*
X159616667Y-111204299D01*
X159616667Y-111204299D02*
X159464286Y-111204299D01*
X159464286Y-111204299D02*
X159388095Y-111156680D01*
X159388095Y-111156680D02*
X159311905Y-111061441D01*
X159311905Y-111061441D02*
X159273809Y-110870965D01*
X159273809Y-110870965D02*
X159273809Y-110537632D01*
X159273809Y-110537632D02*
X159311905Y-110347156D01*
X159311905Y-110347156D02*
X159388095Y-110251918D01*
X159388095Y-110251918D02*
X159464286Y-110204299D01*
X160302381Y-110204299D02*
X160454762Y-110204299D01*
X160454762Y-110204299D02*
X160530952Y-110251918D01*
X160530952Y-110251918D02*
X160607143Y-110347156D01*
X160607143Y-110347156D02*
X160645238Y-110537632D01*
X160645238Y-110537632D02*
X160645238Y-110870965D01*
X160645238Y-110870965D02*
X160607143Y-111061441D01*
X160607143Y-111061441D02*
X160530952Y-111156680D01*
X160530952Y-111156680D02*
X160454762Y-111204299D01*
X160454762Y-111204299D02*
X160302381Y-111204299D01*
X160302381Y-111204299D02*
X160226190Y-111156680D01*
X160226190Y-111156680D02*
X160150000Y-111061441D01*
X160150000Y-111061441D02*
X160111904Y-110870965D01*
X160111904Y-110870965D02*
X160111904Y-110537632D01*
X160111904Y-110537632D02*
X160150000Y-110347156D01*
X160150000Y-110347156D02*
X160226190Y-110251918D01*
X160226190Y-110251918D02*
X160302381Y-110204299D01*
X160873809Y-110204299D02*
X161330952Y-110204299D01*
X161102380Y-111204299D02*
X161102380Y-110204299D01*
X162016666Y-111204299D02*
X161559523Y-111204299D01*
X161788095Y-111204299D02*
X161788095Y-110204299D01*
X161788095Y-110204299D02*
X161711904Y-110347156D01*
X161711904Y-110347156D02*
X161635714Y-110442394D01*
X161635714Y-110442394D02*
X161559523Y-110490013D01*
D12*
X181226816Y-111367219D02*
X181560149Y-112367219D01*
X181560149Y-112367219D02*
X181893482Y-111367219D01*
X182750625Y-112367219D02*
X182179197Y-112367219D01*
X182464911Y-112367219D02*
X182464911Y-111367219D01*
X182464911Y-111367219D02*
X182369673Y-111510076D01*
X182369673Y-111510076D02*
X182274435Y-111605314D01*
X182274435Y-111605314D02*
X182179197Y-111652933D01*
X183179197Y-112271980D02*
X183226816Y-112319600D01*
X183226816Y-112319600D02*
X183179197Y-112367219D01*
X183179197Y-112367219D02*
X183131578Y-112319600D01*
X183131578Y-112319600D02*
X183179197Y-112271980D01*
X183179197Y-112271980D02*
X183179197Y-112367219D01*
X183845863Y-111367219D02*
X183941101Y-111367219D01*
X183941101Y-111367219D02*
X184036339Y-111414838D01*
X184036339Y-111414838D02*
X184083958Y-111462457D01*
X184083958Y-111462457D02*
X184131577Y-111557695D01*
X184131577Y-111557695D02*
X184179196Y-111748171D01*
X184179196Y-111748171D02*
X184179196Y-111986266D01*
X184179196Y-111986266D02*
X184131577Y-112176742D01*
X184131577Y-112176742D02*
X184083958Y-112271980D01*
X184083958Y-112271980D02*
X184036339Y-112319600D01*
X184036339Y-112319600D02*
X183941101Y-112367219D01*
X183941101Y-112367219D02*
X183845863Y-112367219D01*
X183845863Y-112367219D02*
X183750625Y-112319600D01*
X183750625Y-112319600D02*
X183703006Y-112271980D01*
X183703006Y-112271980D02*
X183655387Y-112176742D01*
X183655387Y-112176742D02*
X183607768Y-111986266D01*
X183607768Y-111986266D02*
X183607768Y-111748171D01*
X183607768Y-111748171D02*
X183655387Y-111557695D01*
X183655387Y-111557695D02*
X183703006Y-111462457D01*
X183703006Y-111462457D02*
X183750625Y-111414838D01*
X183750625Y-111414838D02*
X183845863Y-111367219D01*
X185488720Y-107391028D02*
X185441101Y-107343409D01*
X185441101Y-107343409D02*
X185345863Y-107295790D01*
X185345863Y-107295790D02*
X185250625Y-107295790D01*
X185250625Y-107295790D02*
X185155387Y-107343409D01*
X185155387Y-107343409D02*
X185107768Y-107391028D01*
X185107768Y-107391028D02*
X185060149Y-107486266D01*
X185060149Y-107486266D02*
X185060149Y-107581504D01*
X185060149Y-107581504D02*
X185107768Y-107676742D01*
X185107768Y-107676742D02*
X185155387Y-107724361D01*
X185155387Y-107724361D02*
X185250625Y-107771980D01*
X185250625Y-107771980D02*
X185345863Y-107771980D01*
X185345863Y-107771980D02*
X185441101Y-107724361D01*
X185441101Y-107724361D02*
X185488720Y-107676742D01*
X185488720Y-107295790D02*
X185488720Y-107676742D01*
X185488720Y-107676742D02*
X185536339Y-107724361D01*
X185536339Y-107724361D02*
X185583958Y-107724361D01*
X185583958Y-107724361D02*
X185679197Y-107676742D01*
X185679197Y-107676742D02*
X185726816Y-107581504D01*
X185726816Y-107581504D02*
X185726816Y-107343409D01*
X185726816Y-107343409D02*
X185631578Y-107200552D01*
X185631578Y-107200552D02*
X185488720Y-107105314D01*
X185488720Y-107105314D02*
X185298244Y-107057695D01*
X185298244Y-107057695D02*
X185107768Y-107105314D01*
X185107768Y-107105314D02*
X184964911Y-107200552D01*
X184964911Y-107200552D02*
X184869673Y-107343409D01*
X184869673Y-107343409D02*
X184822054Y-107533885D01*
X184822054Y-107533885D02*
X184869673Y-107724361D01*
X184869673Y-107724361D02*
X184964911Y-107867219D01*
X184964911Y-107867219D02*
X185107768Y-107962457D01*
X185107768Y-107962457D02*
X185298244Y-108010076D01*
X185298244Y-108010076D02*
X185488720Y-107962457D01*
X185488720Y-107962457D02*
X185631578Y-107867219D01*
X186536339Y-107819600D02*
X186441101Y-107867219D01*
X186441101Y-107867219D02*
X186250625Y-107867219D01*
X186250625Y-107867219D02*
X186155387Y-107819600D01*
X186155387Y-107819600D02*
X186107768Y-107724361D01*
X186107768Y-107724361D02*
X186107768Y-107343409D01*
X186107768Y-107343409D02*
X186155387Y-107248171D01*
X186155387Y-107248171D02*
X186250625Y-107200552D01*
X186250625Y-107200552D02*
X186441101Y-107200552D01*
X186441101Y-107200552D02*
X186536339Y-107248171D01*
X186536339Y-107248171D02*
X186583958Y-107343409D01*
X186583958Y-107343409D02*
X186583958Y-107438647D01*
X186583958Y-107438647D02*
X186107768Y-107533885D01*
X187441101Y-107200552D02*
X187441101Y-108010076D01*
X187441101Y-108010076D02*
X187393482Y-108105314D01*
X187393482Y-108105314D02*
X187345863Y-108152933D01*
X187345863Y-108152933D02*
X187250625Y-108200552D01*
X187250625Y-108200552D02*
X187107768Y-108200552D01*
X187107768Y-108200552D02*
X187012530Y-108152933D01*
X187441101Y-107819600D02*
X187345863Y-107867219D01*
X187345863Y-107867219D02*
X187155387Y-107867219D01*
X187155387Y-107867219D02*
X187060149Y-107819600D01*
X187060149Y-107819600D02*
X187012530Y-107771980D01*
X187012530Y-107771980D02*
X186964911Y-107676742D01*
X186964911Y-107676742D02*
X186964911Y-107391028D01*
X186964911Y-107391028D02*
X187012530Y-107295790D01*
X187012530Y-107295790D02*
X187060149Y-107248171D01*
X187060149Y-107248171D02*
X187155387Y-107200552D01*
X187155387Y-107200552D02*
X187345863Y-107200552D01*
X187345863Y-107200552D02*
X187441101Y-107248171D01*
X188345863Y-107200552D02*
X188345863Y-108010076D01*
X188345863Y-108010076D02*
X188298244Y-108105314D01*
X188298244Y-108105314D02*
X188250625Y-108152933D01*
X188250625Y-108152933D02*
X188155387Y-108200552D01*
X188155387Y-108200552D02*
X188012530Y-108200552D01*
X188012530Y-108200552D02*
X187917292Y-108152933D01*
X188345863Y-107819600D02*
X188250625Y-107867219D01*
X188250625Y-107867219D02*
X188060149Y-107867219D01*
X188060149Y-107867219D02*
X187964911Y-107819600D01*
X187964911Y-107819600D02*
X187917292Y-107771980D01*
X187917292Y-107771980D02*
X187869673Y-107676742D01*
X187869673Y-107676742D02*
X187869673Y-107391028D01*
X187869673Y-107391028D02*
X187917292Y-107295790D01*
X187917292Y-107295790D02*
X187964911Y-107248171D01*
X187964911Y-107248171D02*
X188060149Y-107200552D01*
X188060149Y-107200552D02*
X188250625Y-107200552D01*
X188250625Y-107200552D02*
X188345863Y-107248171D01*
X188774435Y-107819600D02*
X188869673Y-107867219D01*
X188869673Y-107867219D02*
X189060149Y-107867219D01*
X189060149Y-107867219D02*
X189155387Y-107819600D01*
X189155387Y-107819600D02*
X189203006Y-107724361D01*
X189203006Y-107724361D02*
X189203006Y-107676742D01*
X189203006Y-107676742D02*
X189155387Y-107581504D01*
X189155387Y-107581504D02*
X189060149Y-107533885D01*
X189060149Y-107533885D02*
X188917292Y-107533885D01*
X188917292Y-107533885D02*
X188822054Y-107486266D01*
X188822054Y-107486266D02*
X188774435Y-107391028D01*
X188774435Y-107391028D02*
X188774435Y-107343409D01*
X188774435Y-107343409D02*
X188822054Y-107248171D01*
X188822054Y-107248171D02*
X188917292Y-107200552D01*
X188917292Y-107200552D02*
X189060149Y-107200552D01*
X189060149Y-107200552D02*
X189155387Y-107248171D01*
X190060149Y-107867219D02*
X190060149Y-107343409D01*
X190060149Y-107343409D02*
X190012530Y-107248171D01*
X190012530Y-107248171D02*
X189917292Y-107200552D01*
X189917292Y-107200552D02*
X189726816Y-107200552D01*
X189726816Y-107200552D02*
X189631578Y-107248171D01*
X190060149Y-107819600D02*
X189964911Y-107867219D01*
X189964911Y-107867219D02*
X189726816Y-107867219D01*
X189726816Y-107867219D02*
X189631578Y-107819600D01*
X189631578Y-107819600D02*
X189583959Y-107724361D01*
X189583959Y-107724361D02*
X189583959Y-107629123D01*
X189583959Y-107629123D02*
X189631578Y-107533885D01*
X189631578Y-107533885D02*
X189726816Y-107486266D01*
X189726816Y-107486266D02*
X189964911Y-107486266D01*
X189964911Y-107486266D02*
X190060149Y-107438647D01*
X190964911Y-107819600D02*
X190869673Y-107867219D01*
X190869673Y-107867219D02*
X190679197Y-107867219D01*
X190679197Y-107867219D02*
X190583959Y-107819600D01*
X190583959Y-107819600D02*
X190536340Y-107771980D01*
X190536340Y-107771980D02*
X190488721Y-107676742D01*
X190488721Y-107676742D02*
X190488721Y-107391028D01*
X190488721Y-107391028D02*
X190536340Y-107295790D01*
X190536340Y-107295790D02*
X190583959Y-107248171D01*
X190583959Y-107248171D02*
X190679197Y-107200552D01*
X190679197Y-107200552D02*
X190869673Y-107200552D01*
X190869673Y-107200552D02*
X190964911Y-107248171D01*
X191822054Y-107819600D02*
X191726816Y-107867219D01*
X191726816Y-107867219D02*
X191536340Y-107867219D01*
X191536340Y-107867219D02*
X191441102Y-107819600D01*
X191441102Y-107819600D02*
X191393483Y-107771980D01*
X191393483Y-107771980D02*
X191345864Y-107676742D01*
X191345864Y-107676742D02*
X191345864Y-107391028D01*
X191345864Y-107391028D02*
X191393483Y-107295790D01*
X191393483Y-107295790D02*
X191441102Y-107248171D01*
X191441102Y-107248171D02*
X191536340Y-107200552D01*
X191536340Y-107200552D02*
X191726816Y-107200552D01*
X191726816Y-107200552D02*
X191822054Y-107248171D01*
D13*
X175890476Y-111002438D02*
X175814286Y-110954819D01*
X175814286Y-110954819D02*
X175700000Y-110954819D01*
X175700000Y-110954819D02*
X175585714Y-111002438D01*
X175585714Y-111002438D02*
X175509524Y-111097676D01*
X175509524Y-111097676D02*
X175471429Y-111192914D01*
X175471429Y-111192914D02*
X175433333Y-111383390D01*
X175433333Y-111383390D02*
X175433333Y-111526247D01*
X175433333Y-111526247D02*
X175471429Y-111716723D01*
X175471429Y-111716723D02*
X175509524Y-111811961D01*
X175509524Y-111811961D02*
X175585714Y-111907200D01*
X175585714Y-111907200D02*
X175700000Y-111954819D01*
X175700000Y-111954819D02*
X175776191Y-111954819D01*
X175776191Y-111954819D02*
X175890476Y-111907200D01*
X175890476Y-111907200D02*
X175928572Y-111859580D01*
X175928572Y-111859580D02*
X175928572Y-111526247D01*
X175928572Y-111526247D02*
X175776191Y-111526247D01*
X176271429Y-111954819D02*
X176271429Y-110954819D01*
X176271429Y-110954819D02*
X176728572Y-111954819D01*
X176728572Y-111954819D02*
X176728572Y-110954819D01*
X177109524Y-111954819D02*
X177109524Y-110954819D01*
X177109524Y-110954819D02*
X177300000Y-110954819D01*
X177300000Y-110954819D02*
X177414286Y-111002438D01*
X177414286Y-111002438D02*
X177490476Y-111097676D01*
X177490476Y-111097676D02*
X177528571Y-111192914D01*
X177528571Y-111192914D02*
X177566667Y-111383390D01*
X177566667Y-111383390D02*
X177566667Y-111526247D01*
X177566667Y-111526247D02*
X177528571Y-111716723D01*
X177528571Y-111716723D02*
X177490476Y-111811961D01*
X177490476Y-111811961D02*
X177414286Y-111907200D01*
X177414286Y-111907200D02*
X177300000Y-111954819D01*
X177300000Y-111954819D02*
X177109524Y-111954819D01*
X171411905Y-111859580D02*
X171373809Y-111907200D01*
X171373809Y-111907200D02*
X171259524Y-111954819D01*
X171259524Y-111954819D02*
X171183333Y-111954819D01*
X171183333Y-111954819D02*
X171069047Y-111907200D01*
X171069047Y-111907200D02*
X170992857Y-111811961D01*
X170992857Y-111811961D02*
X170954762Y-111716723D01*
X170954762Y-111716723D02*
X170916666Y-111526247D01*
X170916666Y-111526247D02*
X170916666Y-111383390D01*
X170916666Y-111383390D02*
X170954762Y-111192914D01*
X170954762Y-111192914D02*
X170992857Y-111097676D01*
X170992857Y-111097676D02*
X171069047Y-111002438D01*
X171069047Y-111002438D02*
X171183333Y-110954819D01*
X171183333Y-110954819D02*
X171259524Y-110954819D01*
X171259524Y-110954819D02*
X171373809Y-111002438D01*
X171373809Y-111002438D02*
X171411905Y-111050057D01*
X171716666Y-111669104D02*
X172097619Y-111669104D01*
X171640476Y-111954819D02*
X171907143Y-110954819D01*
X171907143Y-110954819D02*
X172173809Y-111954819D01*
X172440476Y-111954819D02*
X172440476Y-110954819D01*
X172440476Y-110954819D02*
X172897619Y-111954819D01*
X172897619Y-111954819D02*
X172897619Y-110954819D01*
X173659523Y-111954819D02*
X173278571Y-111954819D01*
X173278571Y-111954819D02*
X173278571Y-110954819D01*
X167066667Y-111859580D02*
X167028571Y-111907200D01*
X167028571Y-111907200D02*
X166914286Y-111954819D01*
X166914286Y-111954819D02*
X166838095Y-111954819D01*
X166838095Y-111954819D02*
X166723809Y-111907200D01*
X166723809Y-111907200D02*
X166647619Y-111811961D01*
X166647619Y-111811961D02*
X166609524Y-111716723D01*
X166609524Y-111716723D02*
X166571428Y-111526247D01*
X166571428Y-111526247D02*
X166571428Y-111383390D01*
X166571428Y-111383390D02*
X166609524Y-111192914D01*
X166609524Y-111192914D02*
X166647619Y-111097676D01*
X166647619Y-111097676D02*
X166723809Y-111002438D01*
X166723809Y-111002438D02*
X166838095Y-110954819D01*
X166838095Y-110954819D02*
X166914286Y-110954819D01*
X166914286Y-110954819D02*
X167028571Y-111002438D01*
X167028571Y-111002438D02*
X167066667Y-111050057D01*
X167371428Y-111669104D02*
X167752381Y-111669104D01*
X167295238Y-111954819D02*
X167561905Y-110954819D01*
X167561905Y-110954819D02*
X167828571Y-111954819D01*
X168095238Y-111954819D02*
X168095238Y-110954819D01*
X168095238Y-110954819D02*
X168552381Y-111954819D01*
X168552381Y-111954819D02*
X168552381Y-110954819D01*
X168933333Y-111954819D02*
X168933333Y-110954819D01*
X168933333Y-111431009D02*
X169390476Y-111431009D01*
X169390476Y-111954819D02*
X169390476Y-110954819D01*
X193851064Y-109007200D02*
X193965350Y-109054819D01*
X193965350Y-109054819D02*
X194155826Y-109054819D01*
X194155826Y-109054819D02*
X194232017Y-109007200D01*
X194232017Y-109007200D02*
X194270112Y-108959580D01*
X194270112Y-108959580D02*
X194308207Y-108864342D01*
X194308207Y-108864342D02*
X194308207Y-108769104D01*
X194308207Y-108769104D02*
X194270112Y-108673866D01*
X194270112Y-108673866D02*
X194232017Y-108626247D01*
X194232017Y-108626247D02*
X194155826Y-108578628D01*
X194155826Y-108578628D02*
X194003445Y-108531009D01*
X194003445Y-108531009D02*
X193927255Y-108483390D01*
X193927255Y-108483390D02*
X193889160Y-108435771D01*
X193889160Y-108435771D02*
X193851064Y-108340533D01*
X193851064Y-108340533D02*
X193851064Y-108245295D01*
X193851064Y-108245295D02*
X193889160Y-108150057D01*
X193889160Y-108150057D02*
X193927255Y-108102438D01*
X193927255Y-108102438D02*
X194003445Y-108054819D01*
X194003445Y-108054819D02*
X194193922Y-108054819D01*
X194193922Y-108054819D02*
X194308207Y-108102438D01*
X194651065Y-109054819D02*
X194651065Y-108054819D01*
X194651065Y-108054819D02*
X194841541Y-108054819D01*
X194841541Y-108054819D02*
X194955827Y-108102438D01*
X194955827Y-108102438D02*
X195032017Y-108197676D01*
X195032017Y-108197676D02*
X195070112Y-108292914D01*
X195070112Y-108292914D02*
X195108208Y-108483390D01*
X195108208Y-108483390D02*
X195108208Y-108626247D01*
X195108208Y-108626247D02*
X195070112Y-108816723D01*
X195070112Y-108816723D02*
X195032017Y-108911961D01*
X195032017Y-108911961D02*
X194955827Y-109007200D01*
X194955827Y-109007200D02*
X194841541Y-109054819D01*
X194841541Y-109054819D02*
X194651065Y-109054819D01*
X195412969Y-108769104D02*
X195793922Y-108769104D01*
X195336779Y-109054819D02*
X195603446Y-108054819D01*
X195603446Y-108054819D02*
X195870112Y-109054819D01*
D14*
X174440653Y-127591400D02*
X176726368Y-127591400D01*
X175583510Y-128734257D02*
X175583510Y-126448542D01*
D13*
X189258207Y-131602438D02*
X189182017Y-131554819D01*
X189182017Y-131554819D02*
X189067731Y-131554819D01*
X189067731Y-131554819D02*
X188953445Y-131602438D01*
X188953445Y-131602438D02*
X188877255Y-131697676D01*
X188877255Y-131697676D02*
X188839160Y-131792914D01*
X188839160Y-131792914D02*
X188801064Y-131983390D01*
X188801064Y-131983390D02*
X188801064Y-132126247D01*
X188801064Y-132126247D02*
X188839160Y-132316723D01*
X188839160Y-132316723D02*
X188877255Y-132411961D01*
X188877255Y-132411961D02*
X188953445Y-132507200D01*
X188953445Y-132507200D02*
X189067731Y-132554819D01*
X189067731Y-132554819D02*
X189143922Y-132554819D01*
X189143922Y-132554819D02*
X189258207Y-132507200D01*
X189258207Y-132507200D02*
X189296303Y-132459580D01*
X189296303Y-132459580D02*
X189296303Y-132126247D01*
X189296303Y-132126247D02*
X189143922Y-132126247D01*
X198696303Y-132509580D02*
X198658207Y-132557200D01*
X198658207Y-132557200D02*
X198543922Y-132604819D01*
X198543922Y-132604819D02*
X198467731Y-132604819D01*
X198467731Y-132604819D02*
X198353445Y-132557200D01*
X198353445Y-132557200D02*
X198277255Y-132461961D01*
X198277255Y-132461961D02*
X198239160Y-132366723D01*
X198239160Y-132366723D02*
X198201064Y-132176247D01*
X198201064Y-132176247D02*
X198201064Y-132033390D01*
X198201064Y-132033390D02*
X198239160Y-131842914D01*
X198239160Y-131842914D02*
X198277255Y-131747676D01*
X198277255Y-131747676D02*
X198353445Y-131652438D01*
X198353445Y-131652438D02*
X198467731Y-131604819D01*
X198467731Y-131604819D02*
X198543922Y-131604819D01*
X198543922Y-131604819D02*
X198658207Y-131652438D01*
X198658207Y-131652438D02*
X198696303Y-131700057D01*
X199039160Y-132604819D02*
X199039160Y-131604819D01*
X199039160Y-132081009D02*
X199496303Y-132081009D01*
X199496303Y-132604819D02*
X199496303Y-131604819D01*
X199839159Y-131700057D02*
X199877255Y-131652438D01*
X199877255Y-131652438D02*
X199953445Y-131604819D01*
X199953445Y-131604819D02*
X200143921Y-131604819D01*
X200143921Y-131604819D02*
X200220112Y-131652438D01*
X200220112Y-131652438D02*
X200258207Y-131700057D01*
X200258207Y-131700057D02*
X200296302Y-131795295D01*
X200296302Y-131795295D02*
X200296302Y-131890533D01*
X200296302Y-131890533D02*
X200258207Y-132033390D01*
X200258207Y-132033390D02*
X199801064Y-132604819D01*
X199801064Y-132604819D02*
X200296302Y-132604819D01*
X162568990Y-135505826D02*
X162521371Y-135620112D01*
X162521371Y-135620112D02*
X162473752Y-135658207D01*
X162473752Y-135658207D02*
X162378514Y-135696303D01*
X162378514Y-135696303D02*
X162235657Y-135696303D01*
X162235657Y-135696303D02*
X162140419Y-135658207D01*
X162140419Y-135658207D02*
X162092800Y-135620112D01*
X162092800Y-135620112D02*
X162045180Y-135543922D01*
X162045180Y-135543922D02*
X162045180Y-135239160D01*
X162045180Y-135239160D02*
X163045180Y-135239160D01*
X163045180Y-135239160D02*
X163045180Y-135505826D01*
X163045180Y-135505826D02*
X162997561Y-135582017D01*
X162997561Y-135582017D02*
X162949942Y-135620112D01*
X162949942Y-135620112D02*
X162854704Y-135658207D01*
X162854704Y-135658207D02*
X162759466Y-135658207D01*
X162759466Y-135658207D02*
X162664228Y-135620112D01*
X162664228Y-135620112D02*
X162616609Y-135582017D01*
X162616609Y-135582017D02*
X162568990Y-135505826D01*
X162568990Y-135505826D02*
X162568990Y-135239160D01*
X162045180Y-136458207D02*
X162045180Y-136001064D01*
X162045180Y-136229636D02*
X163045180Y-136229636D01*
X163045180Y-136229636D02*
X162902323Y-136153445D01*
X162902323Y-136153445D02*
X162807085Y-136077255D01*
X162807085Y-136077255D02*
X162759466Y-136001064D01*
X162949942Y-136762969D02*
X162997561Y-136801065D01*
X162997561Y-136801065D02*
X163045180Y-136877255D01*
X163045180Y-136877255D02*
X163045180Y-137067731D01*
X163045180Y-137067731D02*
X162997561Y-137143922D01*
X162997561Y-137143922D02*
X162949942Y-137182017D01*
X162949942Y-137182017D02*
X162854704Y-137220112D01*
X162854704Y-137220112D02*
X162759466Y-137220112D01*
X162759466Y-137220112D02*
X162616609Y-137182017D01*
X162616609Y-137182017D02*
X162045180Y-136724874D01*
X162045180Y-136724874D02*
X162045180Y-137220112D01*
X201446303Y-132359580D02*
X201408207Y-132407200D01*
X201408207Y-132407200D02*
X201293922Y-132454819D01*
X201293922Y-132454819D02*
X201217731Y-132454819D01*
X201217731Y-132454819D02*
X201103445Y-132407200D01*
X201103445Y-132407200D02*
X201027255Y-132311961D01*
X201027255Y-132311961D02*
X200989160Y-132216723D01*
X200989160Y-132216723D02*
X200951064Y-132026247D01*
X200951064Y-132026247D02*
X200951064Y-131883390D01*
X200951064Y-131883390D02*
X200989160Y-131692914D01*
X200989160Y-131692914D02*
X201027255Y-131597676D01*
X201027255Y-131597676D02*
X201103445Y-131502438D01*
X201103445Y-131502438D02*
X201217731Y-131454819D01*
X201217731Y-131454819D02*
X201293922Y-131454819D01*
X201293922Y-131454819D02*
X201408207Y-131502438D01*
X201408207Y-131502438D02*
X201446303Y-131550057D01*
X201789160Y-132454819D02*
X201789160Y-131454819D01*
X201789160Y-131931009D02*
X202246303Y-131931009D01*
X202246303Y-132454819D02*
X202246303Y-131454819D01*
X202551064Y-131454819D02*
X203046302Y-131454819D01*
X203046302Y-131454819D02*
X202779636Y-131835771D01*
X202779636Y-131835771D02*
X202893921Y-131835771D01*
X202893921Y-131835771D02*
X202970112Y-131883390D01*
X202970112Y-131883390D02*
X203008207Y-131931009D01*
X203008207Y-131931009D02*
X203046302Y-132026247D01*
X203046302Y-132026247D02*
X203046302Y-132264342D01*
X203046302Y-132264342D02*
X203008207Y-132359580D01*
X203008207Y-132359580D02*
X202970112Y-132407200D01*
X202970112Y-132407200D02*
X202893921Y-132454819D01*
X202893921Y-132454819D02*
X202665350Y-132454819D01*
X202665350Y-132454819D02*
X202589159Y-132407200D01*
X202589159Y-132407200D02*
X202551064Y-132359580D01*
D15*
X197935901Y-121842142D02*
X198221615Y-123042142D01*
X198221615Y-123042142D02*
X198450187Y-122185000D01*
X198450187Y-122185000D02*
X198678758Y-123042142D01*
X198678758Y-123042142D02*
X198964473Y-121842142D01*
D13*
X155631009Y-136744173D02*
X155678628Y-136629887D01*
X155678628Y-136629887D02*
X155726247Y-136591792D01*
X155726247Y-136591792D02*
X155821485Y-136553696D01*
X155821485Y-136553696D02*
X155964342Y-136553696D01*
X155964342Y-136553696D02*
X156059580Y-136591792D01*
X156059580Y-136591792D02*
X156107200Y-136629887D01*
X156107200Y-136629887D02*
X156154819Y-136706077D01*
X156154819Y-136706077D02*
X156154819Y-137010839D01*
X156154819Y-137010839D02*
X155154819Y-137010839D01*
X155154819Y-137010839D02*
X155154819Y-136744173D01*
X155154819Y-136744173D02*
X155202438Y-136667982D01*
X155202438Y-136667982D02*
X155250057Y-136629887D01*
X155250057Y-136629887D02*
X155345295Y-136591792D01*
X155345295Y-136591792D02*
X155440533Y-136591792D01*
X155440533Y-136591792D02*
X155535771Y-136629887D01*
X155535771Y-136629887D02*
X155583390Y-136667982D01*
X155583390Y-136667982D02*
X155631009Y-136744173D01*
X155631009Y-136744173D02*
X155631009Y-137010839D01*
X156154819Y-135791792D02*
X156154819Y-136248935D01*
X156154819Y-136020363D02*
X155154819Y-136020363D01*
X155154819Y-136020363D02*
X155297676Y-136096554D01*
X155297676Y-136096554D02*
X155392914Y-136172744D01*
X155392914Y-136172744D02*
X155440533Y-136248935D01*
X155488152Y-135106077D02*
X156154819Y-135106077D01*
X155107200Y-135296553D02*
X155821485Y-135487030D01*
X155821485Y-135487030D02*
X155821485Y-134991791D01*
X162140419Y-130546303D02*
X162092800Y-130508207D01*
X162092800Y-130508207D02*
X162045180Y-130393922D01*
X162045180Y-130393922D02*
X162045180Y-130317731D01*
X162045180Y-130317731D02*
X162092800Y-130203445D01*
X162092800Y-130203445D02*
X162188038Y-130127255D01*
X162188038Y-130127255D02*
X162283276Y-130089160D01*
X162283276Y-130089160D02*
X162473752Y-130051064D01*
X162473752Y-130051064D02*
X162616609Y-130051064D01*
X162616609Y-130051064D02*
X162807085Y-130089160D01*
X162807085Y-130089160D02*
X162902323Y-130127255D01*
X162902323Y-130127255D02*
X162997561Y-130203445D01*
X162997561Y-130203445D02*
X163045180Y-130317731D01*
X163045180Y-130317731D02*
X163045180Y-130393922D01*
X163045180Y-130393922D02*
X162997561Y-130508207D01*
X162997561Y-130508207D02*
X162949942Y-130546303D01*
X163045180Y-130812969D02*
X163045180Y-131346303D01*
X163045180Y-131346303D02*
X162045180Y-131003445D01*
X156059580Y-130803696D02*
X156107200Y-130841792D01*
X156107200Y-130841792D02*
X156154819Y-130956077D01*
X156154819Y-130956077D02*
X156154819Y-131032268D01*
X156154819Y-131032268D02*
X156107200Y-131146554D01*
X156107200Y-131146554D02*
X156011961Y-131222744D01*
X156011961Y-131222744D02*
X155916723Y-131260839D01*
X155916723Y-131260839D02*
X155726247Y-131298935D01*
X155726247Y-131298935D02*
X155583390Y-131298935D01*
X155583390Y-131298935D02*
X155392914Y-131260839D01*
X155392914Y-131260839D02*
X155297676Y-131222744D01*
X155297676Y-131222744D02*
X155202438Y-131146554D01*
X155202438Y-131146554D02*
X155154819Y-131032268D01*
X155154819Y-131032268D02*
X155154819Y-130956077D01*
X155154819Y-130956077D02*
X155202438Y-130841792D01*
X155202438Y-130841792D02*
X155250057Y-130803696D01*
X155583390Y-130346554D02*
X155535771Y-130422744D01*
X155535771Y-130422744D02*
X155488152Y-130460839D01*
X155488152Y-130460839D02*
X155392914Y-130498935D01*
X155392914Y-130498935D02*
X155345295Y-130498935D01*
X155345295Y-130498935D02*
X155250057Y-130460839D01*
X155250057Y-130460839D02*
X155202438Y-130422744D01*
X155202438Y-130422744D02*
X155154819Y-130346554D01*
X155154819Y-130346554D02*
X155154819Y-130194173D01*
X155154819Y-130194173D02*
X155202438Y-130117982D01*
X155202438Y-130117982D02*
X155250057Y-130079887D01*
X155250057Y-130079887D02*
X155345295Y-130041792D01*
X155345295Y-130041792D02*
X155392914Y-130041792D01*
X155392914Y-130041792D02*
X155488152Y-130079887D01*
X155488152Y-130079887D02*
X155535771Y-130117982D01*
X155535771Y-130117982D02*
X155583390Y-130194173D01*
X155583390Y-130194173D02*
X155583390Y-130346554D01*
X155583390Y-130346554D02*
X155631009Y-130422744D01*
X155631009Y-130422744D02*
X155678628Y-130460839D01*
X155678628Y-130460839D02*
X155773866Y-130498935D01*
X155773866Y-130498935D02*
X155964342Y-130498935D01*
X155964342Y-130498935D02*
X156059580Y-130460839D01*
X156059580Y-130460839D02*
X156107200Y-130422744D01*
X156107200Y-130422744D02*
X156154819Y-130346554D01*
X156154819Y-130346554D02*
X156154819Y-130194173D01*
X156154819Y-130194173D02*
X156107200Y-130117982D01*
X156107200Y-130117982D02*
X156059580Y-130079887D01*
X156059580Y-130079887D02*
X155964342Y-130041792D01*
X155964342Y-130041792D02*
X155773866Y-130041792D01*
X155773866Y-130041792D02*
X155678628Y-130079887D01*
X155678628Y-130079887D02*
X155631009Y-130117982D01*
X155631009Y-130117982D02*
X155583390Y-130194173D01*
X162568990Y-132555826D02*
X162521371Y-132670112D01*
X162521371Y-132670112D02*
X162473752Y-132708207D01*
X162473752Y-132708207D02*
X162378514Y-132746303D01*
X162378514Y-132746303D02*
X162235657Y-132746303D01*
X162235657Y-132746303D02*
X162140419Y-132708207D01*
X162140419Y-132708207D02*
X162092800Y-132670112D01*
X162092800Y-132670112D02*
X162045180Y-132593922D01*
X162045180Y-132593922D02*
X162045180Y-132289160D01*
X162045180Y-132289160D02*
X163045180Y-132289160D01*
X163045180Y-132289160D02*
X163045180Y-132555826D01*
X163045180Y-132555826D02*
X162997561Y-132632017D01*
X162997561Y-132632017D02*
X162949942Y-132670112D01*
X162949942Y-132670112D02*
X162854704Y-132708207D01*
X162854704Y-132708207D02*
X162759466Y-132708207D01*
X162759466Y-132708207D02*
X162664228Y-132670112D01*
X162664228Y-132670112D02*
X162616609Y-132632017D01*
X162616609Y-132632017D02*
X162568990Y-132555826D01*
X162568990Y-132555826D02*
X162568990Y-132289160D01*
X162045180Y-133508207D02*
X162045180Y-133051064D01*
X162045180Y-133279636D02*
X163045180Y-133279636D01*
X163045180Y-133279636D02*
X162902323Y-133203445D01*
X162902323Y-133203445D02*
X162807085Y-133127255D01*
X162807085Y-133127255D02*
X162759466Y-133051064D01*
X163045180Y-134232017D02*
X163045180Y-133851065D01*
X163045180Y-133851065D02*
X162568990Y-133812969D01*
X162568990Y-133812969D02*
X162616609Y-133851065D01*
X162616609Y-133851065D02*
X162664228Y-133927255D01*
X162664228Y-133927255D02*
X162664228Y-134117731D01*
X162664228Y-134117731D02*
X162616609Y-134193922D01*
X162616609Y-134193922D02*
X162568990Y-134232017D01*
X162568990Y-134232017D02*
X162473752Y-134270112D01*
X162473752Y-134270112D02*
X162235657Y-134270112D01*
X162235657Y-134270112D02*
X162140419Y-134232017D01*
X162140419Y-134232017D02*
X162092800Y-134193922D01*
X162092800Y-134193922D02*
X162045180Y-134117731D01*
X162045180Y-134117731D02*
X162045180Y-133927255D01*
X162045180Y-133927255D02*
X162092800Y-133851065D01*
X162092800Y-133851065D02*
X162140419Y-133812969D01*
X156107200Y-129348935D02*
X156154819Y-129234649D01*
X156154819Y-129234649D02*
X156154819Y-129044173D01*
X156154819Y-129044173D02*
X156107200Y-128967982D01*
X156107200Y-128967982D02*
X156059580Y-128929887D01*
X156059580Y-128929887D02*
X155964342Y-128891792D01*
X155964342Y-128891792D02*
X155869104Y-128891792D01*
X155869104Y-128891792D02*
X155773866Y-128929887D01*
X155773866Y-128929887D02*
X155726247Y-128967982D01*
X155726247Y-128967982D02*
X155678628Y-129044173D01*
X155678628Y-129044173D02*
X155631009Y-129196554D01*
X155631009Y-129196554D02*
X155583390Y-129272744D01*
X155583390Y-129272744D02*
X155535771Y-129310839D01*
X155535771Y-129310839D02*
X155440533Y-129348935D01*
X155440533Y-129348935D02*
X155345295Y-129348935D01*
X155345295Y-129348935D02*
X155250057Y-129310839D01*
X155250057Y-129310839D02*
X155202438Y-129272744D01*
X155202438Y-129272744D02*
X155154819Y-129196554D01*
X155154819Y-129196554D02*
X155154819Y-129006077D01*
X155154819Y-129006077D02*
X155202438Y-128891792D01*
X155154819Y-128396553D02*
X155154819Y-128244172D01*
X155154819Y-128244172D02*
X155202438Y-128167982D01*
X155202438Y-128167982D02*
X155297676Y-128091791D01*
X155297676Y-128091791D02*
X155488152Y-128053696D01*
X155488152Y-128053696D02*
X155821485Y-128053696D01*
X155821485Y-128053696D02*
X156011961Y-128091791D01*
X156011961Y-128091791D02*
X156107200Y-128167982D01*
X156107200Y-128167982D02*
X156154819Y-128244172D01*
X156154819Y-128244172D02*
X156154819Y-128396553D01*
X156154819Y-128396553D02*
X156107200Y-128472744D01*
X156107200Y-128472744D02*
X156011961Y-128548934D01*
X156011961Y-128548934D02*
X155821485Y-128587030D01*
X155821485Y-128587030D02*
X155488152Y-128587030D01*
X155488152Y-128587030D02*
X155297676Y-128548934D01*
X155297676Y-128548934D02*
X155202438Y-128472744D01*
X155202438Y-128472744D02*
X155154819Y-128396553D01*
X155869104Y-127748935D02*
X155869104Y-127367982D01*
X156154819Y-127825125D02*
X155154819Y-127558458D01*
X155154819Y-127558458D02*
X156154819Y-127291792D01*
X155631009Y-120994173D02*
X155678628Y-120879887D01*
X155678628Y-120879887D02*
X155726247Y-120841792D01*
X155726247Y-120841792D02*
X155821485Y-120803696D01*
X155821485Y-120803696D02*
X155964342Y-120803696D01*
X155964342Y-120803696D02*
X156059580Y-120841792D01*
X156059580Y-120841792D02*
X156107200Y-120879887D01*
X156107200Y-120879887D02*
X156154819Y-120956077D01*
X156154819Y-120956077D02*
X156154819Y-121260839D01*
X156154819Y-121260839D02*
X155154819Y-121260839D01*
X155154819Y-121260839D02*
X155154819Y-120994173D01*
X155154819Y-120994173D02*
X155202438Y-120917982D01*
X155202438Y-120917982D02*
X155250057Y-120879887D01*
X155250057Y-120879887D02*
X155345295Y-120841792D01*
X155345295Y-120841792D02*
X155440533Y-120841792D01*
X155440533Y-120841792D02*
X155535771Y-120879887D01*
X155535771Y-120879887D02*
X155583390Y-120917982D01*
X155583390Y-120917982D02*
X155631009Y-120994173D01*
X155631009Y-120994173D02*
X155631009Y-121260839D01*
X155488152Y-120117982D02*
X156154819Y-120117982D01*
X155107200Y-120308458D02*
X155821485Y-120498935D01*
X155821485Y-120498935D02*
X155821485Y-120003696D01*
X195946303Y-132509580D02*
X195908207Y-132557200D01*
X195908207Y-132557200D02*
X195793922Y-132604819D01*
X195793922Y-132604819D02*
X195717731Y-132604819D01*
X195717731Y-132604819D02*
X195603445Y-132557200D01*
X195603445Y-132557200D02*
X195527255Y-132461961D01*
X195527255Y-132461961D02*
X195489160Y-132366723D01*
X195489160Y-132366723D02*
X195451064Y-132176247D01*
X195451064Y-132176247D02*
X195451064Y-132033390D01*
X195451064Y-132033390D02*
X195489160Y-131842914D01*
X195489160Y-131842914D02*
X195527255Y-131747676D01*
X195527255Y-131747676D02*
X195603445Y-131652438D01*
X195603445Y-131652438D02*
X195717731Y-131604819D01*
X195717731Y-131604819D02*
X195793922Y-131604819D01*
X195793922Y-131604819D02*
X195908207Y-131652438D01*
X195908207Y-131652438D02*
X195946303Y-131700057D01*
X196289160Y-132604819D02*
X196289160Y-131604819D01*
X196289160Y-132081009D02*
X196746303Y-132081009D01*
X196746303Y-132604819D02*
X196746303Y-131604819D01*
X197546302Y-132604819D02*
X197089159Y-132604819D01*
X197317731Y-132604819D02*
X197317731Y-131604819D01*
X197317731Y-131604819D02*
X197241540Y-131747676D01*
X197241540Y-131747676D02*
X197165350Y-131842914D01*
X197165350Y-131842914D02*
X197089159Y-131890533D01*
X155154819Y-115629887D02*
X155154819Y-116010839D01*
X155154819Y-116010839D02*
X155631009Y-116048935D01*
X155631009Y-116048935D02*
X155583390Y-116010839D01*
X155583390Y-116010839D02*
X155535771Y-115934649D01*
X155535771Y-115934649D02*
X155535771Y-115744173D01*
X155535771Y-115744173D02*
X155583390Y-115667982D01*
X155583390Y-115667982D02*
X155631009Y-115629887D01*
X155631009Y-115629887D02*
X155726247Y-115591792D01*
X155726247Y-115591792D02*
X155964342Y-115591792D01*
X155964342Y-115591792D02*
X156059580Y-115629887D01*
X156059580Y-115629887D02*
X156107200Y-115667982D01*
X156107200Y-115667982D02*
X156154819Y-115744173D01*
X156154819Y-115744173D02*
X156154819Y-115934649D01*
X156154819Y-115934649D02*
X156107200Y-116010839D01*
X156107200Y-116010839D02*
X156059580Y-116048935D01*
X155154819Y-115363220D02*
X156154819Y-115096553D01*
X156154819Y-115096553D02*
X155154819Y-114829887D01*
X193454819Y-134787030D02*
X193454819Y-134291792D01*
X193454819Y-134291792D02*
X193835771Y-134558458D01*
X193835771Y-134558458D02*
X193835771Y-134444173D01*
X193835771Y-134444173D02*
X193883390Y-134367982D01*
X193883390Y-134367982D02*
X193931009Y-134329887D01*
X193931009Y-134329887D02*
X194026247Y-134291792D01*
X194026247Y-134291792D02*
X194264342Y-134291792D01*
X194264342Y-134291792D02*
X194359580Y-134329887D01*
X194359580Y-134329887D02*
X194407200Y-134367982D01*
X194407200Y-134367982D02*
X194454819Y-134444173D01*
X194454819Y-134444173D02*
X194454819Y-134672744D01*
X194454819Y-134672744D02*
X194407200Y-134748935D01*
X194407200Y-134748935D02*
X194359580Y-134787030D01*
X193454819Y-134063220D02*
X194454819Y-133796553D01*
X194454819Y-133796553D02*
X193454819Y-133529887D01*
X193454819Y-133339411D02*
X193454819Y-132844173D01*
X193454819Y-132844173D02*
X193835771Y-133110839D01*
X193835771Y-133110839D02*
X193835771Y-132996554D01*
X193835771Y-132996554D02*
X193883390Y-132920363D01*
X193883390Y-132920363D02*
X193931009Y-132882268D01*
X193931009Y-132882268D02*
X194026247Y-132844173D01*
X194026247Y-132844173D02*
X194264342Y-132844173D01*
X194264342Y-132844173D02*
X194359580Y-132882268D01*
X194359580Y-132882268D02*
X194407200Y-132920363D01*
X194407200Y-132920363D02*
X194454819Y-132996554D01*
X194454819Y-132996554D02*
X194454819Y-133225125D01*
X194454819Y-133225125D02*
X194407200Y-133301316D01*
X194407200Y-133301316D02*
X194359580Y-133339411D01*
X162568990Y-120255826D02*
X162521371Y-120370112D01*
X162521371Y-120370112D02*
X162473752Y-120408207D01*
X162473752Y-120408207D02*
X162378514Y-120446303D01*
X162378514Y-120446303D02*
X162235657Y-120446303D01*
X162235657Y-120446303D02*
X162140419Y-120408207D01*
X162140419Y-120408207D02*
X162092800Y-120370112D01*
X162092800Y-120370112D02*
X162045180Y-120293922D01*
X162045180Y-120293922D02*
X162045180Y-119989160D01*
X162045180Y-119989160D02*
X163045180Y-119989160D01*
X163045180Y-119989160D02*
X163045180Y-120255826D01*
X163045180Y-120255826D02*
X162997561Y-120332017D01*
X162997561Y-120332017D02*
X162949942Y-120370112D01*
X162949942Y-120370112D02*
X162854704Y-120408207D01*
X162854704Y-120408207D02*
X162759466Y-120408207D01*
X162759466Y-120408207D02*
X162664228Y-120370112D01*
X162664228Y-120370112D02*
X162616609Y-120332017D01*
X162616609Y-120332017D02*
X162568990Y-120255826D01*
X162568990Y-120255826D02*
X162568990Y-119989160D01*
X163045180Y-120712969D02*
X163045180Y-121208207D01*
X163045180Y-121208207D02*
X162664228Y-120941541D01*
X162664228Y-120941541D02*
X162664228Y-121055826D01*
X162664228Y-121055826D02*
X162616609Y-121132017D01*
X162616609Y-121132017D02*
X162568990Y-121170112D01*
X162568990Y-121170112D02*
X162473752Y-121208207D01*
X162473752Y-121208207D02*
X162235657Y-121208207D01*
X162235657Y-121208207D02*
X162140419Y-121170112D01*
X162140419Y-121170112D02*
X162092800Y-121132017D01*
X162092800Y-121132017D02*
X162045180Y-121055826D01*
X162045180Y-121055826D02*
X162045180Y-120827255D01*
X162045180Y-120827255D02*
X162092800Y-120751064D01*
X162092800Y-120751064D02*
X162140419Y-120712969D01*
X155202438Y-118591792D02*
X155154819Y-118667982D01*
X155154819Y-118667982D02*
X155154819Y-118782268D01*
X155154819Y-118782268D02*
X155202438Y-118896554D01*
X155202438Y-118896554D02*
X155297676Y-118972744D01*
X155297676Y-118972744D02*
X155392914Y-119010839D01*
X155392914Y-119010839D02*
X155583390Y-119048935D01*
X155583390Y-119048935D02*
X155726247Y-119048935D01*
X155726247Y-119048935D02*
X155916723Y-119010839D01*
X155916723Y-119010839D02*
X156011961Y-118972744D01*
X156011961Y-118972744D02*
X156107200Y-118896554D01*
X156107200Y-118896554D02*
X156154819Y-118782268D01*
X156154819Y-118782268D02*
X156154819Y-118706077D01*
X156154819Y-118706077D02*
X156107200Y-118591792D01*
X156107200Y-118591792D02*
X156059580Y-118553696D01*
X156059580Y-118553696D02*
X155726247Y-118553696D01*
X155726247Y-118553696D02*
X155726247Y-118706077D01*
X156154819Y-118210839D02*
X155154819Y-118210839D01*
X155154819Y-118210839D02*
X156154819Y-117753696D01*
X156154819Y-117753696D02*
X155154819Y-117753696D01*
X156154819Y-117372744D02*
X155154819Y-117372744D01*
X155154819Y-117372744D02*
X155154819Y-117182268D01*
X155154819Y-117182268D02*
X155202438Y-117067982D01*
X155202438Y-117067982D02*
X155297676Y-116991792D01*
X155297676Y-116991792D02*
X155392914Y-116953697D01*
X155392914Y-116953697D02*
X155583390Y-116915601D01*
X155583390Y-116915601D02*
X155726247Y-116915601D01*
X155726247Y-116915601D02*
X155916723Y-116953697D01*
X155916723Y-116953697D02*
X156011961Y-116991792D01*
X156011961Y-116991792D02*
X156107200Y-117067982D01*
X156107200Y-117067982D02*
X156154819Y-117182268D01*
X156154819Y-117182268D02*
X156154819Y-117372744D01*
X186046303Y-132459580D02*
X186008207Y-132507200D01*
X186008207Y-132507200D02*
X185893922Y-132554819D01*
X185893922Y-132554819D02*
X185817731Y-132554819D01*
X185817731Y-132554819D02*
X185703445Y-132507200D01*
X185703445Y-132507200D02*
X185627255Y-132411961D01*
X185627255Y-132411961D02*
X185589160Y-132316723D01*
X185589160Y-132316723D02*
X185551064Y-132126247D01*
X185551064Y-132126247D02*
X185551064Y-131983390D01*
X185551064Y-131983390D02*
X185589160Y-131792914D01*
X185589160Y-131792914D02*
X185627255Y-131697676D01*
X185627255Y-131697676D02*
X185703445Y-131602438D01*
X185703445Y-131602438D02*
X185817731Y-131554819D01*
X185817731Y-131554819D02*
X185893922Y-131554819D01*
X185893922Y-131554819D02*
X186008207Y-131602438D01*
X186008207Y-131602438D02*
X186046303Y-131650057D01*
X186770112Y-132554819D02*
X186389160Y-132554819D01*
X186389160Y-132554819D02*
X186389160Y-131554819D01*
X187036779Y-132554819D02*
X187036779Y-131554819D01*
X187493922Y-132554819D02*
X187151064Y-131983390D01*
X187493922Y-131554819D02*
X187036779Y-132126247D01*
D15*
X197950187Y-115442142D02*
X197950187Y-116413571D01*
X197950187Y-116413571D02*
X198007330Y-116527857D01*
X198007330Y-116527857D02*
X198064473Y-116585000D01*
X198064473Y-116585000D02*
X198178758Y-116642142D01*
X198178758Y-116642142D02*
X198407330Y-116642142D01*
X198407330Y-116642142D02*
X198521615Y-116585000D01*
X198521615Y-116585000D02*
X198578758Y-116527857D01*
X198578758Y-116527857D02*
X198635901Y-116413571D01*
X198635901Y-116413571D02*
X198635901Y-115442142D01*
D13*
X196723809Y-112181009D02*
X196457143Y-112181009D01*
X196457143Y-112704819D02*
X196457143Y-111704819D01*
X196457143Y-111704819D02*
X196838095Y-111704819D01*
X197104761Y-112419104D02*
X197485714Y-112419104D01*
X197028571Y-112704819D02*
X197295238Y-111704819D01*
X197295238Y-111704819D02*
X197561904Y-112704819D01*
X197828571Y-111704819D02*
X197828571Y-112514342D01*
X197828571Y-112514342D02*
X197866666Y-112609580D01*
X197866666Y-112609580D02*
X197904761Y-112657200D01*
X197904761Y-112657200D02*
X197980952Y-112704819D01*
X197980952Y-112704819D02*
X198133333Y-112704819D01*
X198133333Y-112704819D02*
X198209523Y-112657200D01*
X198209523Y-112657200D02*
X198247618Y-112609580D01*
X198247618Y-112609580D02*
X198285714Y-112514342D01*
X198285714Y-112514342D02*
X198285714Y-111704819D01*
X199047618Y-112704819D02*
X198666666Y-112704819D01*
X198666666Y-112704819D02*
X198666666Y-111704819D01*
X199199999Y-111704819D02*
X199657142Y-111704819D01*
X199428570Y-112704819D02*
X199428570Y-111704819D01*
X165104762Y-124154819D02*
X165257143Y-124154819D01*
X165257143Y-124154819D02*
X165333333Y-124202438D01*
X165333333Y-124202438D02*
X165409524Y-124297676D01*
X165409524Y-124297676D02*
X165447619Y-124488152D01*
X165447619Y-124488152D02*
X165447619Y-124821485D01*
X165447619Y-124821485D02*
X165409524Y-125011961D01*
X165409524Y-125011961D02*
X165333333Y-125107200D01*
X165333333Y-125107200D02*
X165257143Y-125154819D01*
X165257143Y-125154819D02*
X165104762Y-125154819D01*
X165104762Y-125154819D02*
X165028571Y-125107200D01*
X165028571Y-125107200D02*
X164952381Y-125011961D01*
X164952381Y-125011961D02*
X164914285Y-124821485D01*
X164914285Y-124821485D02*
X164914285Y-124488152D01*
X164914285Y-124488152D02*
X164952381Y-124297676D01*
X164952381Y-124297676D02*
X165028571Y-124202438D01*
X165028571Y-124202438D02*
X165104762Y-124154819D01*
X165790476Y-125154819D02*
X165790476Y-124154819D01*
X165790476Y-124154819D02*
X166247619Y-125154819D01*
X166247619Y-125154819D02*
X166247619Y-124154819D01*
X191051064Y-139007200D02*
X191165350Y-139054819D01*
X191165350Y-139054819D02*
X191355826Y-139054819D01*
X191355826Y-139054819D02*
X191432017Y-139007200D01*
X191432017Y-139007200D02*
X191470112Y-138959580D01*
X191470112Y-138959580D02*
X191508207Y-138864342D01*
X191508207Y-138864342D02*
X191508207Y-138769104D01*
X191508207Y-138769104D02*
X191470112Y-138673866D01*
X191470112Y-138673866D02*
X191432017Y-138626247D01*
X191432017Y-138626247D02*
X191355826Y-138578628D01*
X191355826Y-138578628D02*
X191203445Y-138531009D01*
X191203445Y-138531009D02*
X191127255Y-138483390D01*
X191127255Y-138483390D02*
X191089160Y-138435771D01*
X191089160Y-138435771D02*
X191051064Y-138340533D01*
X191051064Y-138340533D02*
X191051064Y-138245295D01*
X191051064Y-138245295D02*
X191089160Y-138150057D01*
X191089160Y-138150057D02*
X191127255Y-138102438D01*
X191127255Y-138102438D02*
X191203445Y-138054819D01*
X191203445Y-138054819D02*
X191393922Y-138054819D01*
X191393922Y-138054819D02*
X191508207Y-138102438D01*
X191851065Y-139054819D02*
X191851065Y-138054819D01*
X162092800Y-124751064D02*
X162045180Y-124865350D01*
X162045180Y-124865350D02*
X162045180Y-125055826D01*
X162045180Y-125055826D02*
X162092800Y-125132017D01*
X162092800Y-125132017D02*
X162140419Y-125170112D01*
X162140419Y-125170112D02*
X162235657Y-125208207D01*
X162235657Y-125208207D02*
X162330895Y-125208207D01*
X162330895Y-125208207D02*
X162426133Y-125170112D01*
X162426133Y-125170112D02*
X162473752Y-125132017D01*
X162473752Y-125132017D02*
X162521371Y-125055826D01*
X162521371Y-125055826D02*
X162568990Y-124903445D01*
X162568990Y-124903445D02*
X162616609Y-124827255D01*
X162616609Y-124827255D02*
X162664228Y-124789160D01*
X162664228Y-124789160D02*
X162759466Y-124751064D01*
X162759466Y-124751064D02*
X162854704Y-124751064D01*
X162854704Y-124751064D02*
X162949942Y-124789160D01*
X162949942Y-124789160D02*
X162997561Y-124827255D01*
X162997561Y-124827255D02*
X163045180Y-124903445D01*
X163045180Y-124903445D02*
X163045180Y-125093922D01*
X163045180Y-125093922D02*
X162997561Y-125208207D01*
X163045180Y-125703446D02*
X163045180Y-125855827D01*
X163045180Y-125855827D02*
X162997561Y-125932017D01*
X162997561Y-125932017D02*
X162902323Y-126008208D01*
X162902323Y-126008208D02*
X162711847Y-126046303D01*
X162711847Y-126046303D02*
X162378514Y-126046303D01*
X162378514Y-126046303D02*
X162188038Y-126008208D01*
X162188038Y-126008208D02*
X162092800Y-125932017D01*
X162092800Y-125932017D02*
X162045180Y-125855827D01*
X162045180Y-125855827D02*
X162045180Y-125703446D01*
X162045180Y-125703446D02*
X162092800Y-125627255D01*
X162092800Y-125627255D02*
X162188038Y-125551065D01*
X162188038Y-125551065D02*
X162378514Y-125512969D01*
X162378514Y-125512969D02*
X162711847Y-125512969D01*
X162711847Y-125512969D02*
X162902323Y-125551065D01*
X162902323Y-125551065D02*
X162997561Y-125627255D01*
X162997561Y-125627255D02*
X163045180Y-125703446D01*
X162568990Y-126655826D02*
X162521371Y-126770112D01*
X162521371Y-126770112D02*
X162473752Y-126808207D01*
X162473752Y-126808207D02*
X162378514Y-126846303D01*
X162378514Y-126846303D02*
X162235657Y-126846303D01*
X162235657Y-126846303D02*
X162140419Y-126808207D01*
X162140419Y-126808207D02*
X162092800Y-126770112D01*
X162092800Y-126770112D02*
X162045180Y-126693922D01*
X162045180Y-126693922D02*
X162045180Y-126389160D01*
X162045180Y-126389160D02*
X163045180Y-126389160D01*
X163045180Y-126389160D02*
X163045180Y-126655826D01*
X163045180Y-126655826D02*
X162997561Y-126732017D01*
X162997561Y-126732017D02*
X162949942Y-126770112D01*
X162949942Y-126770112D02*
X162854704Y-126808207D01*
X162854704Y-126808207D02*
X162759466Y-126808207D01*
X162759466Y-126808207D02*
X162664228Y-126770112D01*
X162664228Y-126770112D02*
X162616609Y-126732017D01*
X162616609Y-126732017D02*
X162568990Y-126655826D01*
X162568990Y-126655826D02*
X162568990Y-126389160D01*
X195946303Y-139009580D02*
X195908207Y-139057200D01*
X195908207Y-139057200D02*
X195793922Y-139104819D01*
X195793922Y-139104819D02*
X195717731Y-139104819D01*
X195717731Y-139104819D02*
X195603445Y-139057200D01*
X195603445Y-139057200D02*
X195527255Y-138961961D01*
X195527255Y-138961961D02*
X195489160Y-138866723D01*
X195489160Y-138866723D02*
X195451064Y-138676247D01*
X195451064Y-138676247D02*
X195451064Y-138533390D01*
X195451064Y-138533390D02*
X195489160Y-138342914D01*
X195489160Y-138342914D02*
X195527255Y-138247676D01*
X195527255Y-138247676D02*
X195603445Y-138152438D01*
X195603445Y-138152438D02*
X195717731Y-138104819D01*
X195717731Y-138104819D02*
X195793922Y-138104819D01*
X195793922Y-138104819D02*
X195908207Y-138152438D01*
X195908207Y-138152438D02*
X195946303Y-138200057D01*
X196708207Y-139104819D02*
X196251064Y-139104819D01*
X196479636Y-139104819D02*
X196479636Y-138104819D01*
X196479636Y-138104819D02*
X196403445Y-138247676D01*
X196403445Y-138247676D02*
X196327255Y-138342914D01*
X196327255Y-138342914D02*
X196251064Y-138390533D01*
X197051065Y-139104819D02*
X197051065Y-138104819D01*
X197051065Y-138104819D02*
X197508208Y-139104819D01*
X197508208Y-139104819D02*
X197508208Y-138104819D01*
X196851064Y-109007200D02*
X196965350Y-109054819D01*
X196965350Y-109054819D02*
X197155826Y-109054819D01*
X197155826Y-109054819D02*
X197232017Y-109007200D01*
X197232017Y-109007200D02*
X197270112Y-108959580D01*
X197270112Y-108959580D02*
X197308207Y-108864342D01*
X197308207Y-108864342D02*
X197308207Y-108769104D01*
X197308207Y-108769104D02*
X197270112Y-108673866D01*
X197270112Y-108673866D02*
X197232017Y-108626247D01*
X197232017Y-108626247D02*
X197155826Y-108578628D01*
X197155826Y-108578628D02*
X197003445Y-108531009D01*
X197003445Y-108531009D02*
X196927255Y-108483390D01*
X196927255Y-108483390D02*
X196889160Y-108435771D01*
X196889160Y-108435771D02*
X196851064Y-108340533D01*
X196851064Y-108340533D02*
X196851064Y-108245295D01*
X196851064Y-108245295D02*
X196889160Y-108150057D01*
X196889160Y-108150057D02*
X196927255Y-108102438D01*
X196927255Y-108102438D02*
X197003445Y-108054819D01*
X197003445Y-108054819D02*
X197193922Y-108054819D01*
X197193922Y-108054819D02*
X197308207Y-108102438D01*
X198108208Y-108959580D02*
X198070112Y-109007200D01*
X198070112Y-109007200D02*
X197955827Y-109054819D01*
X197955827Y-109054819D02*
X197879636Y-109054819D01*
X197879636Y-109054819D02*
X197765350Y-109007200D01*
X197765350Y-109007200D02*
X197689160Y-108911961D01*
X197689160Y-108911961D02*
X197651065Y-108816723D01*
X197651065Y-108816723D02*
X197612969Y-108626247D01*
X197612969Y-108626247D02*
X197612969Y-108483390D01*
X197612969Y-108483390D02*
X197651065Y-108292914D01*
X197651065Y-108292914D02*
X197689160Y-108197676D01*
X197689160Y-108197676D02*
X197765350Y-108102438D01*
X197765350Y-108102438D02*
X197879636Y-108054819D01*
X197879636Y-108054819D02*
X197955827Y-108054819D01*
X197955827Y-108054819D02*
X198070112Y-108102438D01*
X198070112Y-108102438D02*
X198108208Y-108150057D01*
X198832017Y-109054819D02*
X198451065Y-109054819D01*
X198451065Y-109054819D02*
X198451065Y-108054819D01*
X155154819Y-113837030D02*
X155154819Y-113341792D01*
X155154819Y-113341792D02*
X155535771Y-113608458D01*
X155535771Y-113608458D02*
X155535771Y-113494173D01*
X155535771Y-113494173D02*
X155583390Y-113417982D01*
X155583390Y-113417982D02*
X155631009Y-113379887D01*
X155631009Y-113379887D02*
X155726247Y-113341792D01*
X155726247Y-113341792D02*
X155964342Y-113341792D01*
X155964342Y-113341792D02*
X156059580Y-113379887D01*
X156059580Y-113379887D02*
X156107200Y-113417982D01*
X156107200Y-113417982D02*
X156154819Y-113494173D01*
X156154819Y-113494173D02*
X156154819Y-113722744D01*
X156154819Y-113722744D02*
X156107200Y-113798935D01*
X156107200Y-113798935D02*
X156059580Y-113837030D01*
X155154819Y-113113220D02*
X156154819Y-112846553D01*
X156154819Y-112846553D02*
X155154819Y-112579887D01*
X155154819Y-112389411D02*
X155154819Y-111894173D01*
X155154819Y-111894173D02*
X155535771Y-112160839D01*
X155535771Y-112160839D02*
X155535771Y-112046554D01*
X155535771Y-112046554D02*
X155583390Y-111970363D01*
X155583390Y-111970363D02*
X155631009Y-111932268D01*
X155631009Y-111932268D02*
X155726247Y-111894173D01*
X155726247Y-111894173D02*
X155964342Y-111894173D01*
X155964342Y-111894173D02*
X156059580Y-111932268D01*
X156059580Y-111932268D02*
X156107200Y-111970363D01*
X156107200Y-111970363D02*
X156154819Y-112046554D01*
X156154819Y-112046554D02*
X156154819Y-112275125D01*
X156154819Y-112275125D02*
X156107200Y-112351316D01*
X156107200Y-112351316D02*
X156059580Y-112389411D01*
X198696303Y-139009580D02*
X198658207Y-139057200D01*
X198658207Y-139057200D02*
X198543922Y-139104819D01*
X198543922Y-139104819D02*
X198467731Y-139104819D01*
X198467731Y-139104819D02*
X198353445Y-139057200D01*
X198353445Y-139057200D02*
X198277255Y-138961961D01*
X198277255Y-138961961D02*
X198239160Y-138866723D01*
X198239160Y-138866723D02*
X198201064Y-138676247D01*
X198201064Y-138676247D02*
X198201064Y-138533390D01*
X198201064Y-138533390D02*
X198239160Y-138342914D01*
X198239160Y-138342914D02*
X198277255Y-138247676D01*
X198277255Y-138247676D02*
X198353445Y-138152438D01*
X198353445Y-138152438D02*
X198467731Y-138104819D01*
X198467731Y-138104819D02*
X198543922Y-138104819D01*
X198543922Y-138104819D02*
X198658207Y-138152438D01*
X198658207Y-138152438D02*
X198696303Y-138200057D01*
X199001064Y-138200057D02*
X199039160Y-138152438D01*
X199039160Y-138152438D02*
X199115350Y-138104819D01*
X199115350Y-138104819D02*
X199305826Y-138104819D01*
X199305826Y-138104819D02*
X199382017Y-138152438D01*
X199382017Y-138152438D02*
X199420112Y-138200057D01*
X199420112Y-138200057D02*
X199458207Y-138295295D01*
X199458207Y-138295295D02*
X199458207Y-138390533D01*
X199458207Y-138390533D02*
X199420112Y-138533390D01*
X199420112Y-138533390D02*
X198962969Y-139104819D01*
X198962969Y-139104819D02*
X199458207Y-139104819D01*
X199801065Y-139104819D02*
X199801065Y-138104819D01*
X199801065Y-138104819D02*
X200258208Y-139104819D01*
X200258208Y-139104819D02*
X200258208Y-138104819D01*
X188589160Y-139054819D02*
X188589160Y-138054819D01*
X188589160Y-138054819D02*
X188855826Y-138769104D01*
X188855826Y-138769104D02*
X189122493Y-138054819D01*
X189122493Y-138054819D02*
X189122493Y-139054819D01*
X189503446Y-139054819D02*
X189503446Y-138054819D01*
X186296303Y-138959580D02*
X186258207Y-139007200D01*
X186258207Y-139007200D02*
X186143922Y-139054819D01*
X186143922Y-139054819D02*
X186067731Y-139054819D01*
X186067731Y-139054819D02*
X185953445Y-139007200D01*
X185953445Y-139007200D02*
X185877255Y-138911961D01*
X185877255Y-138911961D02*
X185839160Y-138816723D01*
X185839160Y-138816723D02*
X185801064Y-138626247D01*
X185801064Y-138626247D02*
X185801064Y-138483390D01*
X185801064Y-138483390D02*
X185839160Y-138292914D01*
X185839160Y-138292914D02*
X185877255Y-138197676D01*
X185877255Y-138197676D02*
X185953445Y-138102438D01*
X185953445Y-138102438D02*
X186067731Y-138054819D01*
X186067731Y-138054819D02*
X186143922Y-138054819D01*
X186143922Y-138054819D02*
X186258207Y-138102438D01*
X186258207Y-138102438D02*
X186296303Y-138150057D01*
X186601064Y-139007200D02*
X186715350Y-139054819D01*
X186715350Y-139054819D02*
X186905826Y-139054819D01*
X186905826Y-139054819D02*
X186982017Y-139007200D01*
X186982017Y-139007200D02*
X187020112Y-138959580D01*
X187020112Y-138959580D02*
X187058207Y-138864342D01*
X187058207Y-138864342D02*
X187058207Y-138769104D01*
X187058207Y-138769104D02*
X187020112Y-138673866D01*
X187020112Y-138673866D02*
X186982017Y-138626247D01*
X186982017Y-138626247D02*
X186905826Y-138578628D01*
X186905826Y-138578628D02*
X186753445Y-138531009D01*
X186753445Y-138531009D02*
X186677255Y-138483390D01*
X186677255Y-138483390D02*
X186639160Y-138435771D01*
X186639160Y-138435771D02*
X186601064Y-138340533D01*
X186601064Y-138340533D02*
X186601064Y-138245295D01*
X186601064Y-138245295D02*
X186639160Y-138150057D01*
X186639160Y-138150057D02*
X186677255Y-138102438D01*
X186677255Y-138102438D02*
X186753445Y-138054819D01*
X186753445Y-138054819D02*
X186943922Y-138054819D01*
X186943922Y-138054819D02*
X187058207Y-138102438D01*
X201446303Y-139009580D02*
X201408207Y-139057200D01*
X201408207Y-139057200D02*
X201293922Y-139104819D01*
X201293922Y-139104819D02*
X201217731Y-139104819D01*
X201217731Y-139104819D02*
X201103445Y-139057200D01*
X201103445Y-139057200D02*
X201027255Y-138961961D01*
X201027255Y-138961961D02*
X200989160Y-138866723D01*
X200989160Y-138866723D02*
X200951064Y-138676247D01*
X200951064Y-138676247D02*
X200951064Y-138533390D01*
X200951064Y-138533390D02*
X200989160Y-138342914D01*
X200989160Y-138342914D02*
X201027255Y-138247676D01*
X201027255Y-138247676D02*
X201103445Y-138152438D01*
X201103445Y-138152438D02*
X201217731Y-138104819D01*
X201217731Y-138104819D02*
X201293922Y-138104819D01*
X201293922Y-138104819D02*
X201408207Y-138152438D01*
X201408207Y-138152438D02*
X201446303Y-138200057D01*
X201712969Y-138104819D02*
X202208207Y-138104819D01*
X202208207Y-138104819D02*
X201941541Y-138485771D01*
X201941541Y-138485771D02*
X202055826Y-138485771D01*
X202055826Y-138485771D02*
X202132017Y-138533390D01*
X202132017Y-138533390D02*
X202170112Y-138581009D01*
X202170112Y-138581009D02*
X202208207Y-138676247D01*
X202208207Y-138676247D02*
X202208207Y-138914342D01*
X202208207Y-138914342D02*
X202170112Y-139009580D01*
X202170112Y-139009580D02*
X202132017Y-139057200D01*
X202132017Y-139057200D02*
X202055826Y-139104819D01*
X202055826Y-139104819D02*
X201827255Y-139104819D01*
X201827255Y-139104819D02*
X201751064Y-139057200D01*
X201751064Y-139057200D02*
X201712969Y-139009580D01*
X202551065Y-139104819D02*
X202551065Y-138104819D01*
X202551065Y-138104819D02*
X203008208Y-139104819D01*
X203008208Y-139104819D02*
X203008208Y-138104819D01*
X162140419Y-128146303D02*
X162092800Y-128108207D01*
X162092800Y-128108207D02*
X162045180Y-127993922D01*
X162045180Y-127993922D02*
X162045180Y-127917731D01*
X162045180Y-127917731D02*
X162092800Y-127803445D01*
X162092800Y-127803445D02*
X162188038Y-127727255D01*
X162188038Y-127727255D02*
X162283276Y-127689160D01*
X162283276Y-127689160D02*
X162473752Y-127651064D01*
X162473752Y-127651064D02*
X162616609Y-127651064D01*
X162616609Y-127651064D02*
X162807085Y-127689160D01*
X162807085Y-127689160D02*
X162902323Y-127727255D01*
X162902323Y-127727255D02*
X162997561Y-127803445D01*
X162997561Y-127803445D02*
X163045180Y-127917731D01*
X163045180Y-127917731D02*
X163045180Y-127993922D01*
X163045180Y-127993922D02*
X162997561Y-128108207D01*
X162997561Y-128108207D02*
X162949942Y-128146303D01*
X162045180Y-128527255D02*
X162045180Y-128679636D01*
X162045180Y-128679636D02*
X162092800Y-128755826D01*
X162092800Y-128755826D02*
X162140419Y-128793922D01*
X162140419Y-128793922D02*
X162283276Y-128870112D01*
X162283276Y-128870112D02*
X162473752Y-128908207D01*
X162473752Y-128908207D02*
X162854704Y-128908207D01*
X162854704Y-128908207D02*
X162949942Y-128870112D01*
X162949942Y-128870112D02*
X162997561Y-128832017D01*
X162997561Y-128832017D02*
X163045180Y-128755826D01*
X163045180Y-128755826D02*
X163045180Y-128603445D01*
X163045180Y-128603445D02*
X162997561Y-128527255D01*
X162997561Y-128527255D02*
X162949942Y-128489160D01*
X162949942Y-128489160D02*
X162854704Y-128451064D01*
X162854704Y-128451064D02*
X162616609Y-128451064D01*
X162616609Y-128451064D02*
X162521371Y-128489160D01*
X162521371Y-128489160D02*
X162473752Y-128527255D01*
X162473752Y-128527255D02*
X162426133Y-128603445D01*
X162426133Y-128603445D02*
X162426133Y-128755826D01*
X162426133Y-128755826D02*
X162473752Y-128832017D01*
X162473752Y-128832017D02*
X162521371Y-128870112D01*
X162521371Y-128870112D02*
X162616609Y-128908207D01*
X199812969Y-108054819D02*
X200308207Y-108054819D01*
X200308207Y-108054819D02*
X200041541Y-108435771D01*
X200041541Y-108435771D02*
X200155826Y-108435771D01*
X200155826Y-108435771D02*
X200232017Y-108483390D01*
X200232017Y-108483390D02*
X200270112Y-108531009D01*
X200270112Y-108531009D02*
X200308207Y-108626247D01*
X200308207Y-108626247D02*
X200308207Y-108864342D01*
X200308207Y-108864342D02*
X200270112Y-108959580D01*
X200270112Y-108959580D02*
X200232017Y-109007200D01*
X200232017Y-109007200D02*
X200155826Y-109054819D01*
X200155826Y-109054819D02*
X199927255Y-109054819D01*
X199927255Y-109054819D02*
X199851064Y-109007200D01*
X199851064Y-109007200D02*
X199812969Y-108959580D01*
X200536779Y-108054819D02*
X200803446Y-109054819D01*
X200803446Y-109054819D02*
X201070112Y-108054819D01*
X201260588Y-108054819D02*
X201755826Y-108054819D01*
X201755826Y-108054819D02*
X201489160Y-108435771D01*
X201489160Y-108435771D02*
X201603445Y-108435771D01*
X201603445Y-108435771D02*
X201679636Y-108483390D01*
X201679636Y-108483390D02*
X201717731Y-108531009D01*
X201717731Y-108531009D02*
X201755826Y-108626247D01*
X201755826Y-108626247D02*
X201755826Y-108864342D01*
X201755826Y-108864342D02*
X201717731Y-108959580D01*
X201717731Y-108959580D02*
X201679636Y-109007200D01*
X201679636Y-109007200D02*
X201603445Y-109054819D01*
X201603445Y-109054819D02*
X201374874Y-109054819D01*
X201374874Y-109054819D02*
X201298683Y-109007200D01*
X201298683Y-109007200D02*
X201260588Y-108959580D01*
X162140419Y-122946303D02*
X162092800Y-122908207D01*
X162092800Y-122908207D02*
X162045180Y-122793922D01*
X162045180Y-122793922D02*
X162045180Y-122717731D01*
X162045180Y-122717731D02*
X162092800Y-122603445D01*
X162092800Y-122603445D02*
X162188038Y-122527255D01*
X162188038Y-122527255D02*
X162283276Y-122489160D01*
X162283276Y-122489160D02*
X162473752Y-122451064D01*
X162473752Y-122451064D02*
X162616609Y-122451064D01*
X162616609Y-122451064D02*
X162807085Y-122489160D01*
X162807085Y-122489160D02*
X162902323Y-122527255D01*
X162902323Y-122527255D02*
X162997561Y-122603445D01*
X162997561Y-122603445D02*
X163045180Y-122717731D01*
X163045180Y-122717731D02*
X163045180Y-122793922D01*
X163045180Y-122793922D02*
X162997561Y-122908207D01*
X162997561Y-122908207D02*
X162949942Y-122946303D01*
X162092800Y-123251064D02*
X162045180Y-123365350D01*
X162045180Y-123365350D02*
X162045180Y-123555826D01*
X162045180Y-123555826D02*
X162092800Y-123632017D01*
X162092800Y-123632017D02*
X162140419Y-123670112D01*
X162140419Y-123670112D02*
X162235657Y-123708207D01*
X162235657Y-123708207D02*
X162330895Y-123708207D01*
X162330895Y-123708207D02*
X162426133Y-123670112D01*
X162426133Y-123670112D02*
X162473752Y-123632017D01*
X162473752Y-123632017D02*
X162521371Y-123555826D01*
X162521371Y-123555826D02*
X162568990Y-123403445D01*
X162568990Y-123403445D02*
X162616609Y-123327255D01*
X162616609Y-123327255D02*
X162664228Y-123289160D01*
X162664228Y-123289160D02*
X162759466Y-123251064D01*
X162759466Y-123251064D02*
X162854704Y-123251064D01*
X162854704Y-123251064D02*
X162949942Y-123289160D01*
X162949942Y-123289160D02*
X162997561Y-123327255D01*
X162997561Y-123327255D02*
X163045180Y-123403445D01*
X163045180Y-123403445D02*
X163045180Y-123593922D01*
X163045180Y-123593922D02*
X162997561Y-123708207D01*
X203308207Y-108102438D02*
X203232017Y-108054819D01*
X203232017Y-108054819D02*
X203117731Y-108054819D01*
X203117731Y-108054819D02*
X203003445Y-108102438D01*
X203003445Y-108102438D02*
X202927255Y-108197676D01*
X202927255Y-108197676D02*
X202889160Y-108292914D01*
X202889160Y-108292914D02*
X202851064Y-108483390D01*
X202851064Y-108483390D02*
X202851064Y-108626247D01*
X202851064Y-108626247D02*
X202889160Y-108816723D01*
X202889160Y-108816723D02*
X202927255Y-108911961D01*
X202927255Y-108911961D02*
X203003445Y-109007200D01*
X203003445Y-109007200D02*
X203117731Y-109054819D01*
X203117731Y-109054819D02*
X203193922Y-109054819D01*
X203193922Y-109054819D02*
X203308207Y-109007200D01*
X203308207Y-109007200D02*
X203346303Y-108959580D01*
X203346303Y-108959580D02*
X203346303Y-108626247D01*
X203346303Y-108626247D02*
X203193922Y-108626247D01*
X169454819Y-119897618D02*
X168454819Y-119897618D01*
X168454819Y-119897618D02*
X169169104Y-119630952D01*
X169169104Y-119630952D02*
X168454819Y-119364285D01*
X168454819Y-119364285D02*
X169454819Y-119364285D01*
X169359580Y-118526189D02*
X169407200Y-118564285D01*
X169407200Y-118564285D02*
X169454819Y-118678570D01*
X169454819Y-118678570D02*
X169454819Y-118754761D01*
X169454819Y-118754761D02*
X169407200Y-118869047D01*
X169407200Y-118869047D02*
X169311961Y-118945237D01*
X169311961Y-118945237D02*
X169216723Y-118983332D01*
X169216723Y-118983332D02*
X169026247Y-119021428D01*
X169026247Y-119021428D02*
X168883390Y-119021428D01*
X168883390Y-119021428D02*
X168692914Y-118983332D01*
X168692914Y-118983332D02*
X168597676Y-118945237D01*
X168597676Y-118945237D02*
X168502438Y-118869047D01*
X168502438Y-118869047D02*
X168454819Y-118754761D01*
X168454819Y-118754761D02*
X168454819Y-118678570D01*
X168454819Y-118678570D02*
X168502438Y-118564285D01*
X168502438Y-118564285D02*
X168550057Y-118526189D01*
X168454819Y-118183332D02*
X169264342Y-118183332D01*
X169264342Y-118183332D02*
X169359580Y-118145237D01*
X169359580Y-118145237D02*
X169407200Y-118107142D01*
X169407200Y-118107142D02*
X169454819Y-118030951D01*
X169454819Y-118030951D02*
X169454819Y-117878570D01*
X169454819Y-117878570D02*
X169407200Y-117802380D01*
X169407200Y-117802380D02*
X169359580Y-117764285D01*
X169359580Y-117764285D02*
X169264342Y-117726189D01*
X169264342Y-117726189D02*
X168454819Y-117726189D01*
X169454819Y-116735713D02*
X168454819Y-116735713D01*
X168454819Y-116735713D02*
X168454819Y-116430951D01*
X168454819Y-116430951D02*
X168502438Y-116354761D01*
X168502438Y-116354761D02*
X168550057Y-116316666D01*
X168550057Y-116316666D02*
X168645295Y-116278570D01*
X168645295Y-116278570D02*
X168788152Y-116278570D01*
X168788152Y-116278570D02*
X168883390Y-116316666D01*
X168883390Y-116316666D02*
X168931009Y-116354761D01*
X168931009Y-116354761D02*
X168978628Y-116430951D01*
X168978628Y-116430951D02*
X168978628Y-116735713D01*
X168454819Y-116011904D02*
X169454819Y-115821428D01*
X169454819Y-115821428D02*
X168740533Y-115669047D01*
X168740533Y-115669047D02*
X169454819Y-115516666D01*
X169454819Y-115516666D02*
X168454819Y-115326190D01*
X169454819Y-114564284D02*
X168978628Y-114830951D01*
X169454819Y-115021427D02*
X168454819Y-115021427D01*
X168454819Y-115021427D02*
X168454819Y-114716665D01*
X168454819Y-114716665D02*
X168502438Y-114640475D01*
X168502438Y-114640475D02*
X168550057Y-114602380D01*
X168550057Y-114602380D02*
X168645295Y-114564284D01*
X168645295Y-114564284D02*
X168788152Y-114564284D01*
X168788152Y-114564284D02*
X168883390Y-114602380D01*
X168883390Y-114602380D02*
X168931009Y-114640475D01*
X168931009Y-114640475D02*
X168978628Y-114716665D01*
X168978628Y-114716665D02*
X168978628Y-115021427D01*
X156107200Y-126748935D02*
X156154819Y-126634649D01*
X156154819Y-126634649D02*
X156154819Y-126444173D01*
X156154819Y-126444173D02*
X156107200Y-126367982D01*
X156107200Y-126367982D02*
X156059580Y-126329887D01*
X156059580Y-126329887D02*
X155964342Y-126291792D01*
X155964342Y-126291792D02*
X155869104Y-126291792D01*
X155869104Y-126291792D02*
X155773866Y-126329887D01*
X155773866Y-126329887D02*
X155726247Y-126367982D01*
X155726247Y-126367982D02*
X155678628Y-126444173D01*
X155678628Y-126444173D02*
X155631009Y-126596554D01*
X155631009Y-126596554D02*
X155583390Y-126672744D01*
X155583390Y-126672744D02*
X155535771Y-126710839D01*
X155535771Y-126710839D02*
X155440533Y-126748935D01*
X155440533Y-126748935D02*
X155345295Y-126748935D01*
X155345295Y-126748935D02*
X155250057Y-126710839D01*
X155250057Y-126710839D02*
X155202438Y-126672744D01*
X155202438Y-126672744D02*
X155154819Y-126596554D01*
X155154819Y-126596554D02*
X155154819Y-126406077D01*
X155154819Y-126406077D02*
X155202438Y-126291792D01*
X155154819Y-125796553D02*
X155154819Y-125644172D01*
X155154819Y-125644172D02*
X155202438Y-125567982D01*
X155202438Y-125567982D02*
X155297676Y-125491791D01*
X155297676Y-125491791D02*
X155488152Y-125453696D01*
X155488152Y-125453696D02*
X155821485Y-125453696D01*
X155821485Y-125453696D02*
X156011961Y-125491791D01*
X156011961Y-125491791D02*
X156107200Y-125567982D01*
X156107200Y-125567982D02*
X156154819Y-125644172D01*
X156154819Y-125644172D02*
X156154819Y-125796553D01*
X156154819Y-125796553D02*
X156107200Y-125872744D01*
X156107200Y-125872744D02*
X156011961Y-125948934D01*
X156011961Y-125948934D02*
X155821485Y-125987030D01*
X155821485Y-125987030D02*
X155488152Y-125987030D01*
X155488152Y-125987030D02*
X155297676Y-125948934D01*
X155297676Y-125948934D02*
X155202438Y-125872744D01*
X155202438Y-125872744D02*
X155154819Y-125796553D01*
X156059580Y-124653696D02*
X156107200Y-124691792D01*
X156107200Y-124691792D02*
X156154819Y-124806077D01*
X156154819Y-124806077D02*
X156154819Y-124882268D01*
X156154819Y-124882268D02*
X156107200Y-124996554D01*
X156107200Y-124996554D02*
X156011961Y-125072744D01*
X156011961Y-125072744D02*
X155916723Y-125110839D01*
X155916723Y-125110839D02*
X155726247Y-125148935D01*
X155726247Y-125148935D02*
X155583390Y-125148935D01*
X155583390Y-125148935D02*
X155392914Y-125110839D01*
X155392914Y-125110839D02*
X155297676Y-125072744D01*
X155297676Y-125072744D02*
X155202438Y-124996554D01*
X155202438Y-124996554D02*
X155154819Y-124882268D01*
X155154819Y-124882268D02*
X155154819Y-124806077D01*
X155154819Y-124806077D02*
X155202438Y-124691792D01*
X155202438Y-124691792D02*
X155250057Y-124653696D01*
X155154819Y-123858458D02*
X155154819Y-123706077D01*
X155154819Y-123706077D02*
X155202438Y-123629887D01*
X155202438Y-123629887D02*
X155297676Y-123553696D01*
X155297676Y-123553696D02*
X155488152Y-123515601D01*
X155488152Y-123515601D02*
X155821485Y-123515601D01*
X155821485Y-123515601D02*
X156011961Y-123553696D01*
X156011961Y-123553696D02*
X156107200Y-123629887D01*
X156107200Y-123629887D02*
X156154819Y-123706077D01*
X156154819Y-123706077D02*
X156154819Y-123858458D01*
X156154819Y-123858458D02*
X156107200Y-123934649D01*
X156107200Y-123934649D02*
X156011961Y-124010839D01*
X156011961Y-124010839D02*
X155821485Y-124048935D01*
X155821485Y-124048935D02*
X155488152Y-124048935D01*
X155488152Y-124048935D02*
X155297676Y-124010839D01*
X155297676Y-124010839D02*
X155202438Y-123934649D01*
X155202438Y-123934649D02*
X155154819Y-123858458D01*
X155631009Y-122906078D02*
X155631009Y-123172744D01*
X156154819Y-123172744D02*
X155154819Y-123172744D01*
X155154819Y-123172744D02*
X155154819Y-122791792D01*
X155631009Y-122220364D02*
X155631009Y-122487030D01*
X156154819Y-122487030D02*
X155154819Y-122487030D01*
X155154819Y-122487030D02*
X155154819Y-122106078D01*
X156059580Y-133553696D02*
X156107200Y-133591792D01*
X156107200Y-133591792D02*
X156154819Y-133706077D01*
X156154819Y-133706077D02*
X156154819Y-133782268D01*
X156154819Y-133782268D02*
X156107200Y-133896554D01*
X156107200Y-133896554D02*
X156011961Y-133972744D01*
X156011961Y-133972744D02*
X155916723Y-134010839D01*
X155916723Y-134010839D02*
X155726247Y-134048935D01*
X155726247Y-134048935D02*
X155583390Y-134048935D01*
X155583390Y-134048935D02*
X155392914Y-134010839D01*
X155392914Y-134010839D02*
X155297676Y-133972744D01*
X155297676Y-133972744D02*
X155202438Y-133896554D01*
X155202438Y-133896554D02*
X155154819Y-133782268D01*
X155154819Y-133782268D02*
X155154819Y-133706077D01*
X155154819Y-133706077D02*
X155202438Y-133591792D01*
X155202438Y-133591792D02*
X155250057Y-133553696D01*
X155154819Y-132867982D02*
X155154819Y-133020363D01*
X155154819Y-133020363D02*
X155202438Y-133096554D01*
X155202438Y-133096554D02*
X155250057Y-133134649D01*
X155250057Y-133134649D02*
X155392914Y-133210839D01*
X155392914Y-133210839D02*
X155583390Y-133248935D01*
X155583390Y-133248935D02*
X155964342Y-133248935D01*
X155964342Y-133248935D02*
X156059580Y-133210839D01*
X156059580Y-133210839D02*
X156107200Y-133172744D01*
X156107200Y-133172744D02*
X156154819Y-133096554D01*
X156154819Y-133096554D02*
X156154819Y-132944173D01*
X156154819Y-132944173D02*
X156107200Y-132867982D01*
X156107200Y-132867982D02*
X156059580Y-132829887D01*
X156059580Y-132829887D02*
X155964342Y-132791792D01*
X155964342Y-132791792D02*
X155726247Y-132791792D01*
X155726247Y-132791792D02*
X155631009Y-132829887D01*
X155631009Y-132829887D02*
X155583390Y-132867982D01*
X155583390Y-132867982D02*
X155535771Y-132944173D01*
X155535771Y-132944173D02*
X155535771Y-133096554D01*
X155535771Y-133096554D02*
X155583390Y-133172744D01*
X155583390Y-133172744D02*
X155631009Y-133210839D01*
X155631009Y-133210839D02*
X155726247Y-133248935D01*
D15*
X197978758Y-118742142D02*
X198378758Y-119942142D01*
X198378758Y-119942142D02*
X198778758Y-118742142D01*
D13*
X177057142Y-126154819D02*
X176723809Y-125678628D01*
X176485714Y-126154819D02*
X176485714Y-125154819D01*
X176485714Y-125154819D02*
X176866666Y-125154819D01*
X176866666Y-125154819D02*
X176961904Y-125202438D01*
X176961904Y-125202438D02*
X177009523Y-125250057D01*
X177009523Y-125250057D02*
X177057142Y-125345295D01*
X177057142Y-125345295D02*
X177057142Y-125488152D01*
X177057142Y-125488152D02*
X177009523Y-125583390D01*
X177009523Y-125583390D02*
X176961904Y-125631009D01*
X176961904Y-125631009D02*
X176866666Y-125678628D01*
X176866666Y-125678628D02*
X176485714Y-125678628D01*
X178009523Y-126154819D02*
X177438095Y-126154819D01*
X177723809Y-126154819D02*
X177723809Y-125154819D01*
X177723809Y-125154819D02*
X177628571Y-125297676D01*
X177628571Y-125297676D02*
X177533333Y-125392914D01*
X177533333Y-125392914D02*
X177438095Y-125440533D01*
X178961904Y-126154819D02*
X178390476Y-126154819D01*
X178676190Y-126154819D02*
X178676190Y-125154819D01*
X178676190Y-125154819D02*
X178580952Y-125297676D01*
X178580952Y-125297676D02*
X178485714Y-125392914D01*
X178485714Y-125392914D02*
X178390476Y-125440533D01*
X197357142Y-130959580D02*
X197309523Y-131007200D01*
X197309523Y-131007200D02*
X197166666Y-131054819D01*
X197166666Y-131054819D02*
X197071428Y-131054819D01*
X197071428Y-131054819D02*
X196928571Y-131007200D01*
X196928571Y-131007200D02*
X196833333Y-130911961D01*
X196833333Y-130911961D02*
X196785714Y-130816723D01*
X196785714Y-130816723D02*
X196738095Y-130626247D01*
X196738095Y-130626247D02*
X196738095Y-130483390D01*
X196738095Y-130483390D02*
X196785714Y-130292914D01*
X196785714Y-130292914D02*
X196833333Y-130197676D01*
X196833333Y-130197676D02*
X196928571Y-130102438D01*
X196928571Y-130102438D02*
X197071428Y-130054819D01*
X197071428Y-130054819D02*
X197166666Y-130054819D01*
X197166666Y-130054819D02*
X197309523Y-130102438D01*
X197309523Y-130102438D02*
X197357142Y-130150057D01*
X197738095Y-130150057D02*
X197785714Y-130102438D01*
X197785714Y-130102438D02*
X197880952Y-130054819D01*
X197880952Y-130054819D02*
X198119047Y-130054819D01*
X198119047Y-130054819D02*
X198214285Y-130102438D01*
X198214285Y-130102438D02*
X198261904Y-130150057D01*
X198261904Y-130150057D02*
X198309523Y-130245295D01*
X198309523Y-130245295D02*
X198309523Y-130340533D01*
X198309523Y-130340533D02*
X198261904Y-130483390D01*
X198261904Y-130483390D02*
X197690476Y-131054819D01*
X197690476Y-131054819D02*
X198309523Y-131054819D01*
X198928571Y-130054819D02*
X199023809Y-130054819D01*
X199023809Y-130054819D02*
X199119047Y-130102438D01*
X199119047Y-130102438D02*
X199166666Y-130150057D01*
X199166666Y-130150057D02*
X199214285Y-130245295D01*
X199214285Y-130245295D02*
X199261904Y-130435771D01*
X199261904Y-130435771D02*
X199261904Y-130673866D01*
X199261904Y-130673866D02*
X199214285Y-130864342D01*
X199214285Y-130864342D02*
X199166666Y-130959580D01*
X199166666Y-130959580D02*
X199119047Y-131007200D01*
X199119047Y-131007200D02*
X199023809Y-131054819D01*
X199023809Y-131054819D02*
X198928571Y-131054819D01*
X198928571Y-131054819D02*
X198833333Y-131007200D01*
X198833333Y-131007200D02*
X198785714Y-130959580D01*
X198785714Y-130959580D02*
X198738095Y-130864342D01*
X198738095Y-130864342D02*
X198690476Y-130673866D01*
X198690476Y-130673866D02*
X198690476Y-130435771D01*
X198690476Y-130435771D02*
X198738095Y-130245295D01*
X198738095Y-130245295D02*
X198785714Y-130150057D01*
X198785714Y-130150057D02*
X198833333Y-130102438D01*
X198833333Y-130102438D02*
X198928571Y-130054819D01*
X191533333Y-115959580D02*
X191485714Y-116007200D01*
X191485714Y-116007200D02*
X191342857Y-116054819D01*
X191342857Y-116054819D02*
X191247619Y-116054819D01*
X191247619Y-116054819D02*
X191104762Y-116007200D01*
X191104762Y-116007200D02*
X191009524Y-115911961D01*
X191009524Y-115911961D02*
X190961905Y-115816723D01*
X190961905Y-115816723D02*
X190914286Y-115626247D01*
X190914286Y-115626247D02*
X190914286Y-115483390D01*
X190914286Y-115483390D02*
X190961905Y-115292914D01*
X190961905Y-115292914D02*
X191009524Y-115197676D01*
X191009524Y-115197676D02*
X191104762Y-115102438D01*
X191104762Y-115102438D02*
X191247619Y-115054819D01*
X191247619Y-115054819D02*
X191342857Y-115054819D01*
X191342857Y-115054819D02*
X191485714Y-115102438D01*
X191485714Y-115102438D02*
X191533333Y-115150057D01*
X192009524Y-116054819D02*
X192200000Y-116054819D01*
X192200000Y-116054819D02*
X192295238Y-116007200D01*
X192295238Y-116007200D02*
X192342857Y-115959580D01*
X192342857Y-115959580D02*
X192438095Y-115816723D01*
X192438095Y-115816723D02*
X192485714Y-115626247D01*
X192485714Y-115626247D02*
X192485714Y-115245295D01*
X192485714Y-115245295D02*
X192438095Y-115150057D01*
X192438095Y-115150057D02*
X192390476Y-115102438D01*
X192390476Y-115102438D02*
X192295238Y-115054819D01*
X192295238Y-115054819D02*
X192104762Y-115054819D01*
X192104762Y-115054819D02*
X192009524Y-115102438D01*
X192009524Y-115102438D02*
X191961905Y-115150057D01*
X191961905Y-115150057D02*
X191914286Y-115245295D01*
X191914286Y-115245295D02*
X191914286Y-115483390D01*
X191914286Y-115483390D02*
X191961905Y-115578628D01*
X191961905Y-115578628D02*
X192009524Y-115626247D01*
X192009524Y-115626247D02*
X192104762Y-115673866D01*
X192104762Y-115673866D02*
X192295238Y-115673866D01*
X192295238Y-115673866D02*
X192390476Y-115626247D01*
X192390476Y-115626247D02*
X192438095Y-115578628D01*
X192438095Y-115578628D02*
X192485714Y-115483390D01*
D16*
X186432380Y-117009271D02*
X186432380Y-118037366D01*
X186432380Y-118037366D02*
X186492857Y-118158318D01*
X186492857Y-118158318D02*
X186553333Y-118218795D01*
X186553333Y-118218795D02*
X186674285Y-118279271D01*
X186674285Y-118279271D02*
X186916190Y-118279271D01*
X186916190Y-118279271D02*
X187037142Y-118218795D01*
X187037142Y-118218795D02*
X187097619Y-118158318D01*
X187097619Y-118158318D02*
X187158095Y-118037366D01*
X187158095Y-118037366D02*
X187158095Y-117009271D01*
X188428095Y-118279271D02*
X187702380Y-118279271D01*
X188065237Y-118279271D02*
X188065237Y-117009271D01*
X188065237Y-117009271D02*
X187944285Y-117190699D01*
X187944285Y-117190699D02*
X187823333Y-117311652D01*
X187823333Y-117311652D02*
X187702380Y-117372128D01*
D13*
X168959580Y-122266666D02*
X169007200Y-122314285D01*
X169007200Y-122314285D02*
X169054819Y-122457142D01*
X169054819Y-122457142D02*
X169054819Y-122552380D01*
X169054819Y-122552380D02*
X169007200Y-122695237D01*
X169007200Y-122695237D02*
X168911961Y-122790475D01*
X168911961Y-122790475D02*
X168816723Y-122838094D01*
X168816723Y-122838094D02*
X168626247Y-122885713D01*
X168626247Y-122885713D02*
X168483390Y-122885713D01*
X168483390Y-122885713D02*
X168292914Y-122838094D01*
X168292914Y-122838094D02*
X168197676Y-122790475D01*
X168197676Y-122790475D02*
X168102438Y-122695237D01*
X168102438Y-122695237D02*
X168054819Y-122552380D01*
X168054819Y-122552380D02*
X168054819Y-122457142D01*
X168054819Y-122457142D02*
X168102438Y-122314285D01*
X168102438Y-122314285D02*
X168150057Y-122266666D01*
X168054819Y-121933332D02*
X168054819Y-121314285D01*
X168054819Y-121314285D02*
X168435771Y-121647618D01*
X168435771Y-121647618D02*
X168435771Y-121504761D01*
X168435771Y-121504761D02*
X168483390Y-121409523D01*
X168483390Y-121409523D02*
X168531009Y-121361904D01*
X168531009Y-121361904D02*
X168626247Y-121314285D01*
X168626247Y-121314285D02*
X168864342Y-121314285D01*
X168864342Y-121314285D02*
X168959580Y-121361904D01*
X168959580Y-121361904D02*
X169007200Y-121409523D01*
X169007200Y-121409523D02*
X169054819Y-121504761D01*
X169054819Y-121504761D02*
X169054819Y-121790475D01*
X169054819Y-121790475D02*
X169007200Y-121885713D01*
X169007200Y-121885713D02*
X168959580Y-121933332D01*
X198357142Y-125459580D02*
X198309523Y-125507200D01*
X198309523Y-125507200D02*
X198166666Y-125554819D01*
X198166666Y-125554819D02*
X198071428Y-125554819D01*
X198071428Y-125554819D02*
X197928571Y-125507200D01*
X197928571Y-125507200D02*
X197833333Y-125411961D01*
X197833333Y-125411961D02*
X197785714Y-125316723D01*
X197785714Y-125316723D02*
X197738095Y-125126247D01*
X197738095Y-125126247D02*
X197738095Y-124983390D01*
X197738095Y-124983390D02*
X197785714Y-124792914D01*
X197785714Y-124792914D02*
X197833333Y-124697676D01*
X197833333Y-124697676D02*
X197928571Y-124602438D01*
X197928571Y-124602438D02*
X198071428Y-124554819D01*
X198071428Y-124554819D02*
X198166666Y-124554819D01*
X198166666Y-124554819D02*
X198309523Y-124602438D01*
X198309523Y-124602438D02*
X198357142Y-124650057D01*
X199309523Y-125554819D02*
X198738095Y-125554819D01*
X199023809Y-125554819D02*
X199023809Y-124554819D01*
X199023809Y-124554819D02*
X198928571Y-124697676D01*
X198928571Y-124697676D02*
X198833333Y-124792914D01*
X198833333Y-124792914D02*
X198738095Y-124840533D01*
X199928571Y-124554819D02*
X200023809Y-124554819D01*
X200023809Y-124554819D02*
X200119047Y-124602438D01*
X200119047Y-124602438D02*
X200166666Y-124650057D01*
X200166666Y-124650057D02*
X200214285Y-124745295D01*
X200214285Y-124745295D02*
X200261904Y-124935771D01*
X200261904Y-124935771D02*
X200261904Y-125173866D01*
X200261904Y-125173866D02*
X200214285Y-125364342D01*
X200214285Y-125364342D02*
X200166666Y-125459580D01*
X200166666Y-125459580D02*
X200119047Y-125507200D01*
X200119047Y-125507200D02*
X200023809Y-125554819D01*
X200023809Y-125554819D02*
X199928571Y-125554819D01*
X199928571Y-125554819D02*
X199833333Y-125507200D01*
X199833333Y-125507200D02*
X199785714Y-125459580D01*
X199785714Y-125459580D02*
X199738095Y-125364342D01*
X199738095Y-125364342D02*
X199690476Y-125173866D01*
X199690476Y-125173866D02*
X199690476Y-124935771D01*
X199690476Y-124935771D02*
X199738095Y-124745295D01*
X199738095Y-124745295D02*
X199785714Y-124650057D01*
X199785714Y-124650057D02*
X199833333Y-124602438D01*
X199833333Y-124602438D02*
X199928571Y-124554819D01*
X188533333Y-123604819D02*
X188200000Y-123128628D01*
X187961905Y-123604819D02*
X187961905Y-122604819D01*
X187961905Y-122604819D02*
X188342857Y-122604819D01*
X188342857Y-122604819D02*
X188438095Y-122652438D01*
X188438095Y-122652438D02*
X188485714Y-122700057D01*
X188485714Y-122700057D02*
X188533333Y-122795295D01*
X188533333Y-122795295D02*
X188533333Y-122938152D01*
X188533333Y-122938152D02*
X188485714Y-123033390D01*
X188485714Y-123033390D02*
X188438095Y-123081009D01*
X188438095Y-123081009D02*
X188342857Y-123128628D01*
X188342857Y-123128628D02*
X187961905Y-123128628D01*
X188866667Y-122604819D02*
X189533333Y-122604819D01*
X189533333Y-122604819D02*
X189104762Y-123604819D01*
X183033333Y-135759580D02*
X182985714Y-135807200D01*
X182985714Y-135807200D02*
X182842857Y-135854819D01*
X182842857Y-135854819D02*
X182747619Y-135854819D01*
X182747619Y-135854819D02*
X182604762Y-135807200D01*
X182604762Y-135807200D02*
X182509524Y-135711961D01*
X182509524Y-135711961D02*
X182461905Y-135616723D01*
X182461905Y-135616723D02*
X182414286Y-135426247D01*
X182414286Y-135426247D02*
X182414286Y-135283390D01*
X182414286Y-135283390D02*
X182461905Y-135092914D01*
X182461905Y-135092914D02*
X182509524Y-134997676D01*
X182509524Y-134997676D02*
X182604762Y-134902438D01*
X182604762Y-134902438D02*
X182747619Y-134854819D01*
X182747619Y-134854819D02*
X182842857Y-134854819D01*
X182842857Y-134854819D02*
X182985714Y-134902438D01*
X182985714Y-134902438D02*
X183033333Y-134950057D01*
X183604762Y-135283390D02*
X183509524Y-135235771D01*
X183509524Y-135235771D02*
X183461905Y-135188152D01*
X183461905Y-135188152D02*
X183414286Y-135092914D01*
X183414286Y-135092914D02*
X183414286Y-135045295D01*
X183414286Y-135045295D02*
X183461905Y-134950057D01*
X183461905Y-134950057D02*
X183509524Y-134902438D01*
X183509524Y-134902438D02*
X183604762Y-134854819D01*
X183604762Y-134854819D02*
X183795238Y-134854819D01*
X183795238Y-134854819D02*
X183890476Y-134902438D01*
X183890476Y-134902438D02*
X183938095Y-134950057D01*
X183938095Y-134950057D02*
X183985714Y-135045295D01*
X183985714Y-135045295D02*
X183985714Y-135092914D01*
X183985714Y-135092914D02*
X183938095Y-135188152D01*
X183938095Y-135188152D02*
X183890476Y-135235771D01*
X183890476Y-135235771D02*
X183795238Y-135283390D01*
X183795238Y-135283390D02*
X183604762Y-135283390D01*
X183604762Y-135283390D02*
X183509524Y-135331009D01*
X183509524Y-135331009D02*
X183461905Y-135378628D01*
X183461905Y-135378628D02*
X183414286Y-135473866D01*
X183414286Y-135473866D02*
X183414286Y-135664342D01*
X183414286Y-135664342D02*
X183461905Y-135759580D01*
X183461905Y-135759580D02*
X183509524Y-135807200D01*
X183509524Y-135807200D02*
X183604762Y-135854819D01*
X183604762Y-135854819D02*
X183795238Y-135854819D01*
X183795238Y-135854819D02*
X183890476Y-135807200D01*
X183890476Y-135807200D02*
X183938095Y-135759580D01*
X183938095Y-135759580D02*
X183985714Y-135664342D01*
X183985714Y-135664342D02*
X183985714Y-135473866D01*
X183985714Y-135473866D02*
X183938095Y-135378628D01*
X183938095Y-135378628D02*
X183890476Y-135331009D01*
X183890476Y-135331009D02*
X183795238Y-135283390D01*
X186333333Y-119704819D02*
X186000000Y-119228628D01*
X185761905Y-119704819D02*
X185761905Y-118704819D01*
X185761905Y-118704819D02*
X186142857Y-118704819D01*
X186142857Y-118704819D02*
X186238095Y-118752438D01*
X186238095Y-118752438D02*
X186285714Y-118800057D01*
X186285714Y-118800057D02*
X186333333Y-118895295D01*
X186333333Y-118895295D02*
X186333333Y-119038152D01*
X186333333Y-119038152D02*
X186285714Y-119133390D01*
X186285714Y-119133390D02*
X186238095Y-119181009D01*
X186238095Y-119181009D02*
X186142857Y-119228628D01*
X186142857Y-119228628D02*
X185761905Y-119228628D01*
X186809524Y-119704819D02*
X187000000Y-119704819D01*
X187000000Y-119704819D02*
X187095238Y-119657200D01*
X187095238Y-119657200D02*
X187142857Y-119609580D01*
X187142857Y-119609580D02*
X187238095Y-119466723D01*
X187238095Y-119466723D02*
X187285714Y-119276247D01*
X187285714Y-119276247D02*
X187285714Y-118895295D01*
X187285714Y-118895295D02*
X187238095Y-118800057D01*
X187238095Y-118800057D02*
X187190476Y-118752438D01*
X187190476Y-118752438D02*
X187095238Y-118704819D01*
X187095238Y-118704819D02*
X186904762Y-118704819D01*
X186904762Y-118704819D02*
X186809524Y-118752438D01*
X186809524Y-118752438D02*
X186761905Y-118800057D01*
X186761905Y-118800057D02*
X186714286Y-118895295D01*
X186714286Y-118895295D02*
X186714286Y-119133390D01*
X186714286Y-119133390D02*
X186761905Y-119228628D01*
X186761905Y-119228628D02*
X186809524Y-119276247D01*
X186809524Y-119276247D02*
X186904762Y-119323866D01*
X186904762Y-119323866D02*
X187095238Y-119323866D01*
X187095238Y-119323866D02*
X187190476Y-119276247D01*
X187190476Y-119276247D02*
X187238095Y-119228628D01*
X187238095Y-119228628D02*
X187285714Y-119133390D01*
X199333333Y-113954819D02*
X199000000Y-113478628D01*
X198761905Y-113954819D02*
X198761905Y-112954819D01*
X198761905Y-112954819D02*
X199142857Y-112954819D01*
X199142857Y-112954819D02*
X199238095Y-113002438D01*
X199238095Y-113002438D02*
X199285714Y-113050057D01*
X199285714Y-113050057D02*
X199333333Y-113145295D01*
X199333333Y-113145295D02*
X199333333Y-113288152D01*
X199333333Y-113288152D02*
X199285714Y-113383390D01*
X199285714Y-113383390D02*
X199238095Y-113431009D01*
X199238095Y-113431009D02*
X199142857Y-113478628D01*
X199142857Y-113478628D02*
X198761905Y-113478628D01*
X200238095Y-112954819D02*
X199761905Y-112954819D01*
X199761905Y-112954819D02*
X199714286Y-113431009D01*
X199714286Y-113431009D02*
X199761905Y-113383390D01*
X199761905Y-113383390D02*
X199857143Y-113335771D01*
X199857143Y-113335771D02*
X200095238Y-113335771D01*
X200095238Y-113335771D02*
X200190476Y-113383390D01*
X200190476Y-113383390D02*
X200238095Y-113431009D01*
X200238095Y-113431009D02*
X200285714Y-113526247D01*
X200285714Y-113526247D02*
X200285714Y-113764342D01*
X200285714Y-113764342D02*
X200238095Y-113859580D01*
X200238095Y-113859580D02*
X200190476Y-113907200D01*
X200190476Y-113907200D02*
X200095238Y-113954819D01*
X200095238Y-113954819D02*
X199857143Y-113954819D01*
X199857143Y-113954819D02*
X199761905Y-113907200D01*
X199761905Y-113907200D02*
X199714286Y-113859580D01*
X188554819Y-121666666D02*
X188078628Y-121999999D01*
X188554819Y-122238094D02*
X187554819Y-122238094D01*
X187554819Y-122238094D02*
X187554819Y-121857142D01*
X187554819Y-121857142D02*
X187602438Y-121761904D01*
X187602438Y-121761904D02*
X187650057Y-121714285D01*
X187650057Y-121714285D02*
X187745295Y-121666666D01*
X187745295Y-121666666D02*
X187888152Y-121666666D01*
X187888152Y-121666666D02*
X187983390Y-121714285D01*
X187983390Y-121714285D02*
X188031009Y-121761904D01*
X188031009Y-121761904D02*
X188078628Y-121857142D01*
X188078628Y-121857142D02*
X188078628Y-122238094D01*
X187983390Y-121095237D02*
X187935771Y-121190475D01*
X187935771Y-121190475D02*
X187888152Y-121238094D01*
X187888152Y-121238094D02*
X187792914Y-121285713D01*
X187792914Y-121285713D02*
X187745295Y-121285713D01*
X187745295Y-121285713D02*
X187650057Y-121238094D01*
X187650057Y-121238094D02*
X187602438Y-121190475D01*
X187602438Y-121190475D02*
X187554819Y-121095237D01*
X187554819Y-121095237D02*
X187554819Y-120904761D01*
X187554819Y-120904761D02*
X187602438Y-120809523D01*
X187602438Y-120809523D02*
X187650057Y-120761904D01*
X187650057Y-120761904D02*
X187745295Y-120714285D01*
X187745295Y-120714285D02*
X187792914Y-120714285D01*
X187792914Y-120714285D02*
X187888152Y-120761904D01*
X187888152Y-120761904D02*
X187935771Y-120809523D01*
X187935771Y-120809523D02*
X187983390Y-120904761D01*
X187983390Y-120904761D02*
X187983390Y-121095237D01*
X187983390Y-121095237D02*
X188031009Y-121190475D01*
X188031009Y-121190475D02*
X188078628Y-121238094D01*
X188078628Y-121238094D02*
X188173866Y-121285713D01*
X188173866Y-121285713D02*
X188364342Y-121285713D01*
X188364342Y-121285713D02*
X188459580Y-121238094D01*
X188459580Y-121238094D02*
X188507200Y-121190475D01*
X188507200Y-121190475D02*
X188554819Y-121095237D01*
X188554819Y-121095237D02*
X188554819Y-120904761D01*
X188554819Y-120904761D02*
X188507200Y-120809523D01*
X188507200Y-120809523D02*
X188459580Y-120761904D01*
X188459580Y-120761904D02*
X188364342Y-120714285D01*
X188364342Y-120714285D02*
X188173866Y-120714285D01*
X188173866Y-120714285D02*
X188078628Y-120761904D01*
X188078628Y-120761904D02*
X188031009Y-120809523D01*
X188031009Y-120809523D02*
X187983390Y-120904761D01*
X182757142Y-118959580D02*
X182709523Y-119007200D01*
X182709523Y-119007200D02*
X182566666Y-119054819D01*
X182566666Y-119054819D02*
X182471428Y-119054819D01*
X182471428Y-119054819D02*
X182328571Y-119007200D01*
X182328571Y-119007200D02*
X182233333Y-118911961D01*
X182233333Y-118911961D02*
X182185714Y-118816723D01*
X182185714Y-118816723D02*
X182138095Y-118626247D01*
X182138095Y-118626247D02*
X182138095Y-118483390D01*
X182138095Y-118483390D02*
X182185714Y-118292914D01*
X182185714Y-118292914D02*
X182233333Y-118197676D01*
X182233333Y-118197676D02*
X182328571Y-118102438D01*
X182328571Y-118102438D02*
X182471428Y-118054819D01*
X182471428Y-118054819D02*
X182566666Y-118054819D01*
X182566666Y-118054819D02*
X182709523Y-118102438D01*
X182709523Y-118102438D02*
X182757142Y-118150057D01*
X183709523Y-119054819D02*
X183138095Y-119054819D01*
X183423809Y-119054819D02*
X183423809Y-118054819D01*
X183423809Y-118054819D02*
X183328571Y-118197676D01*
X183328571Y-118197676D02*
X183233333Y-118292914D01*
X183233333Y-118292914D02*
X183138095Y-118340533D01*
X184614285Y-118054819D02*
X184138095Y-118054819D01*
X184138095Y-118054819D02*
X184090476Y-118531009D01*
X184090476Y-118531009D02*
X184138095Y-118483390D01*
X184138095Y-118483390D02*
X184233333Y-118435771D01*
X184233333Y-118435771D02*
X184471428Y-118435771D01*
X184471428Y-118435771D02*
X184566666Y-118483390D01*
X184566666Y-118483390D02*
X184614285Y-118531009D01*
X184614285Y-118531009D02*
X184661904Y-118626247D01*
X184661904Y-118626247D02*
X184661904Y-118864342D01*
X184661904Y-118864342D02*
X184614285Y-118959580D01*
X184614285Y-118959580D02*
X184566666Y-119007200D01*
X184566666Y-119007200D02*
X184471428Y-119054819D01*
X184471428Y-119054819D02*
X184233333Y-119054819D01*
X184233333Y-119054819D02*
X184138095Y-119007200D01*
X184138095Y-119007200D02*
X184090476Y-118959580D01*
X193754819Y-113566666D02*
X193278628Y-113899999D01*
X193754819Y-114138094D02*
X192754819Y-114138094D01*
X192754819Y-114138094D02*
X192754819Y-113757142D01*
X192754819Y-113757142D02*
X192802438Y-113661904D01*
X192802438Y-113661904D02*
X192850057Y-113614285D01*
X192850057Y-113614285D02*
X192945295Y-113566666D01*
X192945295Y-113566666D02*
X193088152Y-113566666D01*
X193088152Y-113566666D02*
X193183390Y-113614285D01*
X193183390Y-113614285D02*
X193231009Y-113661904D01*
X193231009Y-113661904D02*
X193278628Y-113757142D01*
X193278628Y-113757142D02*
X193278628Y-114138094D01*
X193088152Y-112709523D02*
X193754819Y-112709523D01*
X192707200Y-112947618D02*
X193421485Y-113185713D01*
X193421485Y-113185713D02*
X193421485Y-112566666D01*
X178083333Y-118954819D02*
X177607143Y-118954819D01*
X177607143Y-118954819D02*
X177607143Y-117954819D01*
X178940476Y-118954819D02*
X178369048Y-118954819D01*
X178654762Y-118954819D02*
X178654762Y-117954819D01*
X178654762Y-117954819D02*
X178559524Y-118097676D01*
X178559524Y-118097676D02*
X178464286Y-118192914D01*
X178464286Y-118192914D02*
X178369048Y-118240533D01*
X192233333Y-124059580D02*
X192185714Y-124107200D01*
X192185714Y-124107200D02*
X192042857Y-124154819D01*
X192042857Y-124154819D02*
X191947619Y-124154819D01*
X191947619Y-124154819D02*
X191804762Y-124107200D01*
X191804762Y-124107200D02*
X191709524Y-124011961D01*
X191709524Y-124011961D02*
X191661905Y-123916723D01*
X191661905Y-123916723D02*
X191614286Y-123726247D01*
X191614286Y-123726247D02*
X191614286Y-123583390D01*
X191614286Y-123583390D02*
X191661905Y-123392914D01*
X191661905Y-123392914D02*
X191709524Y-123297676D01*
X191709524Y-123297676D02*
X191804762Y-123202438D01*
X191804762Y-123202438D02*
X191947619Y-123154819D01*
X191947619Y-123154819D02*
X192042857Y-123154819D01*
X192042857Y-123154819D02*
X192185714Y-123202438D01*
X192185714Y-123202438D02*
X192233333Y-123250057D01*
X193090476Y-123154819D02*
X192900000Y-123154819D01*
X192900000Y-123154819D02*
X192804762Y-123202438D01*
X192804762Y-123202438D02*
X192757143Y-123250057D01*
X192757143Y-123250057D02*
X192661905Y-123392914D01*
X192661905Y-123392914D02*
X192614286Y-123583390D01*
X192614286Y-123583390D02*
X192614286Y-123964342D01*
X192614286Y-123964342D02*
X192661905Y-124059580D01*
X192661905Y-124059580D02*
X192709524Y-124107200D01*
X192709524Y-124107200D02*
X192804762Y-124154819D01*
X192804762Y-124154819D02*
X192995238Y-124154819D01*
X192995238Y-124154819D02*
X193090476Y-124107200D01*
X193090476Y-124107200D02*
X193138095Y-124059580D01*
X193138095Y-124059580D02*
X193185714Y-123964342D01*
X193185714Y-123964342D02*
X193185714Y-123726247D01*
X193185714Y-123726247D02*
X193138095Y-123631009D01*
X193138095Y-123631009D02*
X193090476Y-123583390D01*
X193090476Y-123583390D02*
X192995238Y-123535771D01*
X192995238Y-123535771D02*
X192804762Y-123535771D01*
X192804762Y-123535771D02*
X192709524Y-123583390D01*
X192709524Y-123583390D02*
X192661905Y-123631009D01*
X192661905Y-123631009D02*
X192614286Y-123726247D01*
X177933333Y-120254819D02*
X177600000Y-119778628D01*
X177361905Y-120254819D02*
X177361905Y-119254819D01*
X177361905Y-119254819D02*
X177742857Y-119254819D01*
X177742857Y-119254819D02*
X177838095Y-119302438D01*
X177838095Y-119302438D02*
X177885714Y-119350057D01*
X177885714Y-119350057D02*
X177933333Y-119445295D01*
X177933333Y-119445295D02*
X177933333Y-119588152D01*
X177933333Y-119588152D02*
X177885714Y-119683390D01*
X177885714Y-119683390D02*
X177838095Y-119731009D01*
X177838095Y-119731009D02*
X177742857Y-119778628D01*
X177742857Y-119778628D02*
X177361905Y-119778628D01*
X178885714Y-120254819D02*
X178314286Y-120254819D01*
X178600000Y-120254819D02*
X178600000Y-119254819D01*
X178600000Y-119254819D02*
X178504762Y-119397676D01*
X178504762Y-119397676D02*
X178409524Y-119492914D01*
X178409524Y-119492914D02*
X178314286Y-119540533D01*
D16*
X202532380Y-112609271D02*
X202532380Y-113637366D01*
X202532380Y-113637366D02*
X202592857Y-113758318D01*
X202592857Y-113758318D02*
X202653333Y-113818795D01*
X202653333Y-113818795D02*
X202774285Y-113879271D01*
X202774285Y-113879271D02*
X203016190Y-113879271D01*
X203016190Y-113879271D02*
X203137142Y-113818795D01*
X203137142Y-113818795D02*
X203197619Y-113758318D01*
X203197619Y-113758318D02*
X203258095Y-113637366D01*
X203258095Y-113637366D02*
X203258095Y-112609271D01*
X203741904Y-112609271D02*
X204528095Y-112609271D01*
X204528095Y-112609271D02*
X204104761Y-113093080D01*
X204104761Y-113093080D02*
X204286190Y-113093080D01*
X204286190Y-113093080D02*
X204407142Y-113153556D01*
X204407142Y-113153556D02*
X204467618Y-113214033D01*
X204467618Y-113214033D02*
X204528095Y-113334985D01*
X204528095Y-113334985D02*
X204528095Y-113637366D01*
X204528095Y-113637366D02*
X204467618Y-113758318D01*
X204467618Y-113758318D02*
X204407142Y-113818795D01*
X204407142Y-113818795D02*
X204286190Y-113879271D01*
X204286190Y-113879271D02*
X203923333Y-113879271D01*
X203923333Y-113879271D02*
X203802380Y-113818795D01*
X203802380Y-113818795D02*
X203741904Y-113758318D01*
D13*
X197357142Y-129659580D02*
X197309523Y-129707200D01*
X197309523Y-129707200D02*
X197166666Y-129754819D01*
X197166666Y-129754819D02*
X197071428Y-129754819D01*
X197071428Y-129754819D02*
X196928571Y-129707200D01*
X196928571Y-129707200D02*
X196833333Y-129611961D01*
X196833333Y-129611961D02*
X196785714Y-129516723D01*
X196785714Y-129516723D02*
X196738095Y-129326247D01*
X196738095Y-129326247D02*
X196738095Y-129183390D01*
X196738095Y-129183390D02*
X196785714Y-128992914D01*
X196785714Y-128992914D02*
X196833333Y-128897676D01*
X196833333Y-128897676D02*
X196928571Y-128802438D01*
X196928571Y-128802438D02*
X197071428Y-128754819D01*
X197071428Y-128754819D02*
X197166666Y-128754819D01*
X197166666Y-128754819D02*
X197309523Y-128802438D01*
X197309523Y-128802438D02*
X197357142Y-128850057D01*
X198309523Y-129754819D02*
X197738095Y-129754819D01*
X198023809Y-129754819D02*
X198023809Y-128754819D01*
X198023809Y-128754819D02*
X197928571Y-128897676D01*
X197928571Y-128897676D02*
X197833333Y-128992914D01*
X197833333Y-128992914D02*
X197738095Y-129040533D01*
X198785714Y-129754819D02*
X198976190Y-129754819D01*
X198976190Y-129754819D02*
X199071428Y-129707200D01*
X199071428Y-129707200D02*
X199119047Y-129659580D01*
X199119047Y-129659580D02*
X199214285Y-129516723D01*
X199214285Y-129516723D02*
X199261904Y-129326247D01*
X199261904Y-129326247D02*
X199261904Y-128945295D01*
X199261904Y-128945295D02*
X199214285Y-128850057D01*
X199214285Y-128850057D02*
X199166666Y-128802438D01*
X199166666Y-128802438D02*
X199071428Y-128754819D01*
X199071428Y-128754819D02*
X198880952Y-128754819D01*
X198880952Y-128754819D02*
X198785714Y-128802438D01*
X198785714Y-128802438D02*
X198738095Y-128850057D01*
X198738095Y-128850057D02*
X198690476Y-128945295D01*
X198690476Y-128945295D02*
X198690476Y-129183390D01*
X198690476Y-129183390D02*
X198738095Y-129278628D01*
X198738095Y-129278628D02*
X198785714Y-129326247D01*
X198785714Y-129326247D02*
X198880952Y-129373866D01*
X198880952Y-129373866D02*
X199071428Y-129373866D01*
X199071428Y-129373866D02*
X199166666Y-129326247D01*
X199166666Y-129326247D02*
X199214285Y-129278628D01*
X199214285Y-129278628D02*
X199261904Y-129183390D01*
X204634819Y-106833333D02*
X205349104Y-106833333D01*
X205349104Y-106833333D02*
X205491961Y-106880952D01*
X205491961Y-106880952D02*
X205587200Y-106976190D01*
X205587200Y-106976190D02*
X205634819Y-107119047D01*
X205634819Y-107119047D02*
X205634819Y-107214285D01*
X204634819Y-105880952D02*
X204634819Y-106357142D01*
X204634819Y-106357142D02*
X205111009Y-106404761D01*
X205111009Y-106404761D02*
X205063390Y-106357142D01*
X205063390Y-106357142D02*
X205015771Y-106261904D01*
X205015771Y-106261904D02*
X205015771Y-106023809D01*
X205015771Y-106023809D02*
X205063390Y-105928571D01*
X205063390Y-105928571D02*
X205111009Y-105880952D01*
X205111009Y-105880952D02*
X205206247Y-105833333D01*
X205206247Y-105833333D02*
X205444342Y-105833333D01*
X205444342Y-105833333D02*
X205539580Y-105880952D01*
X205539580Y-105880952D02*
X205587200Y-105928571D01*
X205587200Y-105928571D02*
X205634819Y-106023809D01*
X205634819Y-106023809D02*
X205634819Y-106261904D01*
X205634819Y-106261904D02*
X205587200Y-106357142D01*
X205587200Y-106357142D02*
X205539580Y-106404761D01*
X182757142Y-117659580D02*
X182709523Y-117707200D01*
X182709523Y-117707200D02*
X182566666Y-117754819D01*
X182566666Y-117754819D02*
X182471428Y-117754819D01*
X182471428Y-117754819D02*
X182328571Y-117707200D01*
X182328571Y-117707200D02*
X182233333Y-117611961D01*
X182233333Y-117611961D02*
X182185714Y-117516723D01*
X182185714Y-117516723D02*
X182138095Y-117326247D01*
X182138095Y-117326247D02*
X182138095Y-117183390D01*
X182138095Y-117183390D02*
X182185714Y-116992914D01*
X182185714Y-116992914D02*
X182233333Y-116897676D01*
X182233333Y-116897676D02*
X182328571Y-116802438D01*
X182328571Y-116802438D02*
X182471428Y-116754819D01*
X182471428Y-116754819D02*
X182566666Y-116754819D01*
X182566666Y-116754819D02*
X182709523Y-116802438D01*
X182709523Y-116802438D02*
X182757142Y-116850057D01*
X183709523Y-117754819D02*
X183138095Y-117754819D01*
X183423809Y-117754819D02*
X183423809Y-116754819D01*
X183423809Y-116754819D02*
X183328571Y-116897676D01*
X183328571Y-116897676D02*
X183233333Y-116992914D01*
X183233333Y-116992914D02*
X183138095Y-117040533D01*
X184566666Y-116754819D02*
X184376190Y-116754819D01*
X184376190Y-116754819D02*
X184280952Y-116802438D01*
X184280952Y-116802438D02*
X184233333Y-116850057D01*
X184233333Y-116850057D02*
X184138095Y-116992914D01*
X184138095Y-116992914D02*
X184090476Y-117183390D01*
X184090476Y-117183390D02*
X184090476Y-117564342D01*
X184090476Y-117564342D02*
X184138095Y-117659580D01*
X184138095Y-117659580D02*
X184185714Y-117707200D01*
X184185714Y-117707200D02*
X184280952Y-117754819D01*
X184280952Y-117754819D02*
X184471428Y-117754819D01*
X184471428Y-117754819D02*
X184566666Y-117707200D01*
X184566666Y-117707200D02*
X184614285Y-117659580D01*
X184614285Y-117659580D02*
X184661904Y-117564342D01*
X184661904Y-117564342D02*
X184661904Y-117326247D01*
X184661904Y-117326247D02*
X184614285Y-117231009D01*
X184614285Y-117231009D02*
X184566666Y-117183390D01*
X184566666Y-117183390D02*
X184471428Y-117135771D01*
X184471428Y-117135771D02*
X184280952Y-117135771D01*
X184280952Y-117135771D02*
X184185714Y-117183390D01*
X184185714Y-117183390D02*
X184138095Y-117231009D01*
X184138095Y-117231009D02*
X184090476Y-117326247D01*
X195533333Y-115954819D02*
X195200000Y-115478628D01*
X194961905Y-115954819D02*
X194961905Y-114954819D01*
X194961905Y-114954819D02*
X195342857Y-114954819D01*
X195342857Y-114954819D02*
X195438095Y-115002438D01*
X195438095Y-115002438D02*
X195485714Y-115050057D01*
X195485714Y-115050057D02*
X195533333Y-115145295D01*
X195533333Y-115145295D02*
X195533333Y-115288152D01*
X195533333Y-115288152D02*
X195485714Y-115383390D01*
X195485714Y-115383390D02*
X195438095Y-115431009D01*
X195438095Y-115431009D02*
X195342857Y-115478628D01*
X195342857Y-115478628D02*
X194961905Y-115478628D01*
X195866667Y-114954819D02*
X196485714Y-114954819D01*
X196485714Y-114954819D02*
X196152381Y-115335771D01*
X196152381Y-115335771D02*
X196295238Y-115335771D01*
X196295238Y-115335771D02*
X196390476Y-115383390D01*
X196390476Y-115383390D02*
X196438095Y-115431009D01*
X196438095Y-115431009D02*
X196485714Y-115526247D01*
X196485714Y-115526247D02*
X196485714Y-115764342D01*
X196485714Y-115764342D02*
X196438095Y-115859580D01*
X196438095Y-115859580D02*
X196390476Y-115907200D01*
X196390476Y-115907200D02*
X196295238Y-115954819D01*
X196295238Y-115954819D02*
X196009524Y-115954819D01*
X196009524Y-115954819D02*
X195914286Y-115907200D01*
X195914286Y-115907200D02*
X195866667Y-115859580D01*
X173133333Y-125854819D02*
X172800000Y-125378628D01*
X172561905Y-125854819D02*
X172561905Y-124854819D01*
X172561905Y-124854819D02*
X172942857Y-124854819D01*
X172942857Y-124854819D02*
X173038095Y-124902438D01*
X173038095Y-124902438D02*
X173085714Y-124950057D01*
X173085714Y-124950057D02*
X173133333Y-125045295D01*
X173133333Y-125045295D02*
X173133333Y-125188152D01*
X173133333Y-125188152D02*
X173085714Y-125283390D01*
X173085714Y-125283390D02*
X173038095Y-125331009D01*
X173038095Y-125331009D02*
X172942857Y-125378628D01*
X172942857Y-125378628D02*
X172561905Y-125378628D01*
X173514286Y-124950057D02*
X173561905Y-124902438D01*
X173561905Y-124902438D02*
X173657143Y-124854819D01*
X173657143Y-124854819D02*
X173895238Y-124854819D01*
X173895238Y-124854819D02*
X173990476Y-124902438D01*
X173990476Y-124902438D02*
X174038095Y-124950057D01*
X174038095Y-124950057D02*
X174085714Y-125045295D01*
X174085714Y-125045295D02*
X174085714Y-125140533D01*
X174085714Y-125140533D02*
X174038095Y-125283390D01*
X174038095Y-125283390D02*
X173466667Y-125854819D01*
X173466667Y-125854819D02*
X174085714Y-125854819D01*
X181959580Y-124366666D02*
X182007200Y-124414285D01*
X182007200Y-124414285D02*
X182054819Y-124557142D01*
X182054819Y-124557142D02*
X182054819Y-124652380D01*
X182054819Y-124652380D02*
X182007200Y-124795237D01*
X182007200Y-124795237D02*
X181911961Y-124890475D01*
X181911961Y-124890475D02*
X181816723Y-124938094D01*
X181816723Y-124938094D02*
X181626247Y-124985713D01*
X181626247Y-124985713D02*
X181483390Y-124985713D01*
X181483390Y-124985713D02*
X181292914Y-124938094D01*
X181292914Y-124938094D02*
X181197676Y-124890475D01*
X181197676Y-124890475D02*
X181102438Y-124795237D01*
X181102438Y-124795237D02*
X181054819Y-124652380D01*
X181054819Y-124652380D02*
X181054819Y-124557142D01*
X181054819Y-124557142D02*
X181102438Y-124414285D01*
X181102438Y-124414285D02*
X181150057Y-124366666D01*
X181150057Y-123985713D02*
X181102438Y-123938094D01*
X181102438Y-123938094D02*
X181054819Y-123842856D01*
X181054819Y-123842856D02*
X181054819Y-123604761D01*
X181054819Y-123604761D02*
X181102438Y-123509523D01*
X181102438Y-123509523D02*
X181150057Y-123461904D01*
X181150057Y-123461904D02*
X181245295Y-123414285D01*
X181245295Y-123414285D02*
X181340533Y-123414285D01*
X181340533Y-123414285D02*
X181483390Y-123461904D01*
X181483390Y-123461904D02*
X182054819Y-124033332D01*
X182054819Y-124033332D02*
X182054819Y-123414285D01*
X180033333Y-120159580D02*
X179985714Y-120207200D01*
X179985714Y-120207200D02*
X179842857Y-120254819D01*
X179842857Y-120254819D02*
X179747619Y-120254819D01*
X179747619Y-120254819D02*
X179604762Y-120207200D01*
X179604762Y-120207200D02*
X179509524Y-120111961D01*
X179509524Y-120111961D02*
X179461905Y-120016723D01*
X179461905Y-120016723D02*
X179414286Y-119826247D01*
X179414286Y-119826247D02*
X179414286Y-119683390D01*
X179414286Y-119683390D02*
X179461905Y-119492914D01*
X179461905Y-119492914D02*
X179509524Y-119397676D01*
X179509524Y-119397676D02*
X179604762Y-119302438D01*
X179604762Y-119302438D02*
X179747619Y-119254819D01*
X179747619Y-119254819D02*
X179842857Y-119254819D01*
X179842857Y-119254819D02*
X179985714Y-119302438D01*
X179985714Y-119302438D02*
X180033333Y-119350057D01*
X180985714Y-120254819D02*
X180414286Y-120254819D01*
X180700000Y-120254819D02*
X180700000Y-119254819D01*
X180700000Y-119254819D02*
X180604762Y-119397676D01*
X180604762Y-119397676D02*
X180509524Y-119492914D01*
X180509524Y-119492914D02*
X180414286Y-119540533D01*
X197357142Y-128359580D02*
X197309523Y-128407200D01*
X197309523Y-128407200D02*
X197166666Y-128454819D01*
X197166666Y-128454819D02*
X197071428Y-128454819D01*
X197071428Y-128454819D02*
X196928571Y-128407200D01*
X196928571Y-128407200D02*
X196833333Y-128311961D01*
X196833333Y-128311961D02*
X196785714Y-128216723D01*
X196785714Y-128216723D02*
X196738095Y-128026247D01*
X196738095Y-128026247D02*
X196738095Y-127883390D01*
X196738095Y-127883390D02*
X196785714Y-127692914D01*
X196785714Y-127692914D02*
X196833333Y-127597676D01*
X196833333Y-127597676D02*
X196928571Y-127502438D01*
X196928571Y-127502438D02*
X197071428Y-127454819D01*
X197071428Y-127454819D02*
X197166666Y-127454819D01*
X197166666Y-127454819D02*
X197309523Y-127502438D01*
X197309523Y-127502438D02*
X197357142Y-127550057D01*
X198309523Y-128454819D02*
X197738095Y-128454819D01*
X198023809Y-128454819D02*
X198023809Y-127454819D01*
X198023809Y-127454819D02*
X197928571Y-127597676D01*
X197928571Y-127597676D02*
X197833333Y-127692914D01*
X197833333Y-127692914D02*
X197738095Y-127740533D01*
X198880952Y-127883390D02*
X198785714Y-127835771D01*
X198785714Y-127835771D02*
X198738095Y-127788152D01*
X198738095Y-127788152D02*
X198690476Y-127692914D01*
X198690476Y-127692914D02*
X198690476Y-127645295D01*
X198690476Y-127645295D02*
X198738095Y-127550057D01*
X198738095Y-127550057D02*
X198785714Y-127502438D01*
X198785714Y-127502438D02*
X198880952Y-127454819D01*
X198880952Y-127454819D02*
X199071428Y-127454819D01*
X199071428Y-127454819D02*
X199166666Y-127502438D01*
X199166666Y-127502438D02*
X199214285Y-127550057D01*
X199214285Y-127550057D02*
X199261904Y-127645295D01*
X199261904Y-127645295D02*
X199261904Y-127692914D01*
X199261904Y-127692914D02*
X199214285Y-127788152D01*
X199214285Y-127788152D02*
X199166666Y-127835771D01*
X199166666Y-127835771D02*
X199071428Y-127883390D01*
X199071428Y-127883390D02*
X198880952Y-127883390D01*
X198880952Y-127883390D02*
X198785714Y-127931009D01*
X198785714Y-127931009D02*
X198738095Y-127978628D01*
X198738095Y-127978628D02*
X198690476Y-128073866D01*
X198690476Y-128073866D02*
X198690476Y-128264342D01*
X198690476Y-128264342D02*
X198738095Y-128359580D01*
X198738095Y-128359580D02*
X198785714Y-128407200D01*
X198785714Y-128407200D02*
X198880952Y-128454819D01*
X198880952Y-128454819D02*
X199071428Y-128454819D01*
X199071428Y-128454819D02*
X199166666Y-128407200D01*
X199166666Y-128407200D02*
X199214285Y-128359580D01*
X199214285Y-128359580D02*
X199261904Y-128264342D01*
X199261904Y-128264342D02*
X199261904Y-128073866D01*
X199261904Y-128073866D02*
X199214285Y-127978628D01*
X199214285Y-127978628D02*
X199166666Y-127931009D01*
X199166666Y-127931009D02*
X199071428Y-127883390D01*
X174538095Y-124154819D02*
X174538095Y-124964342D01*
X174538095Y-124964342D02*
X174585714Y-125059580D01*
X174585714Y-125059580D02*
X174633333Y-125107200D01*
X174633333Y-125107200D02*
X174728571Y-125154819D01*
X174728571Y-125154819D02*
X174919047Y-125154819D01*
X174919047Y-125154819D02*
X175014285Y-125107200D01*
X175014285Y-125107200D02*
X175061904Y-125059580D01*
X175061904Y-125059580D02*
X175109523Y-124964342D01*
X175109523Y-124964342D02*
X175109523Y-124154819D01*
X176014285Y-124488152D02*
X176014285Y-125154819D01*
X175776190Y-124107200D02*
X175538095Y-124821485D01*
X175538095Y-124821485D02*
X176157142Y-124821485D01*
X182757142Y-116359580D02*
X182709523Y-116407200D01*
X182709523Y-116407200D02*
X182566666Y-116454819D01*
X182566666Y-116454819D02*
X182471428Y-116454819D01*
X182471428Y-116454819D02*
X182328571Y-116407200D01*
X182328571Y-116407200D02*
X182233333Y-116311961D01*
X182233333Y-116311961D02*
X182185714Y-116216723D01*
X182185714Y-116216723D02*
X182138095Y-116026247D01*
X182138095Y-116026247D02*
X182138095Y-115883390D01*
X182138095Y-115883390D02*
X182185714Y-115692914D01*
X182185714Y-115692914D02*
X182233333Y-115597676D01*
X182233333Y-115597676D02*
X182328571Y-115502438D01*
X182328571Y-115502438D02*
X182471428Y-115454819D01*
X182471428Y-115454819D02*
X182566666Y-115454819D01*
X182566666Y-115454819D02*
X182709523Y-115502438D01*
X182709523Y-115502438D02*
X182757142Y-115550057D01*
X183709523Y-116454819D02*
X183138095Y-116454819D01*
X183423809Y-116454819D02*
X183423809Y-115454819D01*
X183423809Y-115454819D02*
X183328571Y-115597676D01*
X183328571Y-115597676D02*
X183233333Y-115692914D01*
X183233333Y-115692914D02*
X183138095Y-115740533D01*
X184042857Y-115454819D02*
X184709523Y-115454819D01*
X184709523Y-115454819D02*
X184280952Y-116454819D01*
X158966666Y-137554819D02*
X158966666Y-138269104D01*
X158966666Y-138269104D02*
X158919047Y-138411961D01*
X158919047Y-138411961D02*
X158823809Y-138507200D01*
X158823809Y-138507200D02*
X158680952Y-138554819D01*
X158680952Y-138554819D02*
X158585714Y-138554819D01*
X159395238Y-137650057D02*
X159442857Y-137602438D01*
X159442857Y-137602438D02*
X159538095Y-137554819D01*
X159538095Y-137554819D02*
X159776190Y-137554819D01*
X159776190Y-137554819D02*
X159871428Y-137602438D01*
X159871428Y-137602438D02*
X159919047Y-137650057D01*
X159919047Y-137650057D02*
X159966666Y-137745295D01*
X159966666Y-137745295D02*
X159966666Y-137840533D01*
X159966666Y-137840533D02*
X159919047Y-137983390D01*
X159919047Y-137983390D02*
X159347619Y-138554819D01*
X159347619Y-138554819D02*
X159966666Y-138554819D01*
%TO.C,R11*%
D17*
X177105859Y-124880000D02*
X177413141Y-124880000D01*
X177105859Y-124120000D02*
X177413141Y-124120000D01*
D18*
%TO.C,G\u002A\u002A\u002A*%
G36*
X184190350Y-106102338D02*
G01*
X184195064Y-106105170D01*
X184197220Y-106110213D01*
X184199881Y-106119956D01*
X184202596Y-106132655D01*
X184203661Y-106138539D01*
X184213777Y-106189481D01*
X184225783Y-106234581D01*
X184239859Y-106274285D01*
X184256188Y-106309036D01*
X184274953Y-106339275D01*
X184296334Y-106365447D01*
X184297208Y-106366375D01*
X184321040Y-106388812D01*
X184347474Y-106408229D01*
X184377251Y-106424987D01*
X184411114Y-106439442D01*
X184449807Y-106451954D01*
X184494071Y-106462881D01*
X184499719Y-106464087D01*
X184516461Y-106468581D01*
X184527326Y-106473962D01*
X184532931Y-106480632D01*
X184534055Y-106486449D01*
X184533443Y-106492443D01*
X184531047Y-106497264D01*
X184526029Y-106501332D01*
X184517547Y-106505066D01*
X184504764Y-106508887D01*
X184486839Y-106513213D01*
X184475412Y-106515757D01*
X184428127Y-106527850D01*
X184386529Y-106542294D01*
X184350122Y-106559401D01*
X184318410Y-106579485D01*
X184290897Y-106602858D01*
X184267085Y-106629832D01*
X184247169Y-106659543D01*
X184236071Y-106680033D01*
X184226105Y-106702092D01*
X184216801Y-106726965D01*
X184207693Y-106755894D01*
X184198882Y-106787935D01*
X184194214Y-106805201D01*
X184189793Y-106820429D01*
X184185993Y-106832406D01*
X184183190Y-106839924D01*
X184182230Y-106841693D01*
X184175317Y-106845570D01*
X184166134Y-106845807D01*
X184157722Y-106842525D01*
X184155560Y-106840611D01*
X184151681Y-106833726D01*
X184148617Y-106823987D01*
X184148206Y-106821891D01*
X184145309Y-106807382D01*
X184141075Y-106789093D01*
X184135998Y-106768896D01*
X184130571Y-106748661D01*
X184125287Y-106730261D01*
X184120638Y-106715568D01*
X184118976Y-106710908D01*
X184101243Y-106670907D01*
X184080056Y-106635751D01*
X184055664Y-106605780D01*
X184028313Y-106581338D01*
X184021985Y-106576779D01*
X183999934Y-106562798D01*
X183976604Y-106550690D01*
X183950856Y-106540014D01*
X183921548Y-106530326D01*
X183887538Y-106521184D01*
X183865034Y-106515918D01*
X183849620Y-106512276D01*
X183836370Y-106508785D01*
X183826677Y-106505838D01*
X183821934Y-106503826D01*
X183821898Y-106503797D01*
X183818771Y-106497759D01*
X183818009Y-106488924D01*
X183819786Y-106480625D01*
X183820595Y-106479108D01*
X183824591Y-106476777D01*
X183833664Y-106473345D01*
X183846557Y-106469237D01*
X183862015Y-106464875D01*
X183865771Y-106463888D01*
X183915878Y-106448943D01*
X183960022Y-106431602D01*
X183998318Y-106411806D01*
X184030881Y-106389493D01*
X184057826Y-106364602D01*
X184061729Y-106360255D01*
X184086271Y-106328136D01*
X184107720Y-106291384D01*
X184126230Y-106249653D01*
X184141956Y-106202596D01*
X184155051Y-106149866D01*
X184155104Y-106149615D01*
X184158623Y-106133870D01*
X184161994Y-106120286D01*
X184164855Y-106110225D01*
X184166844Y-106105050D01*
X184166983Y-106104850D01*
X184172890Y-106101750D01*
X184181730Y-106100924D01*
X184190350Y-106102338D01*
G37*
G36*
X183580076Y-106338563D02*
G01*
X183597022Y-106343536D01*
X183611840Y-106352668D01*
X183619891Y-106360125D01*
X183626437Y-106369007D01*
X183634177Y-106382611D01*
X183642408Y-106399432D01*
X183650425Y-106417965D01*
X183657524Y-106436705D01*
X183661607Y-106449268D01*
X183674217Y-106496635D01*
X183685524Y-106549234D01*
X183695406Y-106605893D01*
X183703739Y-106665440D01*
X183710401Y-106726703D01*
X183715270Y-106788512D01*
X183718222Y-106849693D01*
X183719134Y-106909076D01*
X183717885Y-106965488D01*
X183717177Y-106979786D01*
X183712177Y-107045940D01*
X183704812Y-107108475D01*
X183695196Y-107166644D01*
X183683442Y-107219703D01*
X183677237Y-107242574D01*
X183670438Y-107266076D01*
X183680374Y-107296291D01*
X183687356Y-107319455D01*
X183693682Y-107344061D01*
X183698929Y-107368184D01*
X183702676Y-107389903D01*
X183704433Y-107406051D01*
X183705511Y-107423741D01*
X183648538Y-107449460D01*
X183558338Y-107488460D01*
X183462179Y-107526758D01*
X183360593Y-107564174D01*
X183254110Y-107600535D01*
X183143261Y-107635662D01*
X183028578Y-107669380D01*
X182910592Y-107701511D01*
X182823250Y-107723724D01*
X182722009Y-107748013D01*
X182621633Y-107770704D01*
X182522644Y-107791709D01*
X182425565Y-107810939D01*
X182330918Y-107828306D01*
X182239225Y-107843723D01*
X182151009Y-107857099D01*
X182066792Y-107868348D01*
X181987096Y-107877381D01*
X181912443Y-107884109D01*
X181851461Y-107888047D01*
X181825161Y-107889420D01*
X181804551Y-107890457D01*
X181788812Y-107891037D01*
X181777127Y-107891042D01*
X181768676Y-107890349D01*
X181762643Y-107888840D01*
X181758208Y-107886393D01*
X181754554Y-107882887D01*
X181750863Y-107878204D01*
X181746634Y-107872628D01*
X181714993Y-107826889D01*
X181688710Y-107777485D01*
X181667781Y-107724407D01*
X181652204Y-107667640D01*
X181641973Y-107607175D01*
X181637087Y-107542999D01*
X181636627Y-107515329D01*
X181637824Y-107466537D01*
X181641640Y-107421144D01*
X181648401Y-107376455D01*
X181658433Y-107329775D01*
X181659740Y-107324446D01*
X181669934Y-107283320D01*
X181663162Y-107262590D01*
X181651573Y-107222758D01*
X181641064Y-107177878D01*
X181631925Y-107129364D01*
X181624446Y-107078630D01*
X181622904Y-107066059D01*
X181621509Y-107049921D01*
X181620405Y-107028466D01*
X181619593Y-107002880D01*
X181619072Y-106974351D01*
X181618841Y-106944064D01*
X181618902Y-106913208D01*
X181619253Y-106882969D01*
X181619895Y-106854535D01*
X181620827Y-106829092D01*
X181622049Y-106807827D01*
X181622931Y-106797474D01*
X181630015Y-106734652D01*
X181638253Y-106674883D01*
X181647546Y-106618600D01*
X181657794Y-106566238D01*
X181668898Y-106518230D01*
X181680757Y-106475009D01*
X181693271Y-106437010D01*
X181706341Y-106404665D01*
X181719204Y-106379532D01*
X181733200Y-106360900D01*
X181749852Y-106347864D01*
X181768682Y-106340682D01*
X181789211Y-106339611D01*
X181792629Y-106340025D01*
X181809316Y-106343938D01*
X181830533Y-106351346D01*
X181855551Y-106361899D01*
X181883644Y-106375250D01*
X181914086Y-106391050D01*
X181946148Y-106408951D01*
X181979103Y-106428603D01*
X181984939Y-106432215D01*
X182072618Y-106489374D01*
X182154915Y-106548450D01*
X182232863Y-106610249D01*
X182307496Y-106675577D01*
X182356428Y-106721985D01*
X182400731Y-106765333D01*
X182442701Y-106757204D01*
X182524333Y-106743834D01*
X182604814Y-106735701D01*
X182685183Y-106732796D01*
X182766478Y-106735112D01*
X182849737Y-106742642D01*
X182925801Y-106753632D01*
X182930273Y-106754145D01*
X182934394Y-106753605D01*
X182939043Y-106751390D01*
X182945103Y-106746876D01*
X182953455Y-106739438D01*
X182964980Y-106728454D01*
X182974634Y-106719074D01*
X183024597Y-106672583D01*
X183079364Y-106625578D01*
X183137763Y-106578907D01*
X183198618Y-106533415D01*
X183260758Y-106489949D01*
X183323007Y-106449355D01*
X183384193Y-106412481D01*
X183443141Y-106380172D01*
X183447991Y-106377674D01*
X183482190Y-106361172D01*
X183512058Y-106349055D01*
X183538034Y-106341277D01*
X183560560Y-106337795D01*
X183580076Y-106338563D01*
G37*
G36*
X183849570Y-106918930D02*
G01*
X183897003Y-106921412D01*
X183945053Y-106925110D01*
X183992769Y-106929888D01*
X184039202Y-106935613D01*
X184083403Y-106942150D01*
X184124421Y-106949364D01*
X184161308Y-106957122D01*
X184193113Y-106965289D01*
X184206870Y-106969502D01*
X184253225Y-106986593D01*
X184293393Y-107005514D01*
X184327453Y-107026336D01*
X184355485Y-107049131D01*
X184377571Y-107073970D01*
X184393790Y-107100922D01*
X184404225Y-107130061D01*
X184407427Y-107146347D01*
X184408616Y-107176810D01*
X184403646Y-107209113D01*
X184392553Y-107243104D01*
X184375379Y-107278633D01*
X184371547Y-107285347D01*
X184350652Y-107316561D01*
X184323823Y-107349002D01*
X184291440Y-107382307D01*
X184253881Y-107416112D01*
X184211527Y-107450054D01*
X184164757Y-107483770D01*
X184162919Y-107485027D01*
X184127843Y-107508235D01*
X184091112Y-107531026D01*
X184052216Y-107553656D01*
X184010646Y-107576382D01*
X183965891Y-107599459D01*
X183917440Y-107623144D01*
X183864783Y-107647693D01*
X183807411Y-107673362D01*
X183744812Y-107700407D01*
X183678388Y-107728292D01*
X183671972Y-107731244D01*
X183667132Y-107734710D01*
X183662933Y-107739961D01*
X183658441Y-107748265D01*
X183652719Y-107760892D01*
X183650347Y-107766352D01*
X183625404Y-107816394D01*
X183595043Y-107863644D01*
X183559091Y-107908296D01*
X183517379Y-107950543D01*
X183469737Y-107990581D01*
X183425922Y-108022036D01*
X183371845Y-108055161D01*
X183312180Y-108085840D01*
X183247436Y-108113913D01*
X183178124Y-108139217D01*
X183104753Y-108161592D01*
X183027832Y-108180877D01*
X182947871Y-108196909D01*
X182865379Y-108209528D01*
X182815111Y-108215370D01*
X182798380Y-108216738D01*
X182776350Y-108218014D01*
X182750231Y-108219174D01*
X182721236Y-108220190D01*
X182690575Y-108221037D01*
X182659460Y-108221686D01*
X182629102Y-108222113D01*
X182600712Y-108222291D01*
X182575501Y-108222192D01*
X182554682Y-108221791D01*
X182543270Y-108221311D01*
X182519959Y-108219655D01*
X182492029Y-108217161D01*
X182461287Y-108214032D01*
X182429542Y-108210472D01*
X182398603Y-108206683D01*
X182370276Y-108202869D01*
X182346372Y-108199232D01*
X182345736Y-108199127D01*
X182304145Y-108191381D01*
X182260824Y-108181765D01*
X182216949Y-108170632D01*
X182173695Y-108158333D01*
X182132239Y-108145223D01*
X182093758Y-108131652D01*
X182059428Y-108117974D01*
X182030853Y-108104758D01*
X182014354Y-108096397D01*
X181954883Y-108101306D01*
X181925511Y-108103341D01*
X181890984Y-108105083D01*
X181852652Y-108106513D01*
X181811867Y-108107609D01*
X181769978Y-108108353D01*
X181728336Y-108108723D01*
X181688292Y-108108699D01*
X181651196Y-108108261D01*
X181618399Y-108107389D01*
X181600781Y-108106619D01*
X181533713Y-108102187D01*
X181472328Y-108096153D01*
X181415973Y-108088404D01*
X181363995Y-108078826D01*
X181315737Y-108067308D01*
X181270547Y-108053736D01*
X181247847Y-108045757D01*
X181203749Y-108027319D01*
X181165832Y-108006896D01*
X181134071Y-107984467D01*
X181108440Y-107960015D01*
X181088912Y-107933519D01*
X181082791Y-107922317D01*
X181075937Y-107907692D01*
X181071673Y-107895902D01*
X181069237Y-107884197D01*
X181067865Y-107869830D01*
X181067757Y-107868142D01*
X181068093Y-107840601D01*
X181072938Y-107813992D01*
X181082703Y-107786341D01*
X181086389Y-107778110D01*
X181101697Y-107750464D01*
X181122607Y-107720804D01*
X181148674Y-107689525D01*
X181179450Y-107657021D01*
X181214488Y-107623687D01*
X181253343Y-107589919D01*
X181295567Y-107556109D01*
X181340715Y-107522654D01*
X181388339Y-107489948D01*
X181437992Y-107458386D01*
X181469043Y-107439889D01*
X181482827Y-107432118D01*
X181498656Y-107423571D01*
X181515431Y-107414796D01*
X181532054Y-107406344D01*
X181547428Y-107398763D01*
X181560456Y-107392602D01*
X181570038Y-107388412D01*
X181575079Y-107386742D01*
X181575241Y-107386733D01*
X181575737Y-107389603D01*
X181575086Y-107396916D01*
X181574273Y-107402197D01*
X181573288Y-107410458D01*
X181572213Y-107423845D01*
X181571136Y-107440977D01*
X181570145Y-107460471D01*
X181569419Y-107478331D01*
X181567253Y-107539000D01*
X181534369Y-107556190D01*
X181508836Y-107570088D01*
X181481085Y-107586139D01*
X181452717Y-107603349D01*
X181425331Y-107620726D01*
X181400526Y-107637277D01*
X181379900Y-107652008D01*
X181379097Y-107652612D01*
X181344504Y-107680488D01*
X181316171Y-107707268D01*
X181294108Y-107732911D01*
X181278323Y-107757380D01*
X181268827Y-107780634D01*
X181265627Y-107802637D01*
X181268733Y-107823348D01*
X181278154Y-107842729D01*
X181293898Y-107860741D01*
X181315976Y-107877345D01*
X181325302Y-107882873D01*
X181354450Y-107896914D01*
X181389103Y-107909481D01*
X181429397Y-107920601D01*
X181475465Y-107930301D01*
X181527442Y-107938607D01*
X181585463Y-107945545D01*
X181649661Y-107951142D01*
X181684284Y-107953456D01*
X181720935Y-107955164D01*
X181761866Y-107956168D01*
X181805909Y-107956501D01*
X181851898Y-107956194D01*
X181898666Y-107955279D01*
X181945045Y-107953788D01*
X181989869Y-107951753D01*
X182031970Y-107949207D01*
X182070182Y-107946179D01*
X182103337Y-107942704D01*
X182110279Y-107941824D01*
X182117567Y-107940871D01*
X182130052Y-107939248D01*
X182146474Y-107937116D01*
X182165574Y-107934641D01*
X182186092Y-107931985D01*
X182186785Y-107931895D01*
X182245288Y-107923885D01*
X182308167Y-107914471D01*
X182373983Y-107903908D01*
X182441298Y-107892452D01*
X182508675Y-107880358D01*
X182574675Y-107867880D01*
X182637861Y-107855274D01*
X182696795Y-107842796D01*
X182727210Y-107836003D01*
X182742165Y-107832629D01*
X182760798Y-107828481D01*
X182780424Y-107824155D01*
X182793950Y-107821201D01*
X182809516Y-107817694D01*
X182830289Y-107812829D01*
X182855171Y-107806877D01*
X182883066Y-107800111D01*
X182912876Y-107792802D01*
X182943504Y-107785223D01*
X182973854Y-107777645D01*
X183002828Y-107770342D01*
X183029329Y-107763584D01*
X183052260Y-107757644D01*
X183070524Y-107752794D01*
X183077185Y-107750968D01*
X183183564Y-107720352D01*
X183285059Y-107689098D01*
X183381540Y-107657265D01*
X183472876Y-107624913D01*
X183558937Y-107592100D01*
X183639592Y-107558888D01*
X183714710Y-107525333D01*
X183784162Y-107491498D01*
X183847818Y-107457439D01*
X183905545Y-107423218D01*
X183957215Y-107388894D01*
X184002697Y-107354525D01*
X184041860Y-107320171D01*
X184058051Y-107304043D01*
X184081212Y-107278015D01*
X184098710Y-107253883D01*
X184110881Y-107231008D01*
X184118062Y-107208751D01*
X184120586Y-107186474D01*
X184120597Y-107184864D01*
X184118960Y-107165446D01*
X184113413Y-107149339D01*
X184102998Y-107134053D01*
X184099580Y-107130132D01*
X184085651Y-107116887D01*
X184069174Y-107105631D01*
X184048834Y-107095605D01*
X184023321Y-107086054D01*
X184022927Y-107085922D01*
X184000885Y-107079146D01*
X183978129Y-107073438D01*
X183953651Y-107068643D01*
X183926440Y-107064605D01*
X183895489Y-107061170D01*
X183859788Y-107058181D01*
X183829574Y-107056156D01*
X183794113Y-107053975D01*
X183796204Y-107024519D01*
X183797082Y-107008515D01*
X183797778Y-106988905D01*
X183798205Y-106968594D01*
X183798295Y-106955995D01*
X183798295Y-106916926D01*
X183849570Y-106918930D01*
G37*
%TO.C,R13*%
D17*
X165320000Y-113533641D02*
X165320000Y-113226359D01*
X166080000Y-113533641D02*
X166080000Y-113226359D01*
%TO.C,C20*%
X186440000Y-128213748D02*
X186440000Y-129636252D01*
X189160000Y-128213748D02*
X189160000Y-129636252D01*
%TO.C,C11*%
X195792164Y-125040000D02*
X196007836Y-125040000D01*
X195792164Y-125760000D02*
X196007836Y-125760000D01*
%TO.C,C4*%
X187911252Y-124265000D02*
X187388748Y-124265000D01*
X187911252Y-125735000D02*
X187388748Y-125735000D01*
%TO.C,C9*%
X193727836Y-115040000D02*
X193512164Y-115040000D01*
X193727836Y-115760000D02*
X193512164Y-115760000D01*
%TO.C,U1*%
D19*
X189200000Y-116820800D02*
X189200000Y-117214700D01*
X189200000Y-121427000D02*
X189200000Y-121820800D01*
X189200000Y-121820800D02*
X189500000Y-121820800D01*
X189500000Y-116820800D02*
X189200000Y-116820800D01*
X195900000Y-121820700D02*
X196199900Y-121820700D01*
X196199900Y-116820800D02*
X195900000Y-116820800D01*
X196199900Y-117214600D02*
X196199900Y-116820800D01*
X196199900Y-121820700D02*
X196199900Y-121427000D01*
X190176700Y-122410600D02*
G75*
G02*
X189943500Y-122410600I-116600J0D01*
G01*
X189943500Y-122410600D02*
G75*
G02*
X190176700Y-122410600I116600J0D01*
G01*
%TO.C,R10*%
D17*
X190336359Y-123420000D02*
X190643641Y-123420000D01*
X190336359Y-124180000D02*
X190643641Y-124180000D01*
%TO.C,C3*%
X169390000Y-121463748D02*
X169390000Y-122886252D01*
X172110000Y-121463748D02*
X172110000Y-122886252D01*
%TO.C,C10*%
X195812164Y-122640000D02*
X196027836Y-122640000D01*
X195812164Y-123360000D02*
X196027836Y-123360000D01*
%TO.C,R7*%
X186643641Y-122420000D02*
X186336359Y-122420000D01*
X186643641Y-123180000D02*
X186336359Y-123180000D01*
%TO.C,D2*%
D20*
X167050000Y-112285000D02*
G75*
G02*
X166950000Y-112285000I-50000J0D01*
G01*
X166950000Y-112285000D02*
G75*
G02*
X167050000Y-112285000I50000J0D01*
G01*
%TO.C,CN1*%
D19*
X163449900Y-136384700D02*
X163449900Y-139280300D01*
X163449900Y-136384700D02*
X165019900Y-136384700D01*
X163449900Y-139280300D02*
X165019900Y-139280300D01*
X165019900Y-136749900D02*
X165019900Y-132753000D01*
X165019900Y-139280800D02*
X165050400Y-140949600D01*
X165020000Y-131657000D02*
X165019900Y-132753000D01*
X165050400Y-140949600D02*
X175179900Y-140891200D01*
X166290000Y-129752000D02*
X166290000Y-131657000D01*
X166290000Y-131657000D02*
X165020000Y-131657000D01*
X166671000Y-129117000D02*
X166671000Y-129752000D01*
X166671000Y-129752000D02*
X166290000Y-129752000D01*
X168576000Y-128990000D02*
X168576000Y-129752000D01*
X168576000Y-129752000D02*
X168957000Y-129752000D01*
X168957000Y-129752000D02*
X168957000Y-131784000D01*
X168957000Y-131784000D02*
X171370000Y-131784000D01*
X171370000Y-129752000D02*
X171624000Y-129752000D01*
X171370000Y-131784000D02*
X171370000Y-129752000D01*
X171624000Y-129752000D02*
X171624000Y-128990000D01*
X173529000Y-129117000D02*
X173529000Y-129752000D01*
X173529000Y-129752000D02*
X173910000Y-129752000D01*
X173910000Y-129752000D02*
X173910000Y-131784000D01*
X173910000Y-131784000D02*
X175180000Y-131784000D01*
X175179900Y-136359300D02*
X176749900Y-136359300D01*
X175179900Y-136749900D02*
X175179900Y-132753000D01*
X175179900Y-139350100D02*
X176749900Y-139350100D01*
X175179900Y-140891200D02*
X175179900Y-139349400D01*
X175180000Y-131784000D02*
X175179900Y-132753000D01*
X176749900Y-136359300D02*
X176749900Y-139350100D01*
%TO.C,C8*%
D17*
X177390000Y-128654437D02*
X177390000Y-134410000D01*
X177390000Y-134410000D02*
X179740000Y-134410000D01*
X178454437Y-127590000D02*
X177390000Y-128654437D01*
X178454437Y-127590000D02*
X179740000Y-127590000D01*
X182647500Y-126562500D02*
X182647500Y-127350000D01*
X183041250Y-126956250D02*
X182253750Y-126956250D01*
X183145563Y-127590000D02*
X181860000Y-127590000D01*
X183145563Y-127590000D02*
X184210000Y-128654437D01*
X184210000Y-128654437D02*
X184210000Y-134410000D01*
X184210000Y-134410000D02*
X181860000Y-134410000D01*
%TO.C,R9*%
X186643641Y-120020000D02*
X186336359Y-120020000D01*
X186643641Y-120780000D02*
X186336359Y-120780000D01*
%TO.C,R6*%
X196020000Y-114043641D02*
X196020000Y-113736359D01*
X196780000Y-114043641D02*
X196780000Y-113736359D01*
%TO.C,R5*%
X197020000Y-114063641D02*
X197020000Y-113756359D01*
X197780000Y-114063641D02*
X197780000Y-113756359D01*
%TO.C,R8*%
X186336359Y-121120000D02*
X186643641Y-121120000D01*
X186336359Y-121880000D02*
X186643641Y-121880000D01*
%TO.C,D1*%
D20*
X196055000Y-112420000D02*
G75*
G02*
X195955000Y-112420000I-50000J0D01*
G01*
X195955000Y-112420000D02*
G75*
G02*
X196055000Y-112420000I50000J0D01*
G01*
%TO.C,C12*%
D17*
X195812164Y-123840000D02*
X196027836Y-123840000D01*
X195812164Y-124560000D02*
X196027836Y-124560000D01*
%TO.C,C15*%
X183627836Y-122440000D02*
X183412164Y-122440000D01*
X183627836Y-123160000D02*
X183412164Y-123160000D01*
%TO.C,R4*%
X194020000Y-113736359D02*
X194020000Y-114043641D01*
X194780000Y-113736359D02*
X194780000Y-114043641D01*
%TO.C,L1*%
X170469500Y-112600000D02*
X177069500Y-112600000D01*
X170469500Y-114300000D02*
X170469500Y-112600000D01*
X170469500Y-119000000D02*
X170469500Y-117300000D01*
X177069500Y-112600000D02*
X177069500Y-114300000D01*
X177069500Y-117300000D02*
X177069500Y-119000000D01*
X177069500Y-119000000D02*
X170469500Y-119000000D01*
%TO.C,C6*%
X193490000Y-124515580D02*
X193490000Y-124234420D01*
X194510000Y-124515580D02*
X194510000Y-124234420D01*
%TO.C,SW1*%
X163450000Y-122885000D02*
X163450000Y-121502000D01*
X163450000Y-122885000D02*
X164833000Y-122885000D01*
X163690000Y-115825000D02*
X165000000Y-115825000D01*
X163690000Y-122645000D02*
X163690000Y-115825000D01*
X163690000Y-122645000D02*
X165000000Y-122645000D01*
X165165000Y-119838333D02*
X166435000Y-119838333D01*
X166600000Y-115825000D02*
X167910000Y-115825000D01*
X166600000Y-122645000D02*
X167910000Y-122645000D01*
X167910000Y-122645000D02*
X167910000Y-115825000D01*
X165165000Y-117425000D02*
X166435000Y-117425000D01*
X166435000Y-121045000D01*
X165165000Y-121045000D01*
X165165000Y-117425000D01*
X165165000Y-119838333D02*
X166435000Y-119838333D01*
X166435000Y-121045000D01*
X165165000Y-121045000D01*
X165165000Y-119838333D01*
G36*
X165165000Y-119838333D02*
G01*
X166435000Y-119838333D01*
X166435000Y-121045000D01*
X165165000Y-121045000D01*
X165165000Y-119838333D01*
G37*
%TO.C,R12*%
X164120000Y-113246359D02*
X164120000Y-113553641D01*
X164880000Y-113246359D02*
X164880000Y-113553641D01*
%TO.C,R1*%
X172670000Y-120736359D02*
X172670000Y-121043641D01*
X173430000Y-120736359D02*
X173430000Y-121043641D01*
%TO.C,U3*%
D21*
X202350000Y-121900000D02*
X203000000Y-121900000D01*
X202350200Y-114900000D02*
X203000100Y-114900000D01*
X202350200Y-118400000D02*
X203000200Y-118400000D01*
X203000000Y-121442500D02*
X205000000Y-121442500D01*
X203000000Y-121900000D02*
X203000000Y-121875200D01*
X203000000Y-123493300D02*
X202350000Y-123493300D01*
X203000000Y-123900000D02*
X203000000Y-121442500D01*
X203000100Y-114442500D02*
X205000100Y-114442500D01*
X203000100Y-114900000D02*
X203000100Y-114875200D01*
X203000100Y-116493200D02*
X202350200Y-116493200D01*
X203000100Y-116900000D02*
X203000100Y-114442500D01*
X203000200Y-117942500D02*
X205000100Y-117942500D01*
X203000200Y-118400000D02*
X203000200Y-118375200D01*
X203000200Y-119993300D02*
X202350200Y-119993300D01*
X203000200Y-120400000D02*
X203000200Y-117942500D01*
X205000000Y-123900000D02*
X203000000Y-123900000D01*
D19*
X205000000Y-123900000D02*
X205000000Y-114442500D01*
X205000000Y-123900000D02*
X205000000Y-124915000D01*
X205000000Y-124915000D02*
X209763000Y-124915000D01*
X205000100Y-113358000D02*
X209763000Y-113358000D01*
X205000100Y-114442500D02*
X205000100Y-113358000D01*
D21*
X205000100Y-116900000D02*
X203000100Y-116900000D01*
X205000100Y-120400000D02*
X203000200Y-120400000D01*
D19*
X209763000Y-111550000D02*
X209763000Y-126820000D01*
X212350000Y-111550000D02*
X209763000Y-111550000D01*
X212350000Y-126850000D02*
X209763000Y-126850000D01*
X212350000Y-126850000D02*
X212350000Y-111550000D01*
X214050000Y-113450000D02*
X212350000Y-113450000D01*
X214050000Y-124950000D02*
X212350000Y-124950000D01*
X214050000Y-124950000D02*
X214050000Y-113450000D01*
%TO.C,C19*%
D17*
X189990000Y-128313748D02*
X189990000Y-129736252D01*
X192710000Y-128313748D02*
X192710000Y-129736252D01*
%TO.C,J5*%
X193800000Y-105120000D02*
X193800000Y-107880000D01*
X201530000Y-105120000D02*
X193800000Y-105120000D01*
X201530000Y-105120000D02*
X201530000Y-107880000D01*
X201530000Y-107880000D02*
X193800000Y-107880000D01*
X202800000Y-105120000D02*
X204180000Y-105120000D01*
X204180000Y-105120000D02*
X204180000Y-106500000D01*
%TO.C,C16*%
X183627836Y-121140000D02*
X183412164Y-121140000D01*
X183627836Y-121860000D02*
X183412164Y-121860000D01*
%TO.C,R3*%
X195020000Y-113736359D02*
X195020000Y-114043641D01*
X195780000Y-113736359D02*
X195780000Y-114043641D01*
%TO.C,J1*%
X185040000Y-132620000D02*
X185040000Y-137920000D01*
X190230000Y-132620000D02*
X185040000Y-132620000D01*
X190230000Y-132620000D02*
X190230000Y-135270000D01*
X190230000Y-135270000D02*
X192880000Y-135270000D01*
X191500000Y-132620000D02*
X192880000Y-132620000D01*
X192880000Y-132620000D02*
X192880000Y-134000000D01*
X192880000Y-135270000D02*
X192880000Y-137920000D01*
X192880000Y-137920000D02*
X185040000Y-137920000D01*
%TO.C,R2*%
X172670000Y-123556359D02*
X172670000Y-123863641D01*
X173430000Y-123556359D02*
X173430000Y-123863641D01*
%TO.C,C2*%
X178789500Y-122013748D02*
X178789500Y-123436252D01*
X180609500Y-122013748D02*
X180609500Y-123436252D01*
%TO.C,J4*%
X195280000Y-132645000D02*
X195280000Y-137945000D01*
X200470000Y-132645000D02*
X195280000Y-132645000D01*
X200470000Y-132645000D02*
X200470000Y-135295000D01*
X200470000Y-135295000D02*
X203120000Y-135295000D01*
X201740000Y-132645000D02*
X203120000Y-132645000D01*
X203120000Y-132645000D02*
X203120000Y-134025000D01*
X203120000Y-135295000D02*
X203120000Y-137945000D01*
X203120000Y-137945000D02*
X195280000Y-137945000D01*
%TO.C,C5*%
X191765580Y-124690000D02*
X191484420Y-124690000D01*
X191765580Y-125710000D02*
X191484420Y-125710000D01*
%TO.C,C1*%
X175981664Y-119540000D02*
X176197336Y-119540000D01*
X175981664Y-120260000D02*
X176197336Y-120260000D01*
%TO.C,C18*%
X193540000Y-128313748D02*
X193540000Y-129736252D01*
X196260000Y-128313748D02*
X196260000Y-129736252D01*
%TO.C,U4*%
X175227500Y-120664000D02*
X177047500Y-120664000D01*
X175227500Y-120714000D02*
X175227500Y-120664000D01*
X175227500Y-123784000D02*
X175227500Y-123734000D01*
X177047500Y-120664000D02*
X177047500Y-120714000D01*
X177047500Y-123734000D02*
X177047500Y-123784000D01*
X177047500Y-123784000D02*
X175227500Y-123784000D01*
X174687500Y-120714000D02*
X174447500Y-120384000D01*
X174927500Y-120384000D01*
X174687500Y-120714000D01*
G36*
X174687500Y-120714000D02*
G01*
X174447500Y-120384000D01*
X174927500Y-120384000D01*
X174687500Y-120714000D01*
G37*
%TO.C,C17*%
X183627836Y-119940000D02*
X183412164Y-119940000D01*
X183627836Y-120660000D02*
X183412164Y-120660000D01*
%TO.C,J2*%
X156580000Y-111645000D02*
X157960000Y-111645000D01*
X156580000Y-113025000D02*
X156580000Y-111645000D01*
X156580000Y-114295000D02*
X156580000Y-137265000D01*
X156580000Y-114295000D02*
X159230000Y-114295000D01*
X156580000Y-137265000D02*
X161880000Y-137265000D01*
X159230000Y-111645000D02*
X161880000Y-111645000D01*
X159230000Y-114295000D02*
X159230000Y-111645000D01*
X161880000Y-111645000D02*
X161880000Y-137265000D01*
%TD*%
M02*
